<svg xmlns="http://www.w3.org/2000/svg" viewBox="0 0 170 119"><defs><style>.cls-1{fill:#55575a;}</style></defs><title>Air Conditioning</title><g id="Layer_2" data-name="Layer 2"><g id="Homes"><g id="Air_Conditioning" data-name="Air Conditioning"><path class="cls-1" d="M161.5,73.67H8.5A8.35,8.35,0,0,1,0,65.17V8.5A8.35,8.35,0,0,1,8.5,0h153A8.35,8.35,0,0,1,170,8.5V65.17A8.35,8.35,0,0,1,161.5,73.67Zm-153-68A2.84,2.84,0,0,0,5.67,8.5V65.17A2.68,2.68,0,0,0,8.5,68h153a2.68,2.68,0,0,0,2.83-2.83V8.5a2.68,2.68,0,0,0-2.83-2.83Z"/><path class="cls-1" d="M96.33,25.5H73.67a2.68,2.68,0,0,1-2.83-2.83,2.68,2.68,0,0,1,2.83-2.83H96.33a2.68,2.68,0,0,1,2.83,2.83A2.68,2.68,0,0,1,96.33,25.5Z"/><path class="cls-1" d="M155.83,62.33H14.17a2.83,2.83,0,1,1,0-5.67H155.83a2.83,2.83,0,1,1,0,5.67Z"/><path class="cls-1" d="M155.83,51H14.17a2.83,2.83,0,1,1,0-5.67H155.83a2.83,2.83,0,1,1,0,5.67Z"/><path class="cls-1" d="M85,113.33a3,3,0,0,1-2.55-1.42,2.5,2.5,0,0,1,1.13-3.68c2.55-1.42,4.25-3.12,4.25-4.53s-1.42-3.12-4.25-4.53C79,96.33,76.5,92.93,76.5,89.25s2.55-7.08,7.08-9.63a2.5,2.5,0,0,1,3.68,1.13c.57,1.42.28,3.12-1.13,3.68-2.27,1.7-4,3.4-4,4.82s1.42,3.12,4.25,4.53C91,96,93.5,99.73,93.5,103.42s-2.55,7.08-7.08,9.63A2.55,2.55,0,0,1,85,113.33Z"/><path class="cls-1" d="M53.83,119a3,3,0,0,1-2.55-1.42,2.5,2.5,0,0,1,1.13-3.68c2.55-1.42,4.25-3.12,4.25-4.53s-1.42-3.12-4.25-4.53c-4.53-2.83-7.08-6.23-7.08-9.92s2.55-7.08,7.08-9.63A2.73,2.73,0,0,1,55,90.1c-2.27,1.7-4,3.4-4,4.82s1.42,3.12,4.25,4.53c4.53,2.27,7.08,5.95,7.08,9.63s-2.55,7.08-7.08,9.63A2.55,2.55,0,0,1,53.83,119Z"/><path class="cls-1" d="M116.17,119a3,3,0,0,1-2.55-1.42,2.5,2.5,0,0,1,1.13-3.68c2.55-1.42,4.25-3.12,4.25-4.53s-1.42-3.12-4.25-4.53c-4.53-2.83-7.08-6.23-7.08-9.92s2.55-7.08,7.08-9.63a2.5,2.5,0,0,1,3.68,1.13c.57,1.42.28,3.12-1.13,3.68-2.27,1.7-4,3.4-4,4.82s1.42,3.12,4.25,4.53c4.53,2.27,7.08,5.95,7.08,9.63s-2.55,7.08-7.08,9.63A2.55,2.55,0,0,1,116.17,119Z"/></g></g></g></svg>