<svg xmlns="http://www.w3.org/2000/svg" viewBox="0 0 170 109.8"><defs><style>.cls-1{fill:#55575a;}</style></defs><title>Bicycle</title><g id="Layer_2" data-name="Layer 2"><g id="Hotels"><path id="Bicycle" class="cls-1" d="M138.11,46a31.75,31.75,0,0,0-9.21,1.37L111.61,7.08h12.34a3.54,3.54,0,1,0,0-7.08H106.24A3.54,3.54,0,0,0,103,4.94l7.3,17L66.07,34.61,59,21.25h8.29a3.54,3.54,0,1,0,0-7.08H42.48a3.54,3.54,0,1,0,0,7.08H51l8.9,16.82L49.16,51.18A31.86,31.86,0,1,0,63.53,81.46H85a3.6,3.6,0,0,0,.71-.07,3.44,3.44,0,0,0,.61-.18,3.54,3.54,0,0,0,1.77-1.53h0l.06-.11,26-48.7,8.29,19.36A31.83,31.83,0,1,0,138.11,46Zm-88,15.16a24.68,24.68,0,0,1,6.25,13.18h-17ZM31.86,102.71a24.79,24.79,0,1,1,12.78-46l-15.52,19a3.54,3.54,0,0,0,2.74,5.78H56.37A24.81,24.81,0,0,1,31.86,102.71ZM63.53,74.38a31.77,31.77,0,0,0-8.89-18.71l8.85-10.8L79.12,74.38Zm21.46-4L69.44,41l36.82-10.52Zm53.13,32.34a24.77,24.77,0,0,1-12.91-45.92l9.65,22.52a3.54,3.54,0,0,0,6.51-2.79L131.71,54a24.79,24.79,0,1,1,6.4,48.7Z"/></g></g></svg>