<svg xmlns="http://www.w3.org/2000/svg" viewBox="0 0 155.84 170"><defs><style>.cls-1{fill:#55575a;}</style></defs><title>Heating</title><g id="Layer_2" data-name="Layer 2"><g id="Homes"><g id="Heating"><path class="cls-1" d="M50,49.58A3.54,3.54,0,0,1,47,44.08c4.73-7.1,2.61-11.38-.31-17.3-3.13-6.33-7-14.2.31-25.2A3.54,3.54,0,1,1,52.93,5.5c-5.06,7.6-2.77,12.25.14,18.13,3.06,6.18,6.86,13.87-.15,24.37A3.52,3.52,0,0,1,50,49.58Z"/><path class="cls-1" d="M78.2,49.58a3.5,3.5,0,0,1-2-.6,3.54,3.54,0,0,1-1-4.91C80,37,77.87,32.7,74.94,26.78c-3.12-6.33-7-14.2.31-25.2A3.54,3.54,0,1,1,81.15,5.5c-5.06,7.6-2.77,12.25.15,18.13,3.06,6.18,6.86,13.87-.15,24.37A3.54,3.54,0,0,1,78.2,49.58Z"/><path class="cls-1" d="M106.42,49.58a3.5,3.5,0,0,1-2-.6,3.54,3.54,0,0,1-1-4.91c4.73-7.1,2.61-11.38-.31-17.3-3.12-6.33-7-14.2.31-25.2a3.54,3.54,0,0,1,5.89,3.92c-5.06,7.6-2.77,12.25.15,18.13,3.06,6.18,6.86,13.87-.15,24.37A3.52,3.52,0,0,1,106.42,49.58Z"/><path class="cls-1" d="M138.13,155.83H17.71A17.73,17.73,0,0,1,0,138.12V74.37A17.73,17.73,0,0,1,17.71,56.66H138.13a17.73,17.73,0,0,1,17.71,17.71v63.75A17.73,17.73,0,0,1,138.13,155.83ZM17.71,63.75A10.64,10.64,0,0,0,7.08,74.37v63.75a10.64,10.64,0,0,0,10.63,10.63H138.13a10.64,10.64,0,0,0,10.63-10.63V74.37a10.64,10.64,0,0,0-10.63-10.63Z"/><path class="cls-1" d="M24.79,141.67a3.54,3.54,0,0,1-3.54-3.54V74.37a3.54,3.54,0,0,1,7.08,0v63.75A3.54,3.54,0,0,1,24.79,141.67Z"/><path class="cls-1" d="M46,141.67a3.54,3.54,0,0,1-3.54-3.54V74.37a3.54,3.54,0,0,1,7.08,0v63.75A3.54,3.54,0,0,1,46,141.67Z"/><path class="cls-1" d="M67.29,141.67a3.54,3.54,0,0,1-3.54-3.54V74.37a3.54,3.54,0,0,1,7.08,0v63.75A3.54,3.54,0,0,1,67.29,141.67Z"/><path class="cls-1" d="M88.54,141.67A3.54,3.54,0,0,1,85,138.12V74.37a3.54,3.54,0,0,1,7.08,0v63.75A3.54,3.54,0,0,1,88.54,141.67Z"/><path class="cls-1" d="M109.79,141.67a3.54,3.54,0,0,1-3.54-3.54V74.37a3.54,3.54,0,0,1,7.08,0v63.75A3.54,3.54,0,0,1,109.79,141.67Z"/><path class="cls-1" d="M131,141.67a3.54,3.54,0,0,1-3.54-3.54V74.37a3.54,3.54,0,0,1,7.08,0v63.75A3.54,3.54,0,0,1,131,141.67Z"/><path class="cls-1" d="M31.88,170a3.54,3.54,0,0,1-3.54-3.54V152.29a3.54,3.54,0,1,1,7.08,0v14.17A3.54,3.54,0,0,1,31.88,170Z"/><path class="cls-1" d="M124,170a3.54,3.54,0,0,1-3.54-3.54V152.29a3.54,3.54,0,1,1,7.08,0v14.17A3.54,3.54,0,0,1,124,170Z"/></g></g></g></svg>