<svg xmlns="http://www.w3.org/2000/svg" viewBox="0 0 170 170"><defs><style>.cls-1{fill:#55575a;}</style></defs><title>Kitchen</title><g id="Layer_2" data-name="Layer 2"><g id="Homes"><g id="Kitchen"><path class="cls-1" d="M146.75,84a3.33,3.33,0,0,0-3.46,3.21q0,.71-.07,1.42a3.33,3.33,0,0,0,3.12,3.53h.21A3.33,3.33,0,0,0,149.88,89q0-.79.08-1.59A3.33,3.33,0,0,0,146.75,84Z"/><path class="cls-1" d="M164.91,55.9A3.33,3.33,0,0,0,163,51.22,85,85,0,1,0,7.28,119.49a10,10,0,0,0,7.44,16.68,10.06,10.06,0,0,0,2.21-.25A85.84,85.84,0,0,0,38.23,156a10,10,0,0,0,16.55,10.25L56.07,165A85.1,85.1,0,0,0,164.91,55.9ZM85,6.67A78.25,78.25,0,0,1,99.81,8.08L88.15,19.74c-1.3.11-2.51.26-3.15.26a65,65,0,0,0-62.18,83.93L12.39,114.36A78.31,78.31,0,0,1,85,6.67ZM73.25,44.88l.09,1.47A14.76,14.76,0,0,1,69.05,57.7L28.25,98.5A58.34,58.34,0,0,1,81.09,26.8l-1.6,1.6A21.43,21.43,0,0,0,73.25,44.88Zm-60.9,83.66a3.33,3.33,0,0,1,0-4.71L73.77,62.41A21.43,21.43,0,0,0,80,45.94l-.09-1.47A14.76,14.76,0,0,1,84.2,33.12L107.33,10a3.35,3.35,0,0,0,.27-.31l.63.5q3.13,1,6.14,2.2L90.69,36.06a3.33,3.33,0,1,0,4.71,4.71l24.83-24.83a3.33,3.33,0,0,0,.5-.64q3.13,1.61,6.08,3.49l-1.87,1.87h0L100.12,45.49a3.33,3.33,0,1,0,4.71,4.71l27.54-27.54a78.81,78.81,0,0,1,23.86,29.76l-9.54,2.51a95.16,95.16,0,0,0-43,24.71L90.06,93.26a12.94,12.94,0,0,0-3.76,10.11,6.27,6.27,0,0,1-1.82,4.9L56.74,136A58.76,58.76,0,0,1,37,118.06L83.19,71.84a14.78,14.78,0,0,1,11.35-4.29l1.47.09a21.42,21.42,0,0,0,16.47-6.23l26.6-26.6a3.33,3.33,0,1,0-4.71-4.71l-26.6,26.6A14.77,14.77,0,0,1,96.43,61L95,60.89a21.42,21.42,0,0,0-16.47,6.23L17.07,128.53A3.34,3.34,0,0,1,12.36,128.53Zm10.31,3.84,9.53-9.53a65.5,65.5,0,0,0,19.67,18l-9.67,9.67A79,79,0,0,1,22.66,132.37Zm22.69,29.16a3.34,3.34,0,0,1,0-4.71L89.19,113a12.94,12.94,0,0,0,3.76-10.11A6.27,6.27,0,0,1,94.77,98l13.62-13.62a88.48,88.48,0,0,1,40-23l2.49-.66L50.07,161.53A3.34,3.34,0,0,1,45.36,161.53ZM85,163.33a78,78,0,0,1-23.65-3.65l10.93-10.93a65.06,65.06,0,0,0,71.64-36.3,3.33,3.33,0,0,0-6-2.82,58.31,58.31,0,0,1-59.77,33.3l81.57-81.57A78.34,78.34,0,0,1,85,163.33Z"/></g></g></g></svg>