<svg xmlns="http://www.w3.org/2000/svg" viewBox="0 0 119 170"><defs><style>.cls-1{fill:#55575a;}</style></defs><title>MiniBar</title><g id="Layer_2" data-name="Layer 2"><g id="Hotels"><g id="Mini-bar"><path class="cls-1" d="M116.17,170H2.83A2.83,2.83,0,0,1,0,167.17v-136A19.86,19.86,0,0,1,19.83,11.33H99.17A19.86,19.86,0,0,1,119,31.17v136A2.83,2.83,0,0,1,116.17,170ZM5.67,164.33H113.33V31.17A14.18,14.18,0,0,0,99.17,17H19.83A14.18,14.18,0,0,0,5.67,31.17Z"/><path class="cls-1" d="M102,158.67H17A5.67,5.67,0,0,1,11.33,153V34A11.34,11.34,0,0,1,22.67,22.67H96.33A11.34,11.34,0,0,1,107.67,34V153A5.67,5.67,0,0,1,102,158.67ZM22.67,28.33A5.67,5.67,0,0,0,17,34V153h85V34a5.67,5.67,0,0,0-5.67-5.67Z"/><path class="cls-1" d="M104.83,102H14.17a2.83,2.83,0,1,1,0-5.67h90.67a2.83,2.83,0,1,1,0,5.67Z"/><path class="cls-1" d="M51,158.67H31.17a2.84,2.84,0,0,1-2.54-1.57L26.09,152a5.74,5.74,0,0,1-.59-2.53V125.92A8.44,8.44,0,0,1,27.08,121l4.61-6.45A2.83,2.83,0,0,1,34,113.33H48.17a2.83,2.83,0,0,1,2.3,1.19L55.08,121a8.43,8.43,0,0,1,1.59,4.94V149.5a5.71,5.71,0,0,1-.6,2.54l-2.54,5.07A2.83,2.83,0,0,1,51,158.67ZM32.92,153H49.25L51,149.5V125.92a2.86,2.86,0,0,0-.53-1.65L46.71,119H35.46l-3.76,5.27a2.86,2.86,0,0,0-.53,1.65V149.5Z"/><path class="cls-1" d="M53.83,119H28.33a2.83,2.83,0,0,1,0-5.67h25.5a2.83,2.83,0,0,1,0,5.67Z"/><path class="cls-1" d="M87.83,158.67H68a2.84,2.84,0,0,1-2.54-1.57L62.93,152a5.74,5.74,0,0,1-.59-2.53V120.25a8.44,8.44,0,0,1,1.58-4.94l4.61-6.45a2.83,2.83,0,0,1,2.3-1.19H85a2.83,2.83,0,0,1,2.3,1.19l4.61,6.45a8.44,8.44,0,0,1,1.58,4.94V149.5a5.71,5.71,0,0,1-.6,2.54l-2.54,5.07A2.83,2.83,0,0,1,87.83,158.67ZM69.75,153H86.08l1.75-3.5V120.25a2.81,2.81,0,0,0-.53-1.65l-3.77-5.27H72.29l-3.77,5.27a2.83,2.83,0,0,0-.52,1.65V149.5Z"/><path class="cls-1" d="M90.67,113.33H65.17a2.83,2.83,0,1,1,0-5.67h25.5a2.83,2.83,0,1,1,0,5.67Z"/><path class="cls-1" d="M87.83,102H68a2.84,2.84,0,0,1-2.54-1.57l-2.54-5.07a5.74,5.74,0,0,1-.59-2.53V69.25a8.47,8.47,0,0,1,1.58-4.94l4.62-6.46a2.83,2.83,0,0,1,2.3-1.18H85a2.83,2.83,0,0,1,2.3,1.18l4.61,6.45a8.46,8.46,0,0,1,1.58,4.94V92.83a5.71,5.71,0,0,1-.6,2.54l-2.54,5.07A2.83,2.83,0,0,1,87.83,102ZM69.75,96.33H86.08l1.75-3.5V69.25a2.8,2.8,0,0,0-.53-1.65l-3.76-5.27H72.29L68.52,67.6A2.82,2.82,0,0,0,68,69.25V92.83Z"/><path class="cls-1" d="M90.67,62.33H65.17a2.83,2.83,0,1,1,0-5.67h25.5a2.83,2.83,0,0,1,0,5.67Z"/><path class="cls-1" d="M48.29,102h-.2a2.83,2.83,0,0,1-2.62-3l2.69-37.67a2.82,2.82,0,0,0-.46-1.86L44,54a8.4,8.4,0,0,1-1.46-4.74V39.67H36.83l0,9.62A8.39,8.39,0,0,1,35.34,54l-3.7,5.42a2.76,2.76,0,0,0-.46,1.8L33.88,99a2.83,2.83,0,0,1-5.65.4L25.53,61.69A8.43,8.43,0,0,1,27,56.24l3.7-5.42a2.76,2.76,0,0,0,.47-1.54V39.67a5.66,5.66,0,0,1,1.69-4,5.73,5.73,0,0,1,4-1.64H42.5a5.69,5.69,0,0,1,5.71,5.65v9.64a2.76,2.76,0,0,0,.48,1.55l3.69,5.4a8.48,8.48,0,0,1,1.43,5.51L51.11,99.37A2.84,2.84,0,0,1,48.29,102Z"/><path class="cls-1" d="M50.63,68H28.7a2.83,2.83,0,0,1,0-5.67H50.63a2.83,2.83,0,1,1,0,5.67Z"/><path class="cls-1" d="M49.58,79.33H29.75a2.83,2.83,0,1,1,0-5.67H49.58a2.83,2.83,0,1,1,0,5.67Z"/><path class="cls-1" d="M110.5,21.34a2.82,2.82,0,0,1-1.75-.61L90.45,6.28a2.84,2.84,0,0,0-1.75-.61H30.3a2.86,2.86,0,0,0-1.76.61L10.26,20.73a2.83,2.83,0,1,1-3.51-4.45L25,1.83A8.53,8.53,0,0,1,30.3,0H88.7A8.51,8.51,0,0,1,94,1.83l18.29,14.45a2.83,2.83,0,0,1-1.76,5.06Z"/></g></g></g></svg>