<svg xmlns="http://www.w3.org/2000/svg" viewBox="0 0 170 170"><defs><style>.cls-1{fill:#55575a;}</style></defs><title>Parking</title><g id="Layer_2" data-name="Layer 2"><g id="Homes"><g id="Parking"><path class="cls-1" d="M85,170a85,85,0,1,1,85-85A85.25,85.25,0,0,1,85,170ZM85,7.73A77.27,77.27,0,1,0,162.27,85,77.5,77.5,0,0,0,85,7.73Z"/><path class="cls-1" d="M69.55,135.23a3.65,3.65,0,0,1-3.86-3.86v-85a3.86,3.86,0,0,1,7.73,0v85A3.65,3.65,0,0,1,69.55,135.23Z"/><path class="cls-1" d="M92.73,96.59H69.55a3.65,3.65,0,0,1-3.86-3.86V46.36a3.65,3.65,0,0,1,3.86-3.86H92.73a27,27,0,1,1,0,54.09ZM73.41,88.86H92.73a19.32,19.32,0,0,0,0-38.64H73.41Z"/></g></g></g></svg>