<svg xmlns="http://www.w3.org/2000/svg" xmlns:xlink="http://www.w3.org/1999/xlink" viewBox="0 0 167.64 115.29"><defs><style>.cls-1{fill:none;}.cls-2{clip-path:url(#clip-path);}.cls-3{fill:#55575a;}</style><clipPath id="clip-path" transform="translate(0)"><rect class="cls-1" y="0.63" width="170" height="114.68"/></clipPath></defs><title>Pets</title><g id="Layer_2" data-name="Layer 2"><g id="Hotels"><g id="Pets"><g class="cls-2"><path class="cls-3" d="M167.56,28.61a12.55,12.55,0,0,0-6.05-9.85,11.77,11.77,0,0,0-5.92-1.57,13.7,13.7,0,0,0-2.47.26C154,9.4,150,2.25,143.19.41A13.09,13.09,0,0,0,140,0c-4.8,0-9.29,2.81-12.27,7.23-3-4.42-7.47-7.23-12.27-7.23a13.12,13.12,0,0,0-3.17.41c-6.82,1.84-10.79,9-9.93,17a13.77,13.77,0,0,0-2.47-.26A12,12,0,0,0,94,18.77a12.54,12.54,0,0,0-6,9.85,17.94,17.94,0,0,0,2.44,10.72,17.17,17.17,0,0,0,10.53,8.3,28.9,28.9,0,0,0-1.74,9.7c0,4.14.71,7.12,2.21,9.44a10,10,0,0,0,8.69,4.57,28.24,28.24,0,0,0,8.3-1.76c3.06-1,6.22-2,9.37-2s6.3,1,9.35,2a28.17,28.17,0,0,0,8.3,1.76c3.28,0,10.9-1.35,10.9-14a29.3,29.3,0,0,0-1.72-9.7,17.19,17.19,0,0,0,10.51-8.3,17.85,17.85,0,0,0,2.47-10.72ZM131.31,15.06c1.52-5.66,6.09-9.37,10.19-8.28s6.18,6.58,4.65,12.27-6.07,9.37-10.16,8.28-6.2-6.58-4.68-12.27ZM114,6.78c4.1-1.09,8.66,2.62,10.16,8.28s-.55,11.17-4.65,12.27-8.67-2.61-10.19-8.28S109.93,7.87,114,6.78ZM96.11,36c-2.62-4.5-2.08-9.68,1.18-11.56s8,.26,10.59,4.76,2.08,9.68-1.18,11.56-8-.26-10.6-4.76Zm31.64,25c-12.12,0-22,10.49-22-3.69s14.09-25.63,22-25.63,22,11.48,22,25.63-9.82,3.69-22,3.69Zm31.66-25c-2.59,4.5-7.36,6.65-10.61,4.76s-3.78-7.06-1.18-11.56,7.36-6.65,10.61-4.76S162,31.53,159.41,36Zm0,0" transform="translate(0)"/><path class="cls-3" d="M73.66,62.7a11.71,11.71,0,0,0-5.92-1.57,13.93,13.93,0,0,0-2.47.26c.86-8.06-3.11-15.2-9.93-17a13.1,13.1,0,0,0-3.17-.41c-4.8,0-9.29,2.81-12.27,7.23-3-4.42-7.47-7.23-12.27-7.23a13.13,13.13,0,0,0-3.17.41c-6.82,1.84-10.79,9-9.93,17a13.78,13.78,0,0,0-2.47-.26A12,12,0,0,0,6.13,62.7a12.54,12.54,0,0,0-6,9.85A17.94,17.94,0,0,0,2.53,83.26a17.17,17.17,0,0,0,10.53,8.3,29.47,29.47,0,0,0-1.72,9.72c0,4.12.71,7.1,2.19,9.42a10,10,0,0,0,8.71,4.59,27.72,27.72,0,0,0,8.3-1.78c3-1,6.22-2,9.36-2s6.3,1,9.37,2a27.58,27.58,0,0,0,8.3,1.78c3.28,0,10.9-1.37,10.9-14a28.79,28.79,0,0,0-1.74-9.72,17.09,17.09,0,0,0,10.53-8.3,18,18,0,0,0,2.45-10.72,12.55,12.55,0,0,0-6.05-9.85ZM43.46,59c1.52-5.66,6.09-9.37,10.19-8.28S59.82,57.29,58.3,63s-6.07,9.37-10.16,8.28S41.93,64.67,43.46,59ZM26.17,50.7c4.1-1.09,8.66,2.62,10.16,8.28s-.55,11.17-4.65,12.27S23,68.64,21.49,63s.58-11.17,4.68-12.27ZM8.26,80c-2.62-4.5-2.08-9.68,1.18-11.56s8,.26,10.59,4.76,2.08,9.68-1.18,11.56-8-.26-10.6-4.76Zm31.64,25c-12.12,0-22,10.49-22-3.69S32,75.63,39.9,75.63s22,11.48,22,25.63-9.82,3.69-22,3.69ZM71.55,80c-2.59,4.5-7.36,6.65-10.61,4.76s-3.78-7.06-1.18-11.56,7.36-6.65,10.61-4.76S74.15,75.46,71.55,80Zm0,0" transform="translate(0)"/></g></g></g></g></svg>