<svg xmlns="http://www.w3.org/2000/svg" viewBox="0 0 170 159.35"><defs><style>.cls-1{fill:#55575a;}</style></defs><title>Playground</title><g id="Layer_2" data-name="Layer 2"><g id="Hotels"><g id="Playground"><path class="cls-1" d="M159.52,159.35a2.5,2.5,0,0,1-2.48-2.24L141.54,7.56A2.82,2.82,0,0,0,138.72,5H31.28a2.82,2.82,0,0,0-2.82,2.56L13,157.12a2.5,2.5,0,0,1-5-.51L23.5,7a7.79,7.79,0,0,1,7.78-7H138.72a7.79,7.79,0,0,1,7.78,7.06L162,156.6a2.49,2.49,0,0,1-2.22,2.74Zm0,0"/><path class="cls-1" d="M18.46,159.35H2.5a2.5,2.5,0,0,1,0-5h16a2.5,2.5,0,0,1,0,5Zm0,0"/><path class="cls-1" d="M167.5,159.35h-16a2.5,2.5,0,0,1,0-5h16a2.5,2.5,0,0,1,0,5Zm0,0"/><path class="cls-1" d="M143.55,21H26.45a2.5,2.5,0,0,1,0-5h117.1a2.5,2.5,0,0,1,0,5Zm0,0"/><path class="cls-1" d="M103.63,95.48a2.49,2.49,0,0,1-2.5-2.5V13.14a2.5,2.5,0,1,1,5,0V93a2.49,2.49,0,0,1-2.5,2.5Zm0,0"/><path class="cls-1" d="M124.92,95.48a2.49,2.49,0,0,1-2.5-2.5V13.14a2.5,2.5,0,0,1,5,0V93a2.49,2.49,0,0,1-2.5,2.5Zm0,0"/><path class="cls-1" d="M130.24,132.74H98.31a7.82,7.82,0,0,1,0-15.64h31.94a7.82,7.82,0,1,1,0,15.64ZM98.31,122.09a2.83,2.83,0,0,0,0,5.66h31.94a2.83,2.83,0,1,0,0-5.66Zm0,0"/><path class="cls-1" d="M130.24,122.09a2.49,2.49,0,0,1-2.5-2.5V98.31a2.83,2.83,0,0,0-2.83-2.83H103.63a2.83,2.83,0,0,0-2.83,2.83V119.6a2.5,2.5,0,1,1-5,0V98.31a7.83,7.83,0,0,1,7.82-7.82h21.29a7.83,7.83,0,0,1,7.82,7.82V119.6a2.49,2.49,0,0,1-2.5,2.5Zm0,0"/><path class="cls-1" d="M98.31,114.11H93a2.5,2.5,0,0,1,0-5h5.32a2.5,2.5,0,0,1,0,5Zm0,0"/><path class="cls-1" d="M135.57,114.11h-5.32a2.5,2.5,0,0,1,0-5h5.32a2.5,2.5,0,0,1,0,5Zm0,0"/><path class="cls-1" d="M45.08,95.48a2.49,2.49,0,0,1-2.5-2.5V13.14a2.5,2.5,0,1,1,5,0V93a2.49,2.49,0,0,1-2.5,2.5Zm0,0"/><path class="cls-1" d="M66.37,95.48a2.49,2.49,0,0,1-2.5-2.5V13.14a2.5,2.5,0,1,1,5,0V93a2.49,2.49,0,0,1-2.5,2.5Zm0,0"/><path class="cls-1" d="M71.69,132.74H39.76a7.82,7.82,0,1,1,0-15.64H71.69a7.82,7.82,0,1,1,0,15.64ZM39.76,122.09a2.83,2.83,0,1,0,0,5.66H71.69a2.83,2.83,0,1,0,0-5.66Zm0,0"/><path class="cls-1" d="M71.69,122.09a2.49,2.49,0,0,1-2.5-2.5V98.31a2.83,2.83,0,0,0-2.83-2.83H45.08a2.83,2.83,0,0,0-2.83,2.83V119.6a2.5,2.5,0,1,1-5,0V98.31a7.83,7.83,0,0,1,7.82-7.82H66.37a7.83,7.83,0,0,1,7.82,7.82V119.6a2.49,2.49,0,0,1-2.5,2.5Zm0,0"/><path class="cls-1" d="M39.76,114.11H34.43a2.5,2.5,0,0,1,0-5h5.32a2.5,2.5,0,1,1,0,5Zm0,0"/><path class="cls-1" d="M77,114.11H71.69a2.5,2.5,0,1,1,0-5H77a2.5,2.5,0,1,1,0,5Zm0,0"/></g></g></g></svg>