<svg xmlns="http://www.w3.org/2000/svg" viewBox="0 0 170 143.62"><defs><style>.cls-1{fill:#55575a;}</style></defs><title>Pool</title><g id="Layer_2" data-name="Layer 2"><g id="Homes"><g id="Pool"><path class="cls-1" d="M167.07,108.45a20.81,20.81,0,0,0-11.71,3.32,16.5,16.5,0,0,1-17.61,0,22.34,22.34,0,0,0-23.43,0,16.5,16.5,0,0,1-17.61,0A20.81,20.81,0,0,0,85,108.45a20.79,20.79,0,0,0-11.71,3.32,15.22,15.22,0,0,1-8.81,2.55,15.22,15.22,0,0,1-8.8-2.55A20.8,20.8,0,0,0,44,108.45a25.52,25.52,0,0,0-3,.17V93.87H67.38v8.94a2.93,2.93,0,0,0,5.86,0V35.25A29.38,29.38,0,0,1,86.48,10.71,29.2,29.2,0,0,1,99.69,35.25a2.93,2.93,0,0,0,5.86,0A35,35,0,0,0,92.34,7.72,29.38,29.38,0,0,1,132,35.25a2.93,2.93,0,0,0,5.86,0,35.25,35.25,0,1,0-70.49,0v5.64H40.92V35.25A29.42,29.42,0,0,1,70.31,5.86c.68,0,1.36,0,2,.07a2.93,2.93,0,0,0,.4-5.85C71.94,0,71.12,0,70.31,0A35.29,35.29,0,0,0,35.06,35.25v75c-1,.48-1.94,1-2.81,1.49a15.22,15.22,0,0,1-8.8,2.55,15.22,15.22,0,0,1-8.81-2.55,20.8,20.8,0,0,0-11.71-3.32,2.93,2.93,0,0,0,0,5.86,15.22,15.22,0,0,1,8.81,2.54,20.8,20.8,0,0,0,11.71,3.32,20.8,20.8,0,0,0,11.71-3.32,15.22,15.22,0,0,1,8.8-2.54,15.21,15.21,0,0,1,8.8,2.54,20.81,20.81,0,0,0,11.71,3.32,20.81,20.81,0,0,0,11.71-3.32,16.51,16.51,0,0,1,17.61,0,22.34,22.34,0,0,0,23.42,0,16.51,16.51,0,0,1,17.61,0,22.34,22.34,0,0,0,23.43,0,15.23,15.23,0,0,1,8.81-2.54,2.93,2.93,0,0,0,0-5.86ZM40.92,88V70.31H67.38V88ZM67.38,46.75v17.7H40.92V46.75Zm0,0"/><path class="cls-1" d="M146.55,126a15.22,15.22,0,0,1-8.81-2.54,22.33,22.33,0,0,0-23.43,0,16.51,16.51,0,0,1-17.61,0A20.8,20.8,0,0,0,85,120.17a20.8,20.8,0,0,0-11.71,3.32A15.22,15.22,0,0,1,64.48,126a15.22,15.22,0,0,1-8.8-2.54A20.8,20.8,0,0,0,44,120.17a20.8,20.8,0,0,0-11.71,3.32,15.22,15.22,0,0,1-8.8,2.54,2.93,2.93,0,1,0,0,5.86,20.81,20.81,0,0,0,11.71-3.32A15.2,15.2,0,0,1,44,126a15.19,15.19,0,0,1,8.8,2.55,20.81,20.81,0,0,0,11.71,3.32,20.81,20.81,0,0,0,11.71-3.32,16.5,16.5,0,0,1,17.61,0,22.34,22.34,0,0,0,23.42,0,16.5,16.5,0,0,1,17.61,0,20.81,20.81,0,0,0,11.71,3.32,2.93,2.93,0,0,0,0-5.86Zm0,0"/><path class="cls-1" d="M126,131.9a20.81,20.81,0,0,0-11.71,3.32,16.5,16.5,0,0,1-17.61,0A20.81,20.81,0,0,0,85,131.9a20.8,20.8,0,0,0-11.71,3.32,15.21,15.21,0,0,1-8.81,2.55,15.2,15.2,0,0,1-8.8-2.55A20.81,20.81,0,0,0,44,131.9a2.93,2.93,0,0,0,0,5.86,15.21,15.21,0,0,1,8.8,2.54,20.8,20.8,0,0,0,11.71,3.32,20.8,20.8,0,0,0,11.71-3.32,16.51,16.51,0,0,1,17.61,0,22.33,22.33,0,0,0,23.42,0,15.22,15.22,0,0,1,8.81-2.54,2.93,2.93,0,0,0,0-5.86Zm0,0"/></g></g></g></svg>