<svg xmlns="http://www.w3.org/2000/svg" viewBox="0 0 188 170"><defs><style>.cls-1{fill:#55575a;}</style></defs><title>Restaurant</title><g id="Layer_2" data-name="Layer 2"><g id="Hotels"><path id="Restaurant" class="cls-1" d="M185.45,40A3,3,0,0,0,182,42.56L173.42,100h-20.8l-.43-10H153a3,3,0,0,0,3-3.13l-1-24A3,3,0,0,0,152,60H127V49.48A9,9,0,0,0,133,41V31a3,3,0,0,0-3-3H118a3,3,0,0,0-3,3V41a9,9,0,0,0,6,8.48V60H105V31a11,11,0,0,0-8-10.58V3a3,3,0,1,0-6,0V20.42A11,11,0,0,0,83,31V60H67V49.48A9,9,0,0,0,73,41V31a3,3,0,0,0-3-3H58a3,3,0,0,0-3,3V41a9,9,0,0,0,6,8.48V60H36a3,3,0,0,0-3,2.87l-1,24A3,3,0,0,0,35,90h.87l-.43,10H14.58L6,42.56A3,3,0,1,0,0,43.44l9,59.78V167a3,3,0,1,0,6,0V118H34.61L33,154.87A3,3,0,0,0,36,158a30.26,30.26,0,0,0,9-1.23V167a3,3,0,1,0,6,0V154.15l.95-.52c2.93-1.62,5.54-3,10.05-3.49V167a3,3,0,1,0,6,0V150.14c4.51.44,7.12,1.87,10.05,3.49A29.09,29.09,0,0,0,94,158,29.09,29.09,0,0,0,110,153.63c2.93-1.62,5.54-3,10-3.49V167a3,3,0,1,0,6,0V150.14c4.51.44,7.12,1.87,10.05,3.49l.95.52V167a3,3,0,0,0,6,0V156.76a30.24,30.24,0,0,0,9,1.24,3,3,0,0,0,3-3.13L153.39,118H173v49a3,3,0,0,0,6,0V103.22l9-59.78A3,3,0,0,0,185.45,40ZM121,34h6v7a3,3,0,1,1-6,0ZM61,34h6v7a3,3,0,1,1-6,0Zm28-3a5,5,0,1,1,10,0V60H89ZM15,112v-6H35.13l-.26,6ZM139,148.37a31.27,31.27,0,0,0-31.9,0C103.53,150.32,100.48,152,94,152s-9.52-1.68-13.05-3.63A29.09,29.09,0,0,0,65,144a29.09,29.09,0,0,0-15.95,4.37c-.84.46-1.64.91-2.48,1.32a20.54,20.54,0,0,1-7.43,2.16L41.83,90H125a3,3,0,0,0,0-6H38.09l.78-18H149.13l.78,18H137a3,3,0,1,0,0,6h9.14l2.69,61.85C144.43,151.4,141.85,150,139,148.37ZM153.13,112l-.26-6H173v6Z"/></g></g></svg>