<svg xmlns="http://www.w3.org/2000/svg" viewBox="0 0 170 170.04"><defs><style>.cls-1{fill:#55575a;}</style></defs><title>Safe</title><g id="Layer_2" data-name="Layer 2"><g id="Hotels"><g id="Safe"><path class="cls-1" d="M151.12,137V22A3.15,3.15,0,0,0,148,18.88H33A3.15,3.15,0,0,0,29.86,22V137A3.15,3.15,0,0,0,33,140.14H148a3.15,3.15,0,0,0,3.15-3.15Zm-6.3-3.15H36.16V25.18H144.82Zm0,0"/><path class="cls-1" d="M121.83,166.88A3.15,3.15,0,0,0,125,170h23a3.15,3.15,0,0,0,3.15-3.15V159h15.72a3.15,3.15,0,0,0,3.15-3.15V3.15A3.15,3.15,0,0,0,166.85,0H14.13A3.15,3.15,0,0,0,11,3.15V41.87H3.15A3.15,3.15,0,0,0,0,45V68a3.15,3.15,0,0,0,3.15,3.15H11V87.86H3.15A3.15,3.15,0,0,0,0,91v23a3.15,3.15,0,0,0,3.15,3.15H11v38.72A3.15,3.15,0,0,0,14.13,159H29.87v7.86A3.15,3.15,0,0,0,33,170H56a3.15,3.15,0,0,0,3.15-3.15V159h62.67ZM6.3,64.86V48.18H11V64.86Zm0,46V94.16H11v16.69Zm46.55,52.89H36.17V159H52.85Zm3.15-11H17.28V6.3H163.7V152.72Zm88.82,6.3v4.71H128.14V159Zm0,0"/><path class="cls-1" d="M62.69,95.56l.05.08a32.09,32.09,0,0,0,55.49,0l.06-.09,0-.09a32.05,32.05,0,0,0,0-31.95l0-.06-.05-.08a32.09,32.09,0,0,0-55.53.07h0a32.05,32.05,0,0,0,0,32l0,.08Zm27.8-27.37a11.31,11.31,0,0,1,9.82,16.94l0,0,0,0a11.32,11.32,0,1,1-9.78-17Zm25.8,11.32a25.63,25.63,0,0,1-2.05,10.07l-7.15-4.13a17.59,17.59,0,0,0,0-11.88l7.15-4.13a25.63,25.63,0,0,1,2,10.07ZM73.9,85.45l-7.16,4.13a25.78,25.78,0,0,1,0-20.14l7.16,4.13a17.56,17.56,0,0,0,0,11.88ZM69.9,95l7.16-4.13a17.62,17.62,0,0,0,10.28,5.95v8.27A25.82,25.82,0,0,1,69.9,95Zm23.74,10.08V96.85a17.62,17.62,0,0,0,10.28-5.94L111.08,95a25.8,25.8,0,0,1-17.43,10.08ZM111.08,64l-7.15,4.13a17.65,17.65,0,0,0-10.28-5.95V53.91A25.8,25.8,0,0,1,111.08,64ZM87.34,53.91v8.26a17.63,17.63,0,0,0-10.28,5.95L69.9,64A25.81,25.81,0,0,1,87.34,53.91Zm0,0"/></g></g></g></svg>