<svg xmlns="http://www.w3.org/2000/svg" viewBox="0 0 150 161.91"><defs><style>.cls-1{fill:#55575a;}</style></defs><title>Sauna</title><g id="Layer_2" data-name="Layer 2"><g id="Hotels"><g id="Sauna"><path class="cls-1" d="M119.76,71.18a3.16,3.16,0,1,0,4.95-3.94l-2.46-3.09a6.49,6.49,0,0,1,0-8.12l2.49-3.14a3.16,3.16,0,0,0-5-3.93l-2.49,3.14a12.79,12.79,0,0,0,0,16Z"/><path class="cls-1" d="M142.24,58.85a6.49,6.49,0,0,1,0,8.12,3.16,3.16,0,1,0,5,3.93,12.79,12.79,0,0,0,0-16l-2.46-3.09a6.49,6.49,0,0,1,0-8.12l2.49-3.14a3.16,3.16,0,1,0-5-3.93l-2.49,3.14a12.79,12.79,0,0,0,0,16Z"/><path class="cls-1" d="M5.27,71.18a6.49,6.49,0,0,1,0,8.12,3.16,3.16,0,1,0,5,3.93,12.79,12.79,0,0,0,0-16L7.76,64.15a6.49,6.49,0,0,1,0-8.12l2.49-3.14a3.16,3.16,0,0,0-5-3.93L2.8,52.1a12.79,12.79,0,0,0,0,16Z"/><path class="cls-1" d="M28.19,41.19a3.16,3.16,0,0,0,4.44-.51l.09-.11a3.16,3.16,0,1,0-5-3.94l-.09.11A3.16,3.16,0,0,0,28.19,41.19Z"/><path class="cls-1" d="M25.29,55.76l2.46,3.09a6.49,6.49,0,0,1,0,8.12,3.16,3.16,0,1,0,5,3.93,12.79,12.79,0,0,0,0-16l-2.46-3.09A6.48,6.48,0,0,1,29,49.43a3.16,3.16,0,0,0-6.11,1.62A12.76,12.76,0,0,0,25.29,55.76Z"/><path class="cls-1" d="M144.19,92.35H113.93A21.61,21.61,0,0,0,100,75.29L86,70.16a.62.62,0,0,1-.31-.22V64.23L91.33,61l.17-.1a12.29,12.29,0,0,0,5.25-9.35c0-.08,0-.16,0-.24V44.15a8.69,8.69,0,0,0,2.89-1.92l.91-.91a12.5,12.5,0,0,0,0-17.65L86.76,9.88A13.4,13.4,0,0,0,78,.74,14.43,14.43,0,0,0,63.21,4.26L50.64,16.82a19.54,19.54,0,0,0,0,27.63l2.49,2.49v4.35c0,.08,0,.16,0,.24a12.27,12.27,0,0,0,5.22,9.35l.17.11,5.68,3.25v5.69a.51.51,0,0,1-.29.22L49.86,75.29A21.61,21.61,0,0,0,36,92.35H5.69a3.16,3.16,0,0,0-3.16,3.16v63.24a3.16,3.16,0,0,0,3.16,3.16h138.5a3.16,3.16,0,0,0,3.16-3.16V95.51A3.16,3.16,0,0,0,144.19,92.35ZM8.85,117.64H25.61v20.87H8.85Zm23.08,0H48.69v20.87H31.93Zm16.76-19v12.65H31.93V98.67Zm46.17,0v12.65H78.1V98.67Zm23.08,0v12.65H101.18V98.67Zm-39.84,19H94.86v20.87H78.1Zm-6.32,20.87H55V117.64H71.78Zm0-27.19H55V98.67H71.78ZM48.69,144.84v10.75H31.93V144.84Zm6.32,0H71.78v10.75H55Zm23.08,0H94.86v10.75H78.1Zm23.08,0h16.76v10.75H101.18Zm0-6.32V117.64h16.76v20.87Zm23.08-20.87H141v20.87H124.27ZM141,111.32H124.27V98.67H141ZM96.08,36.85l-.91.91a2.41,2.41,0,0,1-3.41,0L80.22,26.22l3.1-3.1a13.52,13.52,0,0,0,3.05-4.68l9.71,9.71A6.16,6.16,0,0,1,96.08,36.85Zm-41-15.56L67.68,8.73a8.13,8.13,0,0,1,5.76-2.4A8.23,8.23,0,0,1,76,6.75a7.18,7.18,0,0,1,2.82,11.89L56.31,41.18,55.12,40a13.22,13.22,0,0,1,0-18.69Zm4.34,29.87V47l16.3-16.3L87.3,42.23a8.68,8.68,0,0,0,3.14,2v6.92a6,6,0,0,1-2.35,4.4L77,61.91l-.17.1a3.28,3.28,0,0,1-3.76,0l-.17-.11L61.77,55.55A6,6,0,0,1,59.45,51.16ZM52,81.23l14.08-5.15a6.58,6.58,0,0,0,4.42-6.14V67.85a9.49,9.49,0,0,0,8.81,0v2.09a6.59,6.59,0,0,0,4.44,6.15l14.07,5.14a15.26,15.26,0,0,1,9.65,11.12h-6.32V90.55a3.16,3.16,0,0,0-6.32,0v1.79H55V90.55a3.16,3.16,0,0,0-6.32,0v1.79H42.38A15.26,15.26,0,0,1,52,81.23ZM25.61,98.67v12.65H8.85V98.67ZM8.85,144.84H25.61v10.75H8.85Zm115.42,10.75V144.84H141v10.75Z"/><path class="cls-1" d="M134.88,125.87a3.16,3.16,0,1,0,.93,2.24A3.19,3.19,0,0,0,134.88,125.87Z"/><path class="cls-1" d="M88.72,125.87a3.16,3.16,0,1,0,.93,2.24A3.19,3.19,0,0,0,88.72,125.87Z"/><path class="cls-1" d="M42.55,125.87a3.16,3.16,0,1,0,.93,2.24A3.19,3.19,0,0,0,42.55,125.87Z"/><path class="cls-1" d="M120.27,83.74a3.16,3.16,0,0,0,4.44-.51l.09-.11a3.16,3.16,0,0,0-5-3.94l-.09.11A3.16,3.16,0,0,0,120.27,83.74Z"/></g></g></g></svg>