<svg xmlns="http://www.w3.org/2000/svg" viewBox="0 0 170.5 132.27"><defs><style>.cls-1{fill:#55575a;stroke:#55575a;stroke-miterlimit:10;stroke-width:0.5px;}</style></defs><title>SPA</title><g id="Layer_2" data-name="Layer 2"><g id="Hotels"><g id="SPA"><path class="cls-1" d="M48.08,112.94C20.26,110.57,5.24,101.77,5.24,94.7c0-6.12,10.43-12.34,26.58-15.85a2.49,2.49,0,0,0,.38-.12,73.86,73.86,0,0,0,23.77,5h.14a2.5,2.5,0,0,0,.14-5c-9.9-.56-19-2.78-25.58-6.25-6.1-3.21-9.46-7.14-9.46-11.07,0-4.87,5.21-9.74,14-13.11,6.27,3.88,15.56,6.29,26.09,6.29s19.83-2.42,26.09-6.29a33.19,33.19,0,0,1,9.84,5.59,2.5,2.5,0,0,0,3.29-3.75,34.74,34.74,0,0,0-8.66-5.38,12.41,12.41,0,0,0,3.87-8.63c0-7.95-9-14.79-22.62-17.38a18.27,18.27,0,0,0,.13-2.19A18.53,18.53,0,0,0,64,.59a2.49,2.49,0,0,0-2.5,0A18.43,18.43,0,0,0,53.9,9a18.52,18.52,0,0,0-11.33-.59A2.49,2.49,0,0,0,40.8,10.2a18.52,18.52,0,0,0,.41,10.85c-9,3.4-14.34,8.94-14.34,15.09a12.41,12.41,0,0,0,3.87,8.63C21.46,49,16.22,54.92,16.22,61.43c0,5.25,3.41,10,9.28,13.83A61.68,61.68,0,0,0,9.28,81.92c-7.46,4.68-9,9.53-9,12.78,0,13.24,23.81,21.2,47.41,23.22h.21a2.49,2.49,0,0,0,.21-5ZM62.76,5.72A13.43,13.43,0,0,1,65.7,24.43,18.5,18.5,0,0,0,60.4,13.21a18.26,18.26,0,0,0-2.1-1.8A13.42,13.42,0,0,1,62.76,5.72ZM45.32,13A13.46,13.46,0,0,1,60.66,28.29,13.46,13.46,0,0,1,45.32,13ZM43.49,25.53A18.29,18.29,0,0,0,45.58,28,18.53,18.53,0,0,0,61.4,33.23,7.59,7.59,0,0,0,64,32.56a18.53,18.53,0,0,0,7.82-9c11,2,18.9,7.19,18.9,12.54,0,3.22-2.91,6.53-8,9.06-5.69,2.85-13.32,4.41-21.47,4.41s-15.77-1.57-21.47-4.41c-5.07-2.53-8-5.84-8-9.06C31.85,32.12,36.27,28.13,43.49,25.53Z"/><path class="cls-1" d="M168.84,87.84a45.15,45.15,0,0,0-20.14-4.48,45.38,45.38,0,0,0-4.48-20.13,2.49,2.49,0,0,0-2.43-1.41A45.37,45.37,0,0,0,122.14,68a45.14,45.14,0,0,0-13.93-15.17,2.5,2.5,0,0,0-2.81,0A45.15,45.15,0,0,0,91.46,68a45.36,45.36,0,0,0-19.68-6.19,2.49,2.49,0,0,0-2.43,1.41,45.38,45.38,0,0,0-4.48,20.13,45.14,45.14,0,0,0-20.14,4.48,2.5,2.5,0,0,0-1.41,2.43,45.08,45.08,0,0,0,63.46,37.78,45.08,45.08,0,0,0,63.46-37.78A2.5,2.5,0,0,0,168.84,87.84ZM140.44,67A40.39,40.39,0,0,1,143.7,83.7a45,45,0,0,0-15.79,5,45,45,0,0,0-3.56-16.23A40.36,40.36,0,0,1,140.44,67ZM73.13,67a40.35,40.35,0,0,1,16.13,5.54A45,45,0,0,0,85.7,88.75,45,45,0,0,0,69.86,83.7,40.38,40.38,0,0,1,73.13,67Zm-4.89,54.69a40.09,40.09,0,0,1-19.77-30,40.09,40.09,0,0,1,35.91,2.1c.52.3,1,.62,1.55.94a45.07,45.07,0,0,0,15.91,30A40.08,40.08,0,0,1,68.23,121.66Zm77.1,0a40.08,40.08,0,0,1-33.56,3,45.61,45.61,0,0,0,9.6-11.14,2.5,2.5,0,1,0-4.26-2.6,40.6,40.6,0,0,1-10.3,11.31,40.09,40.09,0,0,1,0-64.29,40.14,40.14,0,0,1,13.83,45.57,2.49,2.49,0,0,0,4.7,1.67,44.78,44.78,0,0,0,2.37-10.59c.49-.31,1-.61,1.49-.9a40.09,40.09,0,0,1,35.91-2.1A40.09,40.09,0,0,1,145.33,121.66Z"/></g></g></g></svg>