<svg xmlns="http://www.w3.org/2000/svg" viewBox="0 0 170 164.26"><defs><style>.cls-1{fill:#55575a;}</style></defs><title>TV</title><g id="Layer_2" data-name="Layer 2"><g id="Homes"><g id="TV"><path class="cls-1" d="M158.67,155.76H11.33A11.37,11.37,0,0,1,0,144.43V48.09A11.37,11.37,0,0,1,11.33,36.76H158.67A11.37,11.37,0,0,1,170,48.09v96.33A11.37,11.37,0,0,1,158.67,155.76ZM11.33,42.43a5.68,5.68,0,0,0-5.67,5.67v96.33a5.68,5.68,0,0,0,5.67,5.67H158.67a5.68,5.68,0,0,0,5.67-5.67V48.09a5.68,5.68,0,0,0-5.67-5.67Z"/><path class="cls-1" d="M17,164.26a2.68,2.68,0,0,1-2.83-2.83v-8.5A2.68,2.68,0,0,1,17,150.09a2.68,2.68,0,0,1,2.83,2.83v8.5A2.68,2.68,0,0,1,17,164.26Z"/><path class="cls-1" d="M153,164.26a2.68,2.68,0,0,1-2.83-2.83v-8.5a2.83,2.83,0,1,1,5.67,0v8.5A2.68,2.68,0,0,1,153,164.26Z"/><path class="cls-1" d="M85,42.14a2.12,2.12,0,0,1-1.42-.28,2.79,2.79,0,0,1-.85-4L105.4,1.34a2.79,2.79,0,0,1,4-.85,2.79,2.79,0,0,1,.85,4L87.55,41A3.08,3.08,0,0,1,85,42.14Z"/><path class="cls-1" d="M85,42.14A2.58,2.58,0,0,1,82.73,41L57.23,4.46a3,3,0,0,1,.57-4,3,3,0,0,1,4,.57l25.5,36.55a3,3,0,0,1-.57,4A2.08,2.08,0,0,1,85,42.14Z"/><path class="cls-1" d="M107.67,144.43H28.33a17,17,0,0,1-17-17V65.09a17,17,0,0,1,17-17h79.33a17,17,0,0,1,17,17v62.33A17,17,0,0,1,107.67,144.43ZM28.33,53.76A11.37,11.37,0,0,0,17,65.09v62.33a11.37,11.37,0,0,0,11.33,11.33h79.33A11.37,11.37,0,0,0,119,127.43V65.09a11.37,11.37,0,0,0-11.33-11.33Z"/><path class="cls-1" d="M155.83,67.93H133.17a2.83,2.83,0,1,1,0-5.67h22.67a2.83,2.83,0,1,1,0,5.67Z"/><path class="cls-1" d="M155.83,79.26H133.17a2.83,2.83,0,1,1,0-5.67h22.67a2.83,2.83,0,1,1,0,5.67Z"/><path class="cls-1" d="M155.83,90.59H133.17a2.83,2.83,0,1,1,0-5.67h22.67a2.83,2.83,0,1,1,0,5.67Z"/><path class="cls-1" d="M155.83,124.59H133.17a2.68,2.68,0,0,1-2.83-2.83V99.09a2.68,2.68,0,0,1,2.83-2.83h22.67a2.68,2.68,0,0,1,2.83,2.83v22.67A2.68,2.68,0,0,1,155.83,124.59ZM136,118.93h17v-17H136Z"/></g></g></g></svg>