<svg xmlns="http://www.w3.org/2000/svg" viewBox="0 0 170 121.16"><defs><style>.cls-1{fill:#55575a;}</style></defs><title>WiFi</title><g id="Layer_2" data-name="Layer 2"><g id="Homes"><g id="WiFi"><path class="cls-1" d="M169.09,34.79a119,119,0,0,0-168.19,0,3.1,3.1,0,0,0,4.38,4.37,112.85,112.85,0,0,1,159.43,0,3.09,3.09,0,1,0,4.37-4.37Zm0,0"/><path class="cls-1" d="M19.11,53a3.1,3.1,0,0,0,0,4.38,3.06,3.06,0,0,0,2.19.91,3,3,0,0,0,2.17-.91,87.11,87.11,0,0,1,123,0A3.1,3.1,0,0,0,150.89,53,93.3,93.3,0,0,0,19.11,53Zm0,0"/><path class="cls-1" d="M85,51.45a67,67,0,0,0-47.7,19.73,3.09,3.09,0,0,0,4.37,4.38,61.34,61.34,0,0,1,86.64,0,3.09,3.09,0,1,0,4.37-4.38A67,67,0,0,0,85,51.45Zm0,0"/><path class="cls-1" d="M85,80.58a20.29,20.29,0,1,0,20.27,20.29A20.31,20.31,0,0,0,85,80.58ZM85,115A14.09,14.09,0,1,1,99.1,100.86,14.11,14.11,0,0,1,85,115Zm0,0"/></g></g></g></svg>