<svg id="real_estate" data-name="real estate" xmlns="http://www.w3.org/2000/svg" viewBox="0 0 62 64"><defs><style>.cls-1{fill:#58585b;}</style></defs><title>home</title><path class="cls-1" d="M404.19,198.52l-29-29a2,2,0,0,0-2.83,0l-29,29a2,2,0,1,0,2.83,2.83l3.59-3.59v29.17a6,6,0,0,0,6,6h36a6,6,0,0,0,6-6V197.76l3.59,3.59a2,2,0,0,0,2.83-2.83Zm-36.41,30.41v-22h12v22Zm26-2a2,2,0,0,1-2,2h-8v-24a2,2,0,0,0-2-2h-16a2,2,0,0,0-2,2v24h-8a2,2,0,0,1-2-2V193.76l20-20,20,20Z" transform="translate(-342.78 -168.93)"/></svg>