<svg id="Layer_1" data-name="Layer 1" xmlns="http://www.w3.org/2000/svg" viewBox="0 0 17.6 25.6"><defs><style>.cls-1{fill:#59595b;fill-rule:evenodd;}</style></defs><title>profile</title><path class="cls-1" d="M330.36,325.08A8.5,8.5,0,0,0,332,320c0-4.42-3.22-8-7.2-8s-7.2,3.58-7.2,8a8.53,8.53,0,0,0,1.64,5.08A4.78,4.78,0,0,0,316,329.6v3.2a4.8,4.8,0,0,0,4.8,4.8h8a4.8,4.8,0,0,0,4.8-4.8v-3.2a4.78,4.78,0,0,0-3.24-4.52ZM319.2,320c0-3.53,2.51-6.4,5.6-6.4s5.6,2.86,5.6,6.4-2.5,6.4-5.6,6.4-5.6-2.86-5.6-6.4ZM332,332.4a3.77,3.77,0,0,1-3.93,3.6h-6.55a3.77,3.77,0,0,1-3.92-3.6V330a3.68,3.68,0,0,1,3-3.5,6.59,6.59,0,0,0,8.36,0,3.68,3.68,0,0,1,3,3.5Zm0,0" transform="translate(-316 -312)"/></svg>