<svg xmlns="http://www.w3.org/2000/svg" viewBox="0 0 170 168.74"><defs><style>.cls-1{fill:#55575a;}</style></defs><title>BathTub</title><g id="Layer_2" data-name="Layer 2"><g id="Homes"><g id="BathTub"><path class="cls-1" d="M170,95.87a12.17,12.17,0,0,0-12.14-12.14H108.25s0-.09,0-.15a39.65,39.65,0,0,0-32.62-39,26.89,26.89,0,0,0-52.89,6.83A27.88,27.88,0,0,0,23,54.91C8.61,62.06,8.89,74.16,9.07,81.52c0,.77,0,1.51,0,2.21a4.08,4.08,0,0,0,.09.42,12.09,12.09,0,0,0-.09,23.45v4.23a44.93,44.93,0,0,0,33.4,43.31v3a10.63,10.63,0,0,0,21.15,1.51h45.74a10.62,10.62,0,0,0,21.14-1.51v-3a44.93,44.93,0,0,0,33.4-43.31v-5.49A12.13,12.13,0,0,0,170,95.87ZM27.57,59.51l2.36-1L29.36,56a21.81,21.81,0,0,1-.52-4.61,20.81,20.81,0,0,1,41.31-3.62L70.54,50l2.22.27A33.58,33.58,0,0,1,102.2,83.58s0,.09,0,.15H15.18q0-1.13,0-2.36C15,74,14.75,64.86,27.57,59.51Zm130.29,52.31a38.82,38.82,0,0,1-31,37.92l-2.43.5v7.87a4.56,4.56,0,0,1-9.12,0v-4.55H57.67v4.55a4.55,4.55,0,0,1-9.1,0v-7.87l-2.43-.5a38.8,38.8,0,0,1-31-37.92V108H157.86Zm0-9.87H12.14a6.07,6.07,0,0,1,0-12.14H157.86a6.07,6.07,0,0,1,0,12.14Zm0,0"/><path class="cls-1" d="M32.64,135.4a2.94,2.94,0,0,0,1.84.62,3,3,0,0,0,1.85-5.44A11.32,11.32,0,0,1,32,124.15,3,3,0,1,0,26,125.44a17.29,17.29,0,0,0,6.6,10Zm0,0"/><path class="cls-1" d="M44.73,142.47c8.64,2.62,17.65,3.3,26.53,3.3,3.84,0,7.65-.12,11.38-.28a3,3,0,0,0,2.91-3.17,3.13,3.13,0,0,0-3.16-2.91c-11.89.5-24.44.71-35.92-2.76a3,3,0,1,0-1.75,5.81Zm0,0"/><path class="cls-1" d="M91.13,37.95A11.64,11.64,0,1,0,79.49,26.31,11.65,11.65,0,0,0,91.13,37.95Zm0-17.19a5.56,5.56,0,1,1-5.56,5.56,5.57,5.57,0,0,1,5.56-5.56Zm0,0"/><path class="cls-1" d="M15.18,29.85A14.93,14.93,0,1,0,.25,14.92,15,15,0,0,0,15.18,29.85Zm0-23.78a8.85,8.85,0,1,1-8.85,8.85,8.85,8.85,0,0,1,8.85-8.85Zm0,0"/><path class="cls-1" d="M69.81,68.55a3,3,0,1,1-3-3,3,3,0,0,1,3,3Zm0,0"/><path class="cls-1" d="M124.47,56.41a3,3,0,1,1-3-3,3,3,0,0,1,3,3Zm0,0"/><path class="cls-1" d="M57.67,13.92a3,3,0,1,1-3-3,3,3,0,0,1,3,3Zm0,0"/></g></g></g></svg>