<svg xmlns="http://www.w3.org/2000/svg" viewBox="0 0 170 169.65"><defs><style>.cls-1{fill:#55575a;}</style></defs><title>BBQ Grill</title><g id="Layer_2" data-name="Layer 2"><g id="Homes"><g id="BBQ_Grill" data-name="BBQ Grill"><path class="cls-1" d="M162.79,64H150.61a2.69,2.69,0,0,0-2.69,2.69v1.7h-2.84c0-.52,0-1,0-1.57v0c0-.07,0-.14,0-.21,0-12.12-30.24-18.46-60.12-18.46S24.9,54.41,24.9,66.53c0,.07,0,.14,0,.21v0q0,.79,0,1.57H22.08v-1.7A2.69,2.69,0,0,0,19.39,64H7.21C1.9,64,0,67.33,0,70.48v1.11c0,3.15,1.9,6.52,7.21,6.52H19.39a2.69,2.69,0,0,0,2.69-2.69v-1.7h3.28A60.27,60.27,0,0,0,61.1,121.42L46,153.54a2.69,2.69,0,1,0,4.86,2.29l15.3-32.5a60.1,60.1,0,0,0,16.76,3V167a2.69,2.69,0,0,0,5.38,0v-40.7A60,60,0,0,0,104.87,123l15.48,32.86a2.69,2.69,0,1,0,4.86-2.29L109.87,121a60.14,60.14,0,0,0,20.78-15.61,2.69,2.69,0,0,0-4.08-3.5,54.7,54.7,0,0,1-38.29,19v-12a2.69,2.69,0,1,0-5.38,0v12.06A55,55,0,0,1,31,75.13a31,31,0,0,0,3.06,1.68,2.68,2.68,0,0,0,.35.17c11.28,5.29,31,8,50.6,8,21.74,0,43.67-3.36,54-9.86a54.51,54.51,0,0,1-7.38,19.79,2.69,2.69,0,1,0,4.58,2.82,59.92,59.92,0,0,0,8.44-24h3.27v1.7a2.69,2.69,0,0,0,2.69,2.69h12.18c5.32,0,7.21-3.37,7.21-6.52V70.48C170,67.33,168.11,64,162.79,64ZM16.7,72.74H7.21c-1.84,0-1.84-.48-1.84-1.14V70.48c0-.66,0-1.14,1.84-1.14h9.49v3.4ZM126.37,58.39a50.64,50.64,0,0,1,7.17,2.66l-3.1,3h-9.91Zm-6.11-1.56-7.46,7.24h-9.91l9-8.76C114.85,55.74,117.64,56.25,120.26,56.83Zm-15.18-2.38-9.92,9.62H85.26L95.91,53.73C99.05,53.9,102.12,54.14,105.08,54.45ZM85,53.45l3.44,0L77.54,64.06H67.62L78.47,53.55Q81.7,53.45,85,53.45Zm-25.83,1.7c3.54-.5,7.26-.89,11.12-1.18L59.9,64.06H50ZM45.12,58c1.47-.4,3-.78,4.61-1.13l-7.45,7.23H31.71C33.78,62.13,38.14,59.89,45.12,58ZM34.91,71.21a17.67,17.67,0,0,1-2.68-1.77h4.5Zm10.21,3.88c-1.81-.5-3.44-1-4.9-1.54l4.23-4.1h9.91l-6.54,6.34C46.9,75.56,46,75.33,45.12,75.09Zm17.8,3.3c-3-.35-6-.78-8.74-1.28l7.91-7.67H72l-8.63,8.37A2.67,2.67,0,0,0,62.92,78.39Zm16.31,1.14c-3.21-.09-6.35-.25-9.41-.48l9.91-9.61h9.91Zm7.65.07L97.35,69.44h9.91L97.14,79.26C93.79,79.46,90.36,79.57,86.87,79.6Zm31.36-3.7a2.68,2.68,0,0,0-.6.87c-3.75.73-7.79,1.33-12,1.78l9.4-9.12h9.91Zm9.39-1.62,5-4.85h5.18C135.89,71,132.56,72.72,127.62,74.29Zm10.54-10.22.07-.07.08.07Zm26.47,7.53c0,.66,0,1.14-1.84,1.14h-9.49v-3.4h9.49c1.84,0,1.84.48,1.84,1.14Z"/><path class="cls-1" d="M53,40a2.69,2.69,0,0,0,3.71,3.89c3.25-3.1,7.47-11.22.19-19.74-2.41-2.82-3.22-5.56-2.4-8.13a8.23,8.23,0,0,1,2.11-3.33,2.69,2.69,0,0,0-3.49-4.09,13.09,13.09,0,0,0-4.27,8.47c-.29,3.6,1,7.15,4,10.57C58.49,34.29,53.58,39.47,53,40Z"/><path class="cls-1" d="M73.49,32a2.69,2.69,0,0,0,3.71,3.89c3.25-3.1,7.47-11.22.19-19.74C75,13.36,74.18,10.62,75,8.05a8.23,8.23,0,0,1,2.11-3.33A2.69,2.69,0,0,0,73.61.64a13.09,13.09,0,0,0-4.27,8.47c-.29,3.6,1,7.15,4,10.57C79,26.3,74.06,31.48,73.49,32Z"/><path class="cls-1" d="M94,32a2.69,2.69,0,0,0,3.71,3.89c3.25-3.1,7.47-11.22.19-19.74-2.41-2.82-3.22-5.56-2.4-8.13a8.23,8.23,0,0,1,2.11-3.33A2.69,2.69,0,0,0,94.09.64a13.09,13.09,0,0,0-4.27,8.47c-.29,3.6,1,7.15,4,10.57C99.45,26.3,94.54,31.48,94,32Z"/><path class="cls-1" d="M114.45,40a2.69,2.69,0,0,0,3.71,3.89c3.25-3.1,7.47-11.22.19-19.74-2.41-2.82-3.22-5.56-2.4-8.13a8.23,8.23,0,0,1,2.11-3.33,2.69,2.69,0,0,0-3.49-4.09,13.09,13.09,0,0,0-4.27,8.47c-.29,3.6,1,7.15,4,10.57C119.92,34.29,115,39.47,114.45,40Z"/></g></g></g></svg>