<svg xmlns="http://www.w3.org/2000/svg" viewBox="0 0 180 99.13"><defs><style>.cls-1{fill:#55575a;}</style></defs><title>Breakfast</title><g id="Layer_2" data-name="Layer 2"><g id="Homes"><path id="Breakfast" class="cls-1" d="M177,71.09c-3.18-5.85-6.58-11.69-10.11-17.4L169,51.78a7.85,7.85,0,0,0,2.75-5.41,8.5,8.5,0,0,0-2.15-6.2A78.33,78.33,0,0,0,131.3,16.61a8.67,8.67,0,0,0-5-8.27A80.77,80.77,0,0,0,90,0h-.09A80.71,80.71,0,0,0,53.73,8.33a8.67,8.67,0,0,0-5,8.28A78.32,78.32,0,0,0,10.36,40.17a8.5,8.5,0,0,0-2.15,6.2A7.85,7.85,0,0,0,11,51.78c.73.63,1.46,1.27,2.18,1.91C9.62,59.39,6.22,65.23,3,71.09A24.54,24.54,0,0,0,.78,89,13.41,13.41,0,0,0,9.5,98.4a13.71,13.71,0,0,0,4.41.73A14.17,14.17,0,0,0,22.5,96.2c6.46-4.93,13.21-9.64,20.08-14a8.56,8.56,0,0,0,4.3,1.16,8.7,8.7,0,0,0,3.5-.74c4.42-1.94,8.94-3.78,13.45-5.5a8.64,8.64,0,0,0,6,1.93h0a293.45,293.45,0,0,1,40.24,0l.59,0a8.63,8.63,0,0,0,5.46-1.95c4.51,1.72,9,3.56,13.45,5.5a8.7,8.7,0,0,0,3.5.74,8.56,8.56,0,0,0,4.3-1.16c6.88,4.4,13.62,9.12,20.08,14a14.18,14.18,0,0,0,8.59,2.93,13.72,13.72,0,0,0,4.41-.73A13.42,13.42,0,0,0,179.22,89,24.52,24.52,0,0,0,177,71.09ZM19,91.56a8.07,8.07,0,0,1-7.59,1.32,7.64,7.64,0,0,1-5-5.33A18.71,18.71,0,0,1,8.16,73.87c3-5.46,6.13-10.91,9.41-16.25C24.75,64.14,31.68,71,38.24,78,31.65,82.28,25.17,86.83,19,91.56ZM48,77.23a2.75,2.75,0,0,1-3.14-.61l0-.05h0A349.21,349.21,0,0,0,19,51L18.89,51q-2-1.82-4.13-3.61A2,2,0,0,1,14,45.95a2.73,2.73,0,0,1,.74-2A72.4,72.4,0,0,1,50,22.3C53.87,38.75,57.52,55.44,60.83,72c-4.3,1.65-8.59,3.41-12.79,5.25Zm65.36-6.18a2.72,2.72,0,0,1-2.88,2.13c-6.81-.47-13.67-.7-20.53-.7s-13.71.24-20.51.7a2.7,2.7,0,0,1-2.89-2.12c-3.64-18.21-7.7-36.61-12-54.68-.25-1,.47-2.18,1.8-2.85A74.85,74.85,0,0,1,89.95,5.83H90a74.9,74.9,0,0,1,33.62,7.71c1.33.67,2.05,1.81,1.8,2.85-4.35,18.07-8.4,36.46-12,54.67Zm21.69,5.56a2.74,2.74,0,0,1-3.14.61c-4.2-1.84-8.49-3.6-12.79-5.25,3.31-16.54,7-33.23,10.87-49.67A72.38,72.38,0,0,1,165.24,44a2.72,2.72,0,0,1,.74,2,2,2,0,0,1-.74,1.41q-2.08,1.79-4.14,3.62L161,51A349.75,349.75,0,0,0,135.1,76.62Zm38.49,10.9a7.66,7.66,0,0,1-5,5.36A8.07,8.07,0,0,1,161,91.56c-6.21-4.74-12.68-9.29-19.28-13.55,6.56-7,13.49-13.87,20.67-20.38,3.28,5.34,6.44,10.79,9.41,16.25a18.7,18.7,0,0,1,1.75,13.65Zm0,0"/></g></g></svg>