<svg xmlns="http://www.w3.org/2000/svg" viewBox="0 0 169.92 170"><defs><style>.cls-1{fill:#55575a;}</style></defs><title>Essentials</title><g id="Layer_2" data-name="Layer 2"><g id="Homes"><g id="Essentials"><path class="cls-1" d="M101.92,19.83a5.67,5.67,0,0,0,0,11.33h34a5.67,5.67,0,1,0,0-11.33Zm34,17h-34a11.33,11.33,0,0,1,0-22.67h34a11.33,11.33,0,1,1,0,22.67Z"/><path class="cls-1" d="M118.92,170A51,51,0,0,1,99.08,72.06V34a2.83,2.83,0,0,1,5.67,0V74a2.83,2.83,0,0,1-1.83,2.65,45.33,45.33,0,1,0,32,0A2.83,2.83,0,0,1,133.08,74V34a2.83,2.83,0,0,1,5.67,0V72.06A51,51,0,0,1,118.92,170"/><path class="cls-1" d="M33.92,34h17V14.17a2.84,2.84,0,0,0-2.83-2.83H36.75a2.84,2.84,0,0,0-2.83,2.83Zm19.83,5.67H31.08a2.83,2.83,0,0,1-2.83-2.83V14.17a8.51,8.51,0,0,1,8.5-8.5H48.08a8.51,8.51,0,0,1,8.5,8.5V36.83a2.83,2.83,0,0,1-2.83,2.83Z"/><path class="cls-1" d="M36.75,45.33H48.08V39.67H36.75ZM50.92,51h-17a2.83,2.83,0,0,1-2.83-2.83V36.83A2.83,2.83,0,0,1,33.92,34h17a2.83,2.83,0,0,1,2.83,2.83V48.17A2.83,2.83,0,0,1,50.92,51Z"/><path class="cls-1" d="M42.42,70.83c-7.68,0-14.17,10.38-14.17,22.67s6.49,22.67,14.17,22.67S56.58,105.79,56.58,93.5,50.09,70.83,42.42,70.83m0,51c-11.12,0-19.83-12.45-19.83-28.33s8.71-28.33,19.83-28.33S62.25,77.61,62.25,93.5s-8.71,28.33-19.83,28.33"/><path class="cls-1" d="M107.07,14.17h23.69l1.7-8.5H105.37Zm26,5.67H104.75A2.83,2.83,0,0,1,102,17.56L99.14,3.39A2.83,2.83,0,0,1,101.92,0h34a2.83,2.83,0,0,1,2.78,3.39l-2.83,14.17a2.83,2.83,0,0,1-2.78,2.28Z"/><path class="cls-1" d="M99.32,93.74a19.88,19.88,0,0,0,16.52,16.52A19.88,19.88,0,0,0,99.32,93.74m19.6,22.43a25.53,25.53,0,0,1-25.5-25.5,2.83,2.83,0,0,1,2.83-2.83,25.53,25.53,0,0,1,25.5,25.5,2.83,2.83,0,0,1-2.83,2.83"/><path class="cls-1" d="M138.51,93.74A19.88,19.88,0,0,0,122,110.26a19.88,19.88,0,0,0,16.52-16.52m-19.6,22.43a2.83,2.83,0,0,1-2.83-2.83,25.53,25.53,0,0,1,25.5-25.5,2.83,2.83,0,0,1,2.83,2.83,25.53,25.53,0,0,1-25.5,25.5"/><path class="cls-1" d="M99.32,122.07a19.88,19.88,0,0,0,16.52,16.52,19.88,19.88,0,0,0-16.52-16.52m19.6,22.43A25.53,25.53,0,0,1,93.42,119a2.83,2.83,0,0,1,2.83-2.83,25.53,25.53,0,0,1,25.5,25.5,2.83,2.83,0,0,1-2.83,2.83"/><path class="cls-1" d="M138.51,122.07A19.88,19.88,0,0,0,122,138.6a19.88,19.88,0,0,0,16.52-16.52m-19.6,22.43a2.83,2.83,0,0,1-2.83-2.83,25.53,25.53,0,0,1,25.5-25.5,2.83,2.83,0,0,1,2.83,2.83,25.53,25.53,0,0,1-25.5,25.5"/><path class="cls-1" d="M118.92,155.83a2.83,2.83,0,0,1-2.83-2.83V113.33a2.83,2.83,0,0,1,5.67,0V153a2.83,2.83,0,0,1-2.83,2.83"/><path class="cls-1" d="M65.61,170H19.22A14.15,14.15,0,0,1,5.07,156.51l-5-77A32.58,32.58,0,0,1,32.59,45.33H52.25A32.58,32.58,0,0,1,84.79,79.47l-.63,9.66a2.8,2.8,0,0,1-3,2.64,2.84,2.84,0,0,1-2.64-3l.63-9.61A26.91,26.91,0,0,0,52.25,51H32.59A26.92,26.92,0,0,0,5.7,79.2l5,77a8.5,8.5,0,0,0,8.49,8.15H65.61a8.49,8.49,0,0,0,8.49-8.09l.82-12.52a2.8,2.8,0,0,1,3-2.64,2.83,2.83,0,0,1,2.64,3l-.81,12.47A14.14,14.14,0,0,1,65.61,170"/><path class="cls-1" d="M59.42,133.17h-34a2.83,2.83,0,0,1,0-5.67h34a2.83,2.83,0,0,1,0,5.67"/><path class="cls-1" d="M59.42,144.5h-34a2.83,2.83,0,0,1,0-5.67h34a2.83,2.83,0,0,1,0,5.67"/></g></g></g></svg>