<svg xmlns="http://www.w3.org/2000/svg" viewBox="0 0 170 170"><defs><style>.cls-1{fill:#55575a;}</style></defs><title>Fireplace</title><g id="Layer_2" data-name="Layer 2"><g id="Homes"><g id="Fireplace"><path class="cls-1" d="M130.33,144.5h-25.5a2.83,2.83,0,0,1,0-5.67,8.35,8.35,0,0,0,8.5-8.5,17,17,0,0,1,17-17,2.68,2.68,0,0,1,2.83,2.83v25.5A2.68,2.68,0,0,1,130.33,144.5Zm-14.17-5.67H127.5V119.28a11.31,11.31,0,0,0-8.5,11.05A14.57,14.57,0,0,1,116.17,138.83Z"/><path class="cls-1" d="M84.15,144.5a22.89,22.89,0,0,1-10.48-2.55,19.49,19.49,0,0,1-11.33-17.57c0-8.78,3.4-13.32,6.23-17l.85-1.13a3.37,3.37,0,0,1,3.12-1.13,2.81,2.81,0,0,1,2,2.83c0,2,1.13,2.83,3.4,4.25-1.13-10.2,2-14.73,10.77-21.25a3,3,0,0,1,3.12-.28,3.12,3.12,0,0,1,1.7,2.83c-.28,6.23.85,8.78,4.53,11.62,10.48,7.37,9.92,15,9.63,18.42a22.74,22.74,0,0,1-8.5,15.87A25.27,25.27,0,0,1,84.15,144.5Zm-13-30.32A17.73,17.73,0,0,0,68,124.67a14.17,14.17,0,0,0,8.22,12.47c6.23,3.12,13.6,2.27,19.55-2A15.46,15.46,0,0,0,102,123.53c.28-2.83.57-7.93-7.37-13.32h0c-4.25-3.12-6.23-6.52-6.8-10.77-4.25,4-5.1,7.08-4,14.17a5.13,5.13,0,0,1-2,4.82,4.78,4.78,0,0,1-5.1.28l-.57-.28C74.52,117,72.53,115.88,71.12,114.18Zm8.5-.57Z"/><path class="cls-1" d="M164.33,170H5.67A5.68,5.68,0,0,1,0,164.33v-8.5a5.68,5.68,0,0,1,5.67-5.67H164.33a5.68,5.68,0,0,1,5.67,5.67v8.5A5.68,5.68,0,0,1,164.33,170Zm0-5.67v0ZM5.67,155.83v8.5H164.33v-8.5Z"/><path class="cls-1" d="M158.67,155.83H11.33A2.68,2.68,0,0,1,8.5,153v-8.5a5.68,5.68,0,0,1,5.67-5.67H155.83a5.68,5.68,0,0,1,5.67,5.67V153A2.68,2.68,0,0,1,158.67,155.83Zm-144.5-5.67H155.83V144.5H14.17Z"/><path class="cls-1" d="M164.33,65.17H5.67A5.68,5.68,0,0,1,0,59.5V51a5.68,5.68,0,0,1,5.67-5.67H164.33A5.68,5.68,0,0,1,170,51v8.5A5.68,5.68,0,0,1,164.33,65.17ZM5.67,51v8.5H164.33V51Zm0-2.83V51h0Z"/><path class="cls-1" d="M155.83,76.5H14.17A5.68,5.68,0,0,1,8.5,70.83v-8.5a2.68,2.68,0,0,1,2.83-2.83H158.67a2.68,2.68,0,0,1,2.83,2.83v8.5A5.68,5.68,0,0,1,155.83,76.5ZM14.17,65.17v5.67H155.83V65.17Z"/><path class="cls-1" d="M150.17,144.5H19.83A2.68,2.68,0,0,1,17,141.67v-68a2.68,2.68,0,0,1,2.83-2.83H150.17A2.68,2.68,0,0,1,153,73.67v68A2.68,2.68,0,0,1,150.17,144.5Zm-127.5-5.67H147.33V76.5H22.67Z"/><path class="cls-1" d="M124.67,51H45.33a3,3,0,0,1-2.55-1.42,2.57,2.57,0,0,1,0-2.83L54.12,26.92a3,3,0,0,1,2.55-1.42h56.67a3,3,0,0,1,2.55,1.42l11.33,19.83a2.57,2.57,0,0,1,0,2.83A3,3,0,0,1,124.67,51ZM50.15,45.33h69.7l-8.22-14.17H58.37Z"/><path class="cls-1" d="M107.67,31.17H62.33a2.52,2.52,0,0,1-2.27-1.42,4.66,4.66,0,0,1-.28-2.83L71.12,1.42A2.66,2.66,0,0,1,73.67,0H96.33a2.48,2.48,0,0,1,2.55,1.7l11.33,25.5a3.35,3.35,0,0,1-.28,2.83A2.58,2.58,0,0,1,107.67,31.17ZM66.58,25.5h36.55L94.35,5.67h-19Z"/><path class="cls-1" d="M39.67,144.5H19.83A2.68,2.68,0,0,1,17,141.67v-68a2.68,2.68,0,0,1,2.83-2.83H39.67a2.68,2.68,0,0,1,2.83,2.83v68A2.68,2.68,0,0,1,39.67,144.5Zm-17-5.67H36.83V76.5H22.67Z"/><path class="cls-1" d="M150.17,144.5H130.33a2.68,2.68,0,0,1-2.83-2.83v-68a2.68,2.68,0,0,1,2.83-2.83h19.83A2.68,2.68,0,0,1,153,73.67v68A2.68,2.68,0,0,1,150.17,144.5Zm-17-5.67h14.17V76.5H133.17Z"/><path class="cls-1" d="M39.67,93.5H19.83a2.83,2.83,0,0,1,0-5.67H39.67a2.83,2.83,0,0,1,0,5.67Z"/><path class="cls-1" d="M39.67,110.5H19.83a2.83,2.83,0,0,1,0-5.67H39.67a2.83,2.83,0,0,1,0,5.67Z"/><path class="cls-1" d="M39.67,127.5H19.83a2.83,2.83,0,0,1,0-5.67H39.67a2.83,2.83,0,0,1,0,5.67Z"/><path class="cls-1" d="M150.17,93.5H130.33a2.83,2.83,0,0,1,0-5.67h19.83a2.83,2.83,0,0,1,0,5.67Z"/><path class="cls-1" d="M150.17,110.5H130.33a2.83,2.83,0,0,1,0-5.67h19.83a2.83,2.83,0,0,1,0,5.67Z"/><path class="cls-1" d="M150.17,127.5H130.33a2.83,2.83,0,0,1,0-5.67h19.83a2.83,2.83,0,0,1,0,5.67Z"/><path class="cls-1" d="M65.17,144.5H39.67a2.68,2.68,0,0,1-2.83-2.83v-25.5a2.68,2.68,0,0,1,2.83-2.83,17,17,0,0,1,17,17,8.35,8.35,0,0,0,8.5,8.5,2.83,2.83,0,0,1,0,5.67ZM42.5,138.83H53.83a14.57,14.57,0,0,1-2.83-8.5,11.56,11.56,0,0,0-8.5-11.05Z"/></g></g></g></svg>