<svg xmlns="http://www.w3.org/2000/svg" viewBox="0 0 170.25 146.75"><defs><style>.cls-1{fill:#55575a;stroke:#55575a;stroke-miterlimit:10;stroke-width:0.25px;}</style></defs><title>First Aid Kit</title><g id="Layer_2" data-name="Layer 2"><g id="Homes"><g id="First_Aid_Kit" data-name="First Aid Kit"><path class="cls-1" d="M158.56,23.62H152a8.64,8.64,0,0,0-8.18-5.88H132.12a8.64,8.64,0,0,0-8.18,5.88h-9.63v-9A14.52,14.52,0,0,0,99.81.13H70.44a14.52,14.52,0,0,0-14.5,14.5v9H46.3a8.64,8.64,0,0,0-8.18-5.88H26.38a8.64,8.64,0,0,0-8.18,5.88H11.69A11.58,11.58,0,0,0,.13,35.19v99.87a11.58,11.58,0,0,0,11.57,11.57H158.56a11.58,11.58,0,0,0,11.57-11.57V35.19a11.58,11.58,0,0,0-11.57-11.57Zm-26.44-.37h11.75a3.12,3.12,0,0,1,0,6.24H132.12A3.13,3.13,0,0,1,129,26.39h0a3.13,3.13,0,0,1,3.12-3.11ZM38.13,35a8.64,8.64,0,0,0,8.18-5.88h77.65A8.64,8.64,0,0,0,132.12,35h3.12V141.12H35V35ZM61.44,14.63a9,9,0,0,1,9-9H99.81a9,9,0,0,1,9,9v9H61.44ZM26.38,23.26H38.13a3.12,3.12,0,1,1,0,6.24H26.38a3.12,3.12,0,0,1-3.12-3.11h0a3.12,3.12,0,0,1,3.12-3.11ZM5.63,135.06V35.19a6.07,6.07,0,0,1,6.06-6.06H18.2A8.64,8.64,0,0,0,26.38,35H29.5V141.12H11.69a6.07,6.07,0,0,1-6.06-6.06Zm159,0a6.06,6.06,0,0,1-6.06,6.06H140.75V35h3.12A8.64,8.64,0,0,0,152,29.13h6.51a6.06,6.06,0,0,1,6.06,6.06Zm0,0"/><path class="cls-1" d="M58.69,99.63H70.62v11.93a8.64,8.64,0,0,0,8.63,8.63H91a8.64,8.64,0,0,0,8.63-8.63V99.63h11.93A8.64,8.64,0,0,0,120.19,91V79.25a8.64,8.64,0,0,0-8.63-8.63H99.63V58.69A8.64,8.64,0,0,0,91,50.06H79.25a8.64,8.64,0,0,0-8.63,8.63V70.62H58.69a8.64,8.64,0,0,0-8.63,8.63V91a8.64,8.64,0,0,0,8.63,8.63ZM55.57,79.25a3.12,3.12,0,0,1,3.12-3.12H73.38a2.75,2.75,0,0,0,2.75-2.75V58.69a3.12,3.12,0,0,1,3.12-3.12H91a3.13,3.13,0,0,1,3.12,3.12V73.38a2.75,2.75,0,0,0,2.75,2.75h14.69a3.12,3.12,0,0,1,3.12,3.12V91a3.13,3.13,0,0,1-3.12,3.12H96.88a2.75,2.75,0,0,0-2.75,2.75v14.69A3.13,3.13,0,0,1,91,114.68H79.25a3.12,3.12,0,0,1-3.12-3.12V96.88a2.75,2.75,0,0,0-2.75-2.75H58.69A3.13,3.13,0,0,1,55.57,91Zm0,0"/></g></g></g></svg>