<svg xmlns="http://www.w3.org/2000/svg" viewBox="0 0 170 169.98"><defs><style>.cls-1{fill:#55575a;}</style></defs><title>Game Console</title><g id="Layer_2" data-name="Layer 2"><g id="Homes"><g id="Game_Console" data-name="Game Console"><path class="cls-1" d="M65.17,116.15H53.84V104.82A2.83,2.83,0,0,0,51,102H39.67a2.83,2.83,0,0,0-2.83,2.83v11.33H25.51A2.83,2.83,0,0,0,22.68,119v11.33a2.83,2.83,0,0,0,2.83,2.83H36.84v11.33a2.83,2.83,0,0,0,2.83,2.83H51a2.83,2.83,0,0,0,2.83-2.83V133.15H65.17A2.83,2.83,0,0,0,68,130.31V119A2.83,2.83,0,0,0,65.17,116.15Zm-2.83,11.33H51a2.83,2.83,0,0,0-2.83,2.83v11.33H42.51V130.31a2.83,2.83,0,0,0-2.83-2.83H28.34v-5.67H39.67A2.83,2.83,0,0,0,42.51,119V107.65h5.67V119A2.83,2.83,0,0,0,51,121.82H62.34Z"/><path class="cls-1" d="M129.66,79.61a47.08,47.08,0,0,0-5-.28H93.5V68H87.83V62.32A11.33,11.33,0,0,0,76.5,51H62.34a5.67,5.67,0,0,1,0-11.33h45.33a11.33,11.33,0,0,0,0-22.66H93.5a5.67,5.67,0,0,1-5.67-5.67V0H82.17V11.33A11.33,11.33,0,0,0,93.5,22.66h14.16a5.67,5.67,0,1,1,0,11.33H62.34a11.33,11.33,0,0,0,0,22.66H76.5a5.67,5.67,0,0,1,5.67,5.67V68H76.5V79.32H45.34a46.22,46.22,0,0,0-5,.28C20.79,81.7,2.47,100,.3,119.49a45.33,45.33,0,0,0,68.9,43.69,27.75,27.75,0,0,1,12.43-4.39,43.7,43.7,0,0,1,6.59,0,28,28,0,0,1,12.63,4.44,45.33,45.33,0,0,0,68.86-43.73C167.53,100,149.2,81.69,129.66,79.61ZM82.17,73.66h5.67v5.67H82.17Zm72.06,77.44a39.64,39.64,0,0,1-50.39,7.29,33.43,33.43,0,0,0-15.21-5.28Q86.83,153,85,153c-1.29,0-2.55.05-3.82.15a33.32,33.32,0,0,0-15,5.23A39.66,39.66,0,0,1,5.93,120.12c1.86-16.78,18.22-33.07,35-34.88A40.73,40.73,0,0,1,45.34,85h79.32a41.71,41.71,0,0,1,4.39.24c16.79,1.8,33.15,18.1,35,34.88A39.38,39.38,0,0,1,154.22,151.09Z"/><path class="cls-1" d="M124.66,119a11.33,11.33,0,1,0-11.33-11.33A11.33,11.33,0,0,0,124.66,119Zm0-17a5.67,5.67,0,1,1-5.67,5.67A5.67,5.67,0,0,1,124.66,102Z"/><path class="cls-1" d="M124.66,130.31A11.33,11.33,0,1,0,136,141.65,11.33,11.33,0,0,0,124.66,130.31Zm0,17a5.67,5.67,0,1,1,5.67-5.67A5.67,5.67,0,0,1,124.66,147.31Z"/><path class="cls-1" d="M104.83,113.32a11.33,11.33,0,1,0,11.33,11.33A11.33,11.33,0,0,0,104.83,113.32Zm0,17a5.67,5.67,0,1,1,5.67-5.67A5.67,5.67,0,0,1,104.83,130.31Z"/><path class="cls-1" d="M144.49,113.32a11.33,11.33,0,1,0,11.33,11.33A11.33,11.33,0,0,0,144.49,113.32Zm0,17a5.67,5.67,0,1,1,5.67-5.67A5.67,5.67,0,0,1,144.49,130.31Z"/></g></g></g></svg>