<svg xmlns="http://www.w3.org/2000/svg" viewBox="0 0 170 162.03"><defs><style>.cls-1{fill:#55575a;}</style></defs><title>Gym</title><g id="Layer_2" data-name="Layer 2"><g id="Homes"><g id="Gym"><path class="cls-1" d="M154.06,154.06H15.94a2.66,2.66,0,0,1,0-5.31H154.06a2.66,2.66,0,0,1,0,5.31Z"/><path class="cls-1" d="M154.06,127.5H15.94a2.66,2.66,0,0,1,0-5.31H154.06a2.66,2.66,0,0,1,0,5.31Z"/><path class="cls-1" d="M154.06,154.06A15.94,15.94,0,1,1,170,138.13,16,16,0,0,1,154.06,154.06Zm0-26.56a10.63,10.63,0,1,0,10.63,10.63A10.64,10.64,0,0,0,154.06,127.5Z"/><path class="cls-1" d="M15.94,154.06a15.94,15.94,0,1,1,15.94-15.94A16,16,0,0,1,15.94,154.06Zm0-26.56a10.72,10.72,0,0,0-2.08.2h0a10.64,10.64,0,1,0,2.09-.2Zm-2.61-2.4h0Z"/><path class="cls-1" d="M42.5,127.5H15.94a2.66,2.66,0,0,1-2.58-3.3L32,49.83a2.66,2.66,0,0,1,2.58-2H45.16a2.66,2.66,0,0,1,2.65,2.75l-2.66,74.38A2.66,2.66,0,0,1,42.5,127.5Zm-23.16-5.31h20.6L42.4,53.13h-5.8Z"/><path class="cls-1" d="M69.06,162H26.56a2.66,2.66,0,0,1-2.66-2.66v-8a2.66,2.66,0,0,1,2.66-2.66h42.5a2.66,2.66,0,0,1,2.66,2.66v8A2.66,2.66,0,0,1,69.06,162Zm-39.84-5.31H66.41v-2.66H29.22Z"/><path class="cls-1" d="M140.78,162H114.22a2.66,2.66,0,0,1-2.66-2.66v-8a2.66,2.66,0,0,1,2.66-2.66h26.56a2.66,2.66,0,0,1,2.66,2.66v8A2.66,2.66,0,0,1,140.78,162Zm-23.91-5.31h21.25v-2.66H116.88Z"/><path class="cls-1" d="M89.2,59.53A2.64,2.64,0,0,1,88,59.24L61.25,45.55l-3.7,7.71H32.93l-14-25.42a2.66,2.66,0,0,1,4.65-2.56L36.07,47.95H54.21l4.61-9.61L90.41,54.51a2.66,2.66,0,0,1-1.21,5Z"/><path class="cls-1" d="M41.17,45.13a2.66,2.66,0,0,1-2.3-1.33L18.95,9.3a2.66,2.66,0,0,1,1-3.63L29.12.36a2.66,2.66,0,0,1,3.63,1L52.67,35.83a2.66,2.66,0,0,1-1,3.63l-9.2,5.31A2.66,2.66,0,0,1,41.17,45.13ZM24.88,8.94,42.14,38.85l4.6-2.66L29.48,6.29Z"/></g></g></g></svg>