<svg xmlns="http://www.w3.org/2000/svg" viewBox="0 0 170.5 161.78"><defs><style>.cls-1{fill:#55575a;stroke:#55575a;stroke-miterlimit:10;stroke-width:0.5px;}</style></defs><title>Hair Dryer</title><g id="Layer_2" data-name="Layer 2"><g id="Homes"><path id="Hair_dryer" data-name="Hair dryer" class="cls-1" d="M115.94,52a18,18,0,1,0,13.83.18A18,18,0,0,0,115.94,52ZM101.82,59.8a22.65,22.65,0,1,1-.22,17.32,22.65,22.65,0,0,1,.22-17.32ZM37.56,52.39,52.19,18.33l-2.55-.61h-.09a8.24,8.24,0,0,0-4.95.18,4.76,4.76,0,0,0-2.67,2.6L32.06,43.55a4.78,4.78,0,0,0,0,3.73A8.22,8.22,0,0,0,35.33,51ZM125.16,100h.29A31.34,31.34,0,0,0,151.3,81.21h0A31.32,31.32,0,0,0,135.1,40l-.09,0h0C118.23,32.73,94.68,27.65,73.25,23c-5.63-1.21-11.11-2.4-16.38-3.61L41.57,55c4.44,3,9.11,6.15,13.83,9.39,18.07,12.3,37.93,25.87,54.7,33.1h.11A31.23,31.23,0,0,0,125.28,100Zm-3.07,4.69a35.75,35.75,0,0,1-11.1-2h-.29l-.43-.28h0q-.86-.32-1.72-.68h0l-.2-.09h0l-.74-.32h-.22l-.22-.09h-.11c-3.49-1.54-7.1-3.37-10.76-5.36L84,124.61a13.66,13.66,0,0,0,25.11,10.76ZM18.53,21.48a2.32,2.32,0,0,1-1.83,4.27L4.53,20.53a2.32,2.32,0,0,1,1.83-4.27h0Zm-3.07,13A2.32,2.32,0,1,1,16,39.07h0L2.84,40.6A2.32,2.32,0,0,1,2.3,36Zm12.3-22.67A2.32,2.32,0,1,1,24,14.57L16,4a2.32,2.32,0,0,1,3.72-2.78h0Zm109,23.82.22.09a36,36,0,0,1,19.6,45.08c14.62,6.78,15.61,15.46,11.63,25a89.8,89.8,0,0,1-8.68,14.72c-8.62,12.77-17.66,26.13-1.78,36.89a2.32,2.32,0,0,1-2.6,3.83c-19.7-13.37-9.34-28.72.52-43.37A86.93,86.93,0,0,0,164,104c3-7.1,2.09-13.63-9.22-19a36.07,36.07,0,0,1-27.46,19.36l-14,32.63A18.31,18.31,0,0,1,79.61,122.6L92.1,93.5C79.18,86.19,65.58,76.9,52.85,68.22c-7-4.8-13.83-9.41-20-13.4a12.88,12.88,0,0,1-5.07-5.9,9.3,9.3,0,0,1,0-7.28l9.87-23.05a9.31,9.31,0,0,1,5.24-5.07,12.86,12.86,0,0,1,7.76-.38h.09c7,1.71,15,3.44,23.41,5.26,21.65,4.76,45.38,9.9,62.57,17.24Z"/></g></g></svg>