<svg xmlns="http://www.w3.org/2000/svg" viewBox="0 0 170 118.94"><defs><style>.cls-1{fill:#55575a;}</style></defs><title>Hangers</title><g id="Layer_2" data-name="Layer 2"><g id="Homes"><g id="Hangers"><path class="cls-1" d="M162.25,87.68a5.8,5.8,0,0,0-.86-.32l-72.28-32V45c13.74-1.66,20.54-10.72,20.54-22.39C109.65,9.74,100.56,0,88.32,0,75.47,0,64.68,10.59,64.68,23.14a3.93,3.93,0,0,0,3.94,3.91,3.77,3.77,0,0,0,1.78-.47,3.88,3.88,0,0,0,2.17-3.44C72.57,15,80,7.82,88.46,7.82c7.91,0,13.64,6.24,13.64,14.83S95.27,37.49,86,37.49a3.75,3.75,0,0,0-3.72,3.91v15.3c0,.09-.15.15-.14.22L12.8,89.68C2.59,93.36-.92,101.73.2,108.13c1.14,6.58,6.71,10.81,13.95,10.81H151.77c8.54,0,15.24-4.42,17.49-11.83a17.32,17.32,0,0,0-7-19.42Zm-.47,17.62c-1.24,4.11-4.88,6.76-10,6.76H14.15c-3.51,0-5.79-1.95-6.29-4.82-.57-3.27,1.53-7.92,7.85-10.2l71.71-34,70.75,31.5a9.87,9.87,0,0,1,3.61,10.76Zm0,0"/></g></g></g></svg>