<svg xmlns="http://www.w3.org/2000/svg" viewBox="0 0 170 96.33"><defs><style>.cls-1{fill:#55575a;}</style></defs><title>Iron</title><g id="Layer_2" data-name="Layer 2"><g id="Homes"><g id="Iron"><path class="cls-1" d="M169.93,81.84a1.15,1.15,0,0,0,0-.26L154.86,11.19A14.26,14.26,0,0,0,141,0H59.1A8.11,8.11,0,0,0,51,8.1V8.9A8.11,8.11,0,0,0,59.1,17H114a2.85,2.85,0,0,1,2.77,2.24L120,34h-6.62a8.5,8.5,0,0,0-8.5-8.5H99.17a8.5,8.5,0,0,0-8.5,8.5H78.85A70.4,70.4,0,0,0,15.52,73.16l-3.19,6.36A14.14,14.14,0,0,0,0,93.5a2.83,2.83,0,0,0,2.83,2.83H167.17A2.83,2.83,0,0,0,170,93.5V82.17C170,82.05,169.95,82,169.93,81.84ZM114,11.33H59.1A2.44,2.44,0,0,1,56.67,8.9V8.1A2.44,2.44,0,0,1,59.1,5.67H141a8.56,8.56,0,0,1,8.3,6.71l14.35,67h-28.2L122.33,18.06A8.55,8.55,0,0,0,114,11.33ZM99.17,31.17h5.67A2.83,2.83,0,0,1,107.67,34H96.33A2.83,2.83,0,0,1,99.17,31.17ZM20.58,75.7a64.77,64.77,0,0,1,58.27-36h42.31l8.5,39.67H18.76Zm143.75,15H6.15a8.52,8.52,0,0,1,8-5.67H164.33Z"/><path class="cls-1" d="M78.85,45.33a58.81,58.81,0,0,0-47.6,23.8,2.83,2.83,0,1,0,4.53,3.4A53.2,53.2,0,0,1,78.85,51a2.83,2.83,0,0,0,0-5.67Z"/></g></g></g></svg>