<svg xmlns="http://www.w3.org/2000/svg" viewBox="0 0 170 136"><defs><style>.cls-1{fill:#55575a;}</style></defs><title>Toys</title><g id="Layer_2" data-name="Layer 2"><g id="Homes"><g id="Toys"><path class="cls-1" d="M167.17,51h-8.5V42.5a2.83,2.83,0,0,0-2.83-2.83h-17A2.83,2.83,0,0,0,136,42.5V51h-5.67V14.17a2.83,2.83,0,0,0-2.83-2.83h-2.83V2.83A2.83,2.83,0,0,0,121.83,0h-17A2.83,2.83,0,0,0,102,2.83v8.5H96.33V2.83A2.83,2.83,0,0,0,93.5,0h-17a2.83,2.83,0,0,0-2.83,2.83v8.5H68V2.83A2.83,2.83,0,0,0,65.17,0h-17a2.83,2.83,0,0,0-2.83,2.83v8.5H42.5a2.83,2.83,0,0,0-2.83,2.83V53.83a2.83,2.83,0,0,0,2.83,2.83H68v34H62.33v-8.5a2.83,2.83,0,0,0-2.83-2.83h-17a2.83,2.83,0,0,0-2.83,2.83v8.5H34v-8.5a2.83,2.83,0,0,0-2.83-2.83h-17a2.83,2.83,0,0,0-2.83,2.83v8.5H2.83A2.83,2.83,0,0,0,0,93.5v39.67A2.83,2.83,0,0,0,2.83,136H127.5a2.83,2.83,0,0,0,2.83-2.83V96.33h36.83A2.83,2.83,0,0,0,170,93.5V53.83A2.83,2.83,0,0,0,167.17,51Zm-25.5-5.67H153V51H141.67Zm-34-39.67H119v5.67H107.67Zm-28.33,0H90.67v5.67H79.33ZM51,5.67H62.33v5.67H51ZM45.33,17h79.33V51H45.33Zm0,68H56.67v5.67H45.33ZM17,85H28.33v5.67H17ZM5.67,96.33H34v34H5.67Zm119,34h-85v-34h85Zm39.67-39.67H73.67v-34h90.67Z"/><rect class="cls-1" x="51" y="28.33" width="5.67" height="17" rx="2.83" ry="2.83"/><rect class="cls-1" x="155.83" y="68" width="5.67" height="17" rx="2.83" ry="2.83"/></g></g></g></svg>