<svg xmlns="http://www.w3.org/2000/svg" viewBox="0 0 303 303"><defs><style>.cls-1{fill:#fff;stroke:#ccc;stroke-miterlimit:10;stroke-width:3px;}.cls-2{fill:#55575a;}</style></defs><title>bicycle</title><g id="Layer_2" data-name="Layer 2"><g id="Hotels"><rect id="bg" class="cls-1" x="1.5" y="1.5" width="300" height="300" rx="3.48" ry="3.48"/><path id="Bicycle" class="cls-2" d="M208,146.57a31.75,31.75,0,0,0-9.21,1.37l-17.29-40.33h12.34a3.54,3.54,0,0,0,0-7.08H176.11a3.54,3.54,0,0,0-3.25,4.94l7.3,17-44.22,12.63-7.08-13.36h8.29a3.54,3.54,0,0,0,0-7.08H112.36a3.54,3.54,0,0,0,0,7.08h8.5l8.9,16.82L119,151.71A31.86,31.86,0,1,0,133.4,182h21.46a3.6,3.6,0,0,0,.71-.07,3.44,3.44,0,0,0,.61-.18,3.54,3.54,0,0,0,1.77-1.53h0l.06-.11,26-48.7,8.29,19.36A31.83,31.83,0,1,0,208,146.57Zm-88,15.16a24.68,24.68,0,0,1,6.25,13.18h-17Zm-18.25,41.51a24.79,24.79,0,1,1,12.78-46L99,176.21a3.54,3.54,0,0,0,2.74,5.78h24.51A24.81,24.81,0,0,1,101.74,203.24Zm31.67-28.33a31.77,31.77,0,0,0-8.89-18.71l8.85-10.8L149,174.91Zm21.46-4-15.55-29.36L176.14,131ZM208,203.24a24.77,24.77,0,0,1-12.91-45.92l9.65,22.52a3.54,3.54,0,0,0,6.51-2.79l-9.66-22.51a24.79,24.79,0,1,1,6.4,48.7Z"/></g></g></svg>