<svg xmlns="http://www.w3.org/2000/svg" viewBox="0 0 303 303"><defs><style>.cls-1{fill:#fff;stroke:#ccc;stroke-miterlimit:10;stroke-width:3px;}.cls-2{fill:#55575a;}</style></defs><title>Coffee Maker</title><g id="Layer_2" data-name="Layer 2"><g id="Homes"><rect id="bg" class="cls-1" x="1.5" y="1.5" width="300" height="300" rx="3.48" ry="3.48"/><g id="Coffee_Maker" data-name="Coffee Maker"><path class="cls-2" d="M209.25,207.09a9.59,9.59,0,1,0-9.59-9.59,9.6,9.6,0,0,0,9.59,9.59Zm0-13.22a3.67,3.67,0,1,1-3.67,3.67,3.66,3.66,0,0,1,3.67-3.67Zm0,0"/><path class="cls-2" d="M221.8,63.28H88.72A15.11,15.11,0,0,0,73.45,78.55v26.59h36v17.24h-.24a3,3,0,0,0-3,3v3.43H70a3,3,0,1,0,0,5.92H106.2v6.9a3,3,0,0,0,3,3h10.1v6.9h5.92v-6.9h10.1a3,3,0,0,0,3-3V125.34a3,3,0,0,0-3-3H135V105.14h36.45a9.62,9.62,0,0,1,9.86,9.35v83.76a9.62,9.62,0,0,1-9.86,9.35H146.72l7.73-15.43a3.05,3.05,0,0,0,.32-1.34v-.47H165.1a2.94,2.94,0,0,0,2.92-2.53l3.43-22.64a3,3,0,0,0-.67-2.37,2.88,2.88,0,0,0-2.25-1H96.06a3,3,0,0,0-3,3v26.12a3.2,3.2,0,0,0,.32,1.34l7.73,15.42H73.42v16.77a15.11,15.11,0,0,0,15.27,15.27H221.76A15.11,15.11,0,0,0,237,224.41V78.59A15.06,15.06,0,0,0,221.8,63.28Zm-67,104.43H165.1l-2.52,16.73h-7.81Zm-22.45-29.08h-20.2V128.3h20.2Zm-17-16.25V105.14h13.81v17.24ZM99.06,190.16V167.72h49.79v22.45l-8.72,17.44H107.82ZM231.18,83H201.12v5.92h30.06V99.23H201.12v5.92h30.06v10.34H201.12v5.92h30.06V224.33a9.31,9.31,0,0,1-9.39,9.39H88.72a9.25,9.25,0,0,1-9.35-9.35V213.52h92.2c8.68,0,15.78-6.87,15.78-15.27V114.49a15.55,15.55,0,0,0-15.78-15.27H79.41V78.55a9.25,9.25,0,0,1,9.35-9.35H221.84a9.25,9.25,0,0,1,9.35,9.35Zm0,0"/></g></g></g></svg>