<svg xmlns="http://www.w3.org/2000/svg" viewBox="0 0 303 303"><defs><style>.cls-1{fill:#fff;stroke:#ccc;stroke-miterlimit:10;stroke-width:3px;}.cls-2{fill:#55575a;}</style></defs><title>Heating</title><g id="Layer_2" data-name="Layer 2"><g id="Homes"><rect id="bg" class="cls-1" x="1.5" y="1.5" width="300" height="300" rx="3.48" ry="3.48"/><g id="Heating"><path class="cls-2" d="M120.84,117.95a3.54,3.54,0,0,1-2.95-5.5c4.73-7.1,2.61-11.38-.31-17.3-3.13-6.33-7-14.2.31-25.2a3.54,3.54,0,1,1,5.89,3.92c-5.06,7.6-2.77,12.25.14,18.13,3.06,6.18,6.86,13.87-.15,24.37A3.52,3.52,0,0,1,120.84,117.95Z"/><path class="cls-2" d="M149.05,117.95a3.5,3.5,0,0,1-2-.6,3.54,3.54,0,0,1-1-4.91c4.73-7.1,2.61-11.38-.31-17.3-3.12-6.33-7-14.2.31-25.2A3.54,3.54,0,1,1,152,73.87c-5.06,7.6-2.77,12.25.15,18.13,3.06,6.18,6.86,13.87-.15,24.37A3.54,3.54,0,0,1,149.05,117.95Z"/><path class="cls-2" d="M177.27,117.95a3.5,3.5,0,0,1-2-.6,3.54,3.54,0,0,1-1-4.91c4.73-7.1,2.61-11.38-.31-17.3-3.12-6.33-7-14.2.31-25.2a3.54,3.54,0,0,1,5.89,3.92c-5.06,7.6-2.77,12.25.15,18.13,3.06,6.18,6.86,13.87-.15,24.37A3.52,3.52,0,0,1,177.27,117.95Z"/><path class="cls-2" d="M209,224.2H88.56a17.73,17.73,0,0,1-17.71-17.71V142.74A17.73,17.73,0,0,1,88.56,125H209a17.73,17.73,0,0,1,17.71,17.71v63.75A17.73,17.73,0,0,1,209,224.2ZM88.56,132.11a10.64,10.64,0,0,0-10.63,10.63v63.75a10.64,10.64,0,0,0,10.63,10.63H209a10.64,10.64,0,0,0,10.63-10.63V142.74A10.64,10.64,0,0,0,209,132.11Z"/><path class="cls-2" d="M95.64,210a3.54,3.54,0,0,1-3.54-3.54V142.74a3.54,3.54,0,1,1,7.08,0v63.75A3.54,3.54,0,0,1,95.64,210Z"/><path class="cls-2" d="M116.89,210a3.54,3.54,0,0,1-3.54-3.54V142.74a3.54,3.54,0,1,1,7.08,0v63.75A3.54,3.54,0,0,1,116.89,210Z"/><path class="cls-2" d="M138.14,210a3.54,3.54,0,0,1-3.54-3.54V142.74a3.54,3.54,0,1,1,7.08,0v63.75A3.54,3.54,0,0,1,138.14,210Z"/><path class="cls-2" d="M159.39,210a3.54,3.54,0,0,1-3.54-3.54V142.74a3.54,3.54,0,1,1,7.08,0v63.75A3.54,3.54,0,0,1,159.39,210Z"/><path class="cls-2" d="M180.64,210a3.54,3.54,0,0,1-3.54-3.54V142.74a3.54,3.54,0,1,1,7.08,0v63.75A3.54,3.54,0,0,1,180.64,210Z"/><path class="cls-2" d="M201.9,210a3.54,3.54,0,0,1-3.54-3.54V142.74a3.54,3.54,0,1,1,7.08,0v63.75A3.54,3.54,0,0,1,201.9,210Z"/><path class="cls-2" d="M102.73,238.37a3.54,3.54,0,0,1-3.54-3.54V220.66a3.54,3.54,0,0,1,7.08,0v14.17A3.54,3.54,0,0,1,102.73,238.37Z"/><path class="cls-2" d="M194.81,238.37a3.54,3.54,0,0,1-3.54-3.54V220.66a3.54,3.54,0,0,1,7.08,0v14.17A3.54,3.54,0,0,1,194.81,238.37Z"/></g></g></g></svg>