<svg xmlns="http://www.w3.org/2000/svg" viewBox="0 0 303 303"><defs><style>.cls-1{fill:#fff;stroke:#ccc;stroke-miterlimit:10;stroke-width:3px;}.cls-2{fill:#55575a;}</style></defs><title>MiniBar</title><g id="Layer_2" data-name="Layer 2"><g id="Hotels"><rect id="bg" class="cls-1" x="1.5" y="1.5" width="300" height="300" rx="3.48" ry="3.48"/><g id="Mini-bar"><path class="cls-2" d="M205.33,238.37H92a2.83,2.83,0,0,1-2.83-2.83v-136A19.86,19.86,0,0,1,109,79.7h79.33a19.86,19.86,0,0,1,19.83,19.83v136A2.83,2.83,0,0,1,205.33,238.37ZM94.83,232.7H202.5V99.53a14.18,14.18,0,0,0-14.17-14.17H109A14.18,14.18,0,0,0,94.83,99.53Z"/><path class="cls-2" d="M191.17,227h-85a5.67,5.67,0,0,1-5.67-5.67v-119A11.34,11.34,0,0,1,111.83,91H185.5a11.34,11.34,0,0,1,11.33,11.33v119A5.67,5.67,0,0,1,191.17,227ZM111.83,96.7a5.67,5.67,0,0,0-5.67,5.67v119h85v-119a5.67,5.67,0,0,0-5.67-5.67Z"/><path class="cls-2" d="M194,170.37H103.33a2.83,2.83,0,0,1,0-5.67H194a2.83,2.83,0,0,1,0,5.67Z"/><path class="cls-2" d="M140.17,227H120.33a2.84,2.84,0,0,1-2.54-1.57l-2.54-5.07a5.74,5.74,0,0,1-.59-2.53V194.28a8.44,8.44,0,0,1,1.58-4.94l4.61-6.45a2.83,2.83,0,0,1,2.31-1.19h14.17a2.83,2.83,0,0,1,2.3,1.19l4.61,6.45a8.43,8.43,0,0,1,1.59,4.94v23.58a5.71,5.71,0,0,1-.6,2.54l-2.54,5.07A2.83,2.83,0,0,1,140.17,227Zm-18.08-5.67h16.33l1.75-3.5V194.28a2.86,2.86,0,0,0-.53-1.65l-3.77-5.27H124.62l-3.76,5.27a2.86,2.86,0,0,0-.53,1.65v23.58Z"/><path class="cls-2" d="M143,187.37H117.5a2.83,2.83,0,0,1,0-5.67H143a2.83,2.83,0,0,1,0,5.67Z"/><path class="cls-2" d="M177,227H157.17a2.84,2.84,0,0,1-2.54-1.57l-2.54-5.07a5.74,5.74,0,0,1-.59-2.53V188.61a8.44,8.44,0,0,1,1.58-4.94l4.61-6.45A2.83,2.83,0,0,1,160,176h14.17a2.83,2.83,0,0,1,2.3,1.19l4.61,6.45a8.44,8.44,0,0,1,1.58,4.94v29.25a5.71,5.71,0,0,1-.6,2.54l-2.54,5.07A2.83,2.83,0,0,1,177,227Zm-18.08-5.67h16.33l1.75-3.5V188.61a2.81,2.81,0,0,0-.53-1.65l-3.77-5.27H161.46L157.69,187a2.83,2.83,0,0,0-.52,1.65v29.25Z"/><path class="cls-2" d="M179.83,181.7h-25.5a2.83,2.83,0,0,1,0-5.67h25.5a2.83,2.83,0,1,1,0,5.67Z"/><path class="cls-2" d="M177,170.37H157.17a2.84,2.84,0,0,1-2.54-1.57l-2.54-5.07a5.74,5.74,0,0,1-.59-2.53V137.61a8.47,8.47,0,0,1,1.58-4.94l4.62-6.46A2.83,2.83,0,0,1,160,125h14.17a2.83,2.83,0,0,1,2.3,1.18l4.61,6.45a8.46,8.46,0,0,1,1.58,4.94V161.2a5.71,5.71,0,0,1-.6,2.54l-2.54,5.07A2.83,2.83,0,0,1,177,170.37Zm-18.08-5.67h16.33l1.75-3.5V137.61a2.8,2.8,0,0,0-.53-1.65l-3.76-5.27H161.46L157.69,136a2.82,2.82,0,0,0-.52,1.65V161.2Z"/><path class="cls-2" d="M179.83,130.7h-25.5a2.83,2.83,0,0,1,0-5.67h25.5a2.83,2.83,0,1,1,0,5.67Z"/><path class="cls-2" d="M137.46,170.37h-.2a2.83,2.83,0,0,1-2.62-3l2.69-37.67a2.82,2.82,0,0,0-.46-1.86l-3.69-5.4a8.4,8.4,0,0,1-1.46-4.74V108H126l0,9.62a8.39,8.39,0,0,1-1.45,4.73l-3.7,5.42a2.76,2.76,0,0,0-.46,1.8L123,167.33a2.83,2.83,0,0,1-5.65.4l-2.69-37.67a8.43,8.43,0,0,1,1.42-5.45l3.7-5.42a2.76,2.76,0,0,0,.47-1.54V108a5.66,5.66,0,0,1,1.69-4,5.73,5.73,0,0,1,4-1.64h5.64a5.69,5.69,0,0,1,5.71,5.65v9.64a2.76,2.76,0,0,0,.48,1.55l3.69,5.4a8.48,8.48,0,0,1,1.43,5.51l-2.69,37.62A2.84,2.84,0,0,1,137.46,170.37Z"/><path class="cls-2" d="M139.8,136.37H117.87a2.83,2.83,0,0,1,0-5.67H139.8a2.83,2.83,0,0,1,0,5.67Z"/><path class="cls-2" d="M138.75,147.7H118.92a2.83,2.83,0,1,1,0-5.67h19.83a2.83,2.83,0,0,1,0,5.67Z"/><path class="cls-2" d="M199.66,89.7a2.82,2.82,0,0,1-1.75-.61L179.62,74.64a2.84,2.84,0,0,0-1.75-.61h-58.4a2.86,2.86,0,0,0-1.76.61L99.42,89.09a2.83,2.83,0,1,1-3.51-4.45L114.2,70.2a8.53,8.53,0,0,1,5.27-1.83h58.4a8.51,8.51,0,0,1,5.27,1.83l18.29,14.45a2.83,2.83,0,0,1-1.76,5.06Z"/></g></g></g></svg>