<svg xmlns="http://www.w3.org/2000/svg" viewBox="0 0 303 303"><defs><style>.cls-1{fill:#fff;stroke:#ccc;stroke-miterlimit:10;stroke-width:3px;}.cls-2{fill:#55575a;}</style></defs><title>Parking</title><g id="Layer_2" data-name="Layer 2"><g id="Homes"><rect id="bg" class="cls-1" x="1.5" y="1.5" width="300" height="300" rx="3.48" ry="3.48"/><g id="Parking"><path class="cls-2" d="M148.77,238.37a85,85,0,1,1,85-85A85.25,85.25,0,0,1,148.77,238.37Zm0-162.27A77.27,77.27,0,1,0,226,153.37,77.5,77.5,0,0,0,148.77,76.09Z"/><path class="cls-2" d="M133.31,203.59a3.65,3.65,0,0,1-3.86-3.86v-85a3.86,3.86,0,1,1,7.73,0v85A3.65,3.65,0,0,1,133.31,203.59Z"/><path class="cls-2" d="M156.5,165H133.31a3.65,3.65,0,0,1-3.86-3.86V114.73a3.65,3.65,0,0,1,3.86-3.86H156.5a27,27,0,0,1,0,54.09Zm-19.32-7.73H156.5a19.32,19.32,0,0,0,0-38.64H137.18Z"/></g></g></g></svg>