<svg xmlns="http://www.w3.org/2000/svg" viewBox="0 0 303 303"><defs><style>.cls-1{fill:#fff;stroke:#ccc;stroke-miterlimit:10;stroke-width:3px;}.cls-2{fill:#55575a;}</style></defs><title>Playground</title><g id="Layer_2" data-name="Layer 2"><g id="Hotels"><rect id="bg" class="cls-1" x="1.5" y="1.5" width="300" height="300" rx="3.48" ry="3.48"/><g id="Playground"><path class="cls-2" d="M223.19,233a2.5,2.5,0,0,1-2.48-2.24L205.2,81.25a2.82,2.82,0,0,0-2.82-2.57H94.95a2.82,2.82,0,0,0-2.82,2.56L76.63,230.8a2.5,2.5,0,0,1-5-.51L87.17,80.74a7.79,7.79,0,0,1,7.78-7H202.39a7.79,7.79,0,0,1,7.78,7.06l15.5,149.54a2.49,2.49,0,0,1-2.22,2.74Zm0,0"/><path class="cls-2" d="M82.13,233h-16a2.5,2.5,0,0,1,0-5h16a2.5,2.5,0,0,1,0,5Zm0,0"/><path class="cls-2" d="M231.17,233h-16a2.5,2.5,0,1,1,0-5h16a2.5,2.5,0,1,1,0,5Zm0,0"/><path class="cls-2" d="M207.22,94.65H90.12a2.5,2.5,0,1,1,0-5h117.1a2.5,2.5,0,1,1,0,5Zm0,0"/><path class="cls-2" d="M167.3,169.17a2.49,2.49,0,0,1-2.5-2.5V86.83a2.5,2.5,0,1,1,5,0v79.84a2.49,2.49,0,0,1-2.5,2.5Zm0,0"/><path class="cls-2" d="M188.59,169.17a2.49,2.49,0,0,1-2.5-2.5V86.83a2.5,2.5,0,0,1,5,0v79.84a2.49,2.49,0,0,1-2.5,2.5Zm0,0"/><path class="cls-2" d="M193.91,206.43H162a7.82,7.82,0,0,1,0-15.64h31.94a7.82,7.82,0,1,1,0,15.64ZM162,195.78a2.83,2.83,0,0,0,0,5.66h31.94a2.83,2.83,0,1,0,0-5.66Zm0,0"/><path class="cls-2" d="M193.91,195.78a2.49,2.49,0,0,1-2.5-2.5V172a2.83,2.83,0,0,0-2.83-2.83H167.3a2.83,2.83,0,0,0-2.83,2.83v21.29a2.5,2.5,0,1,1-5,0V172a7.83,7.83,0,0,1,7.82-7.82h21.29a7.83,7.83,0,0,1,7.82,7.82v21.29a2.49,2.49,0,0,1-2.5,2.5Zm0,0"/><path class="cls-2" d="M162,187.8h-5.32a2.5,2.5,0,1,1,0-5H162a2.5,2.5,0,1,1,0,5Zm0,0"/><path class="cls-2" d="M199.23,187.8h-5.32a2.5,2.5,0,1,1,0-5h5.32a2.5,2.5,0,1,1,0,5Zm0,0"/><path class="cls-2" d="M108.74,169.17a2.49,2.49,0,0,1-2.5-2.5V86.83a2.5,2.5,0,1,1,5,0v79.84a2.49,2.49,0,0,1-2.5,2.5Zm0,0"/><path class="cls-2" d="M130,169.17a2.49,2.49,0,0,1-2.5-2.5V86.83a2.5,2.5,0,0,1,5,0v79.84a2.49,2.49,0,0,1-2.5,2.5Zm0,0"/><path class="cls-2" d="M135.36,206.43H103.42a7.82,7.82,0,1,1,0-15.64h31.94a7.82,7.82,0,1,1,0,15.64Zm-31.94-10.65a2.83,2.83,0,1,0,0,5.66h31.94a2.83,2.83,0,1,0,0-5.66Zm0,0"/><path class="cls-2" d="M135.36,195.78a2.49,2.49,0,0,1-2.5-2.5V172a2.83,2.83,0,0,0-2.83-2.83H108.74a2.83,2.83,0,0,0-2.83,2.83v21.29a2.5,2.5,0,1,1-5,0V172a7.83,7.83,0,0,1,7.82-7.82H130a7.83,7.83,0,0,1,7.82,7.82v21.29a2.49,2.49,0,0,1-2.5,2.5Zm0,0"/><path class="cls-2" d="M103.42,187.8H98.1a2.5,2.5,0,0,1,0-5h5.32a2.5,2.5,0,1,1,0,5Zm0,0"/><path class="cls-2" d="M140.68,187.8h-5.32a2.5,2.5,0,0,1,0-5h5.32a2.5,2.5,0,0,1,0,5Zm0,0"/></g></g></g></svg>