<svg xmlns="http://www.w3.org/2000/svg" viewBox="0 0 303 303"><defs><style>.cls-1{fill:#fff;stroke:#ccc;stroke-miterlimit:10;stroke-width:3px;}.cls-2{fill:#55575a;}</style></defs><title>Pool</title><g id="Layer_2" data-name="Layer 2"><g id="Homes"><rect id="bg" class="cls-1" x="1.5" y="1.5" width="300" height="300" rx="3.48" ry="3.48"/><g id="Pool"><path class="cls-2" d="M233.57,188.14a20.81,20.81,0,0,0-11.71,3.32,16.5,16.5,0,0,1-17.61,0,22.34,22.34,0,0,0-23.43,0,16.5,16.5,0,0,1-17.61,0,22.34,22.34,0,0,0-23.42,0,16.5,16.5,0,0,1-17.61,0,20.8,20.8,0,0,0-11.71-3.32,25.52,25.52,0,0,0-3,.17V173.56h26.45v8.94a2.93,2.93,0,0,0,5.86,0V114.94A29.38,29.38,0,0,1,153,90.4a29.2,29.2,0,0,1,13.21,24.54,2.93,2.93,0,0,0,5.86,0,35,35,0,0,0-13.22-27.52,29.38,29.38,0,0,1,39.67,27.52,2.93,2.93,0,0,0,5.86,0,35.25,35.25,0,1,0-70.49,0v5.64H107.42v-5.64a29.42,29.42,0,0,1,29.38-29.38c.68,0,1.36,0,2,.07a2.93,2.93,0,0,0,.4-5.85c-.81-.05-1.63-.08-2.43-.08a35.29,35.29,0,0,0-35.25,35.25v75c-1,.48-1.94,1-2.81,1.49a16.5,16.5,0,0,1-17.61,0,20.8,20.8,0,0,0-11.71-3.32,2.93,2.93,0,0,0,0,5.86,15.22,15.22,0,0,1,8.81,2.54,22.34,22.34,0,0,0,23.42,0,16.51,16.51,0,0,1,17.61,0,22.34,22.34,0,0,0,23.42,0,16.51,16.51,0,0,1,17.61,0,22.34,22.34,0,0,0,23.42,0,16.51,16.51,0,0,1,17.61,0,22.34,22.34,0,0,0,23.43,0,15.23,15.23,0,0,1,8.81-2.54,2.93,2.93,0,0,0,0-5.86ZM107.42,167.69V150h26.45v17.7Zm26.45-41.26v17.7H107.42v-17.7Zm0,0"/><path class="cls-2" d="M213.05,205.72a15.22,15.22,0,0,1-8.81-2.54,22.33,22.33,0,0,0-23.43,0,16.51,16.51,0,0,1-17.61,0,22.33,22.33,0,0,0-23.42,0,16.51,16.51,0,0,1-17.61,0,22.33,22.33,0,0,0-23.42,0,15.22,15.22,0,0,1-8.8,2.54,2.93,2.93,0,1,0,0,5.86,20.81,20.81,0,0,0,11.71-3.32,16.49,16.49,0,0,1,17.61,0,22.34,22.34,0,0,0,23.42,0,16.5,16.5,0,0,1,17.61,0,22.34,22.34,0,0,0,23.42,0,16.5,16.5,0,0,1,17.61,0,20.81,20.81,0,0,0,11.71,3.32,2.93,2.93,0,0,0,0-5.86Zm0,0"/><path class="cls-2" d="M192.53,211.59a20.81,20.81,0,0,0-11.71,3.32,16.5,16.5,0,0,1-17.61,0,22.34,22.34,0,0,0-23.42,0,16.5,16.5,0,0,1-17.61,0,20.81,20.81,0,0,0-11.71-3.32,2.93,2.93,0,0,0,0,5.86,15.21,15.21,0,0,1,8.8,2.54,22.33,22.33,0,0,0,23.42,0,16.51,16.51,0,0,1,17.61,0,22.33,22.33,0,0,0,23.42,0,15.22,15.22,0,0,1,8.81-2.54,2.93,2.93,0,0,0,0-5.86Zm0,0"/></g></g></g></svg>