<svg xmlns="http://www.w3.org/2000/svg" viewBox="0 0 303 303"><defs><style>.cls-1{fill:#fff;stroke:#ccc;stroke-miterlimit:10;stroke-width:3px;}.cls-2{fill:#55575a;}</style></defs><title>Restaurant</title><g id="Layer_2" data-name="Layer 2"><g id="Hotels"><rect id="bg" class="cls-1" x="1.5" y="1.5" width="300" height="300" rx="3.48" ry="3.48"/><path id="Restaurant" class="cls-2" d="M242.95,106.53a3,3,0,0,0-3.41,2.52l-8.62,57.44h-20.8l-.43-10h.87a3,3,0,0,0,3-3.13l-1-24a3,3,0,0,0-3-2.87h-25V116a9,9,0,0,0,6-8.48v-10a3,3,0,0,0-3-3h-12a3,3,0,0,0-3,3v10a9,9,0,0,0,6,8.48V126.5h-16v-29a11,11,0,0,0-8-10.58V69.5a3,3,0,1,0-6,0V86.92a11,11,0,0,0-8,10.58v29h-16V116a9,9,0,0,0,6-8.48v-10a3,3,0,0,0-3-3h-12a3,3,0,0,0-3,3v10a9,9,0,0,0,6,8.48V126.5h-25a3,3,0,0,0-3,2.87l-1,24a3,3,0,0,0,3,3.13h.87l-.43,10H72.08l-8.62-57.44a3,3,0,1,0-5.93.89l9,59.78V233.5a3,3,0,1,0,6,0v-49H92.11l-1.6,36.87a3,3,0,0,0,3,3.13,30.26,30.26,0,0,0,9-1.23V233.5a3,3,0,1,0,6,0V220.65l.95-.52c2.93-1.62,5.54-3,10.05-3.49V233.5a3,3,0,1,0,6,0V216.64c4.51.44,7.12,1.87,10.05,3.49a31.27,31.27,0,0,0,31.9,0c2.93-1.62,5.54-3,10-3.49V233.5a3,3,0,1,0,6,0V216.64c4.51.44,7.12,1.87,10.05,3.49l.95.52V233.5a3,3,0,0,0,6,0V223.26a30.24,30.24,0,0,0,9,1.24,3,3,0,0,0,3-3.13l-1.6-36.87H230.5v49a3,3,0,0,0,6,0V169.72l9-59.78A3,3,0,0,0,242.95,106.53Zm-64.45-6h6v7a3,3,0,1,1-6,0Zm-60,0h6v7a3,3,0,1,1-6,0Zm28-3a5,5,0,1,1,10,0v29h-10Zm-74,81v-6H92.63l-.26,6Zm123.95,36.37a31.27,31.27,0,0,0-31.9,0c-3.53,1.95-6.57,3.63-13.05,3.63s-9.52-1.68-13.05-3.63a31.27,31.27,0,0,0-31.9,0c-.84.46-1.64.91-2.48,1.32a20.54,20.54,0,0,1-7.43,2.16l2.69-61.85h83.2a3,3,0,1,0,0-6H95.59l.78-18H206.63l.78,18H194.53a3,3,0,1,0,0,6h9.14l2.69,61.85C201.93,217.9,199.35,216.47,196.45,214.87Zm14.18-36.37-.26-6H230.5v6Z"/></g></g></svg>