<svg xmlns="http://www.w3.org/2000/svg" viewBox="0 0 303 303"><defs><style>.cls-1{fill:#fff;stroke:#ccc;stroke-miterlimit:10;stroke-width:3px;}.cls-2{fill:#55575a;}</style></defs><title>Room Service</title><g id="Layer_2" data-name="Layer 2"><g id="Hotels"><rect id="bg" class="cls-1" x="1.5" y="1.5" width="300" height="300" rx="3.48" ry="3.48"/><g id="Room_Service" data-name="Room Service"><path class="cls-2" d="M229.45,227H87.73a3.22,3.22,0,0,1-2.27-.85,3.05,3.05,0,0,1-.57-2.27L92.83,161a8.39,8.39,0,0,1,8.5-7.65H215.84a8.59,8.59,0,0,1,8.5,7.65l7.94,62.92a5.34,5.34,0,0,1-.57,2.27A3.22,3.22,0,0,1,229.45,227Zm-138.6-5.67H226l-7.65-59.81a2.77,2.77,0,0,0-2.83-2.55H101.33a3,3,0,0,0-2.83,2.55Z"/><path class="cls-2" d="M101.9,238.37a8.5,8.5,0,1,1,8.5-8.5A8.35,8.35,0,0,1,101.9,238.37Zm0-11.34a2.83,2.83,0,1,0,2.83,2.83A2.68,2.68,0,0,0,101.9,227Z"/><path class="cls-2" d="M215.28,238.37a8.5,8.5,0,1,1,8.5-8.5A8.35,8.35,0,0,1,215.28,238.37Zm0-11.34a2.83,2.83,0,1,0,2.83,2.83A2.68,2.68,0,0,0,215.28,227Z"/><path class="cls-2" d="M92.83,187.35H79.22a2.76,2.76,0,0,1-2.83-2.27L71.29,159h-3.4a2.83,2.83,0,0,1,0-5.67h5.67a2.76,2.76,0,0,1,2.83,2.27l5.1,26.08H92.83a2.68,2.68,0,0,1,2.83,2.83A2.84,2.84,0,0,1,92.83,187.35Z"/><path class="cls-2" d="M203.94,159h-90.7a2.72,2.72,0,0,1-2.55-1.7L105,146a3.31,3.31,0,0,1,0-2.83,3,3,0,0,1,2.55-1.42h102a3.38,3.38,0,0,1,2.55,1.42,2.57,2.57,0,0,1,0,2.83l-5.67,11.34A2.72,2.72,0,0,1,203.94,159Zm-89-5.67h87.3l2.83-5.67h-93Z"/><path class="cls-2" d="M107.57,147.66A2.72,2.72,0,0,1,105,146a50.62,50.62,0,0,1-1.13-39.12A50,50,0,0,1,130.81,78.5a51.92,51.92,0,0,1,39.12-1.13,50,50,0,0,1,28.34,26.93,2.81,2.81,0,0,1-1.42,3.68L109,147.38A12.28,12.28,0,0,0,107.57,147.66Zm43.93-68a46.84,46.84,0,0,0-18.42,4,45.2,45.2,0,0,0-23.81,25.23,44.57,44.57,0,0,0,0,32l82.48-37.13A46.07,46.07,0,0,0,151.5,79.64Z"/><path class="cls-2" d="M114.94,131.79a3,3,0,0,1-2.83-2.55,39.24,39.24,0,0,1,23.24-40.53,2.79,2.79,0,0,1,2.27,5.1,33.7,33.7,0,0,0-19.84,34.86,2.81,2.81,0,0,1-2.55,3.12Z"/><path class="cls-2" d="M131.94,83.89a2.72,2.72,0,0,1-2.55-1.7L126,74.53a2.79,2.79,0,1,1,5.1-2.27l3.4,7.65a2.81,2.81,0,0,1-1.42,3.68A2.14,2.14,0,0,1,131.94,83.89Z"/><path class="cls-2" d="M123.16,78.5a2.72,2.72,0,0,1-2.55-1.7A2.81,2.81,0,0,1,122,73.12l9.92-4.54a2.79,2.79,0,0,1,2.27,5.1l-9.92,4.54C124,78.22,123.44,78.5,123.16,78.5Z"/><path class="cls-2" d="M158.59,227a2.68,2.68,0,0,1-2.83-2.83V178.84a2.83,2.83,0,0,1,5.67,0v45.35A2.68,2.68,0,0,1,158.59,227Z"/><path class="cls-2" d="M133.08,227h0a2.91,2.91,0,0,1-2.83-3.12l2.83-45.35a2.85,2.85,0,1,1,5.67.57l-2.83,45.35A2.8,2.8,0,0,1,133.08,227Z"/><path class="cls-2" d="M107.57,227h-.28a3.32,3.32,0,0,1-2.55-3.12l5.67-45.35a2.85,2.85,0,1,1,5.67.57l-5.67,45.35A3,3,0,0,1,107.57,227Z"/><path class="cls-2" d="M184.1,227a2.8,2.8,0,0,1-2.83-2.55l-2.83-45.35A3.08,3.08,0,0,1,181,176a3.32,3.32,0,0,1,3.12,2.55l2.83,45.35A2.91,2.91,0,0,1,184.1,227Z"/><path class="cls-2" d="M209.61,227a3,3,0,0,1-2.83-2.55l-5.67-45.35a2.81,2.81,0,0,1,2.55-3.12c1.7-.28,2.83.85,3.12,2.55l5.67,45.35a2.81,2.81,0,0,1-2.55,3.12Z"/><path class="cls-2" d="M198.27,147.66h-90.7a2.76,2.76,0,0,1-2.83-2.27,2.57,2.57,0,0,1,1.7-3.12l62.92-28.34a2.14,2.14,0,0,1,1.13-.28h2.27a10.62,10.62,0,0,1,8.79,4.25,11.72,11.72,0,0,1,5.39-1.42A11.56,11.56,0,0,1,198,125a11.34,11.34,0,1,1,.28,22.68ZM120.89,142h77.38a5.67,5.67,0,1,0,0-11.34,5.53,5.53,0,0,0-2,.28,2.66,2.66,0,0,1-2.55-.28,2.76,2.76,0,0,1-1.13-2.55v-.57a5.69,5.69,0,0,0-5.67-5.67,5.77,5.77,0,0,0-4.25,1.7,2.29,2.29,0,0,1-2.55.85,3,3,0,0,1-2-1.7,5.54,5.54,0,0,0-5.39-3.68h-1.7Z"/></g></g></g></svg>