<svg xmlns="http://www.w3.org/2000/svg" viewBox="0 0 303 303"><defs><style>.cls-1{fill:#fff;stroke:#ccc;stroke-miterlimit:10;stroke-width:3px;}.cls-2{fill:#55575a;}</style></defs><title>Safe</title><g id="Layer_2" data-name="Layer 2"><g id="Hotels"><rect id="bg" class="cls-1" x="1.5" y="1.5" width="300" height="300" rx="3.48" ry="3.48"/><g id="Safe"><path class="cls-2" d="M214.79,208.61v-115a3.15,3.15,0,0,0-3.15-3.15h-115a3.15,3.15,0,0,0-3.15,3.15v115a3.15,3.15,0,0,0,3.15,3.15h115a3.15,3.15,0,0,0,3.15-3.15Zm-6.3-3.15H99.83V96.8H208.49Zm0,0"/><path class="cls-2" d="M185.5,238.51a3.15,3.15,0,0,0,3.15,3.15h23a3.15,3.15,0,0,0,3.15-3.15v-7.86h15.72a3.15,3.15,0,0,0,3.15-3.15V74.78a3.15,3.15,0,0,0-3.15-3.15H77.8a3.15,3.15,0,0,0-3.15,3.15V113.5H66.82a3.15,3.15,0,0,0-3.15,3.15v23a3.15,3.15,0,0,0,3.15,3.15h7.83v16.69H66.82a3.15,3.15,0,0,0-3.15,3.15v23a3.15,3.15,0,0,0,3.15,3.15h7.83V227.5a3.15,3.15,0,0,0,3.15,3.15H93.53v7.86a3.15,3.15,0,0,0,3.15,3.15h23a3.15,3.15,0,0,0,3.15-3.15v-7.86H185.5ZM70,136.49V119.8h4.67v16.69Zm0,46V165.78h4.67v16.69Zm46.55,52.89H99.84v-4.71h16.68Zm3.15-11H80.95V77.93H227.36V224.34Zm88.82,6.3v4.71H191.8v-4.71Zm0,0"/><path class="cls-2" d="M126.36,167.18l.05.08a32.09,32.09,0,0,0,55.49,0l.06-.09,0-.09a32.05,32.05,0,0,0,0-31.95l0-.06-.05-.08a32.09,32.09,0,0,0-55.53.07h0a32.05,32.05,0,0,0,0,32l0,.08Zm27.8-27.37A11.31,11.31,0,0,1,164,156.76l0,0,0,0a11.32,11.32,0,1,1-9.78-17ZM180,151.13a25.63,25.63,0,0,1-2.05,10.07l-7.15-4.13a17.59,17.59,0,0,0,0-11.88l7.15-4.13a25.63,25.63,0,0,1,2,10.07Zm-42.39,5.94-7.16,4.13a25.78,25.78,0,0,1,0-20.14l7.16,4.13a17.56,17.56,0,0,0,0,11.88Zm-4,9.59,7.16-4.13A17.62,17.62,0,0,0,151,168.47v8.27a25.82,25.82,0,0,1-17.44-10.08Zm23.74,10.08v-8.27a17.62,17.62,0,0,0,10.28-5.94l7.15,4.13a25.8,25.8,0,0,1-17.43,10.08Zm17.44-41.13-7.15,4.13a17.65,17.65,0,0,0-10.28-5.95v-8.26a25.8,25.8,0,0,1,17.44,10.08ZM151,125.53v8.26a17.63,17.63,0,0,0-10.28,5.95l-7.16-4.13A25.81,25.81,0,0,1,151,125.53Zm0,0"/></g></g></g></svg>