<svg xmlns="http://www.w3.org/2000/svg" viewBox="0 0 303 303"><defs><style>.cls-1{fill:#fff;stroke:#ccc;stroke-miterlimit:10;stroke-width:3px;}.cls-2{fill:#55575a;}</style></defs><title>Sauna</title><g id="Layer_2" data-name="Layer 2"><g id="Hotels"><rect id="bg" class="cls-1" x="1.5" y="1.5" width="300" height="300" rx="3.48" ry="3.48"/><g id="Sauna"><path class="cls-2" d="M196.26,141.72a3.16,3.16,0,1,0,4.95-3.94l-2.46-3.09a6.49,6.49,0,0,1,0-8.12l2.49-3.14a3.16,3.16,0,0,0-5-3.93l-2.49,3.14a12.79,12.79,0,0,0,0,16Z"/><path class="cls-2" d="M218.74,129.39a6.49,6.49,0,0,1,0,8.12,3.16,3.16,0,1,0,5,3.93,12.79,12.79,0,0,0,0-16l-2.46-3.09a6.49,6.49,0,0,1,0-8.12l2.49-3.14a3.16,3.16,0,1,0-5-3.93l-2.49,3.14a12.79,12.79,0,0,0,0,16Z"/><path class="cls-2" d="M81.77,141.72a6.49,6.49,0,0,1,0,8.12,3.16,3.16,0,1,0,5,3.93,12.79,12.79,0,0,0,0-16l-2.46-3.09a6.49,6.49,0,0,1,0-8.12l2.49-3.14a3.16,3.16,0,0,0-5-3.93l-2.49,3.14a12.79,12.79,0,0,0,0,16Z"/><path class="cls-2" d="M104.69,111.73a3.16,3.16,0,0,0,4.44-.51l.09-.11a3.16,3.16,0,0,0-5-3.94l-.09.11A3.16,3.16,0,0,0,104.69,111.73Z"/><path class="cls-2" d="M101.79,126.3l2.46,3.09a6.49,6.49,0,0,1,0,8.12,3.16,3.16,0,1,0,5,3.93,12.79,12.79,0,0,0,0-16l-2.46-3.09a6.48,6.48,0,0,1-1.2-2.39,3.16,3.16,0,0,0-6.11,1.62A12.76,12.76,0,0,0,101.79,126.3Z"/><path class="cls-2" d="M220.69,162.89H190.43a21.61,21.61,0,0,0-13.9-17.06l-14-5.13a.62.62,0,0,1-.31-.22v-5.71l5.66-3.24.17-.1a12.29,12.29,0,0,0,5.25-9.35c0-.08,0-.16,0-.24v-7.14a8.69,8.69,0,0,0,2.89-1.92l.91-.91a12.5,12.5,0,0,0,0-17.65L163.26,80.42a13.4,13.4,0,0,0-8.74-9.13,14.43,14.43,0,0,0-14.81,3.51L127.14,87.37a19.54,19.54,0,0,0,0,27.63l2.49,2.49v4.35c0,.08,0,.16,0,.24a12.27,12.27,0,0,0,5.22,9.35l.17.11,5.68,3.25v5.69a.51.51,0,0,1-.29.22l-14.06,5.14a21.61,21.61,0,0,0-13.9,17.06H82.19A3.16,3.16,0,0,0,79,166.05v63.24a3.16,3.16,0,0,0,3.16,3.16h138.5a3.16,3.16,0,0,0,3.16-3.16V166.05A3.16,3.16,0,0,0,220.69,162.89ZM85.35,188.19h16.76v20.87H85.35Zm23.08,0h16.76v20.87H108.43Zm16.76-19v12.65H108.43V169.21Zm46.17,0v12.65H154.6V169.21Zm23.08,0v12.65H177.68V169.21Zm-39.84,19h16.76v20.87H154.6Zm-6.32,20.87H131.52V188.19h16.76Zm0-27.19H131.52V169.21h16.76Zm-23.08,33.52v10.75H108.43V215.38Zm6.32,0h16.76v10.75H131.52Zm23.08,0h16.76v10.75H154.6Zm23.08,0h16.76v10.75H177.68Zm0-6.32V188.19h16.76v20.87Zm23.08-20.87h16.76v20.87H200.77Zm16.76-6.32H200.77V169.21h16.76ZM172.58,107.4l-.91.91a2.41,2.41,0,0,1-3.41,0L156.72,96.76l3.1-3.1A13.52,13.52,0,0,0,162.88,89l9.71,9.71A6.16,6.16,0,0,1,172.58,107.4Zm-41-15.56,12.57-12.57a8.13,8.13,0,0,1,5.76-2.4,8.23,8.23,0,0,1,2.59.42,7.18,7.18,0,0,1,2.82,11.89l-22.54,22.54-1.2-1.2a13.22,13.22,0,0,1,0-18.69ZM136,121.7v-4.18l16.3-16.3,11.54,11.54a8.68,8.68,0,0,0,3.14,2v6.92a6,6,0,0,1-2.35,4.4l-11.09,6.36-.17.1a3.28,3.28,0,0,1-3.76,0l-.17-.11-11.12-6.36A6,6,0,0,1,136,121.7Zm-7.43,30.07,14.08-5.15a6.58,6.58,0,0,0,4.42-6.14v-2.09a9.49,9.49,0,0,0,8.81,0v2.09a6.59,6.59,0,0,0,4.44,6.15l14.07,5.14A15.26,15.26,0,0,1,184,162.89h-6.32V161.1a3.16,3.16,0,0,0-6.32,0v1.79H131.52V161.1a3.16,3.16,0,0,0-6.32,0v1.79h-6.31A15.26,15.26,0,0,1,128.53,151.77Zm-26.42,17.44v12.65H85.35V169.21ZM85.35,215.38h16.76v10.75H85.35Zm115.42,10.75V215.38h16.76v10.75Z"/><path class="cls-2" d="M211.38,196.41a3.16,3.16,0,1,0,.93,2.24A3.19,3.19,0,0,0,211.38,196.41Z"/><path class="cls-2" d="M165.22,196.41a3.16,3.16,0,1,0,.93,2.24A3.19,3.19,0,0,0,165.22,196.41Z"/><path class="cls-2" d="M119,196.41a3.16,3.16,0,1,0,.93,2.24A3.19,3.19,0,0,0,119,196.41Z"/><path class="cls-2" d="M196.77,154.28a3.16,3.16,0,0,0,4.44-.51l.09-.11a3.16,3.16,0,0,0-5-3.94l-.09.11A3.16,3.16,0,0,0,196.77,154.28Z"/></g></g></g></svg>