<svg xmlns="http://www.w3.org/2000/svg" viewBox="0 0 303 303"><defs><style>.cls-1{fill:#fff;stroke:#ccc;stroke-width:3px;}.cls-1,.cls-2{stroke-miterlimit:10;}.cls-2{fill:#55575a;stroke:#55575a;stroke-width:0.5px;}</style></defs><title>SPA</title><g id="Layer_2" data-name="Layer 2"><g id="Hotels"><rect id="bg" class="cls-1" x="1.5" y="1.5" width="300" height="300" rx="3.48" ry="3.48"/><g id="SPA"><path class="cls-2" d="M114.33,198.3c-27.83-2.37-42.84-11.17-42.84-18.24,0-6.12,10.43-12.34,26.58-15.85a2.49,2.49,0,0,0,.38-.12,73.86,73.86,0,0,0,23.77,5h.14a2.5,2.5,0,0,0,.14-5c-9.9-.56-19-2.78-25.58-6.25-6.1-3.21-9.46-7.14-9.46-11.07,0-4.87,5.21-9.74,14-13.11,6.27,3.88,15.56,6.29,26.09,6.29s19.83-2.42,26.09-6.29a33.19,33.19,0,0,1,9.84,5.59,2.5,2.5,0,0,0,3.29-3.75,34.74,34.74,0,0,0-8.66-5.38,12.41,12.41,0,0,0,3.87-8.63c0-7.95-9-14.79-22.62-17.38a18.27,18.27,0,0,0,.13-2.19,18.53,18.53,0,0,0-9.23-16,2.49,2.49,0,0,0-2.5,0,18.43,18.43,0,0,0-7.61,8.43,18.52,18.52,0,0,0-11.33-.59A2.49,2.49,0,0,0,107,95.57a18.52,18.52,0,0,0,.41,10.85c-9,3.4-14.34,8.94-14.34,15.09A12.41,12.41,0,0,0,97,130.14c-9.27,4.19-14.51,10.14-14.51,16.65,0,5.25,3.41,10,9.28,13.83a61.68,61.68,0,0,0-16.22,6.66c-7.46,4.68-9,9.53-9,12.78,0,13.24,23.81,21.2,47.41,23.22h.21a2.49,2.49,0,0,0,.21-5ZM129,91.09A13.43,13.43,0,0,1,132,109.8a18.5,18.5,0,0,0-5.31-11.22,18.26,18.26,0,0,0-2.1-1.8A13.42,13.42,0,0,1,129,91.09Zm-17.45,7.23a13.46,13.46,0,0,1,15.34,15.34,13.46,13.46,0,0,1-15.34-15.34Zm-1.83,12.58a18.29,18.29,0,0,0,2.09,2.5,18.53,18.53,0,0,0,15.83,5.19,7.59,7.59,0,0,0,2.62-.67,18.53,18.53,0,0,0,7.82-9c11,2,18.9,7.19,18.9,12.54,0,3.22-2.91,6.53-8,9.06-5.69,2.85-13.32,4.41-21.47,4.41s-15.77-1.57-21.47-4.41c-5.07-2.53-8-5.84-8-9.06C98.1,117.49,102.52,113.49,109.74,110.89Z"/><path class="cls-2" d="M235.09,173.2a45.15,45.15,0,0,0-20.14-4.48,45.38,45.38,0,0,0-4.48-20.13,2.49,2.49,0,0,0-2.43-1.41,45.37,45.37,0,0,0-19.65,6.17,45.14,45.14,0,0,0-13.93-15.17,2.5,2.5,0,0,0-2.81,0,45.15,45.15,0,0,0-13.94,15.19A45.36,45.36,0,0,0,138,147.19a2.49,2.49,0,0,0-2.43,1.41,45.38,45.38,0,0,0-4.48,20.13A45.14,45.14,0,0,0,111,173.2a2.5,2.5,0,0,0-1.41,2.43A45.08,45.08,0,0,0,173,213.41a45.08,45.08,0,0,0,63.46-37.78A2.5,2.5,0,0,0,235.09,173.2Zm-28.4-20.86A40.39,40.39,0,0,1,210,169.06a45,45,0,0,0-15.79,5,45,45,0,0,0-3.56-16.23A40.36,40.36,0,0,1,206.69,152.33Zm-67.31,0a40.35,40.35,0,0,1,16.13,5.54A45,45,0,0,0,152,174.11a45,45,0,0,0-15.84-5.05A40.38,40.38,0,0,1,139.38,152.33ZM134.48,207a40.09,40.09,0,0,1-19.77-30,40.09,40.09,0,0,1,35.91,2.1c.52.3,1,.62,1.55.94a45.07,45.07,0,0,0,15.91,30A40.08,40.08,0,0,1,134.48,207Zm77.1,0A40.08,40.08,0,0,1,178,210a45.61,45.61,0,0,0,9.6-11.14,2.5,2.5,0,1,0-4.26-2.6,40.6,40.6,0,0,1-10.3,11.31,40.09,40.09,0,0,1,0-64.29,40.14,40.14,0,0,1,13.83,45.57,2.49,2.49,0,0,0,4.7,1.67A44.78,44.78,0,0,0,194,180c.49-.31,1-.61,1.49-.9a40.09,40.09,0,0,1,35.91-2.1A40.09,40.09,0,0,1,211.58,207Z"/></g></g></g></svg>