<svg xmlns="http://www.w3.org/2000/svg" viewBox="0 0 303 303"><defs><style>.cls-1{fill:#fff;stroke:#ccc;stroke-miterlimit:10;stroke-width:3px;}.cls-2{fill:#55575a;}</style></defs><title>Tennis</title><g id="Layer_2" data-name="Layer 2"><g id="Hotels"><rect id="bg" class="cls-1" x="1.5" y="1.5" width="300" height="300" rx="3.48" ry="3.48"/><g id="Tennis"><path class="cls-2" d="M202.82,122l-9-50.43H103.55L94.71,122h-31v5.69H70v50.62h5.69v-3.19H84.5l-11.65,60H224.48l-11.65-60h8.76v3.19h5.69V127.68h6.37V122Zm-5.65,5.69h9.37v10.44h-9.37Zm0,16.13h9.37v9.94h-9.37Zm0,15.63h9.37v9.94h-9.37ZM108.33,77.28H189L197,122H100.48Zm73.54,76.5.07-9.94h9.56v9.94Zm9.6,5.69v9.94h-9.83l.12-9.94ZM182,138.15l.11-10.44h9.37v10.44Zm-15.41,15.63v-9.94h9.68l-.11,9.94Zm9.49,5.69-.11,9.94h-9.41v-9.94Zm-9.49-21.32V127.71h9.83l-.11,10.44Zm-15.06,15.63v-9.94h9.37v9.94Zm9.37,5.69v9.94h-9.37v-9.94Zm-9.37-21.32V127.71h9.37v10.44Zm-15.07,15.63v-9.94h9.37v9.94Zm9.37,5.69v9.94h-9.37v-9.94Zm-9.37-21.32V127.71h9.37v10.44Zm-15.06,15.63v-9.94h9.37v9.94Zm9.37,5.69v9.94h-9.37v-9.94Zm-9.37-21.32V127.71h9.37v10.44Zm-5.69,5.69v9.94h-9.86v-9.94Zm-9.86-5.69V127.71h9.86v10.44Zm0,21.32h9.87v9.94h-9.87ZM90.8,127.71h9.37v10.44H90.8Zm0,16.13h9.37v9.94H90.8Zm0,15.63h9.37v9.94H90.8ZM75.73,127.71h9.37v10.44H75.73Zm0,16.13h9.37v9.94H75.73Zm0,25.57v-9.94h9.37v9.94Zm141.84,60H79.76l10.55-54.34H207.07Zm4-60h-9.37v-9.94h9.37Zm0-15.63h-9.37v-9.94h9.37Zm0-15.63h-9.37V127.71h9.37Zm0,0"/><path class="cls-2" d="M129.24,97a8.92,8.92,0,1,0,8.92,8.92A8.91,8.91,0,0,0,129.24,97Zm0,12.14a3.22,3.22,0,1,1,3.22-3.22,3.22,3.22,0,0,1-3.22,3.22Zm0,0"/></g></g></g></svg>