<?xml version="1.0" encoding="utf-8"?>
<!-- Generator: Adobe Illustrator 22.1.0, SVG Export Plug-In . SVG Version: 6.00 Build 0)  -->
<svg version="1.1" id="lifestyle" xmlns="http://www.w3.org/2000/svg" xmlns:xlink="http://www.w3.org/1999/xlink" x="0px" y="0px"
	 viewBox="0 0 64 64" style="enable-background:new 0 0 64 64;" xml:space="preserve">
<style type="text/css">
	.st0{fill:#CCCCCC;}
</style>
<title>arrow-back</title>
<path class="st0" d="M41.4,30.6L33.8,23l0,0c-0.8-0.8-2-0.8-2.8,0s-0.8,2,0,2.8l0,0l4.2,4.2H24c-1.1,0-2,0.9-2,2s0.9,2,2,2h11.2
	L31,38.2c-0.8,0.8-0.8,2,0,2.8c0.8,0.8,2,0.8,2.8,0l7.6-7.6c0.1-0.1,0.2-0.2,0.3-0.4C42.2,32.3,42.1,31.2,41.4,30.6L41.4,30.6z"/>
<path class="st0" d="M32,0C14.3,0,0,14.3,0,32s14.3,32,32,32s32-14.3,32-32S49.7,0,32,0z M32,60C16.5,60,4,47.5,4,32S16.5,4,32,4
	s28,12.5,28,28S47.5,60,32,60z"/>
</svg>
