<svg id="lifestyle" xmlns="http://www.w3.org/2000/svg" viewBox="0 0 64 64"><defs><style>.cls-1{fill:#223843;}</style></defs><title>close</title><path class="cls-1" d="M206.46,100.1a2,2,0,0,0-2.83,0l-2.83,2.83L198,100.11h0a2,2,0,0,0-2.83,2.83l2.83,2.83-2.83,2.83a2,2,0,0,0,2.83,2.83l2.83-2.83,2.83,2.83a2,2,0,0,0,2.83-2.83h0l-2.83-2.83,2.83-2.83A2,2,0,0,0,206.46,100.1Z" transform="translate(-168.8 -73.76)"/><path class="cls-1" d="M200.8,73.76a32,32,0,1,0,32,32A32,32,0,0,0,200.8,73.76Zm0,60a28,28,0,1,1,28-28A28,28,0,0,1,200.8,133.76Z" transform="translate(-168.8 -73.76)"/></svg>