<svg id="Capa_1" data-name="Capa 1" xmlns="http://www.w3.org/2000/svg" viewBox="0 0 3767.67 755.53"><defs><style>.cls-1{fill:#ef9d8f;}.cls-2{fill:#d97b61;}</style></defs><title>graphic</title><path class="cls-1" d="M2013.83,1335.49h-17.89A60.6,60.6,0,0,0,1981.2,1300l12.67-12.67a4.32,4.32,0,1,0-6.12-6.12l-12.67,12.67a60.6,60.6,0,0,0-35.52-14.74v-17.89a4.32,4.32,0,1,0-8.65,0v17.89a60.6,60.6,0,0,0-35.52,14.74l-12.67-12.67a4.32,4.32,0,0,0-6.12,6.12l12.67,12.67a60.6,60.6,0,0,0-14.74,35.52h-17.89a4.32,4.32,0,1,0,0,8.65h17.89a60.6,60.6,0,0,0,14.74,35.52l-12.67,12.67a4.32,4.32,0,0,0,6.12,6.12l12.67-12.67a60.6,60.6,0,0,0,35.52,14.74v17.89a4.32,4.32,0,1,0,8.65,0v-17.89a60.6,60.6,0,0,0,35.52-14.74l12.67,12.67a4.32,4.32,0,1,0,6.12-6.12l-12.67-12.67a60.6,60.6,0,0,0,14.74-35.52h17.89a4.32,4.32,0,1,0,0-8.65ZM1935.24,1392a52.23,52.23,0,1,1,52.23-52.23A52.29,52.29,0,0,1,1935.24,1392Z" transform="translate(-104.95 -1256.89)"/><path class="cls-2" d="M1935.24,1392a52.23,52.23,0,1,1,52.23-52.23A52.29,52.29,0,0,1,1935.24,1392Z" transform="translate(-104.95 -1256.89)"/><polygon class="cls-2" points="2382.77 742.13 2380.6 741.76 2454.95 296.35 2454.98 296.35 2481.44 300.77 2491.61 239.82 2594.47 256.99 2584.29 317.94 2608.84 322.04 2608.87 322.05 2578.32 505.02 2568.14 566 2538.75 742.13 2382.77 742.13"/><path class="cls-1" d="M2662.33,1950.69a3,3,0,0,1-.49,0l-171.23-28.58a3,3,0,1,1,1-5.86l171.23,28.58a3,3,0,0,1-.49,5.91Z" transform="translate(-104.95 -1256.89)"/><path class="cls-1" d="M2541.21,1929.09a3,3,0,0,1-.49,0l-26.59-4.44a3,3,0,0,1-2.44-3.42l6-36.09a16.26,16.26,0,0,1,16.08-13.63,16.47,16.47,0,0,1,2.7.22l.27,0a16.32,16.32,0,0,1,13.41,18.78l-6,36.09a3,3,0,0,1-2.93,2.48Zm-23.17-9.85,20.72,3.46,5.53-33.15a10.37,10.37,0,0,0-8.52-11.94l-.27,0a10.51,10.51,0,0,0-1.72-.14,10.33,10.33,0,0,0-10.21,8.66Z" transform="translate(-104.95 -1256.89)"/><path class="cls-1" d="M2589.27,1937.12a3,3,0,0,1-.49,0l-26.59-4.44a3,3,0,0,1-2.44-3.42l6-36.09a16.26,16.26,0,0,1,16.08-13.63,16.47,16.47,0,0,1,2.7.22l.27,0a16.33,16.33,0,0,1,13.41,18.78l-6,36.09A3,3,0,0,1,2589.27,1937.12Zm-23.17-9.85,20.72,3.46,5.53-33.15a10.38,10.38,0,0,0-8.52-11.94l-.27,0a10.5,10.5,0,0,0-1.72-.14,10.33,10.33,0,0,0-10.21,8.66Z" transform="translate(-104.95 -1256.89)"/><path class="cls-1" d="M2636.25,1945a3,3,0,0,1-.49,0l-26.59-4.44a3,3,0,0,1-2.44-3.42l6-36.09a16.26,16.26,0,0,1,16.08-13.63,16.47,16.47,0,0,1,2.7.22l.27,0a16.32,16.32,0,0,1,13.4,18.78l-6,36.09a3,3,0,0,1-2.93,2.48Zm-23.17-9.85,20.72,3.46,5.53-33.15a10.37,10.37,0,0,0-8.52-11.94l-.27,0a10.47,10.47,0,0,0-1.72-.14,10.33,10.33,0,0,0-10.21,8.66Z" transform="translate(-104.95 -1256.89)"/><path class="cls-1" d="M2672.73,1888.37a3,3,0,0,1-.49,0L2501,1859.74a3,3,0,0,1,1-5.86l171.23,28.58a3,3,0,0,1-.49,5.91Z" transform="translate(-104.95 -1256.89)"/><path class="cls-1" d="M2551.39,1868.11a3,3,0,0,1-.49,0l-26.59-4.44a3,3,0,0,1-2.44-3.42l6-36.09a16.26,16.26,0,0,1,16.08-13.63,16.47,16.47,0,0,1,2.7.22l.27,0a16.32,16.32,0,0,1,13.41,18.78l-6,36.09a3,3,0,0,1-2.93,2.48Zm-23.17-9.85,20.72,3.46,5.53-33.15a10.37,10.37,0,0,0-8.52-11.94l-.27,0a10.51,10.51,0,0,0-1.72-.14,10.33,10.33,0,0,0-10.21,8.66Z" transform="translate(-104.95 -1256.89)"/><path class="cls-1" d="M2599.45,1876.13a3,3,0,0,1-.49,0l-26.59-4.44a3,3,0,0,1-2.44-3.42l6-36.09a16.26,16.26,0,0,1,16.08-13.63,16.47,16.47,0,0,1,2.7.22l.27,0a16.33,16.33,0,0,1,13.4,18.78l-6,36.09a3,3,0,0,1-2.93,2.48Zm-23.17-9.85,20.72,3.46,5.53-33.15a10.38,10.38,0,0,0-8.52-11.94l-.27,0a10.47,10.47,0,0,0-1.72-.14,10.33,10.33,0,0,0-10.21,8.66Z" transform="translate(-104.95 -1256.89)"/><path class="cls-1" d="M2646.43,1884a3,3,0,0,1-.49,0l-26.59-4.44a3,3,0,0,1-2.44-3.42l6-36.09a16.26,16.26,0,0,1,16.08-13.63,16.47,16.47,0,0,1,2.7.22l.27,0a16.32,16.32,0,0,1,13.41,18.78l-6,36.09a3,3,0,0,1-2.93,2.48Zm-23.17-9.85,20.72,3.46,5.53-33.15a10.37,10.37,0,0,0-8.52-11.94l-.27,0a10.5,10.5,0,0,0-1.72-.14,10.33,10.33,0,0,0-10.21,8.66Z" transform="translate(-104.95 -1256.89)"/><path class="cls-1" d="M2682.91,1827.38a3,3,0,0,1-.49,0l-171.23-28.58a3,3,0,0,1,1-5.86l171.23,28.58a3,3,0,0,1-.49,5.91Z" transform="translate(-104.95 -1256.89)"/><path class="cls-1" d="M2561.57,1807.13a3,3,0,0,1-.49,0l-26.59-4.44a3,3,0,0,1-2.44-3.42l6-36.09a16.26,16.26,0,0,1,16.08-13.63,16.47,16.47,0,0,1,2.7.22l.27,0a16.32,16.32,0,0,1,13.41,18.78l-6,36.09a3,3,0,0,1-2.93,2.48Zm-23.17-9.85,20.72,3.46,5.53-33.15a10.37,10.37,0,0,0-8.52-11.94l-.27,0a10.5,10.5,0,0,0-1.72-.14,10.33,10.33,0,0,0-10.21,8.66Z" transform="translate(-104.95 -1256.89)"/><path class="cls-1" d="M2609.63,1815.15a3,3,0,0,1-.49,0l-26.59-4.44a3,3,0,0,1-2.44-3.42l6-36.09a16.26,16.26,0,0,1,16.08-13.63,16.47,16.47,0,0,1,2.7.22l.27,0a16.32,16.32,0,0,1,13.41,18.78l-6,36.09a3,3,0,0,1-2.93,2.48Zm-23.17-9.85,20.72,3.46,5.53-33.15a10.37,10.37,0,0,0-8.52-11.94l-.27,0a10.5,10.5,0,0,0-1.72-.14,10.33,10.33,0,0,0-10.21,8.66Z" transform="translate(-104.95 -1256.89)"/><path class="cls-1" d="M2656.61,1823a3,3,0,0,1-.49,0l-26.59-4.44a3,3,0,0,1-2.44-3.42l6-36.09a16.26,16.26,0,0,1,16.08-13.63,16.47,16.47,0,0,1,2.7.22l.27,0a16.32,16.32,0,0,1,13.41,18.78l-6,36.09a3,3,0,0,1-2.93,2.48Zm-23.17-9.85,20.72,3.46,5.53-33.15a10.37,10.37,0,0,0-8.52-11.94l-.27,0a10.5,10.5,0,0,0-1.72-.14A10.33,10.33,0,0,0,2639,1780Z" transform="translate(-104.95 -1256.89)"/><path class="cls-1" d="M2693.09,1766.4a3,3,0,0,1-.49,0l-171.23-28.58a3,3,0,1,1,1-5.86l171.23,28.58a3,3,0,0,1-.49,5.91Z" transform="translate(-104.95 -1256.89)"/><path class="cls-1" d="M2571.76,1746.15a3,3,0,0,1-.49,0l-26.59-4.44a3,3,0,0,1-2.44-3.42l6-36.09a16.26,16.26,0,0,1,16.08-13.63,16.47,16.47,0,0,1,2.7.22l.27,0a16.32,16.32,0,0,1,13.41,18.78l-6,36.09A3,3,0,0,1,2571.76,1746.15Zm-23.17-9.85,20.72,3.46,5.53-33.15a10.37,10.37,0,0,0-8.52-11.94l-.27,0a10.5,10.5,0,0,0-1.72-.14,10.33,10.33,0,0,0-10.21,8.66Z" transform="translate(-104.95 -1256.89)"/><path class="cls-1" d="M2619.81,1754.17a3,3,0,0,1-.49,0l-26.59-4.44a3,3,0,0,1-2.44-3.42l6-36.09a16.26,16.26,0,0,1,16.08-13.63,16.47,16.47,0,0,1,2.7.22l.27,0a16.32,16.32,0,0,1,13.41,18.78l-6,36.09a3,3,0,0,1-2.93,2.48Zm-23.17-9.85,20.72,3.46,5.53-33.15a10.37,10.37,0,0,0-8.52-11.94l-.27,0a10.5,10.5,0,0,0-1.72-.14,10.33,10.33,0,0,0-10.21,8.66Z" transform="translate(-104.95 -1256.89)"/><path class="cls-1" d="M2666.79,1762a3,3,0,0,1-.49,0l-26.59-4.44a3,3,0,0,1-2.44-3.42l6-36.09a16.26,16.26,0,0,1,16.08-13.63,16.47,16.47,0,0,1,2.7.22l.27,0a16.32,16.32,0,0,1,13.41,18.78l-6,36.09A3,3,0,0,1,2666.79,1762Zm-23.17-9.85,20.72,3.46,5.53-33.15a10.37,10.37,0,0,0-8.52-11.94l-.27,0a10.5,10.5,0,0,0-1.72-.14,10.33,10.33,0,0,0-10.21,8.66Z" transform="translate(-104.95 -1256.89)"/><path class="cls-1" d="M2703.27,1705.42a3,3,0,0,1-.49,0l-171.23-28.58a3,3,0,0,1,1-5.86l171.23,28.58a3,3,0,0,1-.49,5.91Z" transform="translate(-104.95 -1256.89)"/><path class="cls-1" d="M2581.94,1685.16a3,3,0,0,1-.49,0l-26.59-4.44a3,3,0,0,1-2.44-3.42l6-36.09a16.26,16.26,0,0,1,16.08-13.63,16.47,16.47,0,0,1,2.7.22l.27,0a16.33,16.33,0,0,1,13.41,18.78l-6,36.09A3,3,0,0,1,2581.94,1685.16Zm-23.17-9.85,20.72,3.46,5.53-33.15a10.38,10.38,0,0,0-8.52-11.94l-.27,0a10.49,10.49,0,0,0-1.72-.14,10.33,10.33,0,0,0-10.21,8.66Z" transform="translate(-104.95 -1256.89)"/><path class="cls-1" d="M2630,1693.19a3,3,0,0,1-.49,0l-26.59-4.44a3,3,0,0,1-2.44-3.42l6-36.09a16.26,16.26,0,0,1,16.08-13.63,16.47,16.47,0,0,1,2.7.22l.27,0a16.32,16.32,0,0,1,13.41,18.78l-6,36.09A3,3,0,0,1,2630,1693.19Zm-23.17-9.85,20.72,3.46,5.53-33.15a10.37,10.37,0,0,0-8.52-11.94l-.27,0a10.51,10.51,0,0,0-1.72-.14,10.33,10.33,0,0,0-10.21,8.66Z" transform="translate(-104.95 -1256.89)"/><path class="cls-1" d="M2677,1701a3,3,0,0,1-.49,0l-26.59-4.44a3,3,0,0,1-2.44-3.42l6-36.09a16.26,16.26,0,0,1,16.08-13.63,16.47,16.47,0,0,1,2.7.22l.27,0a16.32,16.32,0,0,1,13.41,18.78l-6,36.09A3,3,0,0,1,2677,1701Zm-23.17-9.85,20.72,3.46,5.53-33.15a10.37,10.37,0,0,0-8.52-11.94l-.27,0a10.51,10.51,0,0,0-1.72-.14,10.33,10.33,0,0,0-10.21,8.66Z" transform="translate(-104.95 -1256.89)"/><path class="cls-1" d="M2713.45,1644.44a3,3,0,0,1-.49,0l-171.23-28.58a3,3,0,1,1,1-5.86l171.23,28.58a3,3,0,0,1-.49,5.91Z" transform="translate(-104.95 -1256.89)"/><path class="cls-1" d="M2592.11,1624.18a3,3,0,0,1-.49,0L2565,1619.7a3,3,0,0,1-2.44-3.42l6-36.09a16.26,16.26,0,0,1,16.08-13.63,16.47,16.47,0,0,1,2.7.22l.27,0a16.33,16.33,0,0,1,13.41,18.78l-6,36.09a3,3,0,0,1-2.93,2.48Zm-23.17-9.85,20.72,3.46,5.53-33.15a10.38,10.38,0,0,0-8.52-11.94l-.27,0a10.48,10.48,0,0,0-1.72-.14,10.33,10.33,0,0,0-10.21,8.66Z" transform="translate(-104.95 -1256.89)"/><path class="cls-1" d="M2640.17,1632.2a3,3,0,0,1-.49,0l-26.59-4.44a3,3,0,0,1-2.44-3.42l6-36.09a16.26,16.26,0,0,1,16.08-13.63,16.47,16.47,0,0,1,2.7.22l.27,0a16.32,16.32,0,0,1,13.41,18.78l-6,36.09A3,3,0,0,1,2640.17,1632.2Zm-23.17-9.85,20.72,3.46,5.53-33.15a10.37,10.37,0,0,0-8.52-11.94l-.27,0a10.5,10.5,0,0,0-1.72-.14,10.33,10.33,0,0,0-10.21,8.66Z" transform="translate(-104.95 -1256.89)"/><path class="cls-1" d="M2687.15,1640a3,3,0,0,1-.49,0l-26.59-4.44a3,3,0,0,1-2.44-3.42l6-36.09a16.26,16.26,0,0,1,16.08-13.63,16.47,16.47,0,0,1,2.7.22l.27,0a16.32,16.32,0,0,1,13.41,18.78l-6,36.09A3,3,0,0,1,2687.15,1640Zm-23.17-9.85,20.72,3.46,5.53-33.15a10.37,10.37,0,0,0-8.52-11.94l-.27,0a10.51,10.51,0,0,0-1.72-.14,10.33,10.33,0,0,0-10.21,8.66Z" transform="translate(-104.95 -1256.89)"/><path class="cls-1" d="M2723.63,1583.45a3,3,0,0,1-.49,0l-171.23-28.58a3,3,0,0,1,1-5.86l171.23,28.58a3,3,0,0,1-.49,5.91Z" transform="translate(-104.95 -1256.89)"/><path class="cls-1" d="M2628,1567.5a3,3,0,0,1-.49,0L2601,1563a3,3,0,0,1-2.44-3.42l6-36.09a16.26,16.26,0,0,1,16.08-13.63,16.48,16.48,0,0,1,2.7.22l.27,0a16.32,16.32,0,0,1,13.41,18.78l-6,36.09a3,3,0,0,1-2.93,2.48Zm-23.17-9.85,20.72,3.46,5.53-33.15a10.37,10.37,0,0,0-8.52-11.94l-.27,0a10.5,10.5,0,0,0-1.72-.14,10.33,10.33,0,0,0-10.21,8.67Z" transform="translate(-104.95 -1256.89)"/><path class="cls-1" d="M2676.11,1575.52a3,3,0,0,1-.49,0L2649,1571a3,3,0,0,1-2.44-3.42l6-36.09a16.26,16.26,0,0,1,16.08-13.63,16.46,16.46,0,0,1,2.7.22l.27,0a16.33,16.33,0,0,1,13.4,18.78l-6,36.09A3,3,0,0,1,2676.11,1575.52Zm-23.17-9.85,20.72,3.46,5.53-33.15a10.38,10.38,0,0,0-8.52-11.94l-.27,0a10.47,10.47,0,0,0-1.72-.14,10.33,10.33,0,0,0-10.21,8.66Z" transform="translate(-104.95 -1256.89)"/><path class="cls-1" d="M2704.73,1517.62a3,3,0,0,1-.49,0l-113.89-19a3,3,0,1,1,1-5.86l113.89,19a3,3,0,0,1-.49,5.91Z" transform="translate(-104.95 -1256.89)"/><path class="cls-1" d="M2689.61,1577.26a3,3,0,0,1-.49,0l-103-17.2a3,3,0,0,1-2.44-3.42l10.1-60.48a3,3,0,0,1,3.42-2.44l103,17.2a3,3,0,0,1,2.44,3.42l-10.1,60.48A3,3,0,0,1,2689.61,1577.26ZM2590,1554.64l97.17,16.22,9.12-54.61L2599.11,1500Z" transform="translate(-104.95 -1256.89)"/><path class="cls-1" d="M2644,2002.08H2487.9a3,3,0,0,1-.49,0l-2.27-.38a3,3,0,0,1-2.44-3.42l74.38-445.59a3,3,0,0,1,3.42-2.44l154.1,25.72a3,3,0,0,1,2.44,3.42l-70.15,420.25A3,3,0,0,1,2644,2002.08Zm-154.88-5.95h152.36l69.25-414.83-148.23-24.74Z" transform="translate(-104.95 -1256.89)"/><path class="cls-1" d="M2626.72,2002.08h-27.33a3,3,0,0,1-2.93-3.46l6-36a16.26,16.26,0,0,1,16.08-13.63,16.47,16.47,0,0,1,2.7.22l.27,0a16.33,16.33,0,0,1,13.41,18.78l-5.27,31.6A3,3,0,0,1,2626.72,2002.08Zm-23.82-5.95h21.3l4.86-29.12a10.38,10.38,0,0,0-8.52-11.94l-.27,0a10.48,10.48,0,0,0-1.72-.14,10.33,10.33,0,0,0-10.21,8.66Z" transform="translate(-104.95 -1256.89)"/><path class="cls-1" d="M2578.42,2002.08H2551.1a3,3,0,0,1-2.93-3.46l7.32-43.88a16.26,16.26,0,0,1,16.08-13.63,16.47,16.47,0,0,1,2.7.22l.27,0a16.32,16.32,0,0,1,13.41,18.78l-6.58,39.44A3,3,0,0,1,2578.42,2002.08Zm-23.82-5.95h21.3l6.17-37a10.38,10.38,0,0,0-8.52-11.94l-.27,0a10.49,10.49,0,0,0-1.72-.14,10.33,10.33,0,0,0-10.21,8.66Z" transform="translate(-104.95 -1256.89)"/><path class="cls-1" d="M2529,2002.08H2501.7a3,3,0,0,1-2.93-3.46l8.66-51.9a16.26,16.26,0,0,1,16.08-13.63,16.47,16.47,0,0,1,2.7.22l.27,0a16.33,16.33,0,0,1,13.41,18.78L2532,1999.6A3,3,0,0,1,2529,2002.08Zm-23.82-5.95h21.3l7.51-45a10.38,10.38,0,0,0-8.52-11.94l-.27,0a10.51,10.51,0,0,0-1.72-.14,10.33,10.33,0,0,0-10.21,8.66Z" transform="translate(-104.95 -1256.89)"/><path class="cls-2" d="M2674.38,1992.76l3.51-69.74,14.87-36,1.2-12.45-12.27-7.16-7.21-.22-.49-22.09,3.15-6.94,1.32-2.92-9.19-3.67a3.71,3.71,0,0,1-2.33-3.77v-.1a3.72,3.72,0,0,1,2.18-3l22-9.94,11.18-11.3.17-4.52a16.39,16.39,0,0,1,5.23-11.44c6.89-6.42,9.77-7.87,11-8,.26,0,.62,0,1.07,0,2.54,0,8.44.32,14.38.92l.82.08,27.05-12.2,13.93-14.08.21-5.63a20.45,20.45,0,0,1,6.53-14.28c8.6-8,12.19-9.82,13.7-9.92.33,0,.78,0,1.34,0,5.35,0,23.76,1.26,31.61,3.17l1,.25,25-11.26,17-17.19.26-6.86a25,25,0,0,1,8-17.46c10.51-9.79,14.9-12,16.75-12.12.4,0,.94,0,1.64,0,4.3,0,14.08.56,23.72,1.59,15.47,1.66,18.35,3.25,18.86,3.85l.09.11c1,3.57-5.3,33-21.17,98.21l0,.14c-1.9,7.8-2.9,11.91-3.08,12.84a5.08,5.08,0,0,1-2.53,3.82l-2.34,1.19,3.2,9.83,2.25.64a8.31,8.31,0,0,1,6.06,7.66v.13l16.51,131.64-14.25,62.76-91.5,0-5-9.56.32-6.12-6-.83-3.93,17.32-74.88,0-5.11-9.72-2.4,10.6-60,0Zm62.38-157c-1.08,4.47-2.07,8.54-2.87,11.83l-.07.29c-1.22,5-1.86,7.64-2,8.24a3.48,3.48,0,0,1-1.29,2.25l-1.82,1.31,2,6.19,1.55.46a5.44,5.44,0,0,1,3.9,5v.12l5.23,41.69L2764,1858.5l1.49-15.51-15.28-8.92-9-.28-3.48-1.86Zm86.64-60c-3,12.62-6,25.2-8,33.53l0,.09c-1.56,6.4-2.38,9.78-2.53,10.54a4.23,4.23,0,0,1-1.86,3l-2.08,1.26,2.58,7.93,1.85.52a6.79,6.79,0,0,1,4.94,6.24v.12l9.21,73.43,6.1-.23,1.54-30.7,22.65-54.77,1.82-18.93-18.64-10.89-11-.34-.44-20.16Z" transform="translate(-104.95 -1256.89)"/><path class="cls-1" d="M2745.35,2001.18a3,3,0,0,1-2.63-1.59l-4.13-7.86a3,3,0,0,1-.34-1.53l4.36-87a3,3,0,0,1,.22-1l18.37-44.44,1.26-13.1-12.91-7.54-8.32-.26a3,3,0,0,1-2.88-2.91l-.61-27.65a3,3,0,0,1,.26-1.29l4.26-9.4-8.46-3.38a7.7,7.7,0,0,1-4.84-7.83v-.07a7.74,7.74,0,0,1,4.53-6.4l27-12.16,12.69-12.83.17-4.43a23.5,23.5,0,0,1,7.51-16.41c9.92-9.25,13.54-10.59,15.58-10.73.4,0,.91,0,1.55,0,6.08,0,26,1.41,33.42,3.53a3,3,0,0,1,.4,5.57l-8.62,3.89a2.85,2.85,0,0,0-1.67,2.36v.07a2.84,2.84,0,0,0,1.78,2.89l8.27,3.3a3,3,0,0,1,1.81,3.36c-3.85,18.67-11,48-14.82,63.74-1.33,5.46-2.38,9.77-2.52,10.5a7.22,7.22,0,0,1-3.28,5l1.32,4.06.28.08a9.83,9.83,0,0,1,7.17,9.06l13.41,107a3,3,0,0,1,0,.52l-.07,1.33a3,3,0,0,1-.07.51l-11.53,50.8a3,3,0,0,1-2.9,2.31l-75,0Zm-1.12-11.5,2.92,5.55,70.84,0,10.95-48.23,0-.81-13.4-106.84q0-.14,0-.28a3.91,3.91,0,0,0-2.85-3.66l-1.8-.51a3,3,0,0,1-2-1.94l-2.77-8.5a3,3,0,0,1,.5-2.94,2.78,2.78,0,0,1,2.66-.94c.28,0,.68-.07.9-1.19.16-.82,1-4.07,2.58-10.75,3.66-15,10.34-42.49,14.26-61.09l-6-2.38a8.75,8.75,0,0,1-5.5-8.9v-.07a8.8,8.8,0,0,1,5-7.22c-8-1-18.09-1.7-22.59-1.7-.62,0-1,0-1.14,0s-2.63.48-11.93,9.15a17.59,17.59,0,0,0-5.62,12.28l-.21,5.59a3,3,0,0,1-.86,2l-13.89,14a3,3,0,0,1-.89.62l-27.47,12.39a1.79,1.79,0,0,0-1,1.49v.08a1.78,1.78,0,0,0,1.12,1.8l11.35,4.53a3,3,0,0,1,1.61,4l-5.26,11.62.53,24.16,6.25.19a3,3,0,0,1,1.41.4l15.2,8.88a3,3,0,0,1,1.46,2.85l-1.49,15.43a3,3,0,0,1-.21.85L2748.52,1904Z" transform="translate(-104.95 -1256.89)"/><g id="path13183"><path class="cls-1" d="M2798.19,1772.81a5.58,5.58,0,0,1-4.22-1.93l-13.18-15.27a5.56,5.56,0,0,1-1.32-3l-.71-6.36a5.57,5.57,0,0,1,7.94-5.66l21.46,10.19a5.6,5.6,0,0,1,2.65,2.65l4.69,9.9a5.58,5.58,0,0,1-4.35,7.93l-12.27,1.54A5.57,5.57,0,0,1,2798.19,1772.81Zm-12.83-21,13,15,11.57-1.45-4.42-9.33-20.75-9.85Z" transform="translate(-104.95 -1256.89)"/></g><path class="cls-1" d="M2754.9,1839.77a3,3,0,0,1-.7-5.86l37.73-9.23a2.86,2.86,0,0,1,.74-.09l2.62,0a3,3,0,0,1,0,5.95h0l-2.25,0-37.36,9.14A3,3,0,0,1,2754.9,1839.77Z" transform="translate(-104.95 -1256.89)"/><path class="cls-1" d="M2763.15,1814.1a3,3,0,0,1-.64-.07l-22.43-4.9a3,3,0,0,1,1.27-5.81l22.43,4.9a3,3,0,0,1-.63,5.88Z" transform="translate(-104.95 -1256.89)"/><g id="path13181"><path class="cls-1" d="M2834.91,2000.35a3,3,0,0,1-2.63-1.59l-5-9.61a3,3,0,0,1-.34-1.53l5.33-106.29a3,3,0,0,1,.22-1l22.48-54.38,1.59-16.52-16.28-9.51-10.33-.32a3,3,0,0,1-2.88-2.91l-.74-33.78a3,3,0,0,1,.26-1.29l5.48-12.11-11-4.38a8.75,8.75,0,0,1-5.5-8.9v-.07a8.8,8.8,0,0,1,5.15-7.3l33.05-14.91,15.77-15.94.21-5.67a28,28,0,0,1,9-19.59c12-11.15,16.24-12.77,18.62-12.94.48,0,1.08,0,1.85,0,4.38,0,14.3.56,24,1.61,18.36,2,20,3.88,20.87,4.91,1.81,2.11,3.24,3.79-20.43,101-1.69,6.93-2.91,11.94-3.09,12.85a8,8,0,0,1-4.15,6l1.88,5.78.68.19a11.35,11.35,0,0,1,8.28,10.48l16.49,131.51a3,3,0,0,1-.05,1L2929.44,1998a3,3,0,0,1-2.9,2.32Zm-2-13.24,3.83,7.3,87.46,0,13.63-60-16.45-131.12c0-.09,0-.19,0-.28a5.43,5.43,0,0,0-4-5.09l-2.2-.62a3,3,0,0,1-2-1.94l-3.38-10.38a3,3,0,0,1,.51-2.9,2.83,2.83,0,0,1,2.65-1c1,0,1.54-.62,1.81-2,.2-1,1.16-5,3.14-13.1,5.25-21.6,20.87-85.76,21.19-95.89-5.3-2-29.7-4.32-39.91-4.32-.77,0-1.21,0-1.44,0s-3.2.38-15,11.36a22.14,22.14,0,0,0-7.07,15.46l-.26,6.83a3,3,0,0,1-.86,2l-17,17.15a3,3,0,0,1-.89.62l-33.56,15.13a2.85,2.85,0,0,0-1.67,2.36v.07a2.84,2.84,0,0,0,1.78,2.89l13.86,5.53a3,3,0,0,1,1.61,4l-6.49,14.33.67,30.28,8.27.25a3,3,0,0,1,1.41.4l18.57,10.85a3,3,0,0,1,1.46,2.85L2860.8,1827a3,3,0,0,1-.21.85l-22.46,54.31Z" transform="translate(-104.95 -1256.89)"/></g><g id="path13183-2" data-name="path13183"><path class="cls-1" d="M2899.47,1721.38a6.15,6.15,0,0,1-4.66-2.13l-16.1-18.65a6.13,6.13,0,0,1-1.46-3.34l-.87-7.77a6.15,6.15,0,0,1,8.76-6.25l26.22,12.45a6.17,6.17,0,0,1,2.92,2.92l5.73,12.1a6.16,6.16,0,0,1-4.8,8.75l-15,1.88A6.17,6.17,0,0,1,2899.47,1721.38Zm-17-32.8a.25.25,0,0,0-.17.08.17.17,0,0,0,0,.16l.87,7.77a.21.21,0,0,0,.05.12l16.1,18.65a.21.21,0,0,0,.16.07h0l15-1.88a.21.21,0,0,0,.17-.3l-5.73-12.1a.21.21,0,0,0-.1-.1l-26.22-12.45A.21.21,0,0,0,2882.5,1688.58Z" transform="translate(-104.95 -1256.89)"/></g><path class="cls-1" d="M2846.59,1803.17a3,3,0,0,1-.7-5.86L2892,1786a2.91,2.91,0,0,1,.74-.09l3.21,0a3,3,0,0,1-.07,5.95l-2.83,0-45.72,11.19A3,3,0,0,1,2846.59,1803.17Z" transform="translate(-104.95 -1256.89)"/><path class="cls-1" d="M2856.66,1771.82a3,3,0,0,1-.64-.07l-27.4-6a3,3,0,0,1,1.27-5.81l27.4,6a3,3,0,0,1-.63,5.88Z" transform="translate(-104.95 -1256.89)"/><path class="cls-1" d="M2865.55,1941.92a3,3,0,0,1-1.8-5.34l30.08-22.77,28.56-80.9a3,3,0,0,1,5.61,2l-28.85,81.74a3,3,0,0,1-1,1.38l-30.79,23.31A3,3,0,0,1,2865.55,1941.92Z" transform="translate(-104.95 -1256.89)"/><path class="cls-1" d="M2677.8,2002.08a3,3,0,0,1-2.63-1.59l-3.31-6.31a3,3,0,0,1-.34-1.53l3.5-69.79a3,3,0,0,1,.22-1l14.7-35.56,1-10-9.9-5.78-6.52-.2a3,3,0,0,1-2.88-2.91l-.49-22.18a3,3,0,0,1,.26-1.29l3.16-7-6.21-2.48a6.76,6.76,0,0,1-4.25-6.87v-.07a6.79,6.79,0,0,1,4-5.62l21.53-9.71,9.94-10,.13-3.33a19.43,19.43,0,0,1,6.21-13.57c8-7.5,11-8.64,12.85-8.77.34,0,.76,0,1.28,0,2.8,0,9.18.36,15.49,1a3,3,0,0,1,.91,5.67l-.45.2a1.79,1.79,0,0,0-1,1.49v.08a1.78,1.78,0,0,0,1.12,1.8l11.35,4.53a3,3,0,0,1,1.61,4l-5.26,11.62.27,12.25a3,3,0,0,1-.08.74c-2.49,10.64-5.1,21.39-6.83,28.49-1.06,4.37-1.9,7.82-2,8.39a6.46,6.46,0,0,1-2.51,4.15l.82,2.53a8.47,8.47,0,0,1,6.1,7.76l7.62,60.74a3,3,0,0,1,0,.52l-2.55,50.94a3,3,0,0,1-.07.51l-3.61,15.9a3,3,0,0,1-2.9,2.32l-60.16,0Zm-.3-9.94,2.1,4,56,0,3-13.33,2.53-50.42-7.6-60.61q0-.14,0-.28a2.55,2.55,0,0,0-1.86-2.39l-1.45-.41a3,3,0,0,1-2-1.94l-2.22-6.82a3,3,0,0,1,.49-3,2.73,2.73,0,0,1,2.6-.93,1.63,1.63,0,0,0,.15-.47c.13-.67.77-3.28,2.07-8.64,1.71-7,4.28-17.58,6.73-28.08l-.28-12.55a3,3,0,0,1,.26-1.29l4.26-9.4-8.46-3.38a7.7,7.7,0,0,1-4.84-7.83v-.08a7.69,7.69,0,0,1,.26-1.46c-4-.31-7.42-.47-9.24-.47l-.81,0c-.27.08-2.47.85-9.27,7.19a13.52,13.52,0,0,0-4.32,9.44l-.17,4.48a3,3,0,0,1-.86,2l-11.14,11.26a3,3,0,0,1-.89.62l-22,9.94a.85.85,0,0,0-.5.7v.07a.84.84,0,0,0,.53.85l9.1,3.63a3,3,0,0,1,1.61,4l-4.16,9.2.41,18.68,4.46.14a3,3,0,0,1,1.41.4l12.19,7.12A3,3,0,0,1,2697,1875l-1.19,12.38a3,3,0,0,1-.21.85l-14.68,35.5Z" transform="translate(-104.95 -1256.89)"/><polygon class="cls-2" points="2059.3 742.13 2059.3 463.46 2048.61 463.46 2048.61 359.08 2059.3 359.08 2059.3 337.58 2059.34 337.51 2059.36 337.47 2070.09 317.09 2071.11 316.17 2071.1 314.83 2071.1 296.57 2071.14 296.48 2071.16 296.44 2100.4 240.1 2101.19 240.1 2130.45 296.47 2130.49 296.55 2130.49 296.64 2130.49 316.2 2131.51 317.11 2142.24 337.5 2142.29 337.58 2142.28 337.67 2142.28 359.08 2152.98 359.08 2152.98 463.46 2142.28 463.46 2142.28 742.13 2059.3 742.13"/><path class="cls-1" d="M2247.51,2002.08h-83.17a3,3,0,0,1-3-3V1720.44a3,3,0,0,1,3-3h83.17a3,3,0,0,1,3,3v278.67A3,3,0,0,1,2247.51,2002.08Zm-80.2-5.95h77.22V1723.41h-77.22Z" transform="translate(-104.95 -1256.89)"/><path class="cls-1" d="M2247.51,1617.94h-83.17a3,3,0,0,1-3-3v-20.51a3,3,0,0,1,3-3h83.17a3,3,0,0,1,3,3V1615A3,3,0,0,1,2247.51,1617.94Zm-80.2-5.95h77.22v-14.57h-77.22Z" transform="translate(-104.95 -1256.89)"/><path class="cls-1" d="M2247.52,1597.42h-83.18a3,3,0,0,1-2.63-4.36l10.8-20.51a3,3,0,0,1,2.63-1.59h61.57a3,3,0,0,1,2.63,1.59l10.69,20.3a3,3,0,0,1-2.51,4.57Zm-78.25-5.95h73.32l-7.67-14.57h-58Z" transform="translate(-104.95 -1256.89)"/><path class="cls-1" d="M2235.71,1576.91h-59.57a3,3,0,0,1-3-3v-20.51a3,3,0,0,1,3-3h59.57a3,3,0,0,1,3,3v20.51A3,3,0,0,1,2235.71,1576.91Zm-56.6-5.95h53.62v-14.57h-53.62Z" transform="translate(-104.95 -1256.89)"/><path class="cls-1" d="M2235.72,1556.39h-59.58a3,3,0,0,1-2.64-4.34l29.34-56.51a3,3,0,0,1,2.64-1.6h.9a3,3,0,0,1,2.64,1.6l29.23,56.3a3,3,0,0,1-2.52,4.55Zm-54.69-5.95h49.78l-24.89-48Z" transform="translate(-104.95 -1256.89)"/><path class="cls-1" d="M2258.2,1723.41H2153.65a3,3,0,0,1-3-3V1615.89a3,3,0,0,1,3-3H2258.2a3,3,0,0,1,3,3v104.56A3,3,0,0,1,2258.2,1723.41Zm-101.58-5.95h98.61v-98.61h-98.61Z" transform="translate(-104.95 -1256.89)"/><path class="cls-1" d="M2191,1986.74a3,3,0,0,1-3-3v-248a3,3,0,0,1,5.95,0v248A3,3,0,0,1,2191,1986.74Z" transform="translate(-104.95 -1256.89)"/><path class="cls-1" d="M2220.82,1986.74a3,3,0,0,1-3-3v-248a3,3,0,0,1,5.95,0v248A3,3,0,0,1,2220.82,1986.74Z" transform="translate(-104.95 -1256.89)"/><path class="cls-1" d="M2206.32,1710.53h-.79a42,42,0,0,1-42-42v-.79a42,42,0,0,1,42-42h.79a42,42,0,0,1,42,42v.79A42,42,0,0,1,2206.32,1710.53Zm-.79-78.78a36.07,36.07,0,0,0-36,36v.79a36.07,36.07,0,0,0,36,36h.79a36.07,36.07,0,0,0,36-36v-.79a36.07,36.07,0,0,0-36-36Z" transform="translate(-104.95 -1256.89)"/><path class="cls-1" d="M2229.66,1683.87a3,3,0,0,1-1.75-.57L2204.17,1666a3,3,0,0,1-1.22-2.4v-22.68a3,3,0,1,1,5.95,0v21.17l22.51,16.39a3,3,0,0,1-1.75,5.38Z" transform="translate(-104.95 -1256.89)"/><polygon class="cls-2" points="3250.65 742.13 3383.28 604.65 3383.31 604.67 3383.34 604.7 3460.88 681.95 3585.09 544.45 3764.29 742.13 3250.65 742.13"/><path class="cls-1" d="M3775.89,2002.08H3511.44a3,3,0,0,1-2.21-5L3688,1799.22a3,3,0,0,1,4.93.81l85.67,197.9a3,3,0,0,1-2.73,4.15Zm-257.76-5.95h253.23l-82-189.5Z" transform="translate(-104.95 -1256.89)"/><path class="cls-1" d="M3869.64,2002.08h-93.75a3,3,0,0,1-2.73-1.79l-85.67-197.9a3,3,0,0,1,4.93-3.18L3871.69,1997a3,3,0,0,1-2.05,5.13Zm-91.8-5.95h85.08l-162.83-179.61Z" transform="translate(-104.95 -1256.89)"/><path class="cls-1" d="M3655,1869.75a3,3,0,0,1-.8-.11l-19.13-5.37a3,3,0,1,1,1.61-5.72l17.42,4.89,10.73-11.17a3,3,0,0,1,2.83-.83l10.4,2.48,8.39-4.45a3,3,0,0,1,2.15-.25l14.55,3.8,5.85-5.79a3,3,0,0,1,3.74-.36l17.91,12,6.57,3.42.95-5.47a3,3,0,0,1,5.86,1l-1.65,9.47a3,3,0,0,1-4.3,2.13l-10.32-5.37-.28-.17-16-10.71-5.33,5.27a3,3,0,0,1-2.84.76l-15.06-3.94-8.36,4.44a3,3,0,0,1-2.08.27l-9.84-2.34-10.79,11.22A3,3,0,0,1,3655,1869.75Z" transform="translate(-104.95 -1256.89)"/><path class="cls-1" d="M3530.85,1980.6a3,3,0,0,1-2.79-2l-42.44-116.22a3,3,0,0,1,4.89-3.13l77.59,77.3a3,3,0,0,1,.11,4.1l-35.16,38.92A3,3,0,0,1,3530.85,1980.6ZM3495.8,1873l36.16,99,30-33.15Z" transform="translate(-104.95 -1256.89)"/><path class="cls-1" d="M3511.44,2002.08H3355.57a3,3,0,0,1-2.14-5l132.85-137.7a3,3,0,0,1,4.93,1l42.44,116.22a3,3,0,0,1-.59,3l-19.41,21.48A3,3,0,0,1,3511.44,2002.08Zm-148.88-5.95h147.56l17.32-19.18-40.19-110.07Z" transform="translate(-104.95 -1256.89)"/><path class="cls-2" d="M3349.55,1999l4.62-191.45h1.08l.29-2.74a13.71,13.71,0,0,1,11.14-12l2.43-.44,2.43.44a13.71,13.71,0,0,1,11.14,12l.29,2.74h1.08l4.62,191.45Zm-65.06,0,4.07-168.45h.9l.34-2.68a12,12,0,0,1,9.53-10.23l2.37-.48,2.37.48a12,12,0,0,1,9.53,10.23l.34,2.68h.9l4.07,168.45Zm-99.54,0V1929.9a27.4,27.4,0,0,0-27.37-27.37H3157a27.4,27.4,0,0,0-27.37,27.37V1999h-75.53V1897.48h3.77v-22.6l.12-3.22h-3.25a23.9,23.9,0,0,1,4.44-21.12l4-5h-7.31l4.68-3.31a89.45,89.45,0,0,0,15.76-14.21l1.52-1.74,1.52,1.74a88.39,88.39,0,0,0,10.17,9.91l6.09,5.06-1.1-7.84a64.09,64.09,0,0,1-.62-8.85,63.39,63.39,0,0,1,27.81-52.47l8.25-5.6h-11.31l8.34-5.28a152.09,152.09,0,0,0,27.6-22.25l2.71-2.79,2.71,2.79a152.12,152.12,0,0,0,27.6,22.25l8.34,5.28h-11.31l8.25,5.6a63.39,63.39,0,0,1,27.81,52.47,64.1,64.1,0,0,1-.49,7.81l-1,7.89,6-5.2a88,88,0,0,0,8.84-8.78l1.52-1.74,1.52,1.74a89.47,89.47,0,0,0,15.76,14.21l4.68,3.31h-7.31l4,5a23.9,23.9,0,0,1,4.44,21.12h-3.25l.12,3.24v22.58h3.77V1999Zm-88.46-148.49a23.75,23.75,0,0,1,4.32,8.36l6-.84v-15.22h-6.58l-.24,2.72h-7.5Zm110.16,7.52,6,.84a23.75,23.75,0,0,1,4.32-8.36l4-5h-7.5l-.23-2.66-2.81-.05h-3.78Zm-216.09,141,1.2-49.72,2.87-118.73h.9l.34-2.68a12,12,0,0,1,9.53-10.23l2.37-.48,2.37.48a12,12,0,0,1,9.53,10.23l.34,2.68h.9L3025,1999Zm-69.78,0,4.62-191.45h1.08l.29-2.74a13.71,13.71,0,0,1,11.14-12l2.43-.44,2.43.44a13.71,13.71,0,0,1,11.14,12l.29,2.74h1.08l4.62,191.45Z" transform="translate(-104.95 -1256.89)"/><path class="cls-1" d="M3211.83,2002.08H3102a3,3,0,0,1-3-3V1873a3,3,0,0,1,3-3h109.8a3,3,0,0,1,3,3v126.09A3,3,0,0,1,3211.83,2002.08ZM3105,1996.14h103.86V1876H3105Z" transform="translate(-104.95 -1256.89)"/><path class="cls-1" d="M3106.92,1873a3,3,0,0,1-3-3v-26.49a3,3,0,1,1,5.95,0V1870A3,3,0,0,1,3106.92,1873Z" transform="translate(-104.95 -1256.89)"/><path class="cls-1" d="M3206.94,1873a3,3,0,0,1-3-3v-26.49a3,3,0,1,1,5.95,0V1870A3,3,0,0,1,3206.94,1873Z" transform="translate(-104.95 -1256.89)"/><path class="cls-1" d="M3198.81,2002.08H3116.2a3,3,0,0,1-3-3v-113a3,3,0,0,1,3-3h82.61a3,3,0,0,1,3,3v113A3,3,0,0,1,3198.81,2002.08Zm-79.63-5.95h76.66V1889.08h-76.66Z" transform="translate(-104.95 -1256.89)"/><path class="cls-1" d="M3185.05,2002.08H3130a3,3,0,0,1-3-3V1929.9a30.28,30.28,0,0,1,30.25-30.25h.55A30.28,30.28,0,0,1,3188,1929.9v69.21A3,3,0,0,1,3185.05,2002.08Zm-52.13-5.95h49.16V1929.9a24.33,24.33,0,0,0-24.3-24.3h-.55a24.33,24.33,0,0,0-24.3,24.3Z" transform="translate(-104.95 -1256.89)"/><path class="cls-1" d="M3196.47,1771.29h-77.93a3,3,0,0,1-1.59-5.48l8.6-5.45a149,149,0,0,0,27-21.8l2.78-2.85a3,3,0,0,1,4.26,0l2.78,2.85a149,149,0,0,0,27,21.8l8.6,5.45a3,3,0,0,1-1.59,5.48Zm-67.68-5.95h57.44a154.93,154.93,0,0,1-28.07-22.64l-.65-.66-.65.66A154.93,154.93,0,0,1,3128.78,1765.35Z" transform="translate(-104.95 -1256.89)"/><path class="cls-1" d="M3218.79,1845.9H3096.22a3,3,0,0,1-2.87-2.2,66.5,66.5,0,0,1,39.24-79,3,3,0,0,1,1.12-.22h47.61a3,3,0,0,1,1.12.22,66.53,66.53,0,0,1,39.24,79A3,3,0,0,1,3218.79,1845.9ZM3098.53,1840h117.94a60.59,60.59,0,0,0-35.75-69.55h-46.43a60.59,60.59,0,0,0-35.75,69.55Z" transform="translate(-104.95 -1256.89)"/><path class="cls-1" d="M3157.5,1740.75a3,3,0,0,1-3-3V1724a3,3,0,1,1,5.95,0v13.74A3,3,0,0,1,3157.5,1740.75Z" transform="translate(-104.95 -1256.89)"/><path class="cls-1" d="M3259.62,2002.08H3212a3,3,0,0,1-3-3V1897.39a3,3,0,0,1,3-3h47.61a3,3,0,0,1,3,3v101.72A3,3,0,0,1,3259.62,2002.08Zm-44.64-5.95h41.67v-95.78H3215Z" transform="translate(-104.95 -1256.89)"/><path class="cls-1" d="M3255.86,1900.27h-40.08a3,3,0,0,1-3-3v-22.48a3,3,0,0,1,5.95,0v19.51h34.13v-19.51a3,3,0,0,1,5.95,0v22.48A3,3,0,0,1,3255.86,1900.27Z" transform="translate(-104.95 -1256.89)"/><path class="cls-1" d="M3246.11,1951.22h-20.59a3,3,0,0,1-3-3v-25.86a13.18,13.18,0,0,1,13.16-13.16h.21a13.18,13.18,0,0,1,13.16,13.16v25.86A3,3,0,0,1,3246.11,1951.22Zm-17.61-5.95h14.64v-22.88a7.23,7.23,0,0,0-7.22-7.22h-.21a7.23,7.23,0,0,0-7.22,7.22Z" transform="translate(-104.95 -1256.89)"/><path class="cls-1" d="M3246.11,2001.39h-20.59a3,3,0,0,1-3-3v-25.86a13.18,13.18,0,0,1,13.16-13.16h.21a13.18,13.18,0,0,1,13.16,13.16v25.86A3,3,0,0,1,3246.11,2001.39Zm-17.61-5.95h14.64v-22.88a7.23,7.23,0,0,0-7.22-7.22h-.21a7.23,7.23,0,0,0-7.22,7.22Z" transform="translate(-104.95 -1256.89)"/><path class="cls-1" d="M3258.06,1848.61h-44.48a3,3,0,0,1-1.72-5.4l4.91-3.48A86.39,86.39,0,0,0,3232,1826l1.59-1.82a3,3,0,0,1,2.24-1h0a3,3,0,0,1,2.24,1l1.59,1.82a86.4,86.4,0,0,0,15.22,13.72l4.91,3.48a3,3,0,0,1-1.72,5.4Zm-35.24-5.95h26a92,92,0,0,1-13-12A92,92,0,0,1,3222.82,1842.67Z" transform="translate(-104.95 -1256.89)"/><path class="cls-1" d="M3235.82,1829.12a3,3,0,0,1-3-3v-8.77a3,3,0,1,1,5.95,0v8.77A3,3,0,0,1,3235.82,1829.12Z" transform="translate(-104.95 -1256.89)"/><path class="cls-1" d="M3259,1874.72h-46.3a3,3,0,0,1-2.87-2.2,27,27,0,0,1,10.85-29.34,3,3,0,0,1,1.67-.52h27a3,3,0,0,1,1.67.52,27,27,0,0,1,10.85,29.34A3,3,0,0,1,3259,1874.72Zm-43.9-5.95h41.5a21,21,0,0,0-8.21-20.16h-25.09a21,21,0,0,0-8.21,20.16Z" transform="translate(-104.95 -1256.89)"/><path class="cls-1" d="M3101.85,2002.08h-47.61a3,3,0,0,1-3-3V1897.39a3,3,0,0,1,3-3h47.61a3,3,0,0,1,3,3v101.72A3,3,0,0,1,3101.85,2002.08Zm-44.64-5.95h41.67v-95.78h-41.67Z" transform="translate(-104.95 -1256.89)"/><path class="cls-1" d="M3098.09,1900.27H3058a3,3,0,0,1-3-3v-22.48a3,3,0,0,1,5.95,0v19.51h34.13v-19.51a3,3,0,0,1,5.95,0v22.48A3,3,0,0,1,3098.09,1900.27Z" transform="translate(-104.95 -1256.89)"/><path class="cls-1" d="M3088.34,1951.22h-20.59a3,3,0,0,1-3-3v-25.86a13.18,13.18,0,0,1,13.16-13.16h.21a13.18,13.18,0,0,1,13.16,13.16v25.86A3,3,0,0,1,3088.34,1951.22Zm-17.61-5.95h14.64v-22.88a7.23,7.23,0,0,0-7.22-7.22h-.21a7.23,7.23,0,0,0-7.22,7.22Z" transform="translate(-104.95 -1256.89)"/><path class="cls-1" d="M3088.34,2001.39h-20.59a3,3,0,0,1-3-3v-25.86a13.18,13.18,0,0,1,13.16-13.16h.21a13.18,13.18,0,0,1,13.16,13.16v25.86A3,3,0,0,1,3088.34,2001.39Zm-17.61-5.95h14.64v-22.88a7.23,7.23,0,0,0-7.22-7.22h-.21a7.23,7.23,0,0,0-7.22,7.22Z" transform="translate(-104.95 -1256.89)"/><path class="cls-1" d="M3100.29,1848.61h-44.48a3,3,0,0,1-1.72-5.4l4.91-3.48a86.39,86.39,0,0,0,15.22-13.72l1.59-1.82a3,3,0,0,1,4.49,0l1.59,1.82a86.39,86.39,0,0,0,15.22,13.72l4.91,3.48a3,3,0,0,1-1.72,5.4Zm-35.24-5.95h26a91.94,91.94,0,0,1-13-12A92,92,0,0,1,3065,1842.67Z" transform="translate(-104.95 -1256.89)"/><path class="cls-1" d="M3078,1829.12a3,3,0,0,1-3-3v-8.77a3,3,0,0,1,5.95,0v8.77A3,3,0,0,1,3078,1829.12Z" transform="translate(-104.95 -1256.89)"/><path class="cls-1" d="M3101.2,1874.72h-46.3a3,3,0,0,1-2.87-2.2,27,27,0,0,1,10.85-29.34,3,3,0,0,1,1.67-.52h27a3,3,0,0,1,1.67.52,27,27,0,0,1,10.85,29.34A3,3,0,0,1,3101.2,1874.72Zm-43.9-5.95h41.5a21,21,0,0,0-8.21-20.16H3065.5a21,21,0,0,0-8.21,20.16Z" transform="translate(-104.95 -1256.89)"/><path class="cls-1" d="M3389,2002.08h-39.34a3,3,0,0,1-3-3l4.62-191.28a3,3,0,0,1,3-2.9h30.09a3,3,0,0,1,3,2.9l4.61,191a3,3,0,0,1,0,.33A3,3,0,0,1,3389,2002.08Zm-36.29-5.95h33.23l-4.47-185.33h-24.28Z" transform="translate(-104.95 -1256.89)"/><path class="cls-1" d="M3394.78,1945.58h-50.93a3,3,0,0,1,0-5.95h50.93a3,3,0,1,1,0,5.95Z" transform="translate(-104.95 -1256.89)"/><path class="cls-1" d="M3394.78,1890.64h-50.93a3,3,0,1,1,0-5.95h50.93a3,3,0,0,1,0,5.95Z" transform="translate(-104.95 -1256.89)"/><path class="cls-1" d="M3392.83,1890.64h-47a3,3,0,1,1,0-5.95h47a3,3,0,1,1,0,5.95Z" transform="translate(-104.95 -1256.89)"/><path class="cls-1" d="M3391.52,1840.25h-44.43a3,3,0,0,1,0-5.95h44.43a3,3,0,1,1,0,5.95Z" transform="translate(-104.95 -1256.89)"/><path class="cls-1" d="M3383.05,1809.26a3,3,0,0,1-3-3,10.77,10.77,0,1,0-21.54,0,3,3,0,1,1-5.95,0,16.72,16.72,0,1,1,33.43,0A3,3,0,0,1,3383.05,1809.26Z" transform="translate(-104.95 -1256.89)"/><path class="cls-1" d="M3369.31,1793.9a3,3,0,0,1-3-3v-6.74a3,3,0,1,1,5.95,0v6.74A3,3,0,0,1,3369.31,1793.9Z" transform="translate(-104.95 -1256.89)"/><path class="cls-1" d="M3369.31,1836.61a3,3,0,0,1-3-3v-10.89a3,3,0,1,1,5.95,0v10.89A3,3,0,0,1,3369.31,1836.61Z" transform="translate(-104.95 -1256.89)"/><path class="cls-1" d="M3390.87,1810.45h-43.12a3,3,0,1,1,0-5.95h43.12a3,3,0,0,1,0,5.95Z" transform="translate(-104.95 -1256.89)"/><path class="cls-1" d="M3319.21,2002.08h-34.62a3,3,0,0,1-3-3l4.06-168.32a3,3,0,0,1,3-2.9h26.48a3,3,0,0,1,3,2.9l4.06,168.07a3,3,0,0,1,0,.33A3,3,0,0,1,3319.21,2002.08Zm-31.57-5.95h28.51l-3.92-162.38h-20.67Z" transform="translate(-104.95 -1256.89)"/><path class="cls-1" d="M3324.3,1952.36h-44.82a3,3,0,0,1,0-5.95h44.82a3,3,0,0,1,0,5.95Z" transform="translate(-104.95 -1256.89)"/><path class="cls-1" d="M3324.3,1904h-44.82a3,3,0,1,1,0-5.95h44.82a3,3,0,1,1,0,5.95Z" transform="translate(-104.95 -1256.89)"/><path class="cls-1" d="M3322.59,1904h-41.4a3,3,0,0,1,0-5.95h41.4a3,3,0,1,1,0,5.95Z" transform="translate(-104.95 -1256.89)"/><path class="cls-1" d="M3321.44,1859.67h-39.1a3,3,0,1,1,0-5.95h39.1a3,3,0,0,1,0,5.95Z" transform="translate(-104.95 -1256.89)"/><path class="cls-1" d="M3314,1832.4a3,3,0,0,1-3-3,9.12,9.12,0,0,0-18.24,0,3,3,0,0,1-5.95,0,15.07,15.07,0,0,1,30.13,0A3,3,0,0,1,3314,1832.4Z" transform="translate(-104.95 -1256.89)"/><path class="cls-1" d="M3301.89,1818.88a3,3,0,0,1-3-3V1810a3,3,0,0,1,5.95,0v5.93A3,3,0,0,1,3301.89,1818.88Z" transform="translate(-104.95 -1256.89)"/><path class="cls-1" d="M3301.89,1856.47a3,3,0,0,1-3-3v-9.59a3,3,0,0,1,5.95,0v9.59A3,3,0,0,1,3301.89,1856.47Z" transform="translate(-104.95 -1256.89)"/><path class="cls-1" d="M3320.87,1833.45h-37.95a3,3,0,0,1,0-5.95h37.95a3,3,0,1,1,0,5.95Z" transform="translate(-104.95 -1256.89)"/><path class="cls-1" d="M2960.21,2002.08h-39.32a3,3,0,0,1-3-3l4.62-191.28a3,3,0,0,1,3-2.9h30.09a3,3,0,0,1,3,2.9l4.62,191.28a3,3,0,0,1-3,3Zm-36.28-5.95h33.23l-4.47-185.33h-24.29Z" transform="translate(-104.95 -1256.89)"/><path class="cls-1" d="M2966,1945.58h-50.93a3,3,0,0,1,0-5.95H2966a3,3,0,0,1,0,5.95Z" transform="translate(-104.95 -1256.89)"/><path class="cls-1" d="M2966,1890.64h-50.93a3,3,0,0,1,0-5.95H2966a3,3,0,0,1,0,5.95Z" transform="translate(-104.95 -1256.89)"/><path class="cls-1" d="M2964.07,1890.64h-47a3,3,0,0,1,0-5.95h47a3,3,0,0,1,0,5.95Z" transform="translate(-104.95 -1256.89)"/><path class="cls-1" d="M2962.76,1840.25h-44.43a3,3,0,1,1,0-5.95h44.43a3,3,0,1,1,0,5.95Z" transform="translate(-104.95 -1256.89)"/><path class="cls-1" d="M2954.29,1809.26a3,3,0,0,1-3-3,10.77,10.77,0,1,0-21.54,0,3,3,0,1,1-5.95,0,16.72,16.72,0,1,1,33.43,0A3,3,0,0,1,2954.29,1809.26Z" transform="translate(-104.95 -1256.89)"/><path class="cls-1" d="M2940.55,1793.9a3,3,0,0,1-3-3v-6.74a3,3,0,1,1,5.95,0v6.74A3,3,0,0,1,2940.55,1793.9Z" transform="translate(-104.95 -1256.89)"/><path class="cls-1" d="M2940.55,1836.61a3,3,0,0,1-3-3v-10.89a3,3,0,0,1,5.95,0v10.89A3,3,0,0,1,2940.55,1836.61Z" transform="translate(-104.95 -1256.89)"/><path class="cls-1" d="M2962.11,1810.45H2919a3,3,0,1,1,0-5.95h43.12a3,3,0,0,1,0,5.95Z" transform="translate(-104.95 -1256.89)"/><path class="cls-1" d="M3025.27,2002.08h-34.61a3,3,0,0,1-3-3l4.06-168.32a3,3,0,0,1,3-2.9h26.48a3,3,0,0,1,3,2.9l4.06,168.32a3,3,0,0,1-3,3Zm-31.56-5.95h28.51l-3.92-162.38h-20.67Z" transform="translate(-104.95 -1256.89)"/><path class="cls-1" d="M3030.37,1952.36h-44.82a3,3,0,0,1,0-5.95h44.82a3,3,0,0,1,0,5.95Z" transform="translate(-104.95 -1256.89)"/><path class="cls-1" d="M3030.37,1904h-44.82a3,3,0,0,1,0-5.95h44.82a3,3,0,0,1,0,5.95Z" transform="translate(-104.95 -1256.89)"/><path class="cls-1" d="M3028.66,1904h-41.4a3,3,0,0,1,0-5.95h41.4a3,3,0,1,1,0,5.95Z" transform="translate(-104.95 -1256.89)"/><path class="cls-1" d="M3027.51,1859.67h-39.1a3,3,0,1,1,0-5.95h39.1a3,3,0,1,1,0,5.95Z" transform="translate(-104.95 -1256.89)"/><path class="cls-1" d="M3020.06,1832.4a3,3,0,0,1-3-3,9.12,9.12,0,1,0-18.24,0,3,3,0,1,1-5.95,0,15.07,15.07,0,1,1,30.13,0A3,3,0,0,1,3020.06,1832.4Z" transform="translate(-104.95 -1256.89)"/><path class="cls-1" d="M3008,1818.88a3,3,0,0,1-3-3V1810a3,3,0,1,1,5.95,0v5.93A3,3,0,0,1,3008,1818.88Z" transform="translate(-104.95 -1256.89)"/><path class="cls-1" d="M3008,1856.47a3,3,0,0,1-3-3v-9.59a3,3,0,0,1,5.95,0v9.59A3,3,0,0,1,3008,1856.47Z" transform="translate(-104.95 -1256.89)"/><path class="cls-1" d="M3026.94,1833.45H2989a3,3,0,0,1,0-5.95h37.95a3,3,0,1,1,0,5.95Z" transform="translate(-104.95 -1256.89)"/><path class="cls-1" d="M3425.52,2002.08H2888.34a3,3,0,1,1,0-5.95h537.19a3,3,0,1,1,0,5.95Z" transform="translate(-104.95 -1256.89)"/><path class="cls-2" d="M1788.72,1793.49l-.31-43.85-.25-36.16-75.94-20.41-30.67-38.31-1.77.29a118.32,118.32,0,0,1-18.74,1.65c-31.65,0-36.22-16.63-36.6-18.3l22.62-.07,0-5a22.27,22.27,0,0,1,7-1.06c11.44,0,23.78,7,27.29,9.15l1.08.66,1.23-.3c21.83-5.24,74.87-10.52,115.56-14h.09l.13,0,10.75-.92,7.35-.61,2.83-.23-.17-48a26.48,26.48,0,0,1,26.4-26.58h.13a26.52,26.52,0,0,1,26.45,26.4l.18,48,2.83.21c39.06,2.92,108.41,8.7,134,14.64l1.24.29,1.08-.67c3.53-2.2,15.92-9.36,27.4-9.36a22.11,22.11,0,0,1,6.83,1l0,5,22.63-.08c-.37,1.68-4.87,18.55-37.11,18.55a119.67,119.67,0,0,1-18.11-1.52l-1.77-.27-30.4,38.53-75.79,20.94v32.56l6.17,3.46,3.94,174.27h-10.1l0,75.27-55,.18-2.07,0-59.08.2Z" transform="translate(-104.95 -1256.89)"/><path class="cls-1" d="M1790.25,2002.08a3,3,0,0,1-3-3l-1.44-205.62-.31-43.85-.23-33.82L1711.58,1696a3,3,0,0,1-1.55-1l-29.57-36.94a121.29,121.29,0,0,1-19.23,1.69c-35.14,0-39.46-20-39.63-20.89a3,3,0,0,1,2.91-3.54l19.66-.06v-2a3,3,0,0,1,2-2.83,25.28,25.28,0,0,1,8.06-1.24c12.2,0,25.05,7.26,28.89,9.6,22-5.28,75.08-10.57,116.14-14.12a3,3,0,0,1,3.17,2.38c1.42,7.1,2.37,14.48,3.29,21.63,1.49,11.57,2.89,22.5,6.09,31a3,3,0,0,1,.19,1,3.23,3.23,0,0,1,0,.39c-8.29,64.82-.9,119.58,21.94,162.75,16.66,31.47,40.89,56.45,74.09,76.36a3,3,0,0,1,1.44,2.55l0,75.83a3,3,0,0,1-3,3l-55,.18-2.05,0-59.18.2Zm-76.19-311.54,75,20.15a3,3,0,0,1,2.2,2.85l.25,36.09.31,43.85,1.42,202.66,56.21-.19,2.05,0,52.1-.17,0-71.19c-33.42-20.34-57.91-45.8-74.85-77.8-23.35-44.12-31-99.82-22.68-165.58-3.26-9.06-4.67-20.06-6.17-31.68-.79-6.16-1.61-12.5-2.72-18.61-41.25,3.59-93.42,8.87-113.77,14a3,3,0,0,1-2.37-.4c-.14-.09-14.3-9.33-26.74-9.33a21.07,21.07,0,0,0-4.14.39v2.64a3,3,0,0,1-3,3l-18.16.05c2.91,4.74,10.94,12.55,32.23,12.55a118,118,0,0,0,19.95-1.89A3,3,0,0,1,1684,1653Z" transform="translate(-104.95 -1256.89)"/><path class="cls-1" d="M1906.51,1748.75a3,3,0,0,1-1.35-.32c-29.68-15.07-56.58-37.61-77.8-65.17-17.07-22.18-27.18-43.32-30.65-54.68a3,3,0,0,1,2.6-3.83l7-.6,3.84-.33,7.36-.61-.16-45.13a29.54,29.54,0,0,1,29.45-29.66h.13a29.59,29.59,0,0,1,29.52,29.45l.17,45.12c40.68,3,108.89,8.78,134.46,14.71,3.84-2.39,16.76-9.82,29-9.82a25.12,25.12,0,0,1,7.85,1.18,3,3,0,0,1,2,2.81v2l19.68-.07a3,3,0,0,1,2.93,3.52c-.16.86-4.4,21.16-40.15,21.16a122.62,122.62,0,0,1-18.57-1.55L1984.59,1694a3,3,0,0,1-1.54,1l-73.57,20.33v30.38a3,3,0,0,1-3,3Zm-102.93-118.41c4.15,11.43,13.56,29.88,28.5,49.28a226.55,226.55,0,0,0,71.46,61.24v-27.74a3,3,0,0,1,2.18-2.87l74.81-20.67,29.79-37.75a3,3,0,0,1,2.82-1.09,119.38,119.38,0,0,0,19.34,1.75c21.73,0,29.84-8,32.76-12.77l-18.18.07a2.88,2.88,0,0,1-2.11-.86,3,3,0,0,1-.88-2.1v-2.64a20.87,20.87,0,0,0-4-.36c-12.47,0-26.68,9.44-26.83,9.53a3,3,0,0,1-2.37.42c-24.65-6.08-96.71-12-137.47-15.06a3,3,0,0,1-2.75-3l-.18-47.87a23.64,23.64,0,0,0-23.58-23.53h-.11a23.59,23.59,0,0,0-23.53,23.69l.17,47.89a3,3,0,0,1-2.74,3c-3.17.25-6.56.53-10.07.83l-3.83.33Z" transform="translate(-104.95 -1256.89)"/><path class="cls-1" d="M1916.62,1926.42h-9.12a3,3,0,1,1,0-5.95h6.08l-3.84-169.68-4.69-2.63A3,3,0,0,1,1908,1743l6.17,3.46a3,3,0,0,1,1.52,2.53l3.94,174.42a3,3,0,0,1-3,3Z" transform="translate(-104.95 -1256.89)"/><path class="cls-2" d="M1399.81,1999v-15.9h20.94V1967h12.65V1800.51h-12.65v-16.68h-17.53v-26.9h-14.84l213.74-111,213.74,111H1801v26.9H1783.5v16.68h-12.65V1967h12.65v16.08h20.94V1999ZM1725,1967h29.08V1800.51H1725V1967Zm-45.82,0h29.08V1800.51h-29.08V1967Zm-45.82,0h29.08V1800.51H1633.4V1967Zm-45.82,0h29.08V1800.51h-29.08v14.85h0Zm-45.82,0h29.08V1800.51h-29.08V1967Zm-45.82,0H1525V1800.51H1496V1967Zm-45.82,0h29.08V1800.51h-29.08V1967Z" transform="translate(-104.95 -1256.89)"/><path class="cls-1" d="M1804.72,2002.08H1399.9a3,3,0,0,1-3-3V1983a3,3,0,0,1,3-3h404.82a3,3,0,0,1,3,3v16.08A3,3,0,0,1,1804.72,2002.08Zm-401.84-5.95h398.87V1986H1402.88Z" transform="translate(-104.95 -1256.89)"/><path class="cls-1" d="M1783.78,1986H1420.84a3,3,0,0,1-3-3V1967a3,3,0,0,1,3-3h362.93a3,3,0,0,1,3,3V1983A3,3,0,0,1,1783.78,1986Zm-360-5.95h357v-10.13h-357Z" transform="translate(-104.95 -1256.89)"/><path class="cls-1" d="M1801.3,1786.89h-398a3,3,0,0,1-3-3v-26.49a3,3,0,0,1,3-3h398a3,3,0,0,1,3,3v26.49A3,3,0,0,1,1801.3,1786.89Zm-395-5.95h392V1760.4h-392Z" transform="translate(-104.95 -1256.89)"/><path class="cls-1" d="M1783.78,1803.57H1420.84a3,3,0,0,1-3-3v-16.08a3,3,0,0,1,3-3h362.93a3,3,0,0,1,3,3v16.08A3,3,0,0,1,1783.78,1803.57Zm-360-5.95h357v-10.13h-357Z" transform="translate(-104.95 -1256.89)"/><path class="cls-1" d="M1450.41,1969.93H1433.5a3,3,0,0,1-3-3V1801.54a3,3,0,0,1,3-3h16.92a3,3,0,0,1,3,3V1967A3,3,0,0,1,1450.41,1969.93Zm-13.94-5.95h11V1804.51h-11Z" transform="translate(-104.95 -1256.89)"/><path class="cls-1" d="M1458.58,1818.24h-33.25a3,3,0,1,1,0-5.95h33.25a3,3,0,1,1,0,5.95Z" transform="translate(-104.95 -1256.89)"/><path class="cls-1" d="M1496.23,1969.93h-16.92a3,3,0,0,1-3-3V1801.54a3,3,0,0,1,3-3h16.92a3,3,0,0,1,3,3V1967A3,3,0,0,1,1496.23,1969.93Zm-13.94-5.95h11V1804.51h-11Z" transform="translate(-104.95 -1256.89)"/><path class="cls-1" d="M1504.39,1818.24h-33.25a3,3,0,0,1,0-5.95h33.25a3,3,0,1,1,0,5.95Z" transform="translate(-104.95 -1256.89)"/><path class="cls-1" d="M1542,1969.93h-16.92a3,3,0,0,1-3-3V1801.54a3,3,0,0,1,3-3H1542a3,3,0,0,1,3,3V1967A3,3,0,0,1,1542,1969.93ZM1528.1,1964h11V1804.51h-11Z" transform="translate(-104.95 -1256.89)"/><path class="cls-1" d="M1550.21,1818.24H1517a3,3,0,0,1,0-5.95h33.25a3,3,0,1,1,0,5.95Z" transform="translate(-104.95 -1256.89)"/><path class="cls-1" d="M1587.86,1969.93h-16.92a3,3,0,0,1-3-3V1801.54a3,3,0,0,1,3-3h16.92a3,3,0,0,1,3,3V1967A3,3,0,0,1,1587.86,1969.93Zm-13.94-5.95h11V1804.51h-11Z" transform="translate(-104.95 -1256.89)"/><path class="cls-1" d="M1596,1818.24h-33.25a3,3,0,1,1,0-5.95H1596a3,3,0,1,1,0,5.95Z" transform="translate(-104.95 -1256.89)"/><path class="cls-1" d="M1633.68,1969.93h-16.92a3,3,0,0,1-3-3V1801.54a3,3,0,0,1,3-3h16.92a3,3,0,0,1,3,3V1967A3,3,0,0,1,1633.68,1969.93Zm-13.94-5.95h11V1804.51h-11Z" transform="translate(-104.95 -1256.89)"/><path class="cls-1" d="M1641.84,1818.24H1608.6a3,3,0,1,1,0-5.95h33.25a3,3,0,0,1,0,5.95Z" transform="translate(-104.95 -1256.89)"/><path class="cls-1" d="M1679.49,1969.93h-16.92a3,3,0,0,1-3-3V1801.54a3,3,0,0,1,3-3h16.92a3,3,0,0,1,3,3V1967A3,3,0,0,1,1679.49,1969.93Zm-13.94-5.95h11V1804.51h-11Z" transform="translate(-104.95 -1256.89)"/><path class="cls-1" d="M1687.66,1818.24h-33.25a3,3,0,1,1,0-5.95h33.25a3,3,0,1,1,0,5.95Z" transform="translate(-104.95 -1256.89)"/><path class="cls-1" d="M1725.31,1969.93h-16.92a3,3,0,0,1-3-3V1801.54a3,3,0,0,1,3-3h16.92a3,3,0,0,1,3,3V1967A3,3,0,0,1,1725.31,1969.93Zm-13.94-5.95h11V1804.51h-11Z" transform="translate(-104.95 -1256.89)"/><path class="cls-1" d="M1733.47,1818.24h-33.25a3,3,0,1,1,0-5.95h33.25a3,3,0,1,1,0,5.95Z" transform="translate(-104.95 -1256.89)"/><path class="cls-1" d="M1771.12,1969.93h-16.92a3,3,0,0,1-3-3V1801.54a3,3,0,0,1,3-3h16.92a3,3,0,0,1,3,3V1967A3,3,0,0,1,1771.12,1969.93Zm-13.94-5.95h11V1804.51h-11Z" transform="translate(-104.95 -1256.89)"/><path class="cls-1" d="M1779.29,1818.24H1746a3,3,0,0,1,0-5.95h33.25a3,3,0,1,1,0,5.95Z" transform="translate(-104.95 -1256.89)"/><path class="cls-1" d="M1388.19,1760a3,3,0,0,1-1.37-5.61l214.12-111.22a3,3,0,0,1,2.74,0l214.12,111.22a3,3,0,0,1-1.37,5.61Zm214.12-110.84L1400.37,1754h403.89Z" transform="translate(-104.95 -1256.89)"/><path class="cls-1" d="M1773.95,1760a3,3,0,0,1-1.32-.31L1602.31,1675,1432,1759.68a3,3,0,0,1-2.65-5.32L1601,1669a3,3,0,0,1,2.65,0l171.64,85.36a3,3,0,0,1-1.33,5.64Z" transform="translate(-104.95 -1256.89)"/><path class="cls-2" d="M2366.72,2009.36l.51-10.8H2166.79v-37.94h35.72V1922h35.72v-38.12h35.72V1849h35.72v-34.85h35.72v-34.85h17.45v-51.2h110.79v51.2h17.45v34.85h35.72V1849h35.72v34.85h35.72V1922h35.72v38.62h35.72v37.94H2470.06l.5,10.77v0H2366.72Zm73.86-230h12.3v-21.69h-12.3Zm-31.2,0h17.68v-21.69h-17.68Zm-25.82,0h12.3v-21.69h-12.3Z" transform="translate(-104.95 -1256.89)"/><path class="cls-1" d="M2470.86,2012.42h-104a3,3,0,0,1-3-3.11l10.8-230.21a3,3,0,0,1,3-2.83H2460a3,3,0,0,1,3,2.83l10.79,229.95a3,3,0,0,1,0,.4A3,3,0,0,1,2470.86,2012.42Zm-100.93-5.95h97.81l-10.52-224.26h-76.76Z" transform="translate(-104.95 -1256.89)"/><path class="cls-1" d="M2473.89,1782.22h-111a3,3,0,0,1-3-3V1728a3,3,0,0,1,3-3h111a3,3,0,0,1,3,3v51.2A3,3,0,0,1,2473.89,1782.22Zm-108-5.95h105V1731h-105Z" transform="translate(-104.95 -1256.89)"/><path class="cls-1" d="M2479.35,1743.58h-121.9a3,3,0,0,1,0-5.95h121.9a3,3,0,0,1,0,5.95Z" transform="translate(-104.95 -1256.89)"/><path class="cls-1" d="M2396,1782.22h-12.12a3,3,0,0,1-3-3v-21.51a3,3,0,0,1,3-3H2396a3,3,0,0,1,3,3v21.51A3,3,0,0,1,2396,1782.22Zm-9.14-5.95H2393v-15.56h-6.17Z" transform="translate(-104.95 -1256.89)"/><path class="cls-1" d="M2427.15,1782.22h-17.5a3,3,0,0,1-3-3v-21.51a3,3,0,0,1,3-3h17.5a3,3,0,0,1,3,3v21.51A3,3,0,0,1,2427.15,1782.22Zm-14.52-5.95h11.55v-15.56h-11.55Z" transform="translate(-104.95 -1256.89)"/><path class="cls-1" d="M2453,1782.22h-12.12a3,3,0,0,1-3-3v-21.51a3,3,0,0,1,3-3H2453a3,3,0,0,1,3,3v21.51A3,3,0,0,1,2453,1782.22Zm-9.14-5.95H2450v-15.56h-6.17Z" transform="translate(-104.95 -1256.89)"/><path class="cls-1" d="M2382.89,2012.42h-.09a3,3,0,0,1-2.88-3.06l7.2-230.21a3,3,0,1,1,5.94.19l-7.2,230.21A3,3,0,0,1,2382.89,2012.42Z" transform="translate(-104.95 -1256.89)"/><path class="cls-1" d="M2455.28,2012.42a3,3,0,0,1-3-2.88l-7.2-230.21a3,3,0,0,1,5.94-.19l7.2,230.21a3,3,0,0,1-2.88,3.06Z" transform="translate(-104.95 -1256.89)"/><path class="cls-1" d="M2367.31,2001.62H2166.89a3,3,0,0,1-3-3v-38.12a3,3,0,0,1,3-3H2369.1a3,3,0,0,1,3,3.11l-1.79,38.12A3,3,0,0,1,2367.31,2001.62Zm-197.46-5.95h194.62l1.51-32.17H2169.86Z" transform="translate(-104.95 -1256.89)"/><path class="cls-1" d="M2669.92,2001.62H2470.34a3,3,0,0,1-3-2.83l-1.79-38.12a3,3,0,0,1,3-3.11h201.37a3,3,0,0,1,3,3v38.12A3,3,0,0,1,2669.92,2001.62Zm-196.75-5.95H2667V1963.5H2471.67Z" transform="translate(-104.95 -1256.89)"/><path class="cls-1" d="M2369.13,1963H2202.6a3,3,0,0,1-3-3v-38.12a3,3,0,0,1,3-3h168.31a3,3,0,0,1,3,3.11l-1.79,38.12A3,3,0,0,1,2369.13,1963Zm-163.55-5.95h160.71l1.51-32.17H2205.58Z" transform="translate(-104.95 -1256.89)"/><path class="cls-1" d="M2634.21,1963H2468.53a3,3,0,0,1-3-2.83l-1.79-38.12a3,3,0,0,1,3-3.11h167.47a3,3,0,0,1,3,3V1960A3,3,0,0,1,2634.21,1963Zm-162.84-5.95h159.87v-32.17H2469.85Z" transform="translate(-104.95 -1256.89)"/><path class="cls-1" d="M2598.49,1924.88H2466.74a3,3,0,0,1-3-2.83l-1.79-38.12a3,3,0,0,1,3-3.11h133.54a3,3,0,0,1,3,3v38.12A3,3,0,0,1,2598.49,1924.88Zm-128.92-5.95h125.94v-32.17H2468.07Z" transform="translate(-104.95 -1256.89)"/><path class="cls-1" d="M2370.91,1924.88h-132.6a3,3,0,0,1-3-3v-38.12a3,3,0,0,1,3-3H2372.7a3,3,0,0,1,3,3.11l-1.79,38.12A3,3,0,0,1,2370.91,1924.88Zm-129.62-5.95h126.79l1.51-32.17h-128.3Z" transform="translate(-104.95 -1256.89)"/><path class="cls-1" d="M2372.7,1886.76H2274a3,3,0,0,1-3-3v-34.85a3,3,0,0,1,3-3h100.3a3,3,0,0,1,3,3.11l-1.64,34.85A3,3,0,0,1,2372.7,1886.76Zm-95.69-5.95h92.86l1.36-28.9H2277Z" transform="translate(-104.95 -1256.89)"/><path class="cls-1" d="M2562.77,1886.76H2465a3,3,0,0,1-3-2.83l-1.63-34.85a3,3,0,0,1,3-3.11h99.46a3,3,0,0,1,3,3v34.85A3,3,0,0,1,2562.77,1886.76Zm-95-5.95h92v-28.9h-93.37Z" transform="translate(-104.95 -1256.89)"/><path class="cls-1" d="M2374.34,1851.91h-64.59a3,3,0,0,1-3-3v-34.85a3,3,0,0,1,3-3H2376a3,3,0,0,1,3,3.11l-1.63,34.85A3,3,0,0,1,2374.34,1851.91Zm-61.61-5.95h58.78l1.36-28.9h-60.13Z" transform="translate(-104.95 -1256.89)"/><path class="cls-1" d="M2527.06,1851.91h-63.74a3,3,0,0,1-3-2.83l-1.63-34.85a3,3,0,0,1,3-3.11h65.38a3,3,0,0,1,3,3v34.85A3,3,0,0,1,2527.06,1851.91Zm-60.91-5.95h57.93v-28.9H2464.8Z" transform="translate(-104.95 -1256.89)"/><path class="cls-1" d="M2376,1817.06h-30.5a3,3,0,0,1-3-3v-34.85a3,3,0,0,1,3-3h32.14a3,3,0,0,1,3,3.11l-1.63,34.85A3,3,0,0,1,2376,1817.06Zm-27.53-5.95h24.69l1.36-28.9h-26Z" transform="translate(-104.95 -1256.89)"/><path class="cls-1" d="M2491.34,1817.06h-29.66a3,3,0,0,1-3-2.83l-1.64-34.85a3,3,0,0,1,3-3.11h31.29a3,3,0,0,1,3,3v34.85A3,3,0,0,1,2491.34,1817.06Zm-26.82-5.95h23.85v-28.9h-25.21Z" transform="translate(-104.95 -1256.89)"/><path class="cls-2" d="M1187.68,1999v-23.81l-.12-.42a10.61,10.61,0,0,0-2.47-4.14l2.59,2.05v-31h6.69V1782.25h-6.24l.08-.17,13.19-24,6.06,11,15.56-28.36,15.65,28.51,6.14-11.19,13.15,24,0,.07,0,.13v0h-6.3v11l.17.49a67.41,67.41,0,0,0,5.53,26.43l-5.7,1.16v120.38h6.69V1999ZM946,1999v-57.3h6.69V1821.34l-5.7-1.16a67.5,67.5,0,0,0,5.53-26.46l.17-.49v-11h-6.29v-.06l0-.12,13.18-24,6.14,11.19,15.65-28.51,15.56,28.36,6.06-11,13.2,24.05.05.15H1010v159.48h6.69v31l2.59-2.06a10.62,10.62,0,0,0-2.47,4.14l-.12.42V1999Z" transform="translate(-104.95 -1256.89)"/><path class="cls-1" d="M1016.93,2002.08H946.08a3,3,0,0,1-3-3v-56.85a3,3,0,0,1,3-3h70.86a3,3,0,0,1,3,3v56.85A3,3,0,0,1,1016.93,2002.08Zm-67.88-5.95H1014v-50.91H949.05Z" transform="translate(-104.95 -1256.89)"/><path class="cls-1" d="M981.51,2002.08a3,3,0,0,1-3-3v-56.85a3,3,0,1,1,5.95,0v56.85A3,3,0,0,1,981.51,2002.08Z" transform="translate(-104.95 -1256.89)"/><path class="cls-1" d="M1010.24,1944.6H952.77a3,3,0,0,1-3-3V1782.34a3,3,0,0,1,3-3h57.47a3,3,0,0,1,3,3v159.29A3,3,0,0,1,1010.24,1944.6Zm-54.5-5.95h51.53V1785.31H955.74Z" transform="translate(-104.95 -1256.89)"/><path class="cls-1" d="M1014.39,1893.18H948.62a3,3,0,1,1,0-5.95h65.77a3,3,0,1,1,0,5.95Z" transform="translate(-104.95 -1256.89)"/><path class="cls-1" d="M1112,1944.6H840.21a3,3,0,1,1,0-5.95H1112a3,3,0,1,1,0,5.95Z" transform="translate(-104.95 -1256.89)"/><path class="cls-1" d="M1014.39,1840.64H948.62a3,3,0,0,1,0-5.95h65.77a3,3,0,1,1,0,5.95Z" transform="translate(-104.95 -1256.89)"/><path class="cls-1" d="M1016.53,1785.31h-70a3,3,0,0,1,0-5.95h70a3,3,0,1,1,0,5.95Z" transform="translate(-104.95 -1256.89)"/><path class="cls-1" d="M1192.57,1798.87H1013.25a3,3,0,1,1,0-5.95h179.33a3,3,0,0,1,0,5.95Z" transform="translate(-104.95 -1256.89)"/><path class="cls-1" d="M1168.2,1820.83a3,3,0,0,1-2.09-.86l-19.67-19.52L1126.77,1820a3,3,0,0,1-4.19,0l-19.67-19.52L1083.24,1820a3,3,0,0,1-4.19,0l-19.67-19.52L1039.72,1820a3,3,0,0,1-4.19,0l-21.76-21.6a3,3,0,1,1,4.19-4.22l19.67,19.52,19.67-19.52a3,3,0,0,1,4.19,0l19.67,19.52,19.67-19.52a3,3,0,0,1,4.19,0l19.67,19.52,19.67-19.52a3,3,0,0,1,4.19,0l19.67,19.52,19.67-19.52a3,3,0,1,1,4.19,4.22l-21.76,21.6A3,3,0,0,1,1168.2,1820.83Z" transform="translate(-104.95 -1256.89)"/><path class="cls-1" d="M1192.57,1821.74H1013.25a3,3,0,0,1,0-5.95h179.33a3,3,0,0,1,0,5.95Z" transform="translate(-104.95 -1256.89)"/><path class="cls-1" d="M995.37,1825.4a3,3,0,0,1-3-3V1798a3,3,0,0,1,5.95,0v24.43A3,3,0,0,1,995.37,1825.4Z" transform="translate(-104.95 -1256.89)"/><path class="cls-1" d="M967.65,1825.4a3,3,0,0,1-3-3V1798a3,3,0,0,1,5.95,0v24.43A3,3,0,0,1,967.65,1825.4Z" transform="translate(-104.95 -1256.89)"/><path class="cls-1" d="M995.37,1879a3,3,0,0,1-3-3v-24.43a3,3,0,1,1,5.95,0V1876A3,3,0,0,1,995.37,1879Z" transform="translate(-104.95 -1256.89)"/><path class="cls-1" d="M967.65,1879a3,3,0,0,1-3-3v-24.43a3,3,0,1,1,5.95,0V1876A3,3,0,0,1,967.65,1879Z" transform="translate(-104.95 -1256.89)"/><path class="cls-1" d="M995.37,1931.51a3,3,0,0,1-3-3v-24.43a3,3,0,1,1,5.95,0v24.43A3,3,0,0,1,995.37,1931.51Z" transform="translate(-104.95 -1256.89)"/><path class="cls-1" d="M967.65,1931.51a3,3,0,0,1-3-3v-24.43a3,3,0,1,1,5.95,0v24.43A3,3,0,0,1,967.65,1931.51Z" transform="translate(-104.95 -1256.89)"/><path class="cls-1" d="M973,1785H946.44a3,3,0,0,1-2.61-4.4l13.28-24.2a3,3,0,0,1,2.61-1.54h0a3,3,0,0,1,2.61,1.54l13.28,24.2A3,3,0,0,1,973,1785Zm-21.54-5.95H968l-8.26-15Z" transform="translate(-104.95 -1256.89)"/><path class="cls-1" d="M1016.41,1785H989.85a3,3,0,0,1-2.61-4.4l13.28-24.2a3,3,0,0,1,2.61-1.54h0a3,3,0,0,1,2.61,1.54l13.28,24.2a3,3,0,0,1-2.61,4.4Zm-21.54-5.95h16.51l-8.26-15Z" transform="translate(-104.95 -1256.89)"/><path class="cls-1" d="M833.24,1893.37a3,3,0,1,1,0-5.95c25.31,0,54.24-10.36,77.4-27.72,11.75-8.8,21.46-19.15,28.1-29.91,7.23-11.73,10.9-23.87,10.9-36.07a3,3,0,1,1,5.95,0c0,13.32-4,26.5-11.78,39.19-7.12,11.55-17.08,22.17-29.59,31.55C890.06,1882.56,859.79,1893.37,833.24,1893.37Z" transform="translate(-104.95 -1256.89)"/><path class="cls-1" d="M1016.77,1979.71a3,3,0,0,1-3-3c0-10.24,15.81-16.88,29.07-20.65,16.74-4.75,38.07-7.48,58.54-7.48a3,3,0,1,1,0,5.95c-19.94,0-40.69,2.64-56.92,7.26-18.25,5.19-24.75,11.11-24.75,14.93A3,3,0,0,1,1016.77,1979.71Z" transform="translate(-104.95 -1256.89)"/><path class="cls-1" d="M920.44,1944.6a3,3,0,0,1-3-3v-86a3,3,0,1,1,5.95,0v86A3,3,0,0,1,920.44,1944.6Z" transform="translate(-104.95 -1256.89)"/><path class="cls-1" d="M859.5,1944.6a3,3,0,0,1-3-3V1887.1a3,3,0,1,1,5.95,0v54.54A3,3,0,0,1,859.5,1944.6Z" transform="translate(-104.95 -1256.89)"/><path class="cls-1" d="M1258.64,2002.08h-70.86a3,3,0,0,1-3-3v-56.85a3,3,0,0,1,3-3h70.86a3,3,0,0,1,3,3v56.85A3,3,0,0,1,1258.64,2002.08Zm-67.88-5.95h64.91v-50.91h-64.91Z" transform="translate(-104.95 -1256.89)"/><path class="cls-1" d="M1223.21,2002.08a3,3,0,0,1-3-3v-56.85a3,3,0,1,1,5.95,0v56.85A3,3,0,0,1,1223.21,2002.08Z" transform="translate(-104.95 -1256.89)"/><path class="cls-1" d="M1251.94,1944.6h-57.47a3,3,0,0,1-3-3V1782.34a3,3,0,0,1,3-3h57.47a3,3,0,0,1,3,3v159.29A3,3,0,0,1,1251.94,1944.6Zm-54.5-5.95H1249V1785.31h-51.53Z" transform="translate(-104.95 -1256.89)"/><path class="cls-1" d="M1256.09,1893.18h-65.77a3,3,0,1,1,0-5.95h65.77a3,3,0,1,1,0,5.95Z" transform="translate(-104.95 -1256.89)"/><path class="cls-1" d="M1364.5,1944.6H1092.71a3,3,0,1,1,0-5.95H1364.5a3,3,0,1,1,0,5.95Z" transform="translate(-104.95 -1256.89)"/><path class="cls-1" d="M1256.09,1840.64h-65.77a3,3,0,0,1,0-5.95h65.77a3,3,0,0,1,0,5.95Z" transform="translate(-104.95 -1256.89)"/><path class="cls-1" d="M1258.23,1785.31h-70a3,3,0,0,1,0-5.95h70a3,3,0,0,1,0,5.95Z" transform="translate(-104.95 -1256.89)"/><path class="cls-1" d="M1209.35,1825.4a3,3,0,0,1-3-3V1798a3,3,0,0,1,5.95,0v24.43A3,3,0,0,1,1209.35,1825.4Z" transform="translate(-104.95 -1256.89)"/><path class="cls-1" d="M1237.07,1825.4a3,3,0,0,1-3-3V1798a3,3,0,0,1,5.95,0v24.43A3,3,0,0,1,1237.07,1825.4Z" transform="translate(-104.95 -1256.89)"/><path class="cls-1" d="M1209.35,1879a3,3,0,0,1-3-3v-24.43a3,3,0,1,1,5.95,0V1876A3,3,0,0,1,1209.35,1879Z" transform="translate(-104.95 -1256.89)"/><path class="cls-1" d="M1237.07,1879a3,3,0,0,1-3-3v-24.43a3,3,0,1,1,5.95,0V1876A3,3,0,0,1,1237.07,1879Z" transform="translate(-104.95 -1256.89)"/><path class="cls-1" d="M1209.35,1931.51a3,3,0,0,1-3-3v-24.43a3,3,0,1,1,5.95,0v24.43A3,3,0,0,1,1209.35,1931.51Z" transform="translate(-104.95 -1256.89)"/><path class="cls-1" d="M1237.07,1931.51a3,3,0,0,1-3-3v-24.43a3,3,0,1,1,5.95,0v24.43A3,3,0,0,1,1237.07,1931.51Z" transform="translate(-104.95 -1256.89)"/><path class="cls-1" d="M1214.88,1785h-26.57a3,3,0,0,1-2.61-4.4l13.28-24.2a3,3,0,0,1,5.21,0l13.17,24a3,3,0,0,1-2.48,4.61Zm-21.55-5.95h16.51l-8.26-15Z" transform="translate(-104.95 -1256.89)"/><path class="cls-1" d="M1371.48,1893.37c-26.55,0-56.82-10.81-81-28.91-12.52-9.38-22.47-20-29.59-31.55-7.82-12.68-11.78-25.87-11.78-39.19a3,3,0,0,1,5.95,0c0,12.2,3.67,24.34,10.9,36.07,6.63,10.76,16.35,21.1,28.1,29.91,23.16,17.36,52.09,27.72,77.4,27.72a3,3,0,1,1,0,5.95Z" transform="translate(-104.95 -1256.89)"/><path class="cls-1" d="M1187.94,1979.71a3,3,0,0,1-3-3c0-3.82-6.5-9.74-24.75-14.93-16.23-4.61-37-7.26-56.92-7.26a3,3,0,0,1,0-5.95c20.47,0,41.8,2.73,58.54,7.48,13.26,3.77,29.07,10.41,29.07,20.65A3,3,0,0,1,1187.94,1979.71Z" transform="translate(-104.95 -1256.89)"/><path class="cls-1" d="M1284.28,1944.6a3,3,0,0,1-3-3v-86a3,3,0,0,1,5.95,0v86A3,3,0,0,1,1284.28,1944.6Z" transform="translate(-104.95 -1256.89)"/><path class="cls-1" d="M1345.21,1944.6a3,3,0,0,1-3-3V1887.1a3,3,0,0,1,5.95,0v54.54A3,3,0,0,1,1345.21,1944.6Z" transform="translate(-104.95 -1256.89)"/><path class="cls-1" d="M990.74,1783.4H972.1a3,3,0,0,1-2.61-1.54l-6.24-11.38a3,3,0,0,1,0-2.86l15.65-28.51a3,3,0,0,1,5.21,0l15.56,28.36a3,3,0,0,1,0,2.86l-6.33,11.53A3,3,0,0,1,990.74,1783.4Zm-16.88-5.95H989l4.7-8.56-12.17-22.18L969.25,1769Z" transform="translate(-104.95 -1256.89)"/><path class="cls-1" d="M1258.29,1785h-26.57a3,3,0,0,1-2.61-4.4l13.28-24.2a3,3,0,0,1,5.21,0l13.17,24a3,3,0,0,1-2.48,4.61Zm-21.55-5.95h16.51l-8.26-15Z" transform="translate(-104.95 -1256.89)"/><path class="cls-1" d="M1232.61,1783.4H1214a3,3,0,0,1-2.61-1.54l-6.33-11.53a3,3,0,0,1,0-2.86l15.56-28.36a3,3,0,0,1,5.21,0l15.65,28.51a3,3,0,0,1,0,2.86l-6.24,11.38A3,3,0,0,1,1232.61,1783.4Zm-16.88-5.95h15.12l4.61-8.41-12.26-22.33L1211,1768.89Z" transform="translate(-104.95 -1256.89)"/><path class="cls-2" d="M1457.51,1999l.37-.28,0-1.56c-.34-21.07-6.17-40.86-16.41-55.73-10.51-15.25-24.5-23.65-39.38-23.65s-28.86,8.39-39.37,23.63c-10.24,14.85-16.08,34.63-16.42,55.69l0,1.62.39.28h-53.91l.29-.42c.44-.64.88-1.21,1.4-1.89a22.33,22.33,0,0,0,2.39-3.57c3.87-6.64,7.14-12.65,10.27-18.92a488.86,488.86,0,0,0,32.66-70l1.53-4.13H1329.1v-13h19.59l-1.41-4c11.91-35.47,20-71.91,27.23-106.2l.78-3.7H1364v-13h16.11l-1.88-4.28c1-6.66,2-13.4,3-19.92l0-.17c1.44-9.39,2.92-19.11,4.2-28.68,6-49.39,9.15-101.52,9.67-159.39l.47-3.48H1389V1514.7a9.19,9.19,0,0,1,9.18-9.18h7.57a9.19,9.19,0,0,1,9.18,9.18v29.61h-11.44l5.56,5.26c.53,26,1.43,49.69,2.74,72.41,1.47,25.46,3.42,49.05,6,72.12,2.33,21.17,5.18,41.93,8.49,61.7l-2.21,4.41h13.83v13h-8.57l.69,3.63c4.68,24.71,10.3,49,16.69,72.1,1.41,5.1,3.09,11.11,4.9,17,1,3.21,2.16,6.42,3.29,9.52.78,2.13,1.66,4.53,2.43,6.84l-3.46,4.82h19v13h-9.24l1.57,4.15a578.08,578.08,0,0,0,46,94.21l.35.59Z" transform="translate(-104.95 -1256.89)"/><path class="cls-1" d="M1292.75,2002.08a3,3,0,0,1-2.49-4.6c.64-1,1.29-1.83,1.91-2.64a19.78,19.78,0,0,0,2.08-3.08l.09-.17c3.84-6.58,7.07-12.54,10.18-18.75l.06-.12a485.65,485.65,0,0,0,32.61-70,3,3,0,0,1,5.58,2.06,491.36,491.36,0,0,1-33,70.76c-3.14,6.28-6.41,12.31-10.29,18.95a25.29,25.29,0,0,1-2.63,3.95c-.58.76-1.13,1.48-1.65,2.27A3,3,0,0,1,1292.75,2002.08Z" transform="translate(-104.95 -1256.89)"/><path class="cls-1" d="M1347.37,1886a3,3,0,0,1-2.82-3.92c11.88-35.38,20-71.95,27.25-106.37a3,3,0,0,1,5.82,1.23c-7.31,34.59-15.45,71.35-27.43,107A3,3,0,0,1,1347.37,1886Z" transform="translate(-104.95 -1256.89)"/><path class="cls-1" d="M1378.35,1758.91a3,3,0,0,1-.43,0,3,3,0,0,1-2.52-3.37c1-6.74,2-13.55,3-20.14,1.44-9.39,2.92-19.1,4.19-28.62,6-49.23,9.12-101.26,9.65-159a3,3,0,0,1,5.95.05c-.52,58-3.7,110.22-9.69,159.71-1.28,9.61-2.77,19.35-4.21,28.77-1,6.58-2,13.38-3,20.09A3,3,0,0,1,1378.35,1758.91Z" transform="translate(-104.95 -1256.89)"/><path class="cls-1" d="M1511.76,2002.08a3,3,0,0,1-2.55-1.44,581.2,581.2,0,0,1-47.17-96.82,3,3,0,0,1,5.57-2.09,575.33,575.33,0,0,0,46.69,95.84,3,3,0,0,1-2.54,4.51Z" transform="translate(-104.95 -1256.89)"/><path class="cls-1" d="M1457.56,1885.28a3,3,0,0,1-2.82-2c-.76-2.27-1.6-4.57-2.42-6.8-1.15-3.14-2.34-6.39-3.35-9.69-1.82-6-3.51-12-4.92-17.09-6.44-23.29-12.09-47.7-16.79-72.56a3,3,0,1,1,5.84-1.1c4.67,24.7,10.28,49,16.68,72.08,1.4,5.07,3.08,11,4.88,16.94,1,3.14,2.12,6.31,3.24,9.38.83,2.27,1.69,4.61,2.47,7a3,3,0,0,1-2.82,3.92Z" transform="translate(-104.95 -1256.89)"/><path class="cls-1" d="M1426.5,1758.78a3,3,0,0,1-2.93-2.48c-3.32-19.83-6.18-40.65-8.52-61.89-2.54-23.11-4.49-46.75-6-72.27-1.31-22.77-2.21-46.5-2.74-72.55a3,3,0,0,1,5.94-.12c.53,26,1.42,49.64,2.73,72.33,1.47,25.41,3.41,49,5.94,72,2.32,21.13,5.17,41.84,8.47,61.56a3,3,0,0,1-2.94,3.46Z" transform="translate(-104.95 -1256.89)"/><path class="cls-1" d="M1458,2002.08a3,3,0,0,1-3-3c0-43.14-23.66-78.25-52.75-78.25s-52.75,35.1-52.75,78.25a3,3,0,0,1-5.95,0c0-22.29,6-43.28,16.84-59.11,11.1-16.17,26-25.08,41.85-25.08s30.76,8.91,41.85,25.08c10.86,15.83,16.84,36.82,16.84,59.11A3,3,0,0,1,1458,2002.08Z" transform="translate(-104.95 -1256.89)"/><path class="cls-1" d="M1402.25,1508.4a3,3,0,0,1-3-3V1471.3a3,3,0,0,1,5.95,0v34.12A3,3,0,0,1,1402.25,1508.4Z" transform="translate(-104.95 -1256.89)"/><path class="cls-1" d="M1415.2,1547.37h-26.1a3,3,0,0,1-3-3v-29.7a12.25,12.25,0,0,1,12.24-12.24h7.57a12.25,12.25,0,0,1,12.24,12.24v29.7A3,3,0,0,1,1415.2,1547.37Zm-23.13-5.95h20.16V1514.7a6.3,6.3,0,0,0-6.29-6.29h-7.57a6.3,6.3,0,0,0-6.29,6.29Z" transform="translate(-104.95 -1256.89)"/><path class="cls-1" d="M1473,1903.13H1329.19a3,3,0,0,1-3-3V1887a3,3,0,0,1,3-3H1473a3,3,0,0,1,3,3v13.15A3,3,0,0,1,1473,1903.13Zm-140.87-5.95h137.9V1890h-137.9Z" transform="translate(-104.95 -1256.89)"/><path class="cls-1" d="M1438.12,1776.23h-74a3,3,0,0,1-3-3v-13.15a3,3,0,0,1,3-3h74a3,3,0,0,1,3,3v13.15A3,3,0,0,1,1438.12,1776.23Zm-71-5.95h68.06v-7.2h-68.06Z" transform="translate(-104.95 -1256.89)"/><path class="cls-1" d="M1415.2,1547.37h-26.1a3,3,0,0,1-3-3v-29.7a12.25,12.25,0,0,1,12.24-12.24h7.57a12.25,12.25,0,0,1,12.24,12.24v29.7A3,3,0,0,1,1415.2,1547.37Zm-23.13-5.95h20.16V1514.7a6.3,6.3,0,0,0-6.29-6.29h-7.57a6.3,6.3,0,0,0-6.29,6.29Z" transform="translate(-104.95 -1256.89)"/><path class="cls-1" d="M1348,2002.08h-56.35a2.7,2.7,0,1,1,0-5.41H1348a2.7,2.7,0,1,1,0,5.41Z" transform="translate(-104.95 -1256.89)"/><path class="cls-1" d="M1513,2002.08H1456.6a2.7,2.7,0,1,1,0-5.41H1513a2.7,2.7,0,1,1,0,5.41Z" transform="translate(-104.95 -1256.89)"/><path class="cls-2" d="M778.19,1999v-19.56l17.26-4.17,3-20.48-3.8.27a33.24,33.24,0,0,0-3.67.41l6.36-57.83a27.33,27.33,0,0,1,3.5-1.37,35,35,0,0,0,4.87-2l1.6-.82,2.46-66.2-3.47-5.94,1.26-39.93-8.87-6.65,7.16-56.18-7.15-8.13,5.91-18.48-18.28-24.44a41.54,41.54,0,0,1-1.76-14.2c.5-9.53,4.59-17.48,11.83-23l2-1.48-1-2.23a50.47,50.47,0,0,1-4.33-21.43c.21-11-.66-27.38-1-33.91l-.17-2.89h-5.44v-15.05h-5.91v-22.74h4.22l-2-9.5-7.86-4.7V1504.3a51.18,51.18,0,0,1,10.95-2.39l7.68-.9-6.21-4.61a11.26,11.26,0,0,1-4.09-5.63c-1.29-4.1-.23-9,3.13-14.68l3.84,10.9,4.55-12.41,3.46,13.24,3.61-13.33c.77,1.1,5.25,7.9,4.17,14.61a12.35,12.35,0,0,1-4.54,7.72l-5.2,4.36,6.71,1a63.66,63.66,0,0,1,9.2,2.1v12.92l-9.1,4-2,9.82,1.45,1.17a12.59,12.59,0,0,1,4.95,10c0,1.43-.13,3.45-.29,5.79-.69,10.54-1.84,28.19,5,40.83a63,63,0,0,1,6.54,21l.34,2.44,19.1,1.54,2.82-3.31L828,1588.22l19.85,17.41,4.78-1.27,2.67-29.48,6,28.51,6,1,20.31-19.09-12.82,23.21,4.28,4.76,24.67-5.52L878.4,1620.2l23.47,6.41-19.08-.23-2,7.25v.38a66.76,66.76,0,0,0,2.69,19.94l0,.13.05.13c.58,1.36,1.19,4.08-.17,5.66l-.66.77-.07,1c-.21,3.07-.39,13.35,6.07,16.88.79.44,1.67.87,2.7,1.38,8.69,4.32,23.22,11.55,26.06,38.68l.14,1.37,5.18,3.73,12.07-20.44,30.43,20.33-8.38,14.52,2.48,4.44-14.26,26.76h-8.84l.31,3.34c.59,6.51,1.2,22.6-6,31.57a16.25,16.25,0,0,1-9.8,5.92l-2.76.54,6.64,63.17-4.44,1.21,2.22,18.76-4.93,1.71,2,36.22-6.66,1.72,3.95,37.59,10.85,8.87V1999Zm50.92-370.79.53,3.47c.24,1.59.61,3.36,1.09,5.27l6-.26a37.73,37.73,0,0,1,.94-4.6l1.25-4Zm-9.91-10.93c0,.81,0,1.63,0,2.43V1622l2.13.69a15,15,0,0,1,4.75,2.48l1.42,1.15,7.1-2.93,1.53-4.32-17.11-6.27Z" transform="translate(-104.95 -1256.89)"/><path class="cls-1" d="M927.59,2002.08H778a3,3,0,0,1-3-3v-19.73a3,3,0,0,1,2.28-2.89l15.32-3.7,2.64-18.18a3,3,0,0,1,2.63-2.53c26.13-2.75,48.38-14.9,66.14-36.12,14.74-17.6,26.55-41.56,35.09-71.2,15.23-52.84,15.74-108.89,15.53-124.81a3,3,0,0,1,4.71-2.45l2.42,1.74,10.41-17.63a3,3,0,0,1,4.21-1l30.58,20.44a3,3,0,0,1,.92,4l-7.55,13.09,1.66,3a3,3,0,0,1,0,2.85l-14.31,26.85a3,3,0,0,1-2.62,1.57h-5.53c.66,7.22,1.18,24-6.69,33.78a19.21,19.21,0,0,1-11.6,7l6.35,60.46a3,3,0,0,1-2.17,3.18l-2,.54,1.92,16.21a3,3,0,0,1-2,3.16l-2.82,1,1.86,34a3,3,0,0,1-2.23,3l-4.17,1.08,3.54,33.71,9.91,8.1a3,3,0,0,1,1.09,2.3v19.22A3,3,0,0,1,927.59,2002.08Zm-146.65-5.95H924.62V1981.3l-9.76-8a3,3,0,0,1-1.08-2l-3.93-37.47a3,3,0,0,1,2.21-3.19l4.29-1.11-1.85-33.8a3,3,0,0,1,2-3l2.68-.93-1.94-16.38a3,3,0,0,1,2.17-3.22l2-.55L915,1810.88a3,3,0,0,1,2.78-3.28,13.7,13.7,0,0,0,10.41-5.18c8.38-10.41,5.08-32.34,5-32.56a3,3,0,0,1,2.94-3.43h7.09L956,1742.58l-1.69-3a3,3,0,0,1,0-2.94l7-12.14-25.65-17.14-10.47,17.73a3,3,0,0,1-4.3.9l-.32-.23c-.06,21.35-1.84,72.29-15.79,120.67-8.78,30.44-21,55.13-36.25,73.37-18.26,21.81-41.05,34.57-67.77,37.95l-2.6,17.91a3,3,0,0,1-2.24,2.46l-15,3.62Z" transform="translate(-104.95 -1256.89)"/><path class="cls-1" d="M790.73,1958.58a3,3,0,0,1-3-3.3l6.38-58a3,3,0,0,1,1.61-2.32,29.65,29.65,0,0,1,3.95-1.56,26.29,26.29,0,0,0,5.79-2.54,3,3,0,0,1,3.16,5,31.57,31.57,0,0,1-7,3.13c-.63.21-1.21.41-1.76.62l-5.78,52.58,1.48-.1a83.82,83.82,0,0,0,10.9-1.3,3,3,0,0,1,1.11,5.84,89,89,0,0,1-11.62,1.39,39.91,39.91,0,0,0-4.68.48A3,3,0,0,1,790.73,1958.58Z" transform="translate(-104.95 -1256.89)"/><path class="cls-1" d="M800.13,1504.74l-.33,0a62,62,0,0,0-11-.22,3,3,0,0,1-3.18-3v-2.41a14.38,14.38,0,0,1-5.55-7.43c-1.58-5-.39-10.85,3.53-17.35a3,3,0,0,1,5.35.55l1.07,3,1.71-4.68a3,3,0,0,1,5.67.27l.62,2.39.65-2.41a3,3,0,0,1,5.26-1c.25.34,6.22,8.51,4.84,17.08a15.51,15.51,0,0,1-5.7,9.67l.05,2.18a3,3,0,0,1,0,.33,3,3,0,0,1-3,3Zm-7.06-6.33c1.33,0,2.67,0,4,.12l0-.64a3,3,0,0,1,1.26-2.5,10,10,0,0,0,4.55-6.74,13.57,13.57,0,0,0-.55-6l-1.52,5.59a3,3,0,0,1-2.87,2.2h0a3,3,0,0,1-2.86-2.22l-1-4-1.29,3.53a3,3,0,0,1-2.81,2,3,3,0,0,1-2.79-2l-1.36-3.85a10.78,10.78,0,0,0-.07,6,8.43,8.43,0,0,0,4.06,4.82,3,3,0,0,1,1.76,2.72v1Z" transform="translate(-104.95 -1256.89)"/><path class="cls-1" d="M807.07,1896.35a3,3,0,0,1-3-3.08l2.42-65.18-3-5.17a3,3,0,0,1-.41-1.59l1.19-38.38-7.64-5.73a3,3,0,0,1-1.17-2.75l7-54.86-6.27-7.13a3,3,0,0,1-.6-2.87l5.45-17-17.33-23.17a3,3,0,0,1-.43-.8,44.06,44.06,0,0,1-1.94-15.39c.55-10.51,5-19.18,13-25.26a53.64,53.64,0,0,1-4.61-22.76c.21-10.89-.66-27.21-1-33.68H786.1a3,3,0,0,1-3-3v-12.08h-2.94a3,3,0,0,1-3-3v-22.92a3,3,0,0,1,3-3h.53l-1-4.49-6.75-4a3,3,0,0,1-1.45-2.55v-12.3a3,3,0,0,1,1.91-2.78,59.25,59.25,0,0,1,19.6-3,66.76,66.76,0,0,1,19.79,3,3,3,0,0,1,2.09,2.84v13a3,3,0,0,1-1.79,2.73l-7.69,3.34-1.29,6.42a15.76,15.76,0,0,1,6.09,12.41c0,1.53-.14,3.6-.29,6-.67,10.22-1.79,27.31,4.61,39.18a65.59,65.59,0,0,1,6.87,22l15.08,1.22.4-.47-12-20.84a3,3,0,0,1,4.54-3.72l19,16.7,1.13-.3,2.53-27.95a3,3,0,0,1,5.87-.35l5.73,27.06,2.46.41,19.63-18.45a3,3,0,0,1,4.64,3.6l-12,21.81,1.62,1.81,23.68-5.3a3,3,0,0,1,2,5.57l-18.82,9.23,16.21,4.42a3,3,0,0,1-.64,5.88h0l-17.44-.21-1.27,4.6a63.35,63.35,0,0,0,2.55,18.94c.94,2.21,1.65,6.15-.67,8.86-.26,3.85.14,11.61,4.48,14,.74.41,1.6.83,2.59,1.33,8.86,4.41,25.35,12.61,27.9,42.78a3,3,0,0,1,0,.72,329.53,329.53,0,0,1-21.75,70.39c-9.62,22.1-21.12,41.64-34.18,58.08-16.39,20.63-35.3,36.41-56.21,46.89A3,3,0,0,1,807.07,1896.35Zm2-75.69,3,5.18a3,3,0,0,1,.4,1.61l-2.26,60.92c18.35-10,35.06-24.47,49.72-42.92,12.74-16,24-35.13,33.38-56.75a325.24,325.24,0,0,0,21.27-68.61c-2.37-26.53-16.27-33.44-24.59-37.58-1-.5-2-1-2.8-1.44-9.29-5.08-7.51-20.31-7.43-21a3,3,0,0,1,1.2-2c.45-.33.12-2-.22-2.8a2.83,2.83,0,0,1-.11-.3,68.44,68.44,0,0,1-2.86-21.49,3,3,0,0,1,.1-.66l2-7.16a3,3,0,0,1,1.26-1.71l-.15,0a3,3,0,0,1-2.12-2.21l-.5-2.22a3,3,0,0,1,1.59-3.33l.62-.31-.88.2a3,3,0,0,1-2.86-.91l-4.2-4.67a3,3,0,0,1-.39-3.42l3.92-7.09-6.91,6.49a3,3,0,0,1-2.52.77l-5.91-1a3,3,0,0,1-2.42-2.32l-2.06-9.74-.94,10.37a3,3,0,0,1-2.2,2.6l-4.67,1.24a3,3,0,0,1-2.72-.64l-6.7-5.87,4.08,7.06a3,3,0,0,1-.31,3.42l-2.75,3.22a2.35,2.35,0,0,0-1.38,4.47l-1.48,4.2a3,3,0,0,1-.56,1l.9,0h0a3,3,0,0,1,2.92,2.43c.61,3.3.07,4.75-.29,5.39s-.68,3.24-1,5.52l1.06,2.12a3,3,0,0,1-.24,3.06l-3.7,5.18a3,3,0,0,1-5.19-.65,86.55,86.55,0,0,1-4.61-17,5,5,0,0,0-.48-1.63,1.63,1.63,0,0,0-1-1.46c-2.25-2.53-6.34-3.23-6.38-3.24a3,3,0,0,1-2.5-3.15,58.49,58.49,0,0,0-.26-8.7,3,3,0,0,1,0-.4q0-.14,0-.29a61.17,61.17,0,0,0-6.49-22.26c-7.21-13.37-6-31.54-5.31-42.39.15-2.29.28-4.27.28-5.6a10.1,10.1,0,0,0-4.88-8.49,3,3,0,0,1-1.48-3.19l2-9.85a3,3,0,0,1,1.73-2.14l7.32-3.19v-8.86a60.89,60.89,0,0,0-15.94-2.11,58.38,58.38,0,0,0-15.56,2.05v8.44l6.42,3.84a3,3,0,0,1,1.38,1.94l2,9.35a3,3,0,0,1-2.91,3.59h-1.23v17h2.94a3,3,0,0,1,3,3v12.08h2.47a3,3,0,0,1,3,2.78c.06.93,1.48,22.94,1.22,37a46.33,46.33,0,0,0,5,22.1,3,3,0,0,1-.94,4c-17.47,11.39-12.05,31.6-11,34.83l18,24a3,3,0,0,1,.45,2.69l-5.4,16.88,6,6.87a3,3,0,0,1,.72,2.34l-6.94,54.48,7.49,5.62a3,3,0,0,1,1.19,2.47Zm23.48-189.42c.25,1.63.62,3.33,1,5a40.2,40.2,0,0,1,1-5Zm-10.36-11.51a18,18,0,0,1,5.73,3l4.15-1.72.06-.18-10-3.66C822.17,1618.16,822.18,1619,822.18,1619.73Z" transform="translate(-104.95 -1256.89)"/><path class="cls-2" d="M2152.94,1999l-15.65-78.32-2.1-.34a28.32,28.32,0,0,1-18.42-11.46l-1.72-2.4,0,0-1-2.24a28,28,0,0,1-.64-21.74l1.09-2.81,0,0,1.93-2.84a28.29,28.29,0,0,1,18.59-12l2.33-.39v-.07l3.09.08a28.11,28.11,0,0,1,14.58,51.67l-2.12,1.39,33.44,81.47Zm-124.22,0,1.62-16-1.33-1a25.79,25.79,0,0,1-5.28-35.05l1.59-2.28h0l1.88-1.77a25.79,25.79,0,0,1,6.18-4.3l1.51-.75,4-39.72-2.39-.74a28,28,0,0,1-19.77-26.86,28.55,28.55,0,0,1,.16-3l.52-4.89.47-.19.46-1.3c.1-.27.2-.54.3-.81l.44-1.11-.43-1.11a27.93,27.93,0,0,1-1.92-10.19c0-.73,0-1.51.11-2.38l-5.61-1.52,5.81-.22a28,28,0,0,1,6-13.55l2.68-3.31.3.09,1.28-1a28,28,0,0,1,14.92-6.09l2.68-.26,2.68.26a28,28,0,0,1,14.88,6l1.3,1,.3-.1,2.68,3.3a28.07,28.07,0,0,1,5.94,13.24l.18,1.12.1,1.3c.06.79.08,1.44.08,2a28,28,0,0,1-1.91,10.19l-.43,1.11.43,1.11c.12.3.23.59.33.89l.46,1.3.47.19.5,4.88a28.12,28.12,0,0,1-20.48,30l-2.49.69,4,39.12,1.61.73a25.59,25.59,0,0,1,7,4.69l1.88,1.76h0l1.6,2.28a25.72,25.72,0,0,1-6,35.72l-1.44,1,1.56,15.42v0h-31.37Zm-125.39,0,33.5-81.63-2.08-1.39a28.11,28.11,0,0,1,14.51-51.49l3-.12v.06l2.36.37a28.27,28.27,0,0,1,18.8,11.82l2,2.9-.06,0,1.1,2.81a28,28,0,0,1-.68,22.05l-1,2.25,0,0-1.72,2.37a28.31,28.31,0,0,1-18.65,11.35l-2.14.31L1936.68,1999Zm82.58-129.71L1989,1874l-13.22,5.4ZM2100.6,1874l3.12-4.69,10.1,10.09Zm44.35-51.07-1.1,0-2.72-.11h0l-2.59-.61a28.11,28.11,0,0,1-16.79-11.51l-1.72-2.5-1.15-2.83a28,28,0,0,1,1.57-24.32l1.33-2.35,1.75-2.05a28.12,28.12,0,1,1,21.43,46.31Zm-199.89,0a28.13,28.13,0,1,1,21.3-46.46l1.76,2,1.34,2.34a28,28,0,0,1,1.63,24.59l-1.17,2.86-1.78,2.55a28.09,28.09,0,0,1-17,11.4l-2.62.58-3,.08Zm26-14.06,13.53,4.47-2.79,4.9Zm134.06,4.47,13.53-4.46-10.74,9.36Zm-62.86-57a28.08,28.08,0,0,1-20.46-12l-1.66-2.4,0,0-1-2.29a27.85,27.85,0,0,1-2.35-11.24,28.13,28.13,0,0,1,56.25,0,27.84,27.84,0,0,1-2.39,11.33l-1,2.29,0,0-1.66,2.38a28.09,28.09,0,0,1-20.41,12l-2.68.25Z" transform="translate(-104.95 -1256.89)"/><path class="cls-1" d="M2045.09,1759.51a31.19,31.19,0,1,1,31.19-31.19A31.23,31.23,0,0,1,2045.09,1759.51Zm0-56.44a25.24,25.24,0,1,0,25.24,25.24A25.27,25.27,0,0,0,2045.09,1703.07Z" transform="translate(-104.95 -1256.89)"/><path class="cls-1" d="M1945.24,1826a31.19,31.19,0,1,1,31.19-31.19A31.23,31.23,0,0,1,1945.24,1826Zm0-56.44a25.24,25.24,0,1,0,25.24,25.24A25.27,25.27,0,0,0,1945.24,1769.56Z" transform="translate(-104.95 -1256.89)"/><path class="cls-1" d="M1950.53,1923.79a31.19,31.19,0,1,1,31.19-31.19A31.23,31.23,0,0,1,1950.53,1923.79Zm0-56.44a25.24,25.24,0,1,0,25.24,25.24A25.27,25.27,0,0,0,1950.53,1867.35Z" transform="translate(-104.95 -1256.89)"/><path class="cls-1" d="M2145.13,1826a31.19,31.19,0,1,1,31.19-31.19A31.23,31.23,0,0,1,2145.13,1826Zm0-56.44a25.24,25.24,0,1,0,25.24,25.24A25.27,25.27,0,0,0,2145.13,1769.56Z" transform="translate(-104.95 -1256.89)"/><path class="cls-1" d="M2139.84,1923.79A31.19,31.19,0,1,1,2171,1892.6,31.23,31.23,0,0,1,2139.84,1923.79Zm0-56.44a25.24,25.24,0,1,0,25.24,25.24A25.27,25.27,0,0,0,2139.84,1867.35Z" transform="translate(-104.95 -1256.89)"/><path class="cls-1" d="M2045.09,1901.66a31.19,31.19,0,1,1,31.19-31.19A31.23,31.23,0,0,1,2045.09,1901.66Zm0-56.44a25.24,25.24,0,1,0,25.24,25.24A25.27,25.27,0,0,0,2045.09,1845.22Z" transform="translate(-104.95 -1256.89)"/><path class="cls-1" d="M2070.95,1862.14h0a3,3,0,0,1-2.72-1.78,25.25,25.25,0,0,0-46.27,0,3,3,0,0,1-5.45,0,31.19,31.19,0,1,1,57.17,0A3,3,0,0,1,2070.95,1862.14Zm-25.86-39.51a25.27,25.27,0,0,0-24.95,29.12,31.19,31.19,0,0,1,49.9,0,25.27,25.27,0,0,0-24.95-29.12Z" transform="translate(-104.95 -1256.89)"/><path class="cls-1" d="M2045.09,1822.63a3,3,0,0,1-3-3v-63.12a3,3,0,1,1,5.95,0v63.12A3,3,0,0,1,2045.09,1822.63Z" transform="translate(-104.95 -1256.89)"/><path class="cls-1" d="M1975.61,1882.63a3,3,0,0,1-2.1-5.08l33.47-33.44-38.13-33.23a3,3,0,0,1,2.88-5.06l53.79,17.75a3,3,0,1,1-1.86,5.65l-39.8-13.13,29.42,25.64a3,3,0,0,1,.15,4.34l-25.28,25.25,27.59-11.27a3,3,0,0,1,2.25,5.5l-41.26,16.85A3,3,0,0,1,1975.61,1882.63Z" transform="translate(-104.95 -1256.89)"/><path class="cls-1" d="M1968.29,1781.5a3,3,0,0,1-1.72-5.4l52-36.75a3,3,0,1,1,3.43,4.86l-52,36.75A3,3,0,0,1,1968.29,1781.5Z" transform="translate(-104.95 -1256.89)"/><path class="cls-1" d="M1952.59,1867.43a3,3,0,0,1-3-2.7l-3.79-41.44a3,3,0,1,1,5.92-.54l3.79,41.44a3,3,0,0,1-2.69,3.23Z" transform="translate(-104.95 -1256.89)"/><path class="cls-1" d="M2024.59,1946.77a3,3,0,0,1-1.78-.6L1973.25,1909a3,3,0,0,1,3.57-4.76l49.56,37.21a3,3,0,0,1-1.79,5.35Z" transform="translate(-104.95 -1256.89)"/><path class="cls-1" d="M1936.94,2002.08h-33.56a3,3,0,0,1-2.75-4.1l33.56-81.77a3,3,0,0,1,5.5,2.26l-31.88,77.67h26.69l15.17-75.9a3,3,0,0,1,5.83,1.17l-15.65,78.29A3,3,0,0,1,1936.94,2002.08Z" transform="translate(-104.95 -1256.89)"/><path class="cls-1" d="M2114.39,1882.63a3,3,0,0,1-1.12-.22L2072,1865.56a3,3,0,1,1,2.25-5.5l27.59,11.27-25.28-25.25a3,3,0,0,1,.15-4.34l29.42-25.64-39.8,13.13a3,3,0,1,1-1.86-5.65l53.79-17.75a3,3,0,0,1,2.88,5.06L2083,1844.11l33.47,33.44a3,3,0,0,1-2.1,5.08Z" transform="translate(-104.95 -1256.89)"/><path class="cls-1" d="M2121.71,1781.5a3,3,0,0,1-1.71-.55l-52-36.75a3,3,0,1,1,3.43-4.86l52,36.75a3,3,0,0,1-1.72,5.4Z" transform="translate(-104.95 -1256.89)"/><path class="cls-1" d="M2137.41,1867.43h-.27a3,3,0,0,1-2.69-3.23l3.79-41.44a3,3,0,1,1,5.92.54l-3.79,41.44A3,3,0,0,1,2137.41,1867.43Z" transform="translate(-104.95 -1256.89)"/><path class="cls-1" d="M2065.4,1946.77a3,3,0,0,1-1.79-5.35l49.56-37.21a3,3,0,0,1,3.57,4.76l-49.56,37.21A3,3,0,0,1,2065.4,1946.77Z" transform="translate(-104.95 -1256.89)"/><path class="cls-1" d="M2186.61,2002.08h-33.56a3,3,0,0,1-2.92-2.39l-15.65-78.29a3,3,0,0,1,5.83-1.17l15.17,75.9h26.69l-31.88-77.67a3,3,0,1,1,5.5-2.26l33.56,81.77a3,3,0,0,1-2.75,4.1Z" transform="translate(-104.95 -1256.89)"/><path class="cls-1" d="M2060.39,2002.08h-31.58a3,3,0,0,1-3-3.27l10.22-101.08a3,3,0,0,1,3.59-2.61,25.18,25.18,0,0,0,10,.17,3,3,0,0,1,3.49,2.63l10.18,100.64a3,3,0,0,1,.05.56A3,3,0,0,1,2060.39,2002.08Zm-28.29-5.95h25l-9.57-94.58a30.75,30.75,0,0,1-5.85-.09Z" transform="translate(-104.95 -1256.89)"/><path class="cls-1" d="M2030.44,1985.93a3,3,0,0,1-1.69-.52,28.85,28.85,0,0,1,5.1-50.36,3,3,0,0,1,4.12,3l-4.57,45.17a3,3,0,0,1-3,2.67Zm1-42.73a22.91,22.91,0,0,0-3.41,33.74Z" transform="translate(-104.95 -1256.89)"/><path class="cls-1" d="M2058.8,1986.53a3,3,0,0,1-3-2.67l-4.67-46.18a3,3,0,0,1,4-3.08,28.85,28.85,0,0,1,5.21,51.49A3,3,0,0,1,2058.8,1986.53Zm-1.17-44.06,3.58,35.41a22.76,22.76,0,0,0,6.77-16.26A23,23,0,0,0,2057.64,1942.47Z" transform="translate(-104.95 -1256.89)"/><path class="cls-2" d="M707.48,1999,712,1815.25H597.59L602.11,1999H561.66l7.23-183.77H532.06l-3.56-24h41.34l1.38-35.14H532.05l-3.59-17h-13l-15.14-45.88c1.45.9,12.7,7.48,35.71,13.91,22.5,6.29,61.37,13.78,118.77,13.78,56.95,0,95.72-7.43,118.22-13.67,23.32-6.46,34.59-13,36.25-14l-15.14,45.86h-13l-3.59,17H738.36l1.38,35.14h41.34l-3.56,24H740.69L747.92,1999Zm5.11-207.79.86-35.14H596.13l.86,35.14h37.53l1-33.65,40-1.49-.3,35.14Z" transform="translate(-104.95 -1256.89)"/><path class="cls-1" d="M675.3,1794.11H634.66a3,3,0,0,1-3-3v-35a3,3,0,0,1,3-3H675.3a3,3,0,0,1,3,3v35A3,3,0,0,1,675.3,1794.11Zm-37.67-5.95h34.69v-29H637.63Z" transform="translate(-104.95 -1256.89)"/><path class="cls-1" d="M569,1818.32H532.17a3,3,0,0,1-2.94-2.54l-3.59-24.2a3,3,0,0,1,2.94-3.41h41.35a3,3,0,0,1,3,3.09l-1,24.2A3,3,0,0,1,569,1818.32Zm-34.25-5.95h31.39l.72-18.26H532Z" transform="translate(-104.95 -1256.89)"/><path class="cls-1" d="M777.79,1759.15H532.17a3,3,0,0,1-2.91-2.36l-3.59-17a3,3,0,0,1,2.91-3.59H781.38a3,3,0,0,1,2.91,3.59l-3.59,17A3,3,0,0,1,777.79,1759.15Zm-243.21-5.95h240.8l2.33-11.09H532.25Z" transform="translate(-104.95 -1256.89)"/><path class="cls-1" d="M602.39,2002.08H561.75a3,3,0,0,1-3-3.09l9.56-242.93a3,3,0,0,1,3-2.86h25.1a3,3,0,0,1,3,2.9l6,242.93a3,3,0,0,1-3,3Zm-37.55-5.95h34.5l-5.83-237H574.17Z" transform="translate(-104.95 -1256.89)"/><path class="cls-1" d="M777.79,1818.32H741a3,3,0,0,1-3-2.86l-1-24.2a3,3,0,0,1,3-3.09h41.35a3,3,0,0,1,2.94,3.41l-3.59,24.2A3,3,0,0,1,777.79,1818.32Zm-34-5.95h31.39l2.7-18.26H743.11Z" transform="translate(-104.95 -1256.89)"/><path class="cls-1" d="M712.09,1818.32H597.87a3,3,0,0,1-3-2.9l-.6-24.2a3,3,0,0,1,3-3H712.69a3,3,0,0,1,3,3l-.6,24.2A3,3,0,0,1,712.09,1818.32Zm-111.32-5.95H709.19l.45-18.26H600.32Z" transform="translate(-104.95 -1256.89)"/><path class="cls-1" d="M794.37,1742.12H515.58a3,3,0,0,1-2.82-2l-15.24-46.17a3,3,0,0,1,4.44-3.43c.1.07,10.92,6.9,35.08,13.65,22.32,6.23,60.89,13.67,117.94,13.67,109.46,0,152.6-27,153-27.32a3,3,0,0,1,4.44,3.43l-15.24,46.17A3,3,0,0,1,794.37,1742.12Zm-276.64-5.95H792.22l12.25-37.11A188.36,188.36,0,0,1,775,1709.74c-22.72,6.39-62,14-120,14s-97.25-7.62-120-14a188.36,188.36,0,0,1-29.52-10.67Z" transform="translate(-104.95 -1256.89)"/><path class="cls-1" d="M748.21,2002.08H707.57a3,3,0,0,1-3-3l6-242.93a3,3,0,0,1,3-2.9h25.1a3,3,0,0,1,3,2.86L751.18,1999a3,3,0,0,1-3,3.09Zm-37.59-5.95h34.5l-9.33-237H716.45Z" transform="translate(-104.95 -1256.89)"/><path class="cls-2" d="M135.24,1998.08H107.82v-31h27.44V1941h9.59l9.54-13-36.64-76.77,7-1.07a138.48,138.48,0,0,1,20.68-1.48c23.67,0,45.52,5.25,53.82,7.51l4.5,1.22-.66-4.61c-2.65-18.54-4.15-29.23-4.47-31.76l-.79-6.27,6.31.35a190.83,190.83,0,0,1,61.69,14.3l5.29,2.26-1.08-5.65c-5-26.24-8.76-44.71-11.12-54.9l-1.79-7.71,7.8,1.33c37.62,6.41,71.16,24.08,99.69,52.5a228.61,228.61,0,0,1,40.26,54.59l4.78,9.14,6.39-13.13,2.11,3.3,5.78-2.35c34.58-12.09,60.6-17.68,84.35-18.13l2.33,0a148,148,0,0,1,25.18,2.32l7.51,1.29-3.85,6.57c-5.82,9.91-13.94,24.21-19.73,34.46l-1.9,3.37,3.72,1.08a211.62,211.62,0,0,1,27.29,10.2l1.8.82,5-2.2a182.77,182.77,0,0,1,71.42-15c5,0,10.08.24,15.05.71l11.89,1.12-8.84,8c-22.1,20.07-56.94,48.93-70.89,60.41l1.09,5.92h29.07v-7.55l13.73,4.37,22.14,31.53Z" transform="translate(-104.95 -1256.89)"/><path class="cls-1" d="M135.17,2001.14H107.92a3,3,0,0,1-3-3V1967a3,3,0,0,1,3-3h27.25a3,3,0,0,1,3,3v31.15A3,3,0,0,1,135.17,2001.14Zm-24.28-5.95h21.3V1970h-21.3Z" transform="translate(-104.95 -1256.89)"/><path class="cls-1" d="M565,1962H520.9a3,3,0,0,1-2.77-1.89l-1.33-3.41c-4-10.19-14-35.68-20.86-52.34l-3.54-8.57a3,3,0,0,1,3.14-4.08l9.19,1.22c18.06,2.39,37.88,10.77,45.56,14.26l2.26,1a3,3,0,0,1,1.63,1.9l13.57,47.86a3,3,0,0,1-2.78,4Zm-42-5.95H561l-12.19-43-1-.46c-7.44-3.38-26.61-11.49-43.88-13.78l-4.09-.54,1.57,3.82c6.89,16.71,16.91,42.24,20.9,52.44Z" transform="translate(-104.95 -1256.89)"/><path class="cls-1" d="M474.72,1962h-82a3,3,0,0,1-3-3.2l.43-5.76c1-13.7,5-48.74,19.22-78l4.18-8.59a3,3,0,0,1,5.18-.3l58.34,91.13a3,3,0,0,1-2.37,4.77ZM395.9,1956h73.37l-52.67-82.28-1.86,3.83c-13.81,28.38-17.64,62.53-18.64,75.89Z" transform="translate(-104.95 -1256.89)"/><path class="cls-1" d="M294.54,1961.81a3,3,0,0,1-2.93-2.45l-1.78-10c-6-33.25-26-144.33-33.68-177.57l-1.82-7.84a3,3,0,0,1,3.4-3.6l7.94,1.35c38.25,6.52,72.35,24.47,101.34,53.35a231.79,231.79,0,0,1,40.81,55.34l2.54,4.86a3,3,0,0,1-1.32,4l-4.91,2.43c-48.27,23.87-86.2,58.4-100.27,72.13l-7.24,7.07A3,3,0,0,1,294.54,1961.81ZM261.13,1767l.81,3.49c7.73,33.38,27.78,144.57,33.74,177.86l.79,4.43,3.22-3.15c14.27-13.94,52.75-49,101.79-73.21l2.19-1.08-1.13-2.16a225.69,225.69,0,0,0-39.74-53.88c-28.1-28-61.12-45.4-98.14-51.7Z" transform="translate(-104.95 -1256.89)"/><path class="cls-1" d="M228.72,1945.19a3,3,0,0,1-2.82-3.91C237.63,1906,262,1862.81,271.3,1851a3,3,0,0,1,4.66,3.7c-7.72,9.73-32.15,51.55-44.41,88.41A3,3,0,0,1,228.72,1945.19Z" transform="translate(-104.95 -1256.89)"/><path class="cls-1" d="M216.32,1947a3,3,0,0,1-2.94-2.55c-2-14.06-16.52-114.4-17.6-123l-.8-6.38a3,3,0,0,1,3.12-3.34l6.42.36A190.79,190.79,0,0,1,270.27,1828a3,3,0,0,1-2.48,5.4A184.49,184.49,0,0,0,204.18,1818l-2.86-.16.36,2.84c1.08,8.59,15.55,108.85,17.59,122.9a3,3,0,0,1-2.95,3.4Z" transform="translate(-104.95 -1256.89)"/><path class="cls-1" d="M154.33,1930.69h0a3,3,0,0,1-2.64-1.69l-36.53-76.54a3,3,0,0,1,2.24-4.22l7.14-1.09a141.51,141.51,0,0,1,21.14-1.51c24.67,0,47.16,5.53,55.69,7.91l3.37.94a3,3,0,0,1,2.14,2.45l1.85,13.09a3,3,0,0,1-1.59,3.06l-3.4,1.74c-22.41,11.5-35.8,32.87-41.8,44.58l-4.94,9.65A3,3,0,0,1,154.33,1930.69Zm-32.12-77.17L154.42,1921l2.2-4.3c6.32-12.35,20.49-34.9,44.38-47.16l1.51-.78-1.28-9.07-1.5-.42c-8.29-2.31-30.16-7.69-54.09-7.69a135.58,135.58,0,0,0-20.24,1.44Z" transform="translate(-104.95 -1256.89)"/><path class="cls-1" d="M273.05,2001.14H135.36a3,3,0,0,1-3-3v-57.24a3,3,0,0,1,3-3h8.13l8.69-11.85a3,3,0,0,1,3.28-1.08l52.7,16.41h37a3,3,0,0,1,1.39.35l27.94,14.84a3,3,0,0,1,1.58,2.63v38.93A3,3,0,0,1,273.05,2001.14Zm-134.72-5.95H270.08V1961l-25.7-13.65H207.7a3,3,0,0,1-.88-.13l-51.1-15.91-8.33,11.36a3,3,0,0,1-2.4,1.21h-6.66Z" transform="translate(-104.95 -1256.89)"/><path class="cls-1" d="M640.61,2001.14H272.77a3,3,0,1,1,0-5.95H634.89L616.5,1969l-9-2.88v3.51a3,3,0,0,1-3,3H567.8a3,3,0,0,1-2-.79l-10.45-9.65H272.77a3,3,0,1,1,0-5.95H556.5a3,3,0,0,1,2,.79l10.45,9.65h32.54v-4.6a3,3,0,0,1,3.87-2.83l13.87,4.41a3,3,0,0,1,1.53,1.12l22.25,31.7a3,3,0,0,1-2.43,4.68Z" transform="translate(-104.95 -1256.89)"/><path class="cls-1" d="M563.83,1968.94a3,3,0,0,1-.57-5.89l9.9-1.95c14.3-11.77,48.45-40.09,70.2-59.84l4-3.63-5.38-.51c-4.88-.46-9.86-.69-14.78-.69a179.77,179.77,0,0,0-70.25,14.77l-4.25,1.89a3,3,0,0,1-2.41-5.43l4.25-1.89a186,186,0,0,1,72.66-15.28c5.11,0,10.27.24,15.34.72l12.09,1.14a3,3,0,0,1,1.72,5.16l-9,8.16c-22.15,20.11-57,49-71,60.51a3,3,0,0,1-1.31.62l-10.63,2.09A3,3,0,0,1,563.83,1968.94Z" transform="translate(-104.95 -1256.89)"/><path class="cls-1" d="M487.56,1962a3,3,0,0,1-2.75-4.1l1.36-3.32a362.14,362.14,0,0,1,15.93-33.45l.54-1-.42-1c-4-9.83-7-17.36-9.19-22.38a3,3,0,0,1,2.73-4.14h0a87.24,87.24,0,0,1,19,2.52l1.74.4.88-1.55c5.8-10.26,13.93-24.58,19.77-34.52l1.75-3-3.4-.58a142.63,142.63,0,0,0-27-2.26c-23.42.44-49.14,6-83.39,17.95l-5.9,2.4a3,3,0,1,1-2.24-5.51l6-2.43.14-.05c34.91-12.21,61.22-17.85,85.31-18.3a148,148,0,0,1,28.09,2.34l7.64,1.31a3,3,0,0,1,2.06,4.43l-3.92,6.68c-5.81,9.91-13.93,24.2-19.72,34.44l-2,3.49a3,3,0,0,1-3.26,1.43l-3.91-.91a92.71,92.71,0,0,0-13.11-2.15c2,4.71,4.45,10.79,7.4,18.15l.95,2.35a3,3,0,0,1-.15,2.54l-1.22,2.22a355.77,355.77,0,0,0-15.64,32.85l-1.36,3.32A3,3,0,0,1,487.56,1962Z" transform="translate(-104.95 -1256.89)"/></svg>