<svg id="lifestyle" xmlns="http://www.w3.org/2000/svg" viewBox="0 0 64 64"><defs><style>.cls-1{fill:#cccccb;}</style></defs><title>next</title><path class="cls-1" d="M238.9,152.36a2,2,0,0,1,.29,2.46,1.89,1.89,0,0,1-.29.37l-7.59,7.59a2,2,0,0,1-2.83-2.83l4.17-4.17H221.48a2,2,0,0,1,0-4h11.17l-4.17-4.17h0a2,2,0,1,1,2.83-2.83h0l7.56,7.56Z" transform="translate(-197.48 -121.78)"/><path class="cls-1" d="M229.48,121.78a32,32,0,1,0,32,32A32,32,0,0,0,229.48,121.78Zm0,60a28,28,0,1,1,28-28A28,28,0,0,1,229.48,181.78Z" transform="translate(-197.48 -121.78)"/></svg>