<svg id="Layer_1" data-name="Layer 1" xmlns="http://www.w3.org/2000/svg" viewBox="0 0 400 338.8"><defs><style>.cls-1{fill:#fff;}.cls-2{fill:#223843;}</style></defs><title>no-trips</title><path class="cls-1" d="M631.44,369c-41.88-20.77-89.44-30.3-132.3-7.69-7.52,4-1.23,16.34,6.6,13.35,34.61-13.22,71.06-6.46,103.91,8.81,31.14,14.47,86,47,85.28,85.73-.17,8.51,4.24-4.91,7.82-10.75C728.67,416.16,663.15,384.68,631.44,369Z" transform="translate(-311.81 -343.17)"/><path class="cls-1" d="M496.94,437.54c-30.72-49.25-90.05-89.58-147.44-52.89-21.4,13.68-34.13,37.14-32.31,62.68,2.23,31.26,23.2,52.18,45.38,71.35C356,537.83,351.87,557.52,346.4,577c-5.28,18.86-14.93,36.87-19.12,56-6.52,29.73,11.35,43,40.19,46.31,9.64,1.1,20.49-9.54,9.88-13.23-3.92-1.36-8-2.45-11.87-4-13.08-5.43-15.33-5.55-16.64-19.64-1.37-14.83,6.62-28.42,11.5-42C369.8,574,373.05,546,383.22,519.86a10.42,10.42,0,0,0-2.5-11.9c-17.7-17-39.44-35.72-41.4-62.07-1.75-23.63,14.6-41.87,36.19-49,22.15-7.36,44.93-2.38,65,8.26,19.51,10.36,29.94,27.35,45.19,42.45C492,453.8,501.33,444.57,496.94,437.54Z" transform="translate(-311.81 -343.17)"/><path class="cls-2" d="M679.53,389.19C650.17,366.57,609.29,352,573,346.48c-16-2.42-33.49-5.26-49.68-1.46-12.9,3-21.16,10.86-25.92,21.23-17.63-3.11-36.71,1.21-54.09,9.65a116.91,116.91,0,0,0-30.76-9.63c-38.11-5.92-86.65,10.05-98.41,50.63-9.55,33,11.67,91.78,48.54,100.17-12.15,20.71-19,43.92-26.84,66.53C329.15,602.75,316,627,317.07,647.76c.76,14.29,16.92,24.47,28.6,29.46a62.83,62.83,0,0,0,13.52,4.15,52.61,52.61,0,0,0,13.55.32c4.86-.43,9.16-2.45,10.94-7.23a17.53,17.53,0,0,0,.14-12.23c-2-5-7.58-7.19-12.27-8.94-2.3-.86-5-1.2-5.62-3.22a5,5,0,0,1-.2-1.76,62.58,62.58,0,0,0,21.23,4.5,2.9,2.9,0,0,0,2.78-2.12c1-5.31,5-13.18-.37-17.5-2.09-1.67-5.3-2.39-7.73-3.38-2-.82-5.65-1.76-7-3.68a5.59,5.59,0,0,1-.89-3.78c5.63,1,11.14,4.12,16.71,3.07a1.45,1.45,0,0,0,1.16-1.06,2.49,2.49,0,0,0,1.09-.9c8.44-12.88.28-15.39-8.34-22-11.85-9-.55-28.08,3.21-40.47,3.59-11.82,6.59-23.68,9.65-35.62a4.67,4.67,0,0,0,1.67.07c40.53-5.75,103.79-24.15,102.64-76.82a58.55,58.55,0,0,0-1.68-12.16,14.16,14.16,0,0,0,3.18-.67c7.7,16.17,18.23,31.4,27.45,46.53,14.45,23.69,29.42,60.34,56.85,72.16,24.59,10.6,48-3.08,65.63-19.66,24.57-23,46.9-47.12,56.66-80.19C717.94,426.44,701.46,406.1,679.53,389.19ZM395.32,515.66c-5.59,3.33-7.65,17-9.76,22.9-3.24,9.06-5.26,19.68-8.5,28.73-2.93,8.18-7.35,16.67-7.78,25.49s4,12.48,11.44,15.22c6.22,2.28,9.56,5.22,7.5,12.36A36.61,36.61,0,0,0,371,615.49a3.38,3.38,0,0,0-3.28,3.28c-.78,7.19.4,11.78,7.35,15.1,2.79,1.33,7.65,1.89,9.85,3.89,2,1.83.76,5.91-.14,9.22a49,49,0,0,1-18.49-4.48c-4.46-2-5.7,6.25-5.08,9,.73,3.24,3.66,5,6.48,6.3,2.58,1.18,5.94,2,8,4A6.91,6.91,0,0,1,377.8,668c-.21,1.47-1.1,5.42-2.84,5.83a2.71,2.71,0,0,1-.94,0,82,82,0,0,1-20.63-5.31c-6-2.38-12.63-5.22-17.35-9.78-14-13.56-2.85-36.13,2.33-52.08q8-24.59,16.11-49.15,4.12-12.5,8.26-25c.84-2.53,8.36-19.27,3.12-19-27.75-17.06-50.73-61.5-41.13-93.66,11.32-37.93,59.88-49,93.72-39.7a105,105,0,0,1,10.83,3.66c-3.39,2.19-6.69,4.46-9.82,6.89-5.49,4.27-11.6,9.69-16,16-6.33-.11-12.72,1.79-17.21,5.8-6,5.36-9.12,13.64-9.34,21.57-.36,13.36,8.27,24.1,22,24.61,16.5.62,30.36-10.58,29.58-27.89a26.19,26.19,0,0,0-9.83-19.15,22.51,22.51,0,0,0-6.31-3.36c5.19-6.35,12.38-11.74,16.33-14.56,3-2.13,6.05-4.14,9.18-6.06,24.86,12.32,47.22,34.54,50.15,61.76,4.17,38.75-30.7,53.62-62.4,61.36C420.24,512.06,398.85,513.56,395.32,515.66Zm23.17-78.52c-11.78-5.84-13.77-13.05-11.37-20,5.5,1.65,10.33,5.87,11.64,11.55A16.28,16.28,0,0,1,418.49,437.15Zm-3.26,5.93a18.58,18.58,0,0,1-13.39,6.11c-15.63.48-19.54-18-10.37-28.26a13.37,13.37,0,0,1,7.26-4.2,23.37,23.37,0,0,0-.91,7.07A19.8,19.8,0,0,0,415.23,443.07Zm83.16-11.86c-7.09-21.45-25.58-39.26-46.6-50.94a90.69,90.69,0,0,1,10.42-4c12-3.65,22.61-4.39,32.51-2.77a66.48,66.48,0,0,0-2.3,12.56c-1.34,15.77,2.19,30.31,8.07,44.11Zm197.15,27.52c-7.55,24-25.09,41.59-42.29,59-21.28,21.6-48.42,41.7-75.74,13.92-14.08-14.31-23.43-33.89-33.61-50.88-10.33-17.22-21.61-33.78-30.4-51.89-5-10.34-9.9-21-12.16-32.32-1.13-5.65-2.12-14.46-.58-21.76a71.76,71.76,0,0,1,13.73,5.31,32.6,32.6,0,0,0-3.61,13.8c-.36,13.36,8.27,24.1,22,24.61,16.5.62,30.36-10.58,29.58-27.9a26.18,26.18,0,0,0-9.83-19.14,25.5,25.5,0,0,0-14.83-5c-6.45-.19-13,1.74-17.57,5.82a24.07,24.07,0,0,0-1.75,2,57.47,57.47,0,0,0-14.84-6.69,12.68,12.68,0,0,1,2-2.37,16,16,0,0,1,4.55-2.6c23.15-9.71,47.66-4.37,71.24.61a283.33,283.33,0,0,1,66.14,23.21C676.87,401.1,707.17,421.72,695.54,458.73Zm-156.7-57.14c1.77-4.88,2.09-13.54-3.5-16.32a5.11,5.11,0,0,0-4.22-.16,64.85,64.85,0,0,0-5-5c8.3-8,24-2.55,26.56,8.47,2.57,11.18-6.14,20.16-16.92,20.49-.58,0-1.11,0-1.65-.07A19.81,19.81,0,0,0,538.84,401.59Zm-8.68-11.66c.44,1,1,1.9,1.4,2.72,2.36,5,0,10.64-3.42,14.86-7.7-4-9.67-14.49-5.47-22.69Q526.41,387.18,530.17,389.94Z" transform="translate(-311.81 -343.17)"/><path class="cls-1" d="M597.59,445.48c-11.15-12.49-33-13.56-41.85,4.2-14.25,28.48,33.54,49.65,54,55.3a4.57,4.57,0,0,0,5.91-4,2.8,2.8,0,0,0,5,1.91c15.39-18,47.75-49.47,24-74.52C627.34,410.06,605,426.88,597.59,445.48ZM643.34,451c-.56,19.28-18,32.73-27.21,48.34a3.19,3.19,0,0,0-.43,1.51,4,4,0,0,0-2.63-3.89c-15.06-6.85-35.27-13.14-45.94-26.58-7.95-10-3.86-24,9.6-25.73,8.37-1.07,14.34,3.16,18.91,9.05a3.68,3.68,0,0,0,1.4,1.94c.88,1.28,1.73,2.59,2.51,3.94,1.2,2.08,4.75.51,4.29-1.75A26.51,26.51,0,0,0,603,455a3.57,3.57,0,0,0,.53-.9c3-8.85,6.87-18.49,16.12-22.41C633.7,425.79,643.73,437.82,643.34,451Z" transform="translate(-311.81 -343.17)"/></svg>