<svg id="real_estate" data-name="real estate" xmlns="http://www.w3.org/2000/svg" viewBox="0 0 64 64"><defs><style>.cls-1{fill:#58585b;}</style></defs><title>size</title><path class="cls-1" d="M283.3,156.93h-42a2,2,0,0,0-2,2v3a2,2,0,1,0,4,0v-1h23v6a2,2,0,1,0,4,0v-6h11v41h-11v-21a2,2,0,1,0-4,0v6h-4a2,2,0,0,0,0,4h4v26h-18v-26h2a2,2,0,0,0,0-4h-8a2,2,0,0,0,0,4h2v26h-19v-26h4a2,2,0,0,0,0-4h-4v-6h16a2,2,0,0,0,2-2v-3a2,2,0,1,0-4,0v1h-16a2,2,0,0,0-2,2v40a2,2,0,0,0,2,2h45a2,2,0,0,0,2-2v-13h13a2,2,0,0,0,2-2v-45A2,2,0,0,0,283.3,156.93Z" transform="translate(-221.3 -156.93)"/></svg>