<svg id="Layer_1" data-name="Layer 1" xmlns="http://www.w3.org/2000/svg" viewBox="0 0 31.2 48"><defs><style>.cls-1{fill:#1f2427;}</style></defs><title>switch</title><path class="cls-1" d="M515.43,525l-8.24,8.24V504.8a.8.8,0,1,0-1.6,0v28.47L497.37,525a.8.8,0,1,0-1.13,1.13l9.6,9.6a.78.78,0,0,0,.26.17.81.81,0,0,0,.3.06.82.82,0,0,0,.31-.06.76.76,0,0,0,.26-.17l9.6-9.6a.8.8,0,1,0-1.13-1.13Zm0,0" transform="translate(-496 -488)"/><path class="cls-1" d="M516.8,507.2a.8.8,0,0,0-.8.8v1.6a.8.8,0,0,0,1.6,0V508a.8.8,0,0,0-.8-.8Zm0,0" transform="translate(-496 -488)"/><path class="cls-1" d="M516.8,512a.8.8,0,0,0-.8.8v1.6a.8.8,0,1,0,1.6,0v-1.6a.8.8,0,0,0-.8-.8Zm0,0" transform="translate(-496 -488)"/><path class="cls-1" d="M516.8,516.8a.8.8,0,0,0-.8.8v1.6a.8.8,0,1,0,1.6,0v-1.6a.8.8,0,0,0-.8-.8Zm0,0" transform="translate(-496 -488)"/><path class="cls-1" d="M516.8,502.4a.8.8,0,0,0-.8.8v1.6a.8.8,0,0,0,1.6,0v-1.6a.8.8,0,0,0-.8-.8Zm0,0" transform="translate(-496 -488)"/><path class="cls-1" d="M516.8,492.8a.8.8,0,0,0-.8.8v1.6a.8.8,0,1,0,1.6,0v-1.6a.8.8,0,0,0-.8-.8Zm0,0" transform="translate(-496 -488)"/><path class="cls-1" d="M516.8,497.6a.8.8,0,0,0-.8.8V500a.8.8,0,1,0,1.6,0v-1.6a.8.8,0,0,0-.8-.8Zm0,0" transform="translate(-496 -488)"/><path class="cls-1" d="M527,497.83l-9.6-9.6a.8.8,0,0,0-.26-.17.78.78,0,0,0-.61,0,.78.78,0,0,0-.26.17l-9.6,9.6a.8.8,0,0,0,1.13,1.13l8.29-8.29a.8.8,0,0,0,.75.52.8.8,0,0,0,.75-.52l8.29,8.29a.8.8,0,0,0,1.13,0,.8.8,0,0,0,0-1.13Zm0,0" transform="translate(-496 -488)"/></svg>