<svg id="Layer_1" data-name="Layer 1" xmlns="http://www.w3.org/2000/svg" viewBox="0 0 84.87 55"><defs><style>.cls-1{fill:#8d8d8d;}</style></defs><title>visa</title><path class="cls-1" d="M355.14,174.5h-80.5a2.18,2.18,0,0,0-2.19,2.19v50.63a2.18,2.18,0,0,0,2.19,2.18h80.5a2.18,2.18,0,0,0,2.19-2.18V176.69a2.18,2.18,0,0,0-2.19-2.19ZM279,191.12h9.05a2.36,2.36,0,0,1,2.55,1.75l2,9.47c-1.94-5-6.6-9.08-13.66-10.79Zm11,21.62-5.23-17.88c3.76,2.41,7,6.23,8.09,8.88l.61,2.21,5.72-14.62h6.19l-9.2,21.4Zm19.93,0h-5.84l3.65-21.44h5.85Zm10.17.32a18.47,18.47,0,0,1-6.51-1.14l.82-4.8.75.34a12.27,12.27,0,0,0,5.5,1.12c1.68,0,3.48-.65,3.49-2.09,0-.94-.75-1.61-3-2.66S316,201.1,316,198c0-4.17,4.1-7.07,9.87-7.07a15.18,15.18,0,0,1,5.24.89l-.79,4.65-.53-.24a10.79,10.79,0,0,0-4.37-.82c-2.29,0-3.35,1-3.35,1.84s1.23,1.67,3.28,2.66c3.37,1.53,4.93,3.39,4.91,5.82,0,4.46-4,7.32-10.18,7.32Zm25.32-.31s-.54-2.47-.71-3.21h-7.48c-.23.58-1.23,3.22-1.23,3.22h-6.14l8.68-19.65a2.91,2.91,0,0,1,3.06-1.78h4.51l4.73,21.42Zm0,0" transform="translate(-272.45 -174.5)"/><path class="cls-1" d="M342,197.11c-.29.81-.81,2.11-.78,2s-1.84,4.76-2.33,6h4.85L342.39,199Zm0,0" transform="translate(-272.45 -174.5)"/></svg>