<svg id="Layer_1" data-name="Layer 1" xmlns="http://www.w3.org/2000/svg" viewBox="0 0 184.29 196.54"><defs><style>.cls-1{fill:#a8adaa;}.cls-2{fill:#223843;}.cls-3{fill:#d87a61;}.cls-4{fill:#c25f4c;}.cls-5{fill:#ea8b77;}.cls-6{fill:#e98a76;}.cls-7{fill:#cccccb;}.cls-8{fill:#e5e7ea;}.cls-9{fill:#fff;}.cls-10{fill:#dcdee0;}</style></defs><title>wallet-created</title><path class="cls-1" d="M426.75,444.71c8.07-15.56,125.65-6.92,137.17-9.22s20.17,19.6,19,36.89S489,516.18,489,516.18l-56.48-28.24Z" transform="translate(-420.52 -396.39)"/><path class="cls-2" d="M489,517.2a1,1,0,0,1-.46-.11l-56.48-28.24a1,1,0,0,1-.56-.78l-5.76-43.23a1,1,0,0,1,.11-.61c3.64-7,25.33-10.14,70.34-10.14,12.9,0,25.6.25,36.81.47,8.37.17,15.6.31,21.09.31a66.53,66.53,0,0,0,9.64-.4c3.67-.73,7.26.68,10.48,4.12,6.4,6.84,10.59,21.39,9.76,33.85-1.19,17.81-90.87,43.63-94.69,44.72A1,1,0,0,1,489,517.2Zm-55.54-29.94,55.64,27.82c25.89-7.43,91.92-29.25,92.82-42.78.8-12-3.17-25.84-9.22-32.31-2.72-2.91-5.62-4.1-8.58-3.51a66,66,0,0,1-10,.44c-5.51,0-12.75-.14-21.13-.31-11.2-.22-23.89-.47-36.77-.47-41.73,0-64.72,2.95-68.37,8.77Z" transform="translate(-420.52 -396.39)"/><path class="cls-3" d="M448.07,431.25c12.82-27.91,53.55-32.63,70.78-1.51s2.12,59-29.34,62C454.63,495.1,432.64,464.82,448.07,431.25Z" transform="translate(-420.52 -396.39)"/><path class="cls-4" d="M484.27,493c-15.42,0-28.55-6.69-36-18.35-7.87-12.27-8.27-28.26-1.11-43.86A40.64,40.64,0,0,1,484,407.27c15,0,28,8,35.73,22,8.59,15.53,9.74,30.9,3.22,43.28-6,11.41-18.17,18.79-33.36,20.25C487.81,492.93,486,493,484.27,493Zm-.26-83.7a38.59,38.59,0,0,0-35,22.36c-6.87,14.95-6.51,30.22,1,41.89,7.09,11.06,19.59,17.4,34.3,17.4,1.68,0,3.41-.08,5.14-.25,14.49-1.39,26.06-8.38,31.74-19.16,6.19-11.75,5.05-26.42-3.2-41.33C510.59,416.94,498.22,409.32,484,409.32Z" transform="translate(-420.52 -396.39)"/><path class="cls-5" d="M453.94,441.78a34.67,34.67,0,0,0-6.19,4.28c-.47.38.13,1.11.63.82a34.57,34.57,0,0,0,6.13-4.36C454.92,442.13,454.4,441.54,453.94,441.78Z" transform="translate(-420.52 -396.39)"/><path class="cls-5" d="M457.21,445.86c-2.1.76-3.9,2.33-5.7,3.63s-3.66,2.67-5.4,4.12c-.45.38.13,1.07.61.79,1.91-1.1,3.75-2.34,5.59-3.55s4-2.4,5.43-4.1C458.05,446.38,457.77,445.66,457.21,445.86Z" transform="translate(-420.52 -396.39)"/><path class="cls-5" d="M457.43,452c-5.54,2.7-10.8,7.05-15.27,11.27-.35.33.12,1,.52.68,5.07-3.68,10.49-7.24,15.2-11.36C458.23,452.32,457.8,451.85,457.43,452Z" transform="translate(-420.52 -396.39)"/><path class="cls-5" d="M497.5,461.94a142.28,142.28,0,0,0-27.33,18.18c-.75.63.24,1.91,1,1.36,9-6.15,18.06-12.12,27-18.3A.71.71,0,0,0,497.5,461.94Z" transform="translate(-420.52 -396.39)"/><path class="cls-5" d="M505.14,465.87c-10.53,4.85-17.8,14.45-28.46,19.12-.9.39-.25,1.93.67,1.58,10.95-4.14,18.82-13.33,28.34-19.76A.55.55,0,0,0,505.14,465.87Z" transform="translate(-420.52 -396.39)"/><path class="cls-5" d="M510.26,470c-6.86,3.36-12.83,9.22-18.82,13.89-1,.75.34,2.43,1.3,1.69,6-4.62,13.2-8.93,18.18-14.72A.55.55,0,0,0,510.26,470Z" transform="translate(-420.52 -396.39)"/><path class="cls-5" d="M512,477.4a28.77,28.77,0,0,1-7.66,5c-1,.47-.27,2.22.75,1.79a18.66,18.66,0,0,0,7.68-6C513.15,477.63,512.48,476.9,512,477.4Z" transform="translate(-420.52 -396.39)"/><path class="cls-5" d="M521.59,442.22c-1.62-5.86-5.87-10.85-9.85-15.32s-9.8-9.79-15.58-11.79c-.55-.19-.92.55-.55.94,4.06,4.2,9,7.42,12.9,11.81,4.31,4.8,7.19,10.47,11.22,15.43C520.47,444.19,521.87,443.23,521.59,442.22Z" transform="translate(-420.52 -396.39)"/><path class="cls-5" d="M521.92,448.22c-.54-1.14-2-.26-1.86.78a24.43,24.43,0,0,1,.35,5.42c-.13,1.65-.69,3.22-.74,4.88a.87.87,0,0,0,1.48.61C523.82,457,523.52,451.59,521.92,448.22Z" transform="translate(-420.52 -396.39)"/><path class="cls-6" d="M490,443.52a8.25,8.25,0,0,1,9.58-12.84l4.26-2.19a12.31,12.31,0,0,0-19.62,11.81l.53.35A27.59,27.59,0,0,0,490,443.52ZM504.46,440a8.23,8.23,0,0,1-4.29,5.59,8,8,0,0,1-1.93.71h0c-.44.17-4.77,1.58-13.19-3.9-7.17-4.66-12.17-5-15.17-4A12.31,12.31,0,1,0,485,448.84c-1-.55-3.79-2.23-5.44-3.15a8.5,8.5,0,0,1,.56.94,8.27,8.27,0,1,1-9.5-4.19c.87-.22,5.19-1,11.31,3,6.44,4.2,12.78,6.18,16.82,4.94a12.3,12.3,0,0,0,10-12.52Z" transform="translate(-420.52 -396.39)"/><path class="cls-3" d="M500.54,420.37c12.82-27.91,53.55-32.63,70.78-1.51s2.12,59-29.34,62C507.1,484.21,485.12,453.94,500.54,420.37Z" transform="translate(-420.52 -396.39)"/><path class="cls-4" d="M536.74,482.14c-15.42,0-28.55-6.69-36-18.35-7.87-12.27-8.27-28.26-1.11-43.86a40.64,40.64,0,0,1,36.87-23.55c15,0,28,8,35.73,22,8.59,15.53,9.74,30.9,3.22,43.28-6,11.41-18.17,18.79-33.36,20.25C540.29,482.05,538.49,482.14,536.74,482.14Zm-.26-83.7a38.59,38.59,0,0,0-35,22.36c-6.87,14.95-6.51,30.22,1,41.89,7.09,11.06,19.59,17.4,34.3,17.4,1.68,0,3.41-.08,5.14-.25,14.49-1.39,26.06-8.38,31.74-19.16,6.19-11.75,5.05-26.42-3.2-41.33C563.07,406.06,550.7,398.44,536.48,398.44Z" transform="translate(-420.52 -396.39)"/><path class="cls-5" d="M506.41,430.89a34.67,34.67,0,0,0-6.19,4.28c-.47.38.13,1.11.63.82a34.57,34.57,0,0,0,6.13-4.36C507.39,431.25,506.87,430.66,506.41,430.89Z" transform="translate(-420.52 -396.39)"/><path class="cls-5" d="M509.69,435c-2.1.76-3.9,2.33-5.7,3.63s-3.66,2.67-5.4,4.12c-.45.38.13,1.07.61.79,1.91-1.1,3.75-2.34,5.59-3.55s4-2.4,5.43-4.1C510.52,435.5,510.24,434.78,509.69,435Z" transform="translate(-420.52 -396.39)"/><path class="cls-5" d="M537.4,452.36c-5.54,2.7-10.8,7.05-15.27,11.27-.35.33.12,1,.52.68,5.07-3.68,10.49-7.24,15.2-11.36C538.2,452.65,537.77,452.18,537.4,452.36Z" transform="translate(-420.52 -396.39)"/><path class="cls-5" d="M550,451.06a142.28,142.28,0,0,0-27.33,18.18c-.75.63.24,1.91,1,1.36,9-6.15,18.06-12.12,27-18.3A.71.71,0,0,0,550,451.06Z" transform="translate(-420.52 -396.39)"/><path class="cls-5" d="M557.61,455c-10.53,4.85-17.8,14.45-28.46,19.12-.9.39-.25,1.93.67,1.58,10.95-4.14,18.82-13.33,28.34-19.76A.55.55,0,0,0,557.61,455Z" transform="translate(-420.52 -396.39)"/><path class="cls-5" d="M562.73,459.14c-6.86,3.36-12.83,9.22-18.82,13.89-1,.75.34,2.43,1.3,1.69,6-4.62,13.2-8.93,18.18-14.72A.55.55,0,0,0,562.73,459.14Z" transform="translate(-420.52 -396.39)"/><path class="cls-5" d="M564.43,466.51a28.77,28.77,0,0,1-7.66,5c-1,.47-.27,2.22.75,1.79a18.66,18.66,0,0,0,7.68-6C565.62,466.74,564.95,466,564.43,466.51Z" transform="translate(-420.52 -396.39)"/><path class="cls-5" d="M574.06,431.34c-1.62-5.86-5.87-10.85-9.85-15.32s-9.8-9.79-15.58-11.79c-.55-.19-.92.55-.55.94,4.06,4.2,9,7.42,12.9,11.81,4.31,4.8,7.19,10.47,11.22,15.43C572.94,433.31,574.34,432.34,574.06,431.34Z" transform="translate(-420.52 -396.39)"/><path class="cls-5" d="M574.39,437.33c-.54-1.14-2-.26-1.86.78a24.43,24.43,0,0,1,.35,5.42c-.13,1.65-.69,3.22-.74,4.88a.87.87,0,0,0,1.48.61C576.3,446.1,576,440.71,574.39,437.33Z" transform="translate(-420.52 -396.39)"/><path class="cls-6" d="M541.14,436a8.25,8.25,0,0,1,9.58-12.84L555,421a12.31,12.31,0,0,0-19.62,11.81l.53.35A27.59,27.59,0,0,0,541.14,436Zm14.42-3.51a8.23,8.23,0,0,1-4.29,5.59,8,8,0,0,1-1.93.71h0c-.44.17-4.77,1.58-13.19-3.9-7.17-4.66-12.17-5-15.17-4a12.31,12.31,0,1,0,15.12,10.41c-1-.55-3.79-2.23-5.44-3.15a8.5,8.5,0,0,1,.56.94,8.27,8.27,0,1,1-9.5-4.19c.87-.22,5.19-1,11.31,3,6.44,4.2,12.78,6.18,16.82,4.94a12.3,12.3,0,0,0,10-12.52Z" transform="translate(-420.52 -396.39)"/><path class="cls-1" d="M426.75,444.71c-6.64-1-7.49,134.87.58,141.78s140.63,8.07,157.35-1.73,14.41-126.22,5.76-134.87S558.16,465.46,426.75,444.71Z" transform="translate(-420.52 -396.39)"/><path class="cls-2" d="M500.89,592.92h0c-32.57,0-69.69-1.77-74.22-5.65-8.06-6.91-7.56-126.69-2.11-141.42.22-.6.81-2.18,2.12-2.18l.24,0c36.34,5.74,68.51,8.65,95.63,8.65a294.35,294.35,0,0,0,51-4.09,78.43,78.43,0,0,1,11-1.32c3,0,5,.69,6.55,2.25,6.6,6.6,9.26,69,4.52,106-2.24,17.45-5.77,27.7-10.49,30.47C576,591,535.64,592.92,500.89,592.92Zm-74-147.16c-2.11,2.61-4.32,29.18-4.29,68.6S424.82,583,428,585.72c3.43,2.94,34.76,5.16,72.89,5.16,43.34,0,76-2.74,83.27-7,4-2.36,7.4-12.65,9.49-29,4.92-38.4,1.76-98.6-3.94-104.3-1.15-1.15-2.68-1.65-5.1-1.65a77.63,77.63,0,0,0-10.72,1.3,296.21,296.21,0,0,1-51.36,4.12C495.38,454.39,463.18,451.49,426.84,445.76Z" transform="translate(-420.52 -396.39)"/><path class="cls-7" d="M599.66,500c-3.13-2.61-40.92,2.31-46.11,4.61s-8.65,34-1.73,36.89,42.65-1.15,47.26-4.61S606.58,505.8,599.66,500Z" transform="translate(-420.52 -396.39)"/><path class="cls-2" d="M560.92,543.55h0c-4.61,0-7.8-.36-9.49-1.06-3.6-1.5-4.44-8.34-4.5-13.81-.11-9,2-23.11,6.21-25s29.44-5.44,41-5.44c4.4,0,5.59.5,6.18,1,4.37,3.64,4.59,14,4.48,18.27-.21,8.11-2.06,17.95-5.09,20.22C595.86,540.62,573.9,543.55,560.92,543.55Zm33.22-43.23c-11.11,0-36.2,3.5-40.17,5.27-2.31,1-5.12,12.09-5,23.06.08,6.57,1.32,11.14,3.24,11.95,1,.41,3.3.9,8.7.9h0c13.34,0,34.39-3,37.55-5.39,1.87-1.4,4-9.22,4.27-18.63.21-8.3-1.19-14.52-3.74-16.64C598.94,500.78,598.21,500.32,594.14,500.32Z" transform="translate(-420.52 -396.39)"/><circle class="cls-8" cx="146.86" cy="125.56" r="8.07"/><path class="cls-2" d="M567.38,531a9.09,9.09,0,1,1,9.09-9.09A9.1,9.1,0,0,1,567.38,531Zm0-16.14a7,7,0,1,0,7,7A7.05,7.05,0,0,0,567.38,514.9Z" transform="translate(-420.52 -396.39)"/><path class="cls-9" d="M568.42,516.95a3.8,3.8,0,0,0-2.46.37c-.3.16-1,.82-.49,1.15.34.2.6.07,1,0a3.21,3.21,0,0,1,1.83.07,4.32,4.32,0,0,1,2.31,2.26c.31.61,1.13.26,1.18-.32C571.9,518.49,570.2,517.25,568.42,516.95Z" transform="translate(-420.52 -396.39)"/><path class="cls-9" d="M572,523.22a.78.78,0,0,0-1.06.28,9.37,9.37,0,0,0-.57,1.94.54.54,0,0,0,1,.41,8.53,8.53,0,0,0,.94-1.57A.8.8,0,0,0,572,523.22Z" transform="translate(-420.52 -396.39)"/><g id="_Group_" data-name="&lt;Group&gt;"><path class="cls-10" d="M432.46,547c-1.24.22-2.26,1.43-3.26,2.13s-2.58,1.11-2.87,2.2a.38.38,0,0,0,.17.43c1.08.56,2.64-.6,3.58-1.11,1.19-.65,2.77-1.44,3.2-2.82A.68.68,0,0,0,432.46,547Z" transform="translate(-420.52 -396.39)"/><path class="cls-10" d="M440.88,546.06a44.25,44.25,0,0,0-6.22,4.85,61.8,61.8,0,0,0-6.4,5.74.59.59,0,0,0,.71.92,59.1,59.1,0,0,0,6.32-4.67,46.85,46.85,0,0,0,6.56-5.57A.81.81,0,0,0,440.88,546.06Z" transform="translate(-420.52 -396.39)"/><path class="cls-10" d="M452.12,546.67c-8.76,4.26-17,11-23.76,17.94-.54.56.25,1.28.83.83,7.75-6.08,15.84-11.55,23.72-17.43A.78.78,0,0,0,452.12,546.67Z" transform="translate(-420.52 -396.39)"/><path class="cls-10" d="M465.18,547.13c-12.79,6.07-25.22,16.7-34.76,27.05a.75.75,0,0,0,1.07,1.07c5-4.47,10-9,15.28-13.14,6.18-4.88,13-8.84,19.25-13.54A.83.83,0,0,0,465.18,547.13Z" transform="translate(-420.52 -396.39)"/><path class="cls-10" d="M478.2,548.89c-14.85,7.76-28.56,18.35-41.82,28.53-.94.72,0,2.34.95,1.62,13.64-9.92,28.11-18.84,41.46-29.13A.59.59,0,0,0,478.2,548.89Z" transform="translate(-420.52 -396.39)"/><path class="cls-10" d="M492.56,552c-17.87,8-34.73,19.7-50.65,31-.89.63-.07,2.09.87,1.48,16.55-10.85,34-20.37,50.41-31.43A.63.63,0,0,0,492.56,552Z" transform="translate(-420.52 -396.39)"/><path class="cls-10" d="M500,555.61a446.2,446.2,0,0,0-39.49,27.21c-.53.42.15,1.25.71.92A443.82,443.82,0,0,0,500.81,557C501.6,556.38,500.9,555.06,500,555.61Z" transform="translate(-420.52 -396.39)"/><path class="cls-10" d="M518.84,555.3c-16,7.1-31,17.26-44.87,27.9-1,.75-.06,2.43,1,1.69,14.42-10.26,29.62-19,44.66-28.26A.77.77,0,0,0,518.84,555.3Z" transform="translate(-420.52 -396.39)"/><path class="cls-10" d="M525.76,562.62a208.3,208.3,0,0,0-33.63,19.26c-1.06.74-.09,2.47,1,1.76,10.87-7,22-13.6,33.23-20C527.09,563.29,526.47,562.3,525.76,562.62Z" transform="translate(-420.52 -396.39)"/><path class="cls-10" d="M536.15,565.68c-9.75,5.22-19.29,11-28.61,16.93a1,1,0,0,0,1,1.63c9.7-5.31,19.34-10.9,28.61-16.93A1,1,0,0,0,536.15,565.68Z" transform="translate(-420.52 -396.39)"/><path class="cls-10" d="M554,564.51a182.61,182.61,0,0,0-31.73,18.57c-.78.56-.09,1.83.77,1.31,10.52-6.3,21.15-12.37,31.75-18.54C555.71,565.34,554.93,564.1,554,564.51Z" transform="translate(-420.52 -396.39)"/><path class="cls-10" d="M564.44,566.75c-10.38,4-19.78,10.09-28.53,16.86-1,.79.34,2.56,1.39,1.8,8.88-6.4,18.31-11.73,27.71-17.33C565.69,567.68,565.23,566.45,564.44,566.75Z" transform="translate(-420.52 -396.39)"/><path class="cls-10" d="M568.7,570.93a92.76,92.76,0,0,0-19,11.75c-.81.64.25,2,1.1,1.42,6.17-4,12.47-7.85,18.79-11.66C570.56,571.85,569.7,570.47,568.7,570.93Z" transform="translate(-420.52 -396.39)"/><path class="cls-10" d="M580.22,572.26a69.17,69.17,0,0,0-14.34,8.11c-1.06.75-.11,2.47,1,1.77,4.63-2.81,9.39-5.39,14-8.24C581.74,573.38,581.19,571.87,580.22,572.26Z" transform="translate(-420.52 -396.39)"/><path class="cls-10" d="M586.94,574.56a70.93,70.93,0,0,0-9.06,5.52c-1,.7-.1,2.34,1,1.67a72.31,72.31,0,0,0,8.86-6.19C588.3,575.07,587.55,574.26,586.94,574.56Z" transform="translate(-420.52 -396.39)"/><path class="cls-10" d="M546.42,512.73a2.7,2.7,0,0,0-1.38.92l-1.27,1.23c-.58.56.26,1.34.86.86l1.38-1.12a2.57,2.57,0,0,0,1-1.26A.52.52,0,0,0,546.42,512.73Z" transform="translate(-420.52 -396.39)"/><path class="cls-10" d="M543.33,521.31c-.6.53-1.1,1.18-1.67,1.74s-1.18,1.09-1.81,1.59c-.79.63.26,2,1.08,1.4a17,17,0,0,0,3.92-3.56C545.5,521.54,544.1,520.62,543.33,521.31Z" transform="translate(-420.52 -396.39)"/><path class="cls-10" d="M542.49,531.19c-1-.54-2.2.46-3,1a18.35,18.35,0,0,0-2.83,2.52c-.88,1,.55,2.39,1.43,1.43a17.36,17.36,0,0,1,2.68-2.4c.79-.57,1.94-1,2.06-2A.62.62,0,0,0,542.49,531.19Z" transform="translate(-420.52 -396.39)"/><path class="cls-10" d="M543.18,537.64c-3.26.24-6.42,3.47-8.54,5.71-.87.91.5,2.29,1.38,1.38a29.35,29.35,0,0,1,3.7-3.22c1.29-.94,2.83-1.64,3.87-2.88C543.89,538.29,543.73,537.6,543.18,537.64Z" transform="translate(-420.52 -396.39)"/><path class="cls-10" d="M548.48,543.45c-4.6.64-8.65,3.46-11.95,6.59-.72.68.34,1.71,1.08,1.08,3.42-2.94,7.34-4.57,11.38-6.45C549.74,544.32,549.16,543.36,548.48,543.45Z" transform="translate(-420.52 -396.39)"/><path class="cls-10" d="M559.38,544c-5.13.85-10.4,4.21-14.5,7.3a.73.73,0,0,0,.74,1.26c2.35-1.3,4.67-2.64,7.07-3.83a69.42,69.42,0,0,0,7.19-3.54A.65.65,0,0,0,559.38,544Z" transform="translate(-420.52 -396.39)"/><path class="cls-10" d="M572.38,545c-6.83,1.68-13.39,5.23-19.31,9a.75.75,0,0,0,.75,1.29c6.28-3.17,12.85-5.77,19.07-9C573.57,545.89,573.09,544.86,572.38,545Z" transform="translate(-420.52 -396.39)"/><path class="cls-10" d="M584.62,543.8c-6.41,1.82-13,6.77-18.13,10.9-.84.67.24,2,1.13,1.46,3-1.78,5.82-3.7,8.79-5.45s6.32-3.22,9.07-5.44C586.18,544.7,585.42,543.57,584.62,543.8Z" transform="translate(-420.52 -396.39)"/><path class="cls-10" d="M590.59,546.7a30.6,30.6,0,0,0-5.39,3.61q-2.63,1.92-5.23,3.88c-.86.65-.07,2.11.87,1.48q2.69-1.82,5.35-3.67a31.55,31.55,0,0,0,5.35-4.06A.79.79,0,0,0,590.59,546.7Z" transform="translate(-420.52 -396.39)"/><path class="cls-10" d="M571.22,454.51c-6.43-.08-13.19,2-19.58,2.85-7.23.91-14.53,1.24-21.81,1.54a.71.71,0,0,0,0,1.43,132.18,132.18,0,0,0,21.81-.14c6.49-.53,14.19-.92,20.1-3.74C572.72,456,572.2,454.52,571.22,454.51Z" transform="translate(-420.52 -396.39)"/><path class="cls-10" d="M578.12,453.53c-1.15.18-.79,1.88.26,1.94s8.24-.35,8.4,1.4c.06.66,1,.88,1.21.16C589.22,452.08,580.76,453.11,578.12,453.53Z" transform="translate(-420.52 -396.39)"/></g><g id="_Group_2" data-name="&lt;Group&gt;"><path class="cls-10" d="M553.45,523.1a1.78,1.78,0,0,0-1.64,1.52.33.33,0,0,0,.33.33,1.79,1.79,0,0,0,1.73-1.3A.44.44,0,0,0,553.45,523.1Z" transform="translate(-420.52 -396.39)"/><path class="cls-10" d="M555.46,526.33a2.45,2.45,0,0,0-1.93.73,13.92,13.92,0,0,0-2,1.77c-.25.27.09.76.41.53a19.39,19.39,0,0,1,1.91-1.22c.63-.36,1.48-.58,1.81-1.27A.37.37,0,0,0,555.46,526.33Z" transform="translate(-420.52 -396.39)"/><path class="cls-10" d="M558.45,530.71c-2.16.09-4.5,2-5.92,3.55-.35.38.11,1,.57.74,1-.64,1.91-1.31,2.92-1.9a12.09,12.09,0,0,0,2.72-1.7A.41.41,0,0,0,558.45,530.71Z" transform="translate(-420.52 -396.39)"/><path class="cls-10" d="M565,533.57c-4,0-8.31,3.27-11.17,5.76-.3.26.1.78.43.55a40,40,0,0,1,5-3c1.93-1,4.17-1.37,6-2.47A.46.46,0,0,0,565,533.57Z" transform="translate(-420.52 -396.39)"/><path class="cls-10" d="M581,528.53c-5.95,1.07-11.93,5.26-16.85,8.6-.5.34,0,1.14.48.82q4-2.45,8.22-4.6c2.78-1.42,5.83-2.42,8.42-4.17A.35.35,0,0,0,581,528.53Z" transform="translate(-420.52 -396.39)"/><path class="cls-10" d="M589.09,528.25a96.55,96.55,0,0,0-15.79,9.12c-.61.41-.06,1.39.58,1,5.16-3.21,10.54-6.05,15.73-9.23C590.19,528.78,589.69,528,589.09,528.25Z" transform="translate(-420.52 -396.39)"/><path class="cls-10" d="M594,530.57c-3.7,1.11-6.94,3.72-9.78,6.26-.49.44.21,1.08.7.7,3-2.31,6.35-4,9.38-6.25C594.61,531,594.42,530.43,594,530.57Z" transform="translate(-420.52 -396.39)"/><path class="cls-10" d="M597.16,532.88a25.53,25.53,0,0,0-3.35,1.41c-.72.39-.08,1.46.64,1.09a24.77,24.77,0,0,0,3-1.91C597.68,533.27,597.52,532.75,597.16,532.88Z" transform="translate(-420.52 -396.39)"/><path class="cls-10" d="M585.21,504.2a82.84,82.84,0,0,0-16.55,2,.59.59,0,0,0,.16,1.15,82.79,82.79,0,0,0,16.59-1.75A.74.74,0,0,0,585.21,504.2Z" transform="translate(-420.52 -396.39)"/><path class="cls-10" d="M594.45,504.63a23.52,23.52,0,0,0-4.1-.26.67.67,0,0,0,0,1.35,23.52,23.52,0,0,0,4.1-.26A.42.42,0,0,0,594.45,504.63Z" transform="translate(-420.52 -396.39)"/></g></svg>