<?xml version="1.0" encoding="utf-8"?>
<!-- Generator: Adobe Illustrator 22.1.0, SVG Export Plug-In . SVG Version: 6.00 Build 0)  -->
<svg version="1.1" id="lifestyle" xmlns="http://www.w3.org/2000/svg" xmlns:xlink="http://www.w3.org/1999/xlink" x="0px" y="0px"
	 viewBox="0 0 56.5 56.5" style="enable-background:new 0 0 56.5 56.5;" xml:space="preserve">
<style type="text/css">
	.st0{fill:#DA7B61;}
	.st1{fill:#FFFFFF;}
</style>
<title>check</title>
<circle class="st0" cx="28.3" cy="28.3" r="28.3"/>
<path class="st1" d="M35.1,23.4c-0.8-0.8-2-0.8-2.8,0c0,0,0,0,0,0l-5.4,5.4l-2.7-2.7l0,0c-0.8-0.8-2-0.8-2.8,0s-0.8,2,0,2.8l0,0
	l4.1,4.1l0,0c0.8,0.8,2,0.8,2.8,0c0,0,0,0,0,0l6.8-6.8l0,0C35.9,25.5,35.9,24.3,35.1,23.4C35.1,23.5,35.1,23.5,35.1,23.4z"/>
</svg>
