<svg id="lifestyle" xmlns="http://www.w3.org/2000/svg" viewBox="0 0 64 64"><defs><style>.cls-1{fill:#231f20;}</style></defs><title>arrow-back</title><path class="cls-1" d="M2861.39,1019.59a2,2,0,0,0-.29,2.46,1.89,1.89,0,0,0,.29.37L2869,1030a2,2,0,0,0,2.83-2.83l-4.17-4.17h11.17a2,2,0,0,0,0-4h-11.17l4.17-4.17h0A2,2,0,1,0,2869,1012h0l-7.56,7.56Z" transform="translate(-2838.8 -989)"/><path class="cls-1" d="M2870.8,989a32,32,0,1,0,32,32A32,32,0,0,0,2870.8,989Zm0,60a28,28,0,1,1,28-28A28,28,0,0,1,2870.8,1049Z" transform="translate(-2838.8 -989)"/></svg>