<svg id="Capa_1" data-name="Capa 1" xmlns="http://www.w3.org/2000/svg" viewBox="0 0 471.04 376.83"><defs><style>.cls-1{fill:#9fa0a4;}</style></defs><title>camera2</title><path class="cls-1" d="M436.2,132.12H387l-27.14-41c-10.24-15.36-28.16-24.58-46.59-24.58H200.68c-18.43,0-36.35,9.22-46.59,24.58l-27.14,41H77.8a56.16,56.16,0,0,0-56.32,56.32V387.1A56.16,56.16,0,0,0,77.8,443.42H436.2a56.16,56.16,0,0,0,56.32-56.32V188.44A56.16,56.16,0,0,0,436.2,132.12ZM257,397.34a127,127,0,0,1-127-127c0-70.14,56.83-126.46,127-126.46a127,127,0,0,1,127,127C384,340.5,327.14,397.34,257,397.34ZM429,211.48H406.5a16.66,16.66,0,0,1,0-33.28H427a16.62,16.62,0,0,1,17.41,15.87A16.21,16.21,0,0,1,429,211.48Z" transform="translate(-21.48 -66.58)"/><path class="cls-1" d="M257,200.22a70.8,70.8,0,0,0-70.66,70.66c0,38.91,31.74,70.14,70.66,70.14a70.8,70.8,0,0,0,70.66-70.66C327.66,231.45,295.91,200.22,257,200.22Z" transform="translate(-21.48 -66.58)"/></svg>