<?xml version="1.0" encoding="utf-8"?>
<!-- Generator: Adobe Illustrator 22.1.0, SVG Export Plug-In . SVG Version: 6.00 Build 0)  -->
<svg version="1.1" id="Capa_1" xmlns="http://www.w3.org/2000/svg" xmlns:xlink="http://www.w3.org/1999/xlink" x="0px" y="0px"
	 viewBox="0 0 471 376.8" style="enable-background:new 0 0 471 376.8;" xml:space="preserve">
<title>camera2</title>
<path d="M414.7,65.5h-49.2l-27.1-41C328.1,9.2,310.2,0,291.8,0H179.2c-18.4,0-36.4,9.2-46.6,24.6l-27.1,41H56.3
	c-31-0.1-56.2,25-56.3,56c0,0.1,0,0.2,0,0.3v198.7c-0.1,31,25,56.2,56,56.3c0.1,0,0.2,0,0.3,0h358.4c31,0.1,56.2-25,56.3-56
	c0-0.1,0-0.2,0-0.3V121.9c0.1-31-25-56.2-56-56.3C414.9,65.5,414.8,65.5,414.7,65.5z M235.5,330.8c-70.1,0-127-56.9-127-127
	c0-70.1,56.8-126.5,127-126.5c70.1,0,127,56.9,127,127l0,0C362.5,273.9,305.7,330.8,235.5,330.8z M407.5,144.9H385
	c-9.2-0.5-16.3-8.3-15.8-17.5c0.4-8.6,7.3-15.4,15.8-15.8h20.5c9.2-0.4,17,6.6,17.4,15.8c0,0,0,0.1,0,0.1c0.7,8.9-6,16.7-14.9,17.4
	C407.8,144.9,407.7,144.9,407.5,144.9z"/>
<path d="M235.5,133.6c-39,0.1-70.6,31.7-70.7,70.7c0,38.9,31.7,70.1,70.7,70.1c39-0.1,70.6-31.7,70.7-70.7
	C306.2,164.9,274.4,133.6,235.5,133.6z"/>
</svg>
