<svg id="Layer_1" data-name="Layer 1" xmlns="http://www.w3.org/2000/svg" viewBox="0 0 223.72 162.78"><defs><style>.cls-1{fill:#c35f4c;}.cls-2{fill:#223843;}.cls-3{fill:#a8adaa;}.cls-4{fill:#dcdee0;}.cls-5{fill:#d87a61;}.cls-6{fill:#ffd34f;}.cls-7{fill:#f9a949;}.cls-8{fill:#e98a76;}.cls-9{fill:#fee96d;}</style></defs><title>credit-card-added</title><path class="cls-1" d="M436.53,424.86c-10.16,11.73-12.68,93.95,4.61,106.63s156.77,5.19,168.87,0,6.92-95.1.58-104.32S444,416.21,436.53,424.86Z" transform="translate(-394.65 -418.2)"/><path class="cls-2" d="M506,539.48h0c-25.39,0-57.36-1.24-65.44-7.17-7.24-5.31-10.41-21.08-11.79-33.38-3.29-29.23.25-67,7-74.75,4.81-5.55,58.06-6,74.26-6,38.45,0,97.19,2.23,101.42,8.38,5.5,8,10.36,75.39,3.72,98.31-1.22,4.23-2.78,6.69-4.74,7.54C603.22,535.51,551.29,539.48,506,539.48Zm4-119.23c-46.81,0-70.51,2.74-72.71,5.28-6.34,7.32-9.7,44.93-6.52,73.18,1.89,16.81,5.78,28.15,11,32,6,4.37,28.77,6.77,64.22,6.77,45.1,0,96.62-3.88,103.64-6.89.93-.4,2.3-1.8,3.58-6.22,6.32-21.83,1.77-89-3.45-96.58C606.9,423.61,562.16,420.25,510,420.25Z" transform="translate(-394.65 -418.2)"/><path class="cls-3" d="M430.9,442.34a200,200,0,0,0-2.31,26.75c36.46,1.89,147.31-.78,188.06-1.87-.55-9.52-1.41-18.46-2.45-25.56C580.6,440.33,464.73,441.85,430.9,442.34Z" transform="translate(-394.65 -418.2)"/><path class="cls-2" d="M467.38,470.77h0c-17.34,0-30.41-.22-38.84-.66a1,1,0,0,1-1-1,200,200,0,0,1,2.32-26.89,1,1,0,0,1,1-.86c25.43-.36,89.71-1.21,137.22-1.21,21.68,0,37.21.18,46.14.53a1,1,0,0,1,1,.88c1.06,7.22,1.91,16.09,2.46,25.65a1,1,0,0,1-1,1.08C588.11,469,516.37,470.77,467.38,470.77Zm-37.74-2.66c8.42.4,21.11.61,37.74.61,48.37,0,118.94-1.72,148.19-2.49-.52-8.62-1.32-16.91-2.26-23.57-9-.33-24.22-.5-45.2-.5-47,0-110.34.83-136.33,1.2A198.58,198.58,0,0,0,429.65,468.11Z" transform="translate(-394.65 -418.2)"/><path class="cls-4" d="M445.27,454.25c-4.52,2.05-8.8,5.35-12.7,8.4-.58.45.16,1.35.77,1,4.27-2.49,8.89-5.26,12.47-8.7C446.19,454.57,445.71,454,445.27,454.25Z" transform="translate(-394.65 -418.2)"/><path class="cls-4" d="M459.78,451.82c-7.77,3-15,7.55-21.84,12.31-.35.24,0,.81.34.58,7.16-4.26,14.63-7.89,21.89-12C460.66,452.46,460.33,451.6,459.78,451.82Z" transform="translate(-394.65 -418.2)"/><path class="cls-4" d="M472.77,451.76a103.82,103.82,0,0,0-25.23,13.4c-.43.3,0,1,.42.72a186.64,186.64,0,0,1,25.25-13.08C473.8,452.54,473.38,451.56,472.77,451.76Z" transform="translate(-394.65 -418.2)"/><path class="cls-4" d="M489.18,451.11a198,198,0,0,0-27.35,12.61c-.6.33-.07,1.18.53.9q13.59-6.35,27.2-12.62C490.06,451.77,489.7,450.91,489.18,451.11Z" transform="translate(-394.65 -418.2)"/><path class="cls-4" d="M508.7,449.84A216.77,216.77,0,0,0,478,465.19a.48.48,0,0,0,.49.83c10-5.44,20.34-10.37,30.61-15.34C509.53,450.46,509.19,449.64,508.7,449.84Z" transform="translate(-394.65 -418.2)"/><path class="cls-4" d="M525.15,453.36a200,200,0,0,0-26.44,11.32c-.5.26-.14,1.14.39.92,8.88-3.61,17.66-7.49,26.37-11.48C525.9,453.93,525.6,453.21,525.15,453.36Z" transform="translate(-394.65 -418.2)"/><path class="cls-4" d="M549,450.44c-10.66,3.28-20.63,8.45-30.2,14.11a.61.61,0,0,0,.61,1.05c9.71-5.38,19.87-9.69,30-14.24C549.94,451.13,549.56,450.28,549,450.44Z" transform="translate(-394.65 -418.2)"/><path class="cls-4" d="M564.79,452a133.79,133.79,0,0,0-24.1,10.19c-.62.32-.07,1.24.54.93C549,459.2,557,456,565,452.71,565.45,452.53,565.29,451.81,564.79,452Z" transform="translate(-394.65 -418.2)"/><path class="cls-4" d="M581.53,451.21A123.88,123.88,0,0,0,558.76,461c-.74.4-.09,1.5.66,1.12a236.37,236.37,0,0,1,22.41-9.89C582.46,452,582.22,451,581.53,451.21Z" transform="translate(-394.65 -418.2)"/><path class="cls-4" d="M598.6,450.77a141.21,141.21,0,0,0-21.74,9.54c-.88.46-.1,1.78.78,1.33,7-3.61,14.19-6.71,21.39-9.84C599.61,451.55,599.19,450.58,598.6,450.77Z" transform="translate(-394.65 -418.2)"/><path class="cls-4" d="M609.49,453c-5.47,1.8-10.68,4.15-16,6.44-.93.4-.25,2,.69,1.64,5.33-2.18,10.65-4.27,15.76-6.94A.63.63,0,0,0,609.49,453Z" transform="translate(-394.65 -418.2)"/><path class="cls-4" d="M612.6,458.62a47.1,47.1,0,0,0-7.14,3.2c-1,.55-.13,2,.91,1.55s2.32-1.06,3.46-1.64a30.08,30.08,0,0,0,3.22-2.06C613.56,459.32,613.25,458.39,612.6,458.62Z" transform="translate(-394.65 -418.2)"/><path class="cls-5" d="M589.8,426.47c-6.55-1.3-13.37-1.45-20-2-7.85-.61-15.82-1.44-23.7-1.26-.77,0-1,1.24-.19,1.39,6.57,1.14,13.3,1.57,19.94,2.13,7.83.66,15.83,1.92,23.69,1.76C590.67,428.5,591,426.71,589.8,426.47Z" transform="translate(-394.65 -418.2)"/><path class="cls-5" d="M604.58,427.8a42.73,42.73,0,0,0-9.91-.48c-.73.08-1,1.23-.19,1.39a43.43,43.43,0,0,0,10.1.31A.61.61,0,0,0,604.58,427.8Z" transform="translate(-394.65 -418.2)"/><path class="cls-5" d="M403.67,466.36C393.51,478.08,391,560.3,408.28,573s156.77,5.19,168.87,0,6.92-95.1.58-104.32S411.17,457.71,403.67,466.36Z" transform="translate(-394.65 -418.2)"/><path class="cls-2" d="M473.12,581h0c-25.39,0-57.36-1.24-65.44-7.17-7.24-5.31-10.41-21.08-11.79-33.37-3.29-29.23.25-67,7-74.75,4.81-5.55,58.06-6,74.26-6,38.45,0,97.19,2.23,101.42,8.38,5.5,8,10.36,75.39,3.73,98.31-1.22,4.23-2.78,6.7-4.74,7.54C570.37,577,518.44,581,473.12,581Zm4-119.23c-46.81,0-70.51,2.74-72.71,5.28-6.34,7.32-9.7,44.94-6.52,73.18,1.89,16.8,5.78,28.15,11,31.95,6,4.37,28.77,6.77,64.23,6.77h0c45.1,0,96.61-3.88,103.63-6.89.93-.4,2.3-1.8,3.58-6.22,6.32-21.83,1.77-89-3.45-96.57C574,465.11,529.31,461.75,477.16,461.75Z" transform="translate(-394.65 -418.2)"/><path class="cls-6" d="M413.47,506.7c-3.89,4.87-5.76,20.17,1.15,25.94s31.12,2.88,35.73.58,2.31-23.63-1.73-28.24S418.08,500.94,413.47,506.7Z" transform="translate(-394.65 -418.2)"/><path class="cls-7" d="M430.37,537h0c-5.5,0-12.82-.63-16.4-3.61-7.47-6.23-5.45-22.17-1.3-27.36,2.87-3.58,12.69-5.19,21.16-5.19,3,0,12.8.25,15.58,3.42,3.55,4.06,5.43,18.21,4.08,25.11-.49,2.5-1.39,4.09-2.66,4.72C448.07,535.51,439,537,430.37,537Zm3.46-34.11c-9.28,0-17.51,1.86-19.55,4.42-3.55,4.44-5.38,19.18,1,24.51,2.43,2,7.78,3.14,15.09,3.14,8.77,0,17.29-1.57,19.53-2.69.65-.32,1.22-1.52,1.57-3.28,1.33-6.75-.73-20.07-3.61-23.36C446.43,504,440.79,502.93,433.83,502.93Z" transform="translate(-394.65 -418.2)"/><path class="cls-8" d="M408.48,543.06a11.31,11.31,0,0,0-3.31,1.6,12.13,12.13,0,0,0-3.22,2.56.42.42,0,0,0,.5.65,29.79,29.79,0,0,0,3.39-2.06,28.62,28.62,0,0,0,3.12-1.92C409.38,543.56,408.93,543,408.48,543.06Z" transform="translate(-394.65 -418.2)"/><path class="cls-8" d="M416.11,545.65a41.22,41.22,0,0,0-11.86,6.92c-.41.34.12,1,.55.72,3.89-2.27,7.78-4.46,11.76-6.57C417.14,546.42,416.74,545.42,416.11,545.65Z" transform="translate(-394.65 -418.2)"/><path class="cls-8" d="M433.53,543.25c-9.4,4.86-18.63,10.27-27.59,15.9a.61.61,0,0,0,.61,1.05c9.39-4.87,18.74-10.09,27.69-15.73A.71.71,0,0,0,433.53,543.25Z" transform="translate(-394.65 -418.2)"/><path class="cls-8" d="M458.13,540.46a263.52,263.52,0,0,0-44.5,25.82c-.45.33-.06,1,.44.76,14.88-8.52,29.82-16.94,44.72-25.43C459.56,541.17,458.9,540.11,458.13,540.46Z" transform="translate(-394.65 -418.2)"/><path class="cls-8" d="M466.67,544.22a458.61,458.61,0,0,0-45.74,25.7.35.35,0,0,0,.36.61,459,459,0,0,0,45.93-25.37A.55.55,0,0,0,466.67,544.22Z" transform="translate(-394.65 -418.2)"/><path class="cls-8" d="M478.55,552.56c-15.67,5.45-30.65,13.59-44.92,22a.72.72,0,0,0,.73,1.25c14.6-8,29.75-14.74,44.61-22.22A.56.56,0,0,0,478.55,552.56Z" transform="translate(-394.65 -418.2)"/><path class="cls-8" d="M492.86,558.23c-12.56,5-24.78,10.88-37,16.72-.89.43-.11,1.72.77,1.31,12.25-5.6,24.62-10.92,36.73-16.82C494,559.12,493.56,558,492.86,558.23Z" transform="translate(-394.65 -418.2)"/><path class="cls-8" d="M510.07,559.56c-12.33,4.31-24,10.34-35.31,16.87a.51.51,0,0,0,.51.87c11.55-6,23.45-11.2,35.25-16.68C511.11,560.33,510.69,559.34,510.07,559.56Z" transform="translate(-394.65 -418.2)"/><path class="cls-8" d="M523,563.39a101.69,101.69,0,0,0-21.65,9.79.76.76,0,0,0,.77,1.31c7-3.65,14.23-6.61,21.46-9.74C524.34,564.41,523.78,563.16,523,563.39Z" transform="translate(-394.65 -418.2)"/><path class="cls-8" d="M536.71,566a57.08,57.08,0,0,0-20.34,8.91.86.86,0,0,0,.87,1.48,170.91,170.91,0,0,1,19.86-9.47C537.65,566.64,537.23,565.85,536.71,566Z" transform="translate(-394.65 -418.2)"/><path class="cls-8" d="M548,566.29a67.52,67.52,0,0,0-14.52,6.89.63.63,0,0,0,.64,1.09c4.67-2.49,9.53-4.69,14.36-6.84C549.12,567.15,548.66,566.08,548,566.29Z" transform="translate(-394.65 -418.2)"/><path class="cls-8" d="M559.64,567.39a65.86,65.86,0,0,0-13.14,6.87.6.6,0,0,0,.61,1c4.25-2.45,8.69-4.5,13-6.84C560.66,568.14,560.27,567.16,559.64,567.39Z" transform="translate(-394.65 -418.2)"/><path class="cls-8" d="M570.39,569a15.28,15.28,0,0,0-6.88,2.4c-.75.49-.07,1.68.7,1.2a25.88,25.88,0,0,1,6.27-2.91C570.86,569.59,570.8,569,570.39,569Z" transform="translate(-394.65 -418.2)"/><path class="cls-9" d="M428.11,510.83a15.32,15.32,0,0,0-4.55-.34,37.28,37.28,0,0,0-5.28.27,1.17,1.17,0,0,0,0,2.24,32.22,32.22,0,0,0,4.57.26,17.83,17.83,0,0,0,5.26-.34A1.09,1.09,0,0,0,428.11,510.83Z" transform="translate(-394.65 -418.2)"/><path class="cls-9" d="M427.68,518.36a18.52,18.52,0,0,0-4.78.21,23.59,23.59,0,0,0-5.86.88.73.73,0,0,0,0,1.39,23.16,23.16,0,0,0,5.86.29,35.49,35.49,0,0,0,4-.06.84.84,0,0,0,.53.17C429,521.2,429.25,518.63,427.68,518.36Z" transform="translate(-394.65 -418.2)"/><path class="cls-9" d="M428.47,526.35c-1.53-1.27-3.62-1-5.53-1s-4.47-.14-6,1.08a.4.4,0,0,0,.08.63c1.47.9,3.45.61,5.12.75,2,.17,4.33.88,6.17-.07A.88.88,0,0,0,428.47,526.35Z" transform="translate(-394.65 -418.2)"/><path class="cls-9" d="M447.25,510.83a15.32,15.32,0,0,0-4.55-.34,37.28,37.28,0,0,0-5.28.27,1.17,1.17,0,0,0,0,2.24,32.22,32.22,0,0,0,4.57.26,17.83,17.83,0,0,0,5.26-.34A1.09,1.09,0,0,0,447.25,510.83Z" transform="translate(-394.65 -418.2)"/><path class="cls-9" d="M446.83,518.36a18.52,18.52,0,0,0-4.78.21,23.59,23.59,0,0,0-5.86.88.73.73,0,0,0,0,1.39,23.16,23.16,0,0,0,5.86.29,35.49,35.49,0,0,0,4-.06.84.84,0,0,0,.53.17C448.17,521.2,448.39,518.63,446.83,518.36Z" transform="translate(-394.65 -418.2)"/><path class="cls-9" d="M447.62,526.35c-1.53-1.27-3.62-1-5.53-1s-4.47-.14-6,1.08a.4.4,0,0,0,.08.63c1.47.9,3.45.61,5.12.75,2,.17,4.33.88,6.17-.07A.88.88,0,0,0,447.62,526.35Z" transform="translate(-394.65 -418.2)"/><path class="cls-9" d="M432.62,511a.64.64,0,0,0-1.26.17c0,2.64.16,5.26,0,7.89s-1.16,5.43-.73,8.11c.15.91,1.36.85,1.79.23,1.37-2,1.34-4.84,1.41-7.21A25,25,0,0,0,432.62,511Z" transform="translate(-394.65 -418.2)"/><path class="cls-8" d="M558,468.69c-6.64-1.64-14.07-1.1-20.88-1.35-7.89-.29-15.65-1.13-23.51-1.8-.56,0-.6.76-.13.93,6.9,2.38,14.43,2.72,21.66,3.23,7.42.52,15.46,1.95,22.86.94C559.05,470.5,558.94,468.91,558,468.69Z" transform="translate(-394.65 -418.2)"/><path class="cls-8" d="M573.58,471.81c-2.55-1.59-5.72-1.9-8.65-2.2-1.29-.13-1.57,2-.3,2.25,2.82.55,5.59,1.6,8.46,1.79C574.11,473.72,574.37,472.31,573.58,471.81Z" transform="translate(-394.65 -418.2)"/></svg>