<svg id="Layer_1" data-name="Layer 1" xmlns="http://www.w3.org/2000/svg" xmlns:xlink="http://www.w3.org/1999/xlink" viewBox="0 0 168.24 155.37"><defs><style>.cls-1{fill:none;}.cls-2{clip-path:url(#clip-path);}</style><clipPath id="clip-path" transform="translate(-427 -435)"><rect class="cls-1" x="427" y="435" width="168.96" height="156"/></clipPath></defs><title>credit-card</title><g class="cls-2"><path d="M457.75,590.37a12.23,12.23,0,0,1-11.69-8.65L427.53,521a12.23,12.23,0,0,1,8.12-15.24L464,497.11V446.47A11.48,11.48,0,0,1,475.44,435H583.77a11.48,11.48,0,0,1,11.46,11.47v65a11.48,11.48,0,0,1-11.46,11.47H565.35l6.26,20.5a12.22,12.22,0,0,1-8.12,15.25L461.3,589.83a12.08,12.08,0,0,1-3.55.54Zm-18.41-47.12,11.31,37.07a7.42,7.42,0,0,0,9.25,4.93l102.2-31.18a7.42,7.42,0,0,0,4.92-9.25l-6.55-21.47H545.69l2.3,7.52a2.39,2.39,0,0,1-1.59,3l-85.6,26.23a2.4,2.4,0,0,1-3-1.59l-2.73-8.92a2.4,2.4,0,0,1,1.59-3l75.83-23.24H504.26Zm21,7.21,1.33,4.34,81-24.83-1.33-4.33Zm-27.1-27.14,4.68,15.34,49.95-15.32H476.18a12.17,12.17,0,0,1-8.66-3.61,11.47,11.47,0,0,1-3.28-5.83ZM464,502.13l-26.92,8.21a7.42,7.42,0,0,0-5.14,8.37L464,509Zm6.91,14.17a6.65,6.65,0,0,0,4.56,1.8H583.77a6.67,6.67,0,0,0,6.66-6.67v-65a6.67,6.67,0,0,0-6.66-6.66H475.44a6.67,6.67,0,0,0-6.67,6.66v64.66a7.39,7.39,0,0,0,2.11,5.18Zm110.19-17.84h-16.8a2.4,2.4,0,1,1,0-4.8h16.8a2.4,2.4,0,1,1,0,4.8Zm-28.54,0h-16.8a2.4,2.4,0,0,1,0-4.8h16.8a2.4,2.4,0,1,1,0,4.8Zm-28.53,0H507.2a2.4,2.4,0,1,1,0-4.8H524a2.4,2.4,0,0,1,0,4.8Zm-28.54,0h-16.8a2.4,2.4,0,0,1,0-4.8h16.8a2.4,2.4,0,0,1,0,4.8Zm-4-17.11h-8.83a6.39,6.39,0,0,1-6.38-6.38v-7.23a6.39,6.39,0,0,1,6.38-6.38h8.83a6.39,6.39,0,0,1,6.38,6.38V475a6.39,6.39,0,0,1-6.38,6.38Zm-8.83-15.2a1.58,1.58,0,0,0-1.58,1.58V475a1.58,1.58,0,0,0,1.58,1.59h8.83a1.59,1.59,0,0,0,1.59-1.59v-7.23a1.59,1.59,0,0,0-1.59-1.58Zm0,0" transform="translate(-427 -435)"/></g></svg>