<svg id="Layer_1" data-name="Layer 1" xmlns="http://www.w3.org/2000/svg" viewBox="0 0 312.09 385.94"><defs><style>.cls-1{fill:#fff;}</style></defs><title>delete</title><path class="cls-1" d="M623,365.22H562.93a52.23,52.23,0,0,0-103.76,0H399.09A44.14,44.14,0,0,0,355,409.31v2.26a44.13,44.13,0,0,0,27.86,41V660.82A44.14,44.14,0,0,0,427,704.92H595.14a44.14,44.14,0,0,0,44.09-44.09V452.53a44.13,44.13,0,0,0,27.86-41v-2.26A44.14,44.14,0,0,0,623,365.22ZM511,339.89a31.39,31.39,0,0,1,30.75,25.33H480.3A31.39,31.39,0,0,1,511,339.89ZM618.32,660.83A23.21,23.21,0,0,1,595.14,684H427a23.21,23.21,0,0,1-23.18-23.18V455.66H618.32Zm27.86-249.26A23.21,23.21,0,0,1,623,434.75H399.09a23.21,23.21,0,0,1-23.18-23.18v-2.26a23.21,23.21,0,0,1,23.18-23.18H623a23.21,23.21,0,0,1,23.18,23.18Zm0,0" transform="translate(-355 -318.98)"/><path class="cls-1" d="M455,657.27a10.45,10.45,0,0,0,10.45-10.45V529.09a10.46,10.46,0,1,0-20.91,0V646.81A10.46,10.46,0,0,0,455,657.27Zm0,0" transform="translate(-355 -318.98)"/><path class="cls-1" d="M511,657.27a10.46,10.46,0,0,0,10.46-10.45V529.09a10.46,10.46,0,1,0-20.91,0V646.81A10.45,10.45,0,0,0,511,657.27Zm0,0" transform="translate(-355 -318.98)"/><path class="cls-1" d="M567.1,657.27a10.46,10.46,0,0,0,10.46-10.45V529.09a10.46,10.46,0,1,0-20.91,0V646.81a10.45,10.45,0,0,0,10.45,10.45Zm0,0" transform="translate(-355 -318.98)"/></svg>