<svg id="Layer_1" data-name="Layer 1" xmlns="http://www.w3.org/2000/svg" viewBox="0 0 161.33 193.21"><defs><style>.cls-1{fill:#232323;}</style></defs><title>edit-profile</title><path class="cls-1" d="M428.66,636.66a86.2,86.2,0,0,0-80.22,54.08,6,6,0,1,0,11.12,4.51,74.54,74.54,0,0,1,138.2,0,6,6,0,0,0,11.12-4.51,86.21,86.21,0,0,0-80.23-54.08Zm0,0" transform="translate(-348 -505.79)"/><path class="cls-1" d="M428.66,618.46a56.34,56.34,0,1,0-56.33-56.34,56.4,56.4,0,0,0,56.33,56.34Zm0-100.67a44.34,44.34,0,1,1-44.33,44.34,44.38,44.38,0,0,1,44.33-44.34Zm0,0" transform="translate(-348 -505.79)"/></svg>