<svg id="users" xmlns="http://www.w3.org/2000/svg" viewBox="0 0 59.88 64"><defs><style>.cls-1{fill:#57585b;}</style></defs><title>guests</title><path class="cls-1" d="M470.07,308.13a11,11,0,1,0-11-11A11,11,0,0,0,470.07,308.13Zm0-18a7,7,0,1,1-7,7A7,7,0,0,1,470.07,290.13Z" transform="translate(-448.07 -286.13)"/><path class="cls-1" d="M486,304.13a7,7,0,0,1-1.46-.16,2,2,0,0,0-.83,3.91,11,11,0,1,0,0-21.51,2,2,0,0,0,.83,3.91A7,7,0,1,1,486,304.13Z" transform="translate(-448.07 -286.13)"/><path class="cls-1" d="M492.07,332.13a22,22,0,0,0-44,0,2,2,0,0,0,2,2h8v14a2,2,0,0,0,2,2h20a2,2,0,0,0,2-2v-14h8A2,2,0,0,0,492.07,332.13Zm-12-2a2,2,0,0,0-2,2v14h-16v-14a2,2,0,0,0-2-2h-7.89a18,18,0,0,1,35.78,0Z" transform="translate(-448.07 -286.13)"/><path class="cls-1" d="M489.18,310.39a2,2,0,1,0-.58,4,17.83,17.83,0,0,1,15.24,15.78H496a2,2,0,0,0-2,2v14h-6a2,2,0,0,0,0,4h8a2,2,0,0,0,2-2v-14h8a2,2,0,0,0,2-2A21.82,21.82,0,0,0,489.18,310.39Z" transform="translate(-448.07 -286.13)"/></svg>