<svg id="holidays" xmlns="http://www.w3.org/2000/svg" viewBox="0 0 64 56"><defs><style>.cls-1{fill:#fff;}</style></defs><title>heart</title><path class="cls-1" d="M368.87,292.78a18,18,0,0,0-25.45,0c-.44.44-.87.88-1.28,1.34-.39-.45-.81-.88-1.27-1.34a18,18,0,1,0-25.46,25.38l23.91,24.19a4,4,0,0,0,5.65,0l23.9-24.18a17.91,17.91,0,0,0,0-25.39ZM366,315.35l-23.89,24.17-23.9-24.18A14,14,0,0,1,338,295.62a12.62,12.62,0,0,1,2.33,2.88,2,2,0,0,0,3.5,0,13,13,0,0,1,2.37-2.88A14,14,0,1,1,366,315.35Z" transform="translate(-310.14 -287.53)"/></svg>