<svg id="Layer_1" data-name="Layer 1" xmlns="http://www.w3.org/2000/svg" viewBox="0 0 84.87 55"><defs><style>.cls-1{fill:#fff;}.cls-2{fill:#d97b61;}</style></defs><title>wallet</title><path class="cls-1" d="M346.84,177.06h-80.5a2.18,2.18,0,0,0-2.19,2.19v50.63a2.18,2.18,0,0,0,2.19,2.18h80.5a2.18,2.18,0,0,0,2.19-2.18V179.25a2.18,2.18,0,0,0-2.19-2.19Z" transform="translate(-264.15 -177.06)"/><path class="cls-2" d="M313,206.51a9.07,9.07,0,0,1,15.83-7.75h5.26a13.54,13.54,0,0,0-25.13,1.69l.34.61A30.34,30.34,0,0,0,313,206.51Zm15.87,3.81a9.06,9.06,0,0,1-7,3.31,8.84,8.84,0,0,1-2.24-.28h0c-.51-.05-5.46-.86-10.94-10.45-4.67-8.17-9.42-11-12.85-11.51a13.54,13.54,0,1,0,9.57,17.78c-.7-1-2.59-4.09-3.74-5.81a9.35,9.35,0,0,1,.08,1.2,9.1,9.1,0,1,1-7.19-8.87c1,.22,5.58,1.62,9.57,8.59,4.19,7.35,9.4,12.47,14,13.28a13.53,13.53,0,0,0,16-7.24Z" transform="translate(-264.15 -177.06)"/></svg>