<svg id="Layer_1" data-name="Layer 1" xmlns="http://www.w3.org/2000/svg" viewBox="0 0 49.5 36.7"><defs><style>.cls-1{fill:none;stroke:#1f2427;stroke-miterlimit:10;stroke-width:1.5px;}.cls-2{fill:#1f2427;}</style></defs><title>loc</title><rect class="cls-1" x="0.75" y="0.75" width="48" height="35.2" rx="3.5" ry="3.5"/><path class="cls-2" d="M514.9,513.49a4.12,4.12,0,0,1,7.2-3.52h2.39a6.16,6.16,0,0,0-11.42.77l.15.28A13.79,13.79,0,0,0,514.9,513.49Zm7.22,1.73a4.12,4.12,0,0,1-3.19,1.51,4,4,0,0,1-1-.13h0c-.23,0-2.48-.39-5-4.75-2.12-3.71-4.28-5-5.84-5.23a6.16,6.16,0,1,0,4.35,8.08c-.32-.47-1.18-1.86-1.7-2.64a4.25,4.25,0,0,1,0,.54,4.14,4.14,0,1,1-3.27-4c.44.1,2.54.73,4.35,3.91,1.9,3.34,4.27,5.67,6.35,6a6.15,6.15,0,0,0,7.29-3.29Z" transform="translate(-487.25 -494.25)"/></svg>