<svg id="Layer_1" data-name="Layer 1" xmlns="http://www.w3.org/2000/svg" viewBox="0 0 84.87 55"><defs><style>.cls-1{fill:#8d8d8d;}</style></defs><title>mastercard</title><path class="cls-1" d="M286.76,200.92a8,8,0,0,0-2.8.51l-.34,2a7.27,7.27,0,0,1,2.52-.41c.87,0,1.5.1,1.5.8a1.59,1.59,0,0,1-.07.59s-.68-.06-1-.06c-2,0-4.12.85-4.12,3.43a2.2,2.2,0,0,0,2.24,2.5,3,3,0,0,0,2.38-1.06l-.08.89h2l.91-6.38c0-2.71-2.37-2.8-3.19-2.8Zm-1.14,7.42a.84.84,0,0,1-.9-.87c0-.64.35-1.4,2-1.4a1.33,1.33,0,0,1,.51.06c0,.39-.24,2.22-1.64,2.22Zm7.25-4.52c0,1.16,2.76.59,2.76,3.47,0,3.08-3,3-3.51,3a7.3,7.3,0,0,1-2.6-.29l.31-2a7.19,7.19,0,0,0,2.06.36c.62,0,1.43-.07,1.43-.81,0-1.12-2.9-.85-2.9-3.51,0-2.35,1.74-3,3.46-3a10.79,10.79,0,0,1,2.14.18l-.29,2s-1.25-.11-1.58-.11c-.83,0-1.28.18-1.28.76Zm5.5,3.53c-.05.32,0,.75.84.75.2,0,.44-.07.6-.07l-.29,2a6,6,0,0,1-1.74.31,1.73,1.73,0,0,1-1.85-2c0-.92,1.32-8.5,1.37-8.55h2.32l-.23,1.35h1.15l-.29,2.19H299Zm8.94-1a16.47,16.47,0,0,0,.31-2.11,3.11,3.11,0,0,0-3.31-3.39c-2.33,0-4.06,2.52-4.06,5.36,0,3.27,2.16,4,4,4a6,6,0,0,0,2.45-.37l.41-2.24a7.3,7.3,0,0,1-2.47.57c-2.49,0-2.05-1.86-2.05-1.86Zm-3-3.43c1.31,0,1.07,1.47,1.07,1.59h-2.58c0-.15.24-1.59,1.5-1.59Zm-21-3.89-1.83,11.05h-2.37l1.32-8.33-3,8.33h-1.6l-.21-8.33-1.42,8.33H272l1.86-11.05h3.38l.13,6.78,2.28-6.78Zm29.34-1.45h-12c.12-.23.54-1.14,1.17-2.33h9.93a23.43,23.43,0,0,1,.94,2.33ZM310.44,193H303c.48-.79,1-1.59,1.56-2.33h4.14a22,22,0,0,1,1.7,2.33Zm-3.85,27.73a22.33,22.33,0,0,1-2.23-2.39h4.5a21.13,21.13,0,0,1-2.21,2.33h0l-.05,0Zm3.87-4.63h-7.73a21.35,21.35,0,0,1-1.28-2.33h10.28a21.61,21.61,0,0,1-1.27,2.33Zm2.76-15a9,9,0,0,0-.87,2.69c-1.61-.57-1.73,2.55-2.41,6.39h-2.39l1.45-9h2.16l-.2,1.3s.76-1.42,1.81-1.42a2.49,2.49,0,0,1,.45,0Zm4.29,7a5.56,5.56,0,0,0,1.92-.57L319,210a10.79,10.79,0,0,1-2,.32c-2.77,0-4.18-1.91-4.18-4.8,0-4.37,2.61-6.68,5.28-6.68a8.35,8.35,0,0,1,2.61.56l-.37,2.46a4.14,4.14,0,0,0-2.13-.67c-1.57,0-3,1.51-3,4.25,0,1.35.66,2.61,2.3,2.61Zm22.64.8a.58.58,0,0,0-.26.26.67.67,0,0,0-.09.35.66.66,0,0,0,.09.34.64.64,0,0,0,.26.26.78.78,0,0,0,.35.1.8.8,0,0,0,.35-.1.62.62,0,0,0,.26-.26.66.66,0,0,0,.1-.34.67.67,0,0,0-.1-.35.65.65,0,0,0-.26-.26.72.72,0,0,0-.69,0Zm.85.32a.58.58,0,0,1,.08.29.59.59,0,0,1-.08.29.54.54,0,0,1-.21.22.58.58,0,0,1-.59,0,.57.57,0,0,1-.22-.22.61.61,0,0,1-.07-.29.51.51,0,0,1,.08-.29.53.53,0,0,1,.22-.22.61.61,0,0,1,.29-.07.58.58,0,0,1,.29.07.49.49,0,0,1,.22.22Zm-9.41-2.67c0,1.9.94,3.76,2.88,3.76a2.9,2.9,0,0,0,2.16-1l-.1.82h2.25l1.78-11h-2.33l-.5,3.1a3.06,3.06,0,0,0-2.24-1.21c-2.13,0-3.9,2.57-3.9,5.51Zm5.55-1.36c0,1.22-.61,2.86-1.86,2.86-.83,0-1.22-.7-1.22-1.8,0-1.8.81-3,1.83-3,.84,0,1.26.58,1.26,1.92Zm3.77,11.62a.11.11,0,0,0-.06,0,.28.28,0,0,0,.15-.07.22.22,0,0,0,.06-.15.23.23,0,0,0,0-.11.17.17,0,0,0-.1-.07.58.58,0,0,0-.19,0h-.26V217h.12v-.32h.07a.16.16,0,0,1,.1,0,.46.46,0,0,1,.13.17l.07.12h.15l-.09-.15a.69.69,0,0,0-.12-.15Zm-.16-.13h-.15v-.23h.14l.13,0,.05,0a.18.18,0,0,1,0,.06.12.12,0,0,1,0,.09.25.25,0,0,1-.15,0Zm6.08-39.55h-80.5a2.18,2.18,0,0,0-2.19,2.19v50.63a2.18,2.18,0,0,0,2.19,2.18h80.5a2.18,2.18,0,0,0,2.19-2.18V179.25a2.18,2.18,0,0,0-2.19-2.19ZM341.41,217a.7.7,0,0,1-1,.26.68.68,0,0,1-.26-.26.72.72,0,0,1-.1-.35.76.76,0,0,1,.1-.35.69.69,0,0,1,.26-.26.67.67,0,0,1,.35-.1.75.75,0,0,1,.35.1.61.61,0,0,1,.26.26.71.71,0,0,1,.1.35.76.76,0,0,1-.09.35ZM343,204.56a21.78,21.78,0,0,1-36.39,16.16,21.78,21.78,0,1,1-14.74-37.94H292a21.72,21.72,0,0,1,14.6,5.63A21.78,21.78,0,0,1,343,204.55Zm-2.79,4.51v.76h.13v-.32h.07a.2.2,0,0,1,.1,0,.68.68,0,0,1,.12.18l.07.12h.15l-.09-.15a1,1,0,0,0-.11-.15l-.07,0a.22.22,0,0,0,.15-.07.18.18,0,0,0,.07-.14.18.18,0,0,0,0-.11.18.18,0,0,0-.09-.07.43.43,0,0,0-.19,0Zm.43.16a.07.07,0,0,1,0,.06.12.12,0,0,1,0,.08.25.25,0,0,1-.15,0h-.15v-.23h.14l.13,0a.09.09,0,0,1,0,0Zm-16.26-8.32a8,8,0,0,0-2.81.51l-.34,2a7.29,7.29,0,0,1,2.53-.41c.86,0,1.5.1,1.5.8a1.46,1.46,0,0,1-.08.59s-.68-.06-1-.06c-2,0-4.11.85-4.11,3.43a2.2,2.2,0,0,0,2.24,2.5,3,3,0,0,0,2.38-1.06l-.08.89h2l.91-6.38c0-2.71-2.36-2.8-3.18-2.8Zm-1.15,7.42a.84.84,0,0,1-.9-.87c0-.64.34-1.4,2-1.4a1.32,1.32,0,0,1,.51.06c0,.39-.24,2.22-1.64,2.22Zm8.61-4.59c-1.61-.57-1.73,2.55-2.41,6.39H327l1.44-9h2.16l-.21,1.3s.77-1.42,1.81-1.42a2.49,2.49,0,0,1,.45,0,8.78,8.78,0,0,0-.87,2.69Zm0,0" transform="translate(-264.15 -177.06)"/></svg>