<svg id="BACKGROUND_2" data-name="BACKGROUND 2" xmlns="http://www.w3.org/2000/svg" viewBox="0 0 54.52 59.51"><defs><style>.cls-1{fill:#fff;}.cls-2{fill:#223843;}</style></defs><title>no-favorites</title><path class="cls-1" d="M398.34,237.94c-2-2.78-7.48-1-10.16-.58-6.93,1.16-13.95,1.17-21,1.37-3.06.09-6.12.33-9.19.42-1.26,0-3.36-.36-4.55.42-2.75,1.8-1,6.53-.43,9.35a1.5,1.5,0,0,0,.56,2.89c12.67-.15,25.11-3.76,37.74-4.26,2.1-.08,6.67.3,8-2C400.19,244.08,399.33,239.31,398.34,237.94Z" transform="translate(-350.43 -229.97)"/><path class="cls-2" d="M404,257.89c-.3-7.42.07-15.4-1.39-22.69a1.1,1.1,0,0,0-2-.38c-.72-.06-1.44-.1-2.17-.13.56-.93-.23-2.88-.79-3.53a3.16,3.16,0,0,0-3.71-.91,4.13,4.13,0,0,0-2,3.83c0,.19,0,.42,0,.68l-1.09.06c.61-.91-.2-2.91-.77-3.57a3.16,3.16,0,0,0-3.71-.91,4.13,4.13,0,0,0-2,3.83c0,.29,0,.68,0,1.12l-1.21.1a4.44,4.44,0,0,0-.91-3.31,3.16,3.16,0,0,0-3.71-.91,4.13,4.13,0,0,0-2,3.83c0,.23,0,.54,0,.88l-.49,0a4.73,4.73,0,0,0-1-3.08,3.16,3.16,0,0,0-3.71-.91,4.13,4.13,0,0,0-2,3.83c0,.17,0,.38,0,.61l-.63,0a4.84,4.84,0,0,0-1-3,3.16,3.16,0,0,0-3.71-.91,4.13,4.13,0,0,0-2,3.83c0,.16,0,.37,0,.59l-1.17.1a4.59,4.59,0,0,0-.94-3.19,3.16,3.16,0,0,0-3.71-.91,4.13,4.13,0,0,0-2,3.83c0,.24,0,.55,0,.9l-2.72.28a.81.81,0,0,0-.2.06.68.68,0,0,0-.89.7c.15,9.1.55,18.19.92,27.28.3,7.42-.07,15.4,1.39,22.69a1.1,1.1,0,0,0,2,.38c7.48.58,15.39-.51,22.85-1,8.78-.55,17.56-1.15,26.31-2.12a.81.81,0,0,0,.2-.06.68.68,0,0,0,.89-.7C404.8,276.07,404.41,267,404,257.89Zm-10-24.9c.29-.82,1-1.53,1.95-1a2.41,2.41,0,0,1,1,2,2.77,2.77,0,0,0,.24.75q-1.68,0-3.37,0A4.1,4.1,0,0,1,394.06,233Zm-7.58.08c.29-.82,1-1.53,1.95-1a2.41,2.41,0,0,1,1,2,2.56,2.56,0,0,0,.31.87l-3.41.25A4.64,4.64,0,0,1,386.48,233.07Zm-7.83.83c.29-.82,1-1.53,1.95-1a2.41,2.41,0,0,1,1,2,2.87,2.87,0,0,0,.2.66l-3.32.25A4.29,4.29,0,0,1,378.65,233.9Zm-7.17.75c.29-.82,1-1.53,1.95-1a2.41,2.41,0,0,1,1,2,3.08,3.08,0,0,0,.11.41l-3.25.21A3.9,3.9,0,0,1,371.48,234.65Zm-7.33.58c.29-.82,1-1.53,1.95-1a2.41,2.41,0,0,1,1,2,3,3,0,0,0,.08.34l-3.22.24A3.85,3.85,0,0,1,364.15,235.24Zm-7.83.42c.29-.82,1-1.53,1.95-1a2.41,2.41,0,0,1,1,2,3,3,0,0,0,.15.55l-3.27.31A4.22,4.22,0,0,1,356.31,235.65Zm.13,7.36a.59.59,0,0,0,.51-.89,5.92,5.92,0,0,1-.6-2.8l5.87-.17c.22,1.66.77,3.34,2.06,3.44a.59.59,0,0,0,.51-.89,5.52,5.52,0,0,1-.59-2.62l5.41-.2c.25,1.55.8,3,2,3.12a.59.59,0,0,0,.51-.89,4.94,4.94,0,0,1-.57-2.31l5.3-.22c.28,1.37.84,2.58,1.93,2.67a.59.59,0,0,0,.51-.89,4.22,4.22,0,0,1-.53-1.86h.06c2-.08,4-.11,6-.15.32,1.11.86,2,1.78,2.06a.59.59,0,0,0,.51-.89,3.42,3.42,0,0,1-.44-1.2c1.9,0,3.8-.09,5.7-.18.31,1.17.86,2.11,1.82,2.19a.59.59,0,0,0,.51-.89,3.66,3.66,0,0,1-.48-1.42c2-.14,4.06-.37,6-.71a87.49,87.49,0,0,0,.2,10.58c-7.12-.38-14.58.6-21.63,1-8.59.54-17.17,1.13-25.72,2.07-.31-3.87-.66-7.74-1.08-11.6l2.33-.05C354.57,241.1,355.1,242.91,356.44,243Zm20.14,42.32c-7,.29-14.49,0-21.45,1.18.37-7.09-.61-14.51-1-21.53-.26-4.13-.53-8.27-.85-12.39,8.86-.16,17.72-.54,26.58-.9,6.8-.28,14.07,0,20.86-1.08.22,2.79.48,5.56.64,8.27.53,8.53,1.12,17.06,2,25.56C394.43,284.58,385.5,285,376.58,285.33Z" transform="translate(-350.43 -229.97)"/><path class="cls-1" d="M376.3,263.67c-3-3.4-9-3.69-11.41,1.14-3.88,7.76,9.14,13.53,14.73,15.07a1.25,1.25,0,0,0,1.61-1.1.76.76,0,0,0,1.36.52c4.19-4.91,13-13.48,6.54-20.31C384.41,254,378.33,258.6,376.3,263.67Zm12.47,1.51c-.15,5.25-4.9,8.92-7.42,13.17a.87.87,0,0,0-.12.41,1.1,1.1,0,0,0-.72-1.06c-4.1-1.87-9.61-3.58-12.52-7.24-2.17-2.73-1.05-6.54,2.62-7a5.45,5.45,0,0,1,5.15,2.47,1,1,0,0,0,.38.53c.24.35.47.71.68,1.07.33.57,1.29.14,1.17-.48a7.23,7.23,0,0,0-.22-.77,1,1,0,0,0,.15-.25c.82-2.41,1.87-5,4.39-6.11C386.14,258.3,388.88,261.58,388.77,265.18Z" transform="translate(-350.43 -229.97)"/></svg>