<svg id="Layer_1" data-name="Layer 1" xmlns="http://www.w3.org/2000/svg" xmlns:xlink="http://www.w3.org/1999/xlink" viewBox="0 0 38.68 44"><defs><style>.cls-1{fill:none;}.cls-2{clip-path:url(#clip-path);}.cls-3{fill:#1f2427;}</style><clipPath id="clip-path" transform="translate(-492 -490)"><rect class="cls-1" x="492" y="490" width="39" height="44"/></clipPath></defs><title>notifications</title><g class="cls-2"><path class="cls-3" d="M530.44,526.23a17.89,17.89,0,0,1-5.62-13V506A11.64,11.64,0,0,0,518,495.43a15.48,15.48,0,0,0-2.8-1V494a4,4,0,1,0-8,0v.53a16.38,16.38,0,0,0-2.52.91A12.1,12.1,0,0,0,497.6,506v7.2a17.75,17.75,0,0,1-5.37,13,.8.8,0,0,0,.43,1.36l7.59,1.31c1.41.25,2.71.45,4,.61a7.91,7.91,0,0,0,14.27,0c1.23-.16,2.53-.36,3.94-.61l7.59-1.31a.8.8,0,0,0,.43-1.36ZM508.8,494a2.4,2.4,0,0,1,4.8,0v.14a15.93,15.93,0,0,0-4.8,0Zm2.55,38.4a6.41,6.41,0,0,1-5.14-2.65,47.73,47.73,0,0,0,10.27,0,6.4,6.4,0,0,1-5.13,2.65Zm10.8-5.07c-1.54.26-2.94.48-4.27.65h0l-1.71.2h0l-1.5.13-.28,0-1.27.07h-.26c-1,0-2,0-3,0h-.27l-1.25-.07-.3,0-1.46-.12h-.05l-1.7-.2h0c-1.33-.17-2.75-.38-4.29-.65l-6.13-1.06a19.26,19.26,0,0,0,4.8-13.07V506a10.48,10.48,0,0,1,6.15-9.11,14.52,14.52,0,0,1,2.8-.95h0a14.53,14.53,0,0,1,6.06-.05h0a14.52,14.52,0,0,1,3.06,1,10.16,10.16,0,0,1,5.89,9.11v7.2a19.48,19.48,0,0,0,5.05,13.07Zm0,0" transform="translate(-492 -490)"/></g><path d="M516.33,499.07" transform="translate(-492 -490)"/></svg>