<svg id="Capa_1" data-name="Capa 1" xmlns="http://www.w3.org/2000/svg" viewBox="0 0 287.57 331.49"><defs><style>.cls-1{fill:#1f2427;}</style></defs><title>payment</title><path class="cls-1" d="M389.2,147.2,288,92.4c-9.6-5.2-22.8-1.2-28,8.4l-59.2,110h-72a16.22,16.22,0,0,0-16.4,16.4V256h0V405.2a16.22,16.22,0,0,0,16.4,16.4h230a16.22,16.22,0,0,0,16.4-16.4V363.6H382a6.32,6.32,0,0,0,6.4-6.4V309.6a6.32,6.32,0,0,0-6.4-6.4h-6.8V256.4a16.69,16.69,0,0,0-12.8-16l35.2-65.2A21,21,0,0,0,389.2,147.2Zm-72-24.4L254,240H236l67.6-124.4Zm-45.6-16a7.87,7.87,0,0,1,10.4-3.2l10,5.6L221.6,240h-22ZM128.4,223.6h65.2l-8.8,16H128.4a11.07,11.07,0,0,0-3.6.4V226.8A3.86,3.86,0,0,1,128.4,223.6ZM375.2,316v34.8h-38a6.32,6.32,0,0,1-6.4-6.4v-22a6.32,6.32,0,0,1,6.4-6.4h38Zm-38-12.8A19.2,19.2,0,0,0,318,322.4v22a19.2,19.2,0,0,0,19.2,19.2H362v41.6a3.59,3.59,0,0,1-3.6,3.6h-230a3.59,3.59,0,0,1-3.6-3.6V256.4h0a3.59,3.59,0,0,1,3.6-3.6H358a3.59,3.59,0,0,1,3.6,3.6v46.8H337.2ZM386,168.8,347.6,240H268.4l60-110.8,54.4,29.6C386.8,160.4,388,165.2,386,168.8Z" transform="translate(-112.4 -90.11)"/><path class="cls-1" d="M361.6,162.8l-3.2-1.6c-8-4.4-18.8-1.2-23.2,6.8l-4,7.6a16.85,16.85,0,0,0-1.2,13.2,16.11,16.11,0,0,0,8.4,10l3.2,1.6a18.21,18.21,0,0,0,8,2,18,18,0,0,0,15.2-8.8l4-7.6C372.8,177.6,369.6,167.2,361.6,162.8ZM357.2,180l-4,7.6a4.52,4.52,0,0,1-6,1.6l-3.2-2a5.88,5.88,0,0,1-2-2.4,3,3,0,0,1,.4-3.2l4-7.6a5.3,5.3,0,0,1,4-2.4,3.61,3.61,0,0,1,2,.4l3.2,1.6A6.22,6.22,0,0,1,357.2,180Z" transform="translate(-112.4 -90.11)"/></svg>