<svg xmlns="http://www.w3.org/2000/svg" viewBox="0 0 27.86 40"><defs><style>.cls-1{fill:#56585b;}</style></defs><title>Bunk</title><g id="Layer_2" data-name="Layer 2"><g id="Layer_1-2" data-name="Layer 1"><path class="cls-1" d="M27.13,40a.73.73,0,0,1-.73-.73V34.13H1.47v5.13a.73.73,0,1,1-1.47,0V33.4a.73.73,0,0,1,.73-.73h26.4a.73.73,0,0,1,.73.73v5.87A.73.73,0,0,1,27.13,40Z"/><path class="cls-1" d="M27.13,38.53H.73a.73.73,0,1,1,0-1.47h26.4a.73.73,0,0,1,0,1.47Z"/><path class="cls-1" d="M26.4,29.95V29a.73.73,0,1,1,1.47,0v4.4a.73.73,0,0,1-.58.72l-.15,0a.74.74,0,0,1-.67-.44"/><path class="cls-1" d="M1.4,33.7a.74.74,0,0,1-.67.44l-.15,0A.73.73,0,0,1,0,33.4V29a.73.73,0,1,1,1.47,0v.94"/><path class="cls-1" d="M27.13,29.33a.73.73,0,0,1-.73-.73V23.46H1.47v5.13a.73.73,0,1,1-1.47,0V22.73A.73.73,0,0,1,.73,22h26.4a.73.73,0,0,1,.73.73v5.87A.73.73,0,0,1,27.13,29.33Z"/><path class="cls-1" d="M27.13,27.86H.73a.73.73,0,1,1,0-1.47h26.4a.73.73,0,1,1,0,1.47Z"/><path class="cls-1" d="M27.13,23.46a.74.74,0,0,1-.67-.44L20.59,9.83a.73.73,0,0,1,1.34-.6l4.46,10v-.94a.73.73,0,1,1,1.47,0v4.4a.73.73,0,0,1-.58.72Z"/><path class="cls-1" d="M.73,23.46l-.15,0A.73.73,0,0,1,0,22.73v-4.4a.73.73,0,1,1,1.47,0v.94l4.46-10A.73.73,0,0,1,6.6,8.8H8.8a.73.73,0,1,1,0,1.47H7.08L1.4,23A.74.74,0,0,1,.73,23.46Z"/><path class="cls-1" d="M21.26,10.26h-2.2a.73.73,0,1,1,0-1.47h1.47V3.67a2.2,2.2,0,0,0-2.2-2.2H9.53a2.2,2.2,0,0,0-2.2,2.2V9.53a.73.73,0,0,1-1.47,0V3.67A3.67,3.67,0,0,1,9.53,0h8.8A3.67,3.67,0,0,1,22,3.67V9.53A.73.73,0,0,1,21.26,10.26Z"/><path class="cls-1" d="M17.4,13.2H10.46a2.2,2.2,0,0,1-2.18-2.47l.37-2.93a2.2,2.2,0,0,1,2.18-1.93H17a2.2,2.2,0,0,1,2.18,1.93l.37,2.93A2.2,2.2,0,0,1,17.4,13.2ZM10.83,7.33A.73.73,0,0,0,10.1,8h0l-.37,2.93a.73.73,0,0,0,.73.82H17.4a.73.73,0,0,0,.73-.82L17.76,8A.73.73,0,0,0,17,7.33Z"/><path class="cls-1" d="M16.93,21V39.49a.56.56,0,0,1-1.12,0V21a.56.56,0,0,1,1.12,0Zm7.27-.51a.54.54,0,0,0-.56.51V39.49a.56.56,0,0,0,1.12,0V21A.54.54,0,0,0,24.2,20.51Zm.22,9.87a.51.51,0,0,0-.53-.54H16.5a.54.54,0,0,0,0,1.09h7.4A.51.51,0,0,0,24.42,30.37Z"/></g></g></svg>