<svg xmlns="http://www.w3.org/2000/svg" viewBox="0 0 47.37 40"><defs><style>.cls-1{fill:#56585b;}</style></defs><title>Couch</title><g id="Layer_2" data-name="Layer 2"><g id="Layer_1-2" data-name="Layer 1"><path class="cls-1" d="M44.31,40a1,1,0,0,1-1-1V34.88a1,1,0,0,1,2,0V39A1,1,0,0,1,44.31,40ZM3.06,40a1,1,0,0,1-1-1V34.88a1,1,0,0,1,2,0V39A1,1,0,0,1,3.06,40Z"/><path class="cls-1" d="M42.82,35.88H4.5A4.5,4.5,0,0,1,0,31.38V30.29a2.59,2.59,0,0,1,.44-1.44,1.29,1.29,0,0,1-.1-1.19l4-9.65a1,1,0,0,1,.92-.62H42.13a1,1,0,0,1,.92.62l4,9.65a1.29,1.29,0,0,1-.1,1.19,2.59,2.59,0,0,1,.44,1.44v1A4.56,4.56,0,0,1,42.82,35.88ZM2.6,29.69a.61.61,0,0,0-.6.6v1.08a2.5,2.5,0,0,0,2.5,2.5H42.82a2.56,2.56,0,0,0,2.56-2.56v-1a.61.61,0,0,0-.61-.61Zm42.16-2h.11L41.46,19.4H5.91L2.49,27.69Z"/><path class="cls-1" d="M42.12,18.62a1,1,0,0,1-1-1V12.93c0-4.77-2.51-8.92-5.85-9.64a52.87,52.87,0,0,0-23.16,0C8.77,4,6.25,8.16,6.25,12.93v4.69a1,1,0,0,1-2,0V12.93c0-5.78,3.12-10.66,7.42-11.6a54.78,54.78,0,0,1,24,0c4.3.94,7.42,5.82,7.42,11.6v4.69A1,1,0,0,1,42.12,18.62Z"/><circle class="cls-1" cx="24.06" cy="10.54" r="1.23"/><circle class="cls-1" cx="15.53" cy="10.64" r="1.23"/><circle class="cls-1" cx="32.22" cy="10.54" r="1.23"/></g></g></svg>