<svg xmlns="http://www.w3.org/2000/svg" viewBox="0 0 33.5 40"><defs><style>.cls-1{fill:#56585b;}</style></defs><title>Crib</title><g id="Layer_2" data-name="Layer 2"><g id="Layer_1-2" data-name="Layer 1"><path class="cls-1" d="M31.83,22.08H1.66A1.72,1.72,0,0,1,.21,21.4a1.22,1.22,0,0,1-.12-1.15l2.84-7.5a1,1,0,0,1,.94-.65H29.75a1,1,0,0,1,.94.66l2.73,7.53a1.2,1.2,0,0,1-.13,1.11A1.72,1.72,0,0,1,31.83,22.08ZM31.53,21l0,.06ZM2,21v0Zm.33-.87H31.22l-2.17-6H4.56Z"/><path class="cls-1" d="M10.19,8.77,10,10.1a.63.63,0,0,0,.25.62.62.62,0,0,0,.66,0l1.19-.62,1.19.62a.62.62,0,0,0,.29.07.64.64,0,0,0,.37-.12.63.63,0,0,0,.25-.62l-.23-1.33,1-.94a.63.63,0,0,0-.35-1.07l-1.33-.19-.59-1.21a.65.65,0,0,0-1.13,0L10.9,6.57l-1.33.19a.63.63,0,0,0-.35,1.07Zm1.22-1a.62.62,0,0,0,.47-.34l.18-.35.18.35a.62.62,0,0,0,.47.34l.39.06-.28.28a.64.64,0,0,0-.18.56L12.7,9l-.35-.18a.62.62,0,0,0-.59,0L11.42,9l.07-.39a.64.64,0,0,0-.18-.56L11,7.82Zm0,0"/><path class="cls-1" d="M16.48,3.73l-.23,1.32a.63.63,0,0,0,.91.66l1.19-.62,1.19.62a.63.63,0,0,0,.29.07.64.64,0,0,0,.37-.12.63.63,0,0,0,.25-.61l-.23-1.32,1-.94a.63.63,0,0,0-.35-1.07l-1.33-.19L18.92.32a.65.65,0,0,0-1.13,0l-.59,1.2-1.33.19a.63.63,0,0,0-.51.43.62.62,0,0,0,.16.65Zm1.22-1a.63.63,0,0,0,.47-.34L18.36,2l.18.36a.63.63,0,0,0,.47.34l.39.06-.29.28a.64.64,0,0,0-.18.56L19,4l-.35-.19a.65.65,0,0,0-.59,0L17.71,4l.07-.39a.64.64,0,0,0-.18-.56l-.29-.28Zm0,0"/><path class="cls-1" d="M31.87,18a.63.63,0,0,0-.63.63v1.26a.63.63,0,0,1-.63.63H2.89a.63.63,0,0,1-.63-.63V18.58A.63.63,0,0,0,1.63,18h0a.63.63,0,0,0-.63.63V36.22a1.26,1.26,0,0,0,1.26,1.26h.63a.63.63,0,0,1,.63.63v1.26a.63.63,0,0,0,1.26,0V38.11a.63.63,0,0,1,.63-.63H28.09a.63.63,0,0,1,.63.63v1.26a.63.63,0,0,0,.63.63h0a.63.63,0,0,0,.63-.63V38.11a.63.63,0,0,1,.63-.63h.63a1.26,1.26,0,0,0,1.26-1.26V18.58A.63.63,0,0,0,31.87,18Zm-4.52,4.41a.61.61,0,0,1,.59-.63h2.33a.61.61,0,0,1,.59.63v9.45a.61.61,0,0,1-.59.63H27.94a.61.61,0,0,1-.59-.63Zm-4.79,0a.61.61,0,0,1,.58-.63h2.33a.61.61,0,0,1,.58.63v9.45a.61.61,0,0,1-.58.63H23.14a.61.61,0,0,1-.58-.63Zm-5,0a.61.61,0,0,1,.58-.63h2.33a.61.61,0,0,1,.58.63v9.45a.61.61,0,0,1-.58.63H18.1a.61.61,0,0,1-.58-.63Zm-5,0a.61.61,0,0,1,.58-.63h2.33a.61.61,0,0,1,.58.63v9.45a.61.61,0,0,1-.58.63H13.06a.61.61,0,0,1-.58-.63Zm-4.9,0a.61.61,0,0,1,.58-.63H10.5a.61.61,0,0,1,.58.63v9.45a.61.61,0,0,1-.58.63H8.16a.61.61,0,0,1-.58-.63ZM2.7,24.25V22.36a.61.61,0,0,1,.59-.63H5.61a.61.61,0,0,1,.59.63v9.45a.61.61,0,0,1-.59.63H3.28a.61.61,0,0,1-.59-.63Zm28.22,11a.58.58,0,0,1-.62.52H3.21a.58.58,0,0,1-.62-.52v-1a.58.58,0,0,1,.62-.52H30.3a.58.58,0,0,1,.62.52Z"/></g></g></svg>