<svg xmlns="http://www.w3.org/2000/svg" viewBox="0 0 46 40"><defs><style>.cls-1{fill:#56585b;}</style></defs><title>Double</title><g id="Layer_2" data-name="Layer 2"><g id="Layer_1-2" data-name="Layer 1"><path class="cls-1" d="M45,40a1,1,0,0,1-1-1V32H2v7a1,1,0,0,1-2,0V31a1,1,0,0,1,1-1H45a1,1,0,0,1,1,1v8A1,1,0,0,1,45,40Z"/><path class="cls-1" d="M45,38H1a1,1,0,0,1,0-2H45a1,1,0,0,1,0,2Z"/><path class="cls-1" d="M45,32a1,1,0,0,1-.91-.59l-8-18a1,1,0,0,1,1.83-.81L44,26.29V23a1,1,0,1,1,2,0v8a1,1,0,0,1-.79,1Z"/><path class="cls-1" d="M1,32,.79,32A1,1,0,0,1,0,31V23a1,1,0,0,1,2,0v3.29L8.09,12.59A1,1,0,0,1,9,12h3a1,1,0,0,1,0,2H9.65L1.91,31.41A1,1,0,0,1,1,32Z"/><path class="cls-1" d="M37,14H34a1,1,0,0,1,0-2h2V5a3,3,0,0,0-3-3H13a3,3,0,0,0-3,3v8a1,1,0,0,1-2,0V5a5,5,0,0,1,5-5H33a5,5,0,0,1,5,5v8A1,1,0,0,1,37,14Z"/><path class="cls-1" d="M19,18H14.27a3,3,0,0,1-3-3.37l.5-4a3,3,0,0,1,3-2.63H19a3,3,0,0,1,3,3v4A3,3,0,0,1,19,18Zm-4.23-8a1,1,0,0,0-1,.88h0l-.5,4a1,1,0,0,0,1,1.12H19a1,1,0,0,0,1-1V11a1,1,0,0,0-1-1Z"/><path class="cls-1" d="M31.73,18H27a3,3,0,0,1-3-3V11a3,3,0,0,1,3-3h4.23a3,3,0,0,1,3,2.63l.5,4a3,3,0,0,1-3,3.37ZM27,10a1,1,0,0,0-1,1v4a1,1,0,0,0,1,1h4.73a1,1,0,0,0,1-1.12l-.5-4h0a1,1,0,0,0-1-.88Z"/><path class="cls-1" d="M25,14H21a1,1,0,0,1,0-2h4a1,1,0,0,1,0,2Z"/></g></g></svg>