<svg xmlns="http://www.w3.org/2000/svg" viewBox="0 0 38 40"><defs><style>.cls-1{fill:#56585b;}</style></defs><title>Single</title><g id="Layer_2" data-name="Layer 2"><g id="Layer_1-2" data-name="Layer 1"><path class="cls-1" d="M37,40a1,1,0,0,1-1-1V32H2v7a1,1,0,0,1-2,0V31a1,1,0,0,1,1-1H37a1,1,0,0,1,1,1v8A1,1,0,0,1,37,40Z"/><path class="cls-1" d="M37,38H1a1,1,0,0,1,0-2H37a1,1,0,0,1,0,2Z"/><path class="cls-1" d="M37,32a1,1,0,0,1-.91-.59l-8-18a1,1,0,1,1,1.83-.81L36,26.29V25a1,1,0,0,1,2,0v6a1,1,0,0,1-.79,1Z"/><path class="cls-1" d="M1,32,.79,32A1,1,0,0,1,0,31V25a1,1,0,0,1,2,0v1.29L8.09,12.59A1,1,0,0,1,9,12h3a1,1,0,0,1,0,2H9.65L1.91,31.41A1,1,0,0,1,1,32Z"/><path class="cls-1" d="M29,14H26a1,1,0,0,1,0-2h2V5a3,3,0,0,0-3-3H13a3,3,0,0,0-3,3v8a1,1,0,0,1-2,0V5a5,5,0,0,1,5-5H25a5,5,0,0,1,5,5v8A1,1,0,0,1,29,14Z"/><path class="cls-1" d="M23.73,18H14.27a3,3,0,0,1-3-3.37l.5-4a3,3,0,0,1,3-2.63h8.47a3,3,0,0,1,3,2.63l.5,4a3,3,0,0,1-3,3.37Zm-9-8a1,1,0,0,0-1,.88h0l-.5,4a1,1,0,0,0,1,1.12h9.47a1,1,0,0,0,1-1.12l-.5-4a1,1,0,0,0-1-.88Z"/></g></g></svg>