<svg xmlns="http://www.w3.org/2000/svg" viewBox="0 0 47.37 40"><defs><style>.cls-1{fill:#56585b;}</style></defs><title>Sofa</title><g id="Layer_2" data-name="Layer 2"><g id="Layer_1-2" data-name="Layer 1"><path class="cls-1" d="M42.82,35.88H4.5A4.5,4.5,0,0,1,0,31.38V30.29a2.59,2.59,0,0,1,.49-1.52A1.69,1.69,0,0,1,.3,27.45l4-14.73a1,1,0,0,1,1-.74H42.13a1,1,0,0,1,1,.74l4,14.73a1.69,1.69,0,0,1-.19,1.33,2.59,2.59,0,0,1,.49,1.52v1A4.56,4.56,0,0,1,42.82,35.88ZM2.6,29.69a.61.61,0,0,0-.6.61v1.08a2.5,2.5,0,0,0,2.5,2.5H42.82a2.56,2.56,0,0,0,2.56-2.56v-1a.61.61,0,0,0-.61-.61Zm-.3-2H45.07L41.37,14H6Z"/><path class="cls-1" d="M44.31,40a1,1,0,0,1-1-1V34.88a1,1,0,0,1,2,0V39A1,1,0,0,1,44.31,40ZM3.06,40a1,1,0,0,1-1-1V34.88a1,1,0,0,1,2,0V39A1,1,0,0,1,3.06,40Z"/><path class="cls-1" d="M43.18,14.33h-39V5.11A5.12,5.12,0,0,1,9.3,0H19.58a5.11,5.11,0,0,1,4.11,2.08A5.11,5.11,0,0,1,27.8,0H38.07a5.12,5.12,0,0,1,5.11,5.11Zm-18.49-2H41.18V5.11A3.11,3.11,0,0,0,38.07,2H27.8a3.11,3.11,0,0,0-3.11,3.11Zm-18.49,0H22.69V5.11A3.11,3.11,0,0,0,19.58,2H9.3A3.11,3.11,0,0,0,6.19,5.11Z"/><path class="cls-1" d="M44.58,23.43l-3.4-9.93V6.16h3.06a3.06,3.06,0,0,1,3.05,3.06l0,.19Zm-1.4-10.27.86,2.5,1.25-6.52a1.06,1.06,0,0,0-1.05-1H43.18Zm-40.4,9.5L.08,9.22A3.06,3.06,0,0,1,3.14,6.16H6.19v7.35ZM2.09,9.14,3.35,15.4l.84-2.25v-5H3.14A1.06,1.06,0,0,0,2.09,9.14Z"/><circle class="cls-1" cx="14.44" cy="6.87" r="1.42"/><circle class="cls-1" cx="32.93" cy="6.87" r="1.42"/></g></g></svg>