<svg xmlns="http://www.w3.org/2000/svg" viewBox="0 0 38 40"><defs><style>.cls-1{fill:#56585b;}</style></defs><title>Toddler</title><g id="Layer_2" data-name="Layer 2"><g id="Layer_1-2" data-name="Layer 1"><path class="cls-1" d="M37,40a1,1,0,0,1-1-1V32H2v7a1,1,0,0,1-2,0V31a1,1,0,0,1,1-1H37a1,1,0,0,1,1,1v8A1,1,0,0,1,37,40Z"/><path class="cls-1" d="M37,38H1a1,1,0,0,1,0-2H37a1,1,0,0,1,0,2Z"/><path class="cls-1" d="M37,32a1,1,0,0,1-.91-.59l-8-18a1,1,0,1,1,1.83-.81L36,26.29V25a1,1,0,0,1,2,0v6a1,1,0,0,1-.79,1Z"/><path class="cls-1" d="M1,32,.79,32A1,1,0,0,1,0,31V25a1,1,0,0,1,2,0v1.29L8.09,12.59A1,1,0,0,1,9,12h3a1,1,0,0,1,0,2H9.65L1.91,31.41A1,1,0,0,1,1,32Z"/><path class="cls-1" d="M29,14H26a1,1,0,0,1,0-2h2V5a3,3,0,0,0-3-3H13a3,3,0,0,0-3,3v8a1,1,0,0,1-2,0V5a5,5,0,0,1,5-5H25a5,5,0,0,1,5,5v8A1,1,0,0,1,29,14Z"/><path class="cls-1" d="M23.73,18H14.27a3,3,0,0,1-3-3.37l.5-4a3,3,0,0,1,3-2.63h8.47a3,3,0,0,1,3,2.63l.5,4a3,3,0,0,1-3,3.37Zm-9-8a1,1,0,0,0-1,.88h0l-.5,4a1,1,0,0,0,1,1.12h9.47a1,1,0,0,0,1-1.12l-.5-4a1,1,0,0,0-1-.88Z"/><path class="cls-1" d="M34.11,27.68,29,15.3V7.62h3.16a3.17,3.17,0,0,1,3.16,3.16ZM31,14.91l1.73,4.18.6-8.38a1.16,1.16,0,0,0-1.17-1.09H31ZM3.89,27.68,2.68,10.85A3.18,3.18,0,0,1,5.84,7.62H9V15.3Zm2-18.06a1.16,1.16,0,0,0-1.16,1.16l.6,8.31L7,14.91V9.62Z"/><path class="cls-1" d="M36.78,32.08H1.22v-1A7.5,7.5,0,0,1,8.71,23.6H29.29a7.5,7.5,0,0,1,7.49,7.49Zm-33.47-2H34.69a5.5,5.5,0,0,0-5.4-4.49H8.71A5.5,5.5,0,0,0,3.31,30.08Z"/></g></g></svg>