<svg id="shopping_and_biz" data-name="shopping and biz" xmlns="http://www.w3.org/2000/svg" viewBox="0 0 64 58"><defs><style>.cls-1{fill:#58585b;}</style></defs><title>heart</title><path class="cls-1" d="M229,264.23a2,2,0,0,1-1.42-.6l-25.29-25.84a18.79,18.79,0,0,1,0-26.14,17.84,17.84,0,0,1,25.61,0q.58.59,1.1,1.24.53-.65,1.1-1.24a17.84,17.84,0,0,1,25.61,0,18.79,18.79,0,0,1,0,26.14l-25.29,25.84A2,2,0,0,1,229,264.23ZM215.14,210.3a13.85,13.85,0,0,0-10,4.22,14.66,14.66,0,0,0,0,20.39L229,259.31l23.87-24.4a14.66,14.66,0,0,0,0-20.39,13.88,13.88,0,0,0-19.94,0,14.42,14.42,0,0,0-2.21,3,2,2,0,0,1-3.46,0,14.35,14.35,0,0,0-2.21-3A13.85,13.85,0,0,0,215.14,210.3Z" transform="translate(-197.05 -206.23)"/></svg>