<svg id="Layer_1" data-name="Layer 1" xmlns="http://www.w3.org/2000/svg" viewBox="0 0 25.6 25.6"><defs><style>.cls-1{fill:#59585b;fill-rule:evenodd;}</style></defs><title>messages</title><path class="cls-1" d="M328.8,325.6h-8a.8.8,0,1,0,0,1.6h8a.8.8,0,1,0,0-1.6Zm1.6-4.8H319.2a.8.8,0,1,0,0,1.6h11.2a.8.8,0,1,0,0-1.6Zm-5.6-8.8c-7.07,0-12.8,5-12.8,11.2a10.71,10.71,0,0,0,4.8,8.73v5.67l5.6-3.4a15.05,15.05,0,0,0,2.4.2c7.07,0,12.8-5,12.8-11.2S331.87,312,324.8,312Zm0,20.8a13.06,13.06,0,0,1-2.7-.29l-3.77,2.26.05-3.71a9.27,9.27,0,0,1-4.78-7.86c0-5.3,5-9.6,11.2-9.6s11.2,4.3,11.2,9.6-5,9.6-11.2,9.6Zm0,0" transform="translate(-312 -312)"/></svg>