<svg id="travel" xmlns="http://www.w3.org/2000/svg" viewBox="0 0 64 48"><defs><style>.cls-1{fill:#57585b;}</style></defs><title>trip</title><path class="cls-1" d="M402.89,188h-50a2,2,0,0,1-2-2V170a8,8,0,0,0-8-8,2,2,0,0,0,0,4,4,4,0,0,1,4,4v16a6,6,0,0,0,6,6h8.18a3,3,0,1,0,5.63,0h23.37a3,3,0,1,0,5.63,0h7.18a2,2,0,0,0,0-4Z" transform="translate(-340.89 -148.02)"/><path class="cls-1" d="M358.89,186h38a6,6,0,0,0,6-6V160a6,6,0,0,0-6-6h-11v-4a2,2,0,0,0-2-2h-12a2,2,0,0,0-2,2v4h-11a6,6,0,0,0-6,6v20A6,6,0,0,0,358.89,186Zm30-28v24h-22V158Zm10,2v20a2,2,0,0,1-2,2h-4V158h4A2,2,0,0,1,398.89,160Zm-25-8h8v2h-8Zm-17,8a2,2,0,0,1,2-2h4v24h-4a2,2,0,0,1-2-2Z" transform="translate(-340.89 -148.02)"/></svg>