<svg id="real_estate" data-name="real estate" xmlns="http://www.w3.org/2000/svg" viewBox="0 0 64 64"><defs><style>.cls-1{fill:#57585b;}</style></defs><title>bathroom</title><path class="cls-1" d="M381.72,222.89a6,6,0,0,0-6-6h-18v-1a2,2,0,0,0-4,0v1h-2v-1a2,2,0,0,0-4,0v1h-2v-1a2,2,0,0,0-4,0v1H330.65v-28a4,4,0,0,1,6.82-2.84l3.6,4a7,7,0,0,0,1.17,8.35,2,2,0,0,0,2.83,0l7.07-7.07a2,2,0,0,0,0-2.83,7,7,0,0,0-8.2-1.25l-3.56-3.92,0,0,0,0a8,8,0,0,0-13.66,5.66v28h-2.93a6,6,0,0,0-1.51,11.8l3.61,10.83a2,2,0,0,0,1.9,1.37h2.76l-.55,1.11a2,2,0,0,0,3.58,1.79l1.45-2.89h29.53l1.45,2.89a2,2,0,1,0,3.58-1.79l-.55-1.11h2.76a2,2,0,0,0,1.9-1.37l3.61-10.83A6,6,0,0,0,381.72,222.89Zm-34.37-32.46-3.16,3.16c0-.06,0-.11,0-.17a3,3,0,0,1,3-3Zm28.37,34.46h-.08l-.18,0-.21,0-.15,0-.22.08-.13.07-.2.12-.13.11-.15.14-.12.14-.12.17-.09.16a1.82,1.82,0,0,0-.09.2l0,.07-3.54,10.63H329.16l-3.54-10.63,0-.07-.09-.2-.09-.16-.11-.16-.12-.15-.14-.13-.14-.12-.17-.11-.15-.08-.2-.08-.17-.05-.19,0-.21,0h-.08a2,2,0,0,1,0-4h52a2,2,0,0,1,0,4Z" transform="translate(-317.72 -180.89)"/></svg>