<?xml version="1.0" encoding="utf-8"?>
<!-- Generator: Adobe Illustrator 22.1.0, SVG Export Plug-In . SVG Version: 6.00 Build 0)  -->
<svg version="1.1" id="lifestyle" xmlns="http://www.w3.org/2000/svg" xmlns:xlink="http://www.w3.org/1999/xlink" x="0px" y="0px"
	 viewBox="0 0 32 32" style="enable-background:new 0 0 32 32;" xml:space="preserve">
<style type="text/css">
	.st0{fill:#223843;}
</style>
<title>close</title>
<path class="st0" d="M18.8,13.2c-0.4-0.4-1-0.4-1.4,0c0,0,0,0,0,0L16,14.6l-1.4-1.4l0,0c-0.4-0.4-1-0.4-1.4,0s-0.4,1,0,1.4l0,0
	l1.4,1.4l-1.4,1.4c-0.4,0.4-0.4,1,0,1.4s1,0.4,1.4,0l1.4-1.4l1.4,1.4c0.4,0.4,1,0.4,1.4,0s0.4-1,0-1.4l0,0L17.4,16l1.4-1.4
	C19.2,14.2,19.2,13.6,18.8,13.2C18.8,13.2,18.8,13.2,18.8,13.2z"/>
<path class="st0" d="M16,0C7.2,0,0,7.2,0,16s7.2,16,16,16s16-7.2,16-16S24.8,0,16,0z M16,30C8.3,30,2,23.7,2,16S8.3,2,16,2
	s14,6.3,14,14C30,23.7,23.7,30,16,30L16,30z"/>
</svg>
