<?xml version="1.0" encoding="utf-8"?>
<!-- Generator: Adobe Illustrator 22.1.0, SVG Export Plug-In . SVG Version: 6.00 Build 0)  -->
<svg version="1.1" id="Layer_1" xmlns="http://www.w3.org/2000/svg" xmlns:xlink="http://www.w3.org/1999/xlink" x="0px" y="0px"
	 viewBox="0 0 110.5 105.4" style="enable-background:new 0 0 110.5 105.4;" xml:space="preserve">
<style type="text/css">
	.st0{fill:#FFFFFF;stroke:#A0C1BC;stroke-width:5;stroke-miterlimit:10;}
</style>
<title>empty-star</title>
<path class="st0" d="M107,41.6c0-1.5-1.2-2.5-3.5-2.9l-31.2-4.5l-14-28.3c-0.8-1.7-1.8-2.5-3-2.5S53,4.2,52.2,5.9l-14,28.3L6.9,38.8
	c-2.3,0.4-3.5,1.3-3.5,2.9c0.1,1.2,0.7,2.2,1.6,3l22.6,22l-5.4,31.1c-0.1,0.4-0.1,0.8-0.1,1.2c0,0.8,0.2,1.6,0.6,2.2
	c0.5,0.6,1.2,1,2,0.9c0.9,0,1.7-0.3,2.5-0.7l27.9-14.7L83,101.4c0.8,0.5,1.6,0.7,2.5,0.7c0.7,0,1.5-0.3,1.9-0.9s0.7-1.4,0.6-2.2
	c0-0.4,0-0.8-0.1-1.2l-5.3-31.1l22.6-22C106.2,43.9,106.8,42.8,107,41.6L107,41.6z"/>
</svg>
