<svg id="Layer_1" data-name="Layer 1" xmlns="http://www.w3.org/2000/svg" viewBox="0 0 108.46 103.44"><defs><style>.cls-1{fill:#a2c5bf;}</style></defs><title>full-star</title><path class="cls-1" d="M1013.46,314.09q0-2.41-3.65-3l-32.72-4.76-14.66-29.66q-1.24-2.67-3.19-2.67T956,276.67l-14.67,29.66-32.72,4.76q-3.64.59-3.65,3a5,5,0,0,0,1.63,3.13l23.73,23.07-5.61,32.59a10.72,10.72,0,0,0-.13,1.3,3.83,3.83,0,0,0,.68,2.31,2.35,2.35,0,0,0,2.05.95,5.53,5.53,0,0,0,2.61-.78l29.26-15.38,29.26,15.38a5.31,5.31,0,0,0,2.61.78,2.3,2.3,0,0,0,2-.95,3.86,3.86,0,0,0,.68-2.31,9.93,9.93,0,0,0-.07-1.3l-5.6-32.59,23.66-23.07a4.72,4.72,0,0,0,1.7-3.12Zm0,0" transform="translate(-905 -274)"/></svg>