<?xml version="1.0" encoding="utf-8"?>
<!-- Generator: Adobe Illustrator 22.0.1, SVG Export Plug-In . SVG Version: 6.00 Build 0)  -->
<svg version="1.1" id="Capa_1" xmlns="http://www.w3.org/2000/svg" xmlns:xlink="http://www.w3.org/1999/xlink" x="0px" y="0px"
	 viewBox="0 0 3767.7 755.5" style="enable-background:new 0 0 3767.7 755.5;" xml:space="preserve">
<style type="text/css">
	.st0{fill:#FFFFFF;}
</style>
<title>get-started-graphic</title>
<path class="st0" d="M1908.9,78.6H1891c-0.9-13.1-6.1-25.6-14.7-35.5l12.7-12.7c1.7-1.7,1.7-4.4,0-6.1s-4.4-1.7-6.1,0L1870.1,37
	c-9.9-8.6-22.4-13.8-35.5-14.7V4.4c0-2.4-1.9-4.3-4.3-4.3c-2.4,0-4.3,1.9-4.3,4.3v17.9c-13.1,0.9-25.6,6.1-35.5,14.7l-12.7-12.7
	c-1.7-1.7-4.4-1.7-6.1,0s-1.7,4.4,0,6.1l12.7,12.7c-8.6,9.9-13.8,22.4-14.7,35.5h-17.9c-2.4,0-4.3,1.9-4.3,4.3
	c0,2.4,1.9,4.3,4.3,4.3h17.9c0.9,13.1,6.1,25.6,14.7,35.5l-12.7,12.7c-1.7,1.7-1.7,4.4,0,6.1s4.4,1.7,6.1,0l12.7-12.7
	c9.9,8.6,22.4,13.8,35.5,14.7v17.9c0,2.4,1.9,4.3,4.3,4.3c2.4,0,4.3-1.9,4.3-4.3v-17.9c13.1-0.9,25.6-6.1,35.5-14.7l12.7,12.7
	c1.7,1.7,4.4,1.7,6.1,0s1.7-4.4,0-6.1l-12.7-12.7c8.6-9.9,13.8-22.4,14.7-35.5h17.9c2.4,0,4.3-1.9,4.3-4.3
	C1913.2,80.6,1911.3,78.6,1908.9,78.6L1908.9,78.6z M1830.3,135.1c-28.8,0-52.2-23.4-52.2-52.2s23.4-52.2,52.2-52.2
	s52.2,23.4,52.2,52.2l0,0C1882.5,111.7,1859.1,135.1,1830.3,135.1z"/>
<path class="st0" d="M2557.4,693.8c-0.2,0-0.3,0-0.5,0l-171.2-28.6c-1.7-0.1-3-1.4-2.9-3.1c0.1-1.7,1.4-3,3.1-2.9
	c0.3,0,0.5,0.1,0.8,0.1l171.2,28.6c1.6,0.4,2.6,2,2.2,3.6C2559.8,692.8,2558.7,693.8,2557.4,693.8L2557.4,693.8z"/>
<path class="st0" d="M2436.3,672.2c-0.2,0-0.3,0-0.5,0l-26.6-4.4c-1.6-0.3-2.7-1.8-2.4-3.4l6-36.1c1.3-7.9,8.1-13.6,16.1-13.6
	c0.9,0,1.8,0.1,2.7,0.2h0.3c8.9,1.5,14.9,9.9,13.4,18.8l-6,36.1C2438.9,671.1,2437.7,672.2,2436.3,672.2L2436.3,672.2z
	 M2413.1,662.3l20.7,3.5l5.5-33.2c0.9-5.6-2.9-11-8.5-11.9c0,0,0,0,0,0h-0.3c-0.6-0.1-1.1-0.1-1.7-0.1c-5.1,0-9.4,3.7-10.2,8.7
	L2413.1,662.3z"/>
<path class="st0" d="M2484.3,680.2c-0.2,0-0.3,0-0.5,0l-26.6-4.4c-1.6-0.3-2.7-1.8-2.4-3.4l6-36.1c1.3-7.9,8.1-13.6,16.1-13.6
	c0.9,0,1.8,0.1,2.7,0.2h0.3c8.9,1.5,14.9,9.9,13.4,18.8l-6,36.1C2487,679.2,2485.8,680.2,2484.3,680.2z M2461.2,670.4l20.7,3.5
	l5.5-33.2c0.9-5.6-2.9-11-8.5-11.9h-0.3c-0.6-0.1-1.1-0.1-1.7-0.1c-5.1,0-9.4,3.7-10.2,8.7L2461.2,670.4z"/>
<path class="st0" d="M2531.3,688.1c-0.2,0-0.3,0-0.5,0l-26.6-4.4c-1.6-0.3-2.7-1.8-2.4-3.4l6-36.1c1.3-7.9,8.1-13.6,16.1-13.6
	c0.9,0,1.8,0.1,2.7,0.2h0.3c8.9,1.5,14.9,9.9,13.4,18.8l-6,36.1C2534,687,2532.7,688.1,2531.3,688.1L2531.3,688.1z M2508.1,678.3
	l20.7,3.5l5.5-33.2c0.9-5.6-2.9-11-8.5-11.9c0,0,0,0,0,0h-0.3c-0.6-0.1-1.1-0.1-1.7-0.1c-5.1,0-9.4,3.7-10.2,8.7L2508.1,678.3z"/>
<path class="st0" d="M2567.8,631.5c-0.2,0-0.3,0-0.5,0l-171.2-28.6c-1.6-0.5-2.5-2.2-2-3.8c0.4-1.3,1.6-2.1,3-2.1l171.2,28.6
	c1.6,0.4,2.6,2,2.2,3.6C2570.2,630.5,2569.1,631.4,2567.8,631.5L2567.8,631.5z"/>
<path class="st0" d="M2446.4,611.2c-0.2,0-0.3,0-0.5,0l-26.6-4.4c-1.6-0.3-2.7-1.8-2.4-3.4l6-36.1c1.3-7.9,8.1-13.6,16.1-13.6
	c0.9,0,1.8,0.1,2.7,0.2h0.3c8.9,1.5,14.9,9.9,13.4,18.8l-6,36.1C2449.1,610.2,2447.9,611.2,2446.4,611.2L2446.4,611.2z
	 M2423.3,601.4l20.7,3.5l5.5-33.2c0.9-5.6-2.9-11-8.5-11.9c0,0,0,0,0,0h-0.3c-0.6-0.1-1.1-0.1-1.7-0.1c-5.1,0-9.4,3.7-10.2,8.7
	L2423.3,601.4z"/>
<path class="st0" d="M2494.5,619.2c-0.2,0-0.3,0-0.5,0l-26.6-4.4c-1.6-0.3-2.7-1.8-2.4-3.4l6-36.1c1.3-7.9,8.1-13.6,16.1-13.6
	c0.9,0,1.8,0.1,2.7,0.2h0.3c8.9,1.5,14.9,9.9,13.4,18.8l-6,36.1C2497.2,618.2,2495.9,619.2,2494.5,619.2L2494.5,619.2z
	 M2471.3,609.4l20.7,3.5l5.5-33.2c0.9-5.6-2.9-11-8.5-11.9h-0.3c-0.6-0.1-1.1-0.1-1.7-0.1c-5.1,0-9.4,3.7-10.2,8.7L2471.3,609.4z"/>
<path class="st0" d="M2541.5,627.1c-0.2,0-0.3,0-0.5,0l-26.6-4.4c-1.6-0.3-2.7-1.8-2.4-3.4l6-36.1c1.3-7.9,8.1-13.6,16.1-13.6
	c0.9,0,1.8,0.1,2.7,0.2h0.3c8.9,1.5,14.9,9.9,13.4,18.8l-6,36.1C2544.2,626,2542.9,627.1,2541.5,627.1L2541.5,627.1z M2518.3,617.3
	l20.7,3.5l5.5-33.2c0.9-5.6-2.9-11-8.5-11.9c0,0,0,0,0,0h-0.3c-0.6-0.1-1.1-0.1-1.7-0.1c-5.1,0-9.4,3.7-10.2,8.7L2518.3,617.3z"/>
<path class="st0" d="M2578,570.5c-0.2,0-0.3,0-0.5,0l-171.2-28.6c-1.6-0.5-2.5-2.2-2-3.8c0.4-1.3,1.6-2.1,3-2.1l171.2,28.6
	c1.6,0.4,2.6,2,2.2,3.6C2580.4,569.5,2579.3,570.4,2578,570.5L2578,570.5z"/>
<path class="st0" d="M2456.6,550.2c-0.2,0-0.3,0-0.5,0l-26.6-4.4c-1.6-0.3-2.7-1.8-2.4-3.4l6-36.1c1.3-7.9,8.1-13.6,16.1-13.6
	c0.9,0,1.8,0.1,2.7,0.2h0.3c8.9,1.5,14.9,9.9,13.4,18.8l-6,36.1C2459.3,549.2,2458.1,550.2,2456.6,550.2L2456.6,550.2z
	 M2433.5,540.4l20.7,3.5l5.5-33.2c0.9-5.6-2.9-11-8.5-11.9c0,0,0,0,0,0h-0.3c-0.6-0.1-1.1-0.1-1.7-0.1c-5.1,0-9.4,3.7-10.2,8.7
	L2433.5,540.4z"/>
<path class="st0" d="M2504.7,558.3c-0.2,0-0.3,0-0.5,0l-26.6-4.4c-1.6-0.3-2.7-1.8-2.4-3.4l6-36.1c1.3-7.9,8.1-13.6,16.1-13.6
	c0.9,0,1.8,0.1,2.7,0.2h0.3c8.9,1.5,14.9,9.9,13.4,18.8l-6,36.1C2507.4,557.2,2506.1,558.2,2504.7,558.3L2504.7,558.3z
	 M2481.5,548.4l20.7,3.5l5.5-33.2c0.9-5.6-2.9-11-8.5-11.9c0,0,0,0,0,0h-0.3c-0.6-0.1-1.1-0.1-1.7-0.1c-5.1,0-9.4,3.7-10.2,8.7
	L2481.5,548.4z"/>
<path class="st0" d="M2551.7,566.1c-0.2,0-0.3,0-0.5,0l-26.6-4.4c-1.6-0.3-2.7-1.8-2.4-3.4l6-36.1c1.3-7.9,8.1-13.6,16.1-13.6
	c0.9,0,1.8,0.1,2.7,0.2h0.3c8.9,1.5,14.9,9.9,13.4,18.8l-6,36.1C2554.3,565,2553.1,566.1,2551.7,566.1L2551.7,566.1z M2528.5,556.3
	l20.7,3.5l5.5-33.2c0.9-5.6-2.9-11-8.5-11.9c0,0,0,0,0,0h-0.3c-0.6-0.1-1.1-0.1-1.7-0.1c-5,0-9.3,3.6-10.2,8.6L2528.5,556.3z"/>
<path class="st0" d="M2588.1,509.5c-0.2,0-0.3,0-0.5,0l-171.2-28.6c-1.7-0.1-3-1.4-2.9-3.1c0.1-1.7,1.4-3,3.1-2.9
	c0.3,0,0.5,0.1,0.8,0.1l171.2,28.6c1.6,0.4,2.6,2,2.2,3.6C2590.6,508.5,2589.5,509.5,2588.1,509.5L2588.1,509.5z"/>
<path class="st0" d="M2466.8,489.3c-0.2,0-0.3,0-0.5,0l-26.6-4.4c-1.6-0.3-2.7-1.8-2.4-3.4l6-36.1c1.3-7.9,8.1-13.6,16.1-13.6
	c0.9,0,1.8,0.1,2.7,0.2h0.3c8.9,1.5,14.9,9.9,13.4,18.8l-6,36.1C2469.5,488.2,2468.3,489.3,2466.8,489.3z M2443.6,479.4l20.7,3.5
	l5.5-33.2c0.9-5.6-2.9-11-8.5-11.9c0,0,0,0,0,0h-0.3c-0.6-0.1-1.1-0.1-1.7-0.1c-5.1,0-9.4,3.7-10.2,8.7L2443.6,479.4z"/>
<path class="st0" d="M2514.9,497.3c-0.2,0-0.3,0-0.5,0l-26.6-4.4c-1.6-0.3-2.7-1.8-2.4-3.4l6-36.1c1.3-7.9,8.1-13.6,16.1-13.6
	c0.9,0,1.8,0.1,2.7,0.2h0.3c8.9,1.5,14.9,9.9,13.4,18.8l-6,36.1C2517.5,496.2,2516.3,497.3,2514.9,497.3L2514.9,497.3z
	 M2491.7,487.4l20.7,3.5l5.5-33.2c0.9-5.6-2.9-11-8.5-11.9c0,0,0,0,0,0h-0.3c-0.6-0.1-1.1-0.1-1.7-0.1c-5.1,0-9.4,3.7-10.2,8.7
	L2491.7,487.4z"/>
<path class="st0" d="M2561.8,505.1c-0.2,0-0.3,0-0.5,0l-26.6-4.4c-1.6-0.3-2.7-1.8-2.4-3.4l6-36.1c1.3-7.9,8.1-13.6,16.1-13.6
	c0.9,0,1.8,0.1,2.7,0.2h0.3c8.9,1.5,14.9,9.9,13.4,18.8l-6,36.1C2564.5,504.1,2563.3,505.1,2561.8,505.1z M2538.7,495.3l20.7,3.5
	l5.5-33.2c0.9-5.6-2.9-11-8.5-11.9c0,0,0,0,0,0h-0.3c-0.6-0.1-1.1-0.1-1.7-0.1c-5.1,0-9.4,3.7-10.2,8.7L2538.7,495.3z"/>
<path class="st0" d="M2598.3,448.5c-0.2,0-0.3,0-0.5,0L2426.6,420c-1.6-0.5-2.5-2.2-2-3.8c0.4-1.3,1.6-2.1,3-2.1l171.2,28.6
	c1.6,0.4,2.6,2,2.2,3.6C2600.7,447.6,2599.6,448.5,2598.3,448.5L2598.3,448.5z"/>
<path class="st0" d="M2477,428.3c-0.2,0-0.3,0-0.5,0l-26.6-4.4c-1.6-0.3-2.7-1.8-2.4-3.4l6-36.1c1.3-7.9,8.1-13.6,16.1-13.6
	c0.9,0,1.8,0.1,2.7,0.2h0.3c8.9,1.5,14.9,9.9,13.4,18.8l-6,36.1C2479.7,427.2,2478.4,428.3,2477,428.3z M2453.8,418.4l20.7,3.5
	l5.5-33.2c0.9-5.6-2.9-11-8.5-11.9h-0.3c-0.6-0.1-1.1-0.1-1.7-0.1c-5.1,0-9.4,3.7-10.2,8.7L2453.8,418.4z"/>
<path class="st0" d="M2525.1,436.3c-0.2,0-0.3,0-0.5,0l-26.6-4.4c-1.6-0.3-2.7-1.8-2.4-3.4l6-36.1c1.3-7.9,8.1-13.6,16.1-13.6
	c0.9,0,1.8,0.1,2.7,0.2h0.3c8.9,1.5,14.9,9.9,13.4,18.8l-6,36.1C2527.7,435.2,2526.5,436.3,2525.1,436.3z M2501.9,426.4l20.7,3.5
	l5.5-33.2c0.9-5.6-2.9-11-8.5-11.9c0,0,0,0,0,0h-0.3c-0.6-0.1-1.1-0.1-1.7-0.1c-5.1,0-9.4,3.7-10.2,8.7L2501.9,426.4z"/>
<path class="st0" d="M2572.1,444.1c-0.2,0-0.3,0-0.5,0l-26.6-4.4c-1.6-0.3-2.7-1.8-2.4-3.4l6-36.1c1.3-7.9,8.1-13.6,16.1-13.6
	c0.9,0,1.8,0.1,2.7,0.2h0.3c8.9,1.5,14.9,9.9,13.4,18.8l-6,36.1C2574.7,443.1,2573.5,444.1,2572.1,444.1z M2548.9,434.3l20.7,3.5
	l5.5-33.2c0.9-5.6-2.9-11-8.5-11.9c0,0,0,0,0,0h-0.3c-0.6-0.1-1.1-0.1-1.7-0.1c-5.1,0-9.4,3.7-10.2,8.7L2548.9,434.3z"/>
<path class="st0" d="M2608.5,387.5c-0.2,0-0.3,0-0.5,0L2436.8,359c-1.7-0.1-3-1.4-2.9-3.1c0.1-1.7,1.4-3,3.1-2.9
	c0.3,0,0.5,0.1,0.8,0.1l171.2,28.6c1.6,0.4,2.6,2,2.2,3.6C2610.9,386.6,2609.8,387.5,2608.5,387.5L2608.5,387.5z"/>
<path class="st0" d="M2487.2,367.3c-0.2,0-0.3,0-0.5,0l-26.6-4.5c-1.6-0.3-2.7-1.8-2.4-3.4l6-36.1c1.3-7.9,8.1-13.6,16.1-13.6
	c0.9,0,1.8,0.1,2.7,0.2h0.3c8.9,1.5,14.9,9.9,13.4,18.8l-6,36.1C2489.8,366.2,2488.6,367.2,2487.2,367.3L2487.2,367.3z M2464,357.4
	l20.7,3.5l5.5-33.2c0.9-5.6-2.9-11-8.5-11.9h-0.3c-0.6-0.1-1.1-0.1-1.7-0.1c-5.1,0-9.4,3.7-10.2,8.7L2464,357.4z"/>
<path class="st0" d="M2535.2,375.3c-0.2,0-0.3,0-0.5,0l-26.6-4.4c-1.6-0.3-2.7-1.8-2.4-3.4l6-36.1c1.3-7.9,8.1-13.6,16.1-13.6
	c0.9,0,1.8,0.1,2.7,0.2h0.3c8.9,1.5,14.9,9.9,13.4,18.8l-6,36.1C2537.9,374.3,2536.7,375.3,2535.2,375.3z M2512.1,365.5l20.7,3.5
	l5.5-33.2c0.9-5.6-2.9-11-8.5-11.9c0,0,0,0,0,0h-0.3c-0.6-0.1-1.1-0.1-1.7-0.1c-5.1,0-9.4,3.7-10.2,8.7L2512.1,365.5z"/>
<path class="st0" d="M2582.2,383.1c-0.2,0-0.3,0-0.5,0l-26.6-4.4c-1.6-0.3-2.7-1.8-2.4-3.4l6-36.1c1.3-7.9,8.1-13.6,16.1-13.6
	c0.9,0,1.8,0.1,2.7,0.2h0.3c8.9,1.5,14.9,9.9,13.4,18.8l-6,36.1C2584.9,382.1,2583.7,383.1,2582.2,383.1z M2559,373.3l20.7,3.5
	l5.5-33.2c0.9-5.6-2.9-11-8.5-11.9c0,0,0,0,0,0h-0.3c-0.6-0.1-1.1-0.1-1.7-0.1c-5.1,0-9.4,3.7-10.2,8.7L2559,373.3z"/>
<path class="st0" d="M2618.7,326.6c-0.2,0-0.3,0-0.5,0L2447,298c-1.6-0.5-2.5-2.2-2-3.8c0.4-1.3,1.6-2.1,3-2.1l171.2,28.6
	c1.6,0.4,2.6,2,2.2,3.6C2621.1,325.6,2620,326.5,2618.7,326.6L2618.7,326.6z"/>
<path class="st0" d="M2523.1,310.6c-0.2,0-0.3,0-0.5,0l-26.5-4.5c-1.6-0.3-2.7-1.8-2.4-3.4l6-36.1c1.3-7.9,8.1-13.6,16.1-13.6
	c0.9,0,1.8,0.1,2.7,0.2h0.3c8.9,1.5,14.9,9.9,13.4,18.8l-6,36.1C2525.8,309.5,2524.6,310.5,2523.1,310.6L2523.1,310.6z
	 M2499.9,300.8l20.7,3.5l5.5-33.2c0.9-5.6-2.9-11-8.5-11.9c0,0,0,0,0,0h-0.3c-0.6-0.1-1.1-0.1-1.7-0.1c-5.1,0-9.4,3.7-10.2,8.7
	L2499.9,300.8z"/>
<path class="st0" d="M2571.2,318.6c-0.2,0-0.3,0-0.5,0l-26.6-4.5c-1.6-0.3-2.7-1.8-2.4-3.4l6-36.1c1.3-7.9,8.1-13.6,16.1-13.6
	c0.9,0,1.8,0.1,2.7,0.2h0.3c8.9,1.5,14.9,9.9,13.4,18.8l-6,36.1C2573.9,317.5,2572.6,318.6,2571.2,318.6z M2548,308.8l20.7,3.5
	l5.5-33.2c0.9-5.6-2.9-11-8.5-11.9h-0.3c-0.6-0.1-1.1-0.1-1.7-0.1c-5.1,0-9.4,3.7-10.2,8.7L2548,308.8z"/>
<path class="st0" d="M2599.8,260.7c-0.2,0-0.3,0-0.5,0l-113.9-19c-1.7-0.1-3-1.4-2.9-3.1c0.1-1.7,1.4-3,3.1-2.9
	c0.3,0,0.5,0.1,0.8,0.1l113.9,19c1.6,0.4,2.6,2,2.2,3.6C2602.2,259.8,2601.1,260.7,2599.8,260.7L2599.8,260.7z"/>
<path class="st0" d="M2584.7,320.4c-0.2,0-0.3,0-0.5,0l-103-17.2c-1.6-0.3-2.7-1.8-2.4-3.4l10.1-60.5c0.3-1.6,1.8-2.7,3.4-2.4
	l103,17.2c1.6,0.3,2.7,1.8,2.4,3.4l-10.1,60.5C2587.3,319.3,2586.1,320.4,2584.7,320.4z M2485.1,297.8l97.2,16.2l9.1-54.6
	l-97.2-16.2L2485.1,297.8z"/>
<path class="st0" d="M2539.1,745.2h-156.1c-0.2,0-0.3,0-0.5,0l-2.3-0.4c-1.6-0.3-2.7-1.8-2.4-3.4l74.4-445.6
	c0.3-1.6,1.8-2.7,3.4-2.4l154.1,25.7c1.6,0.3,2.7,1.8,2.4,3.4l-70.1,420.2C2541.7,744.1,2540.5,745.2,2539.1,745.2z M2384.2,739.2
	h152.4l69.2-414.8l-148.2-24.7L2384.2,739.2z"/>
<path class="st0" d="M2521.8,745.2h-27.3c-1.7,0-3-1.4-3-3c0-0.1,0-0.3,0-0.4l6-36c1.3-7.9,8.1-13.6,16.1-13.6
	c0.9,0,1.8,0.1,2.7,0.2h0.3c8.9,1.5,14.9,9.9,13.4,18.8l-5.3,31.6C2524.5,744.1,2523.2,745.2,2521.8,745.2z M2497.9,739.2h21.3
	l4.9-29.1c0.9-5.6-2.9-11-8.5-11.9h-0.3c-0.6-0.1-1.1-0.1-1.7-0.1c-5.1,0-9.4,3.7-10.2,8.7L2497.9,739.2z"/>
<path class="st0" d="M2473.5,745.2h-27.3c-1.7,0-3-1.4-3-3c0-0.1,0-0.3,0-0.4l7.3-43.9c1.3-7.9,8.1-13.6,16.1-13.6
	c0.9,0,1.8,0.1,2.7,0.2h0.3c8.9,1.5,14.9,9.9,13.4,18.8l-6.6,39.4C2476.2,744.1,2474.9,745.2,2473.5,745.2z M2449.6,739.2h21.3
	l6.2-37c0.9-5.6-2.9-11-8.5-11.9h-0.3c-0.6-0.1-1.1-0.1-1.7-0.1c-5.1,0-9.4,3.7-10.2,8.7L2449.6,739.2z"/>
<path class="st0" d="M2424.1,745.2h-27.3c-1.7,0-3-1.4-3-3c0-0.1,0-0.3,0-0.4l8.7-51.9c1.3-7.9,8.1-13.6,16.1-13.6
	c0.9,0,1.8,0.1,2.7,0.2h0.3c8.9,1.5,14.9,9.9,13.4,18.8l-7.9,47.5C2426.8,744.2,2425.5,745.2,2424.1,745.2z M2400.2,739.2h21.3
	l7.5-45c0.9-5.6-2.9-11-8.5-11.9h-0.3c-0.6-0.1-1.1-0.1-1.7-0.1c-5.1,0-9.4,3.7-10.2,8.7L2400.2,739.2z"/>
<path class="st0" d="M2640.4,744.3c-1.1,0-2.1-0.6-2.6-1.6l-4.1-7.9c-0.2-0.5-0.4-1-0.3-1.5l4.4-87c0-0.3,0.1-0.7,0.2-1l18.4-44.4
	l1.3-13.1l-12.9-7.5l-8.3-0.3c-1.6-0.1-2.8-1.3-2.9-2.9l-0.6-27.7c0-0.4,0.1-0.9,0.3-1.3l4.3-9.4l-8.5-3.4c-3.2-1.3-5.1-4.4-4.8-7.8
	v-0.1c0.2-2.8,2-5.2,4.5-6.4l27-12.2l12.7-12.8l0.2-4.4c0.2-6.3,2.9-12.2,7.5-16.4c9.9-9.2,13.5-10.6,15.6-10.7c0.4,0,0.9,0,1.6,0
	c6.1,0,26,1.4,33.4,3.5c1.6,0.5,2.5,2.2,2,3.8c-0.2,0.8-0.8,1.5-1.6,1.8l-8.6,3.9c-0.9,0.4-1.6,1.3-1.7,2.4v0.1
	c-0.1,1.3,0.6,2.4,1.8,2.9l8.3,3.3c1.3,0.5,2.1,2,1.8,3.4c-3.9,18.7-11,48-14.8,63.7c-1.3,5.5-2.4,9.8-2.5,10.5
	c-0.3,2.1-1.5,3.9-3.3,5l1.3,4.1l0.3,0.1c4.1,1.1,7,4.8,7.2,9.1l13.4,107c0,0.2,0,0.3,0,0.5l-0.1,1.3c0,0.2,0,0.3-0.1,0.5
	l-11.5,50.8c-0.3,1.3-1.5,2.3-2.9,2.3L2640.4,744.3L2640.4,744.3z M2639.3,732.8l2.9,5.6h70.8l10.9-48.2v-0.8l-13.4-106.8
	c0-0.1,0-0.2,0-0.3c0-1.7-1.2-3.2-2.9-3.7l-1.8-0.5c-0.9-0.3-1.7-1-2-1.9l-2.8-8.5c-0.4-1-0.2-2.1,0.5-2.9c0.6-0.8,1.7-1.1,2.7-0.9
	c0.3,0,0.7-0.1,0.9-1.2c0.2-0.8,1-4.1,2.6-10.8c3.7-15,10.3-42.5,14.3-61.1l-6-2.4c-3.6-1.4-5.8-5-5.5-8.9v-0.1
	c0.3-3.1,2.2-5.9,5-7.2c-8-1-18.1-1.7-22.6-1.7c-0.6,0-1,0-1.1,0s-2.6,0.5-11.9,9.2c-3.4,3.2-5.5,7.6-5.6,12.3l-0.2,5.6
	c0,0.8-0.3,1.5-0.9,2l-13.9,14c-0.3,0.3-0.6,0.5-0.9,0.6l-27.5,12.4c-0.6,0.3-1,0.9-1,1.5v0.1c-0.1,0.8,0.4,1.5,1.1,1.8l11.4,4.5
	c1.5,0.6,2.3,2.4,1.6,3.9c0,0,0,0.1,0,0.1l-5.3,11.6l0.5,24.2l6.2,0.2c0.5,0,1,0.2,1.4,0.4l15.2,8.9c1,0.6,1.6,1.7,1.5,2.8
	l-1.5,15.4c0,0.3-0.1,0.6-0.2,0.8l-18.4,44.4L2639.3,732.8z"/>
<g id="path13183">
	<path class="st0" d="M2693.2,515.9c-1.6,0-3.2-0.7-4.2-1.9l-13.2-15.3c-0.7-0.8-1.2-1.9-1.3-3l-0.7-6.4c-0.4-3.1,1.8-5.8,4.9-6.2
		c1-0.1,2.1,0.1,3,0.5l21.5,10.2c1.2,0.6,2.1,1.5,2.6,2.7l4.7,9.9c1.3,2.8,0.1,6.1-2.6,7.4c-0.5,0.3-1.1,0.4-1.7,0.5l-12.3,1.5
		C2693.7,515.9,2693.5,515.9,2693.2,515.9z M2680.4,494.9l13,15l11.6-1.4l-4.4-9.3l-20.8-9.8L2680.4,494.9z"/>
</g>
<path class="st0" d="M2649.9,582.9c-1.7-0.1-2.9-1.5-2.8-3.2c0.1-1.2,0.9-2.3,2.1-2.7l37.7-9.2c0.2-0.1,0.5-0.1,0.7-0.1h2.6
	c1.6,0.2,2.8,1.7,2.6,3.4c-0.2,1.4-1.2,2.4-2.6,2.6l0,0h-2.2l-37.4,9.1C2650.5,582.9,2650.2,582.9,2649.9,582.9z"/>
<path class="st0" d="M2658.2,557.2c-0.2,0-0.4,0-0.6-0.1l-22.4-4.9c-1.6-0.6-2.4-2.3-1.8-3.8c0.5-1.3,1.7-2.1,3.1-2l22.4,4.9
	c1.6,0.5,2.5,2.1,2.1,3.7C2660.5,556.3,2659.5,557.1,2658.2,557.2L2658.2,557.2z"/>
<g id="path13181">
	<path class="st0" d="M2730,743.5c-1.1,0-2.1-0.6-2.6-1.6l-5-9.6c-0.2-0.5-0.4-1-0.3-1.5l5.3-106.3c0-0.3,0.1-0.7,0.2-1l22.5-54.4
		l1.6-16.5l-16.3-9.5l-10.3-0.3c-1.6-0.1-2.8-1.3-2.9-2.9l-0.7-33.8c0-0.4,0.1-0.9,0.3-1.3l5.5-12.1l-11-4.4c-3.6-1.4-5.8-5-5.5-8.9
		v-0.1c0.3-3.2,2.2-6,5.1-7.3l33.1-14.9l15.8-15.9l0.2-5.7c0.3-7.5,3.5-14.5,9-19.6c12-11.2,16.2-12.8,18.6-12.9c0.5,0,1.1,0,1.9,0
		c4.4,0,14.3,0.6,24,1.6c18.4,2,20,3.9,20.9,4.9c1.8,2.1,3.2,3.8-20.4,101c-1.7,6.9-2.9,11.9-3.1,12.8c-0.3,2.6-1.9,4.8-4.1,6
		l1.9,5.8l0.7,0.2c4.7,1.3,8.1,5.6,8.3,10.5l16.5,131.5c0,0.3,0,0.7-0.1,1l-14.3,62.9c-0.3,1.4-1.5,2.3-2.9,2.3L2730,743.5z
		 M2728,730.2l3.8,7.3h87.5l13.6-60l-16.4-131.1c0-0.1,0-0.2,0-0.3c-0.1-2.4-1.7-4.5-4-5.1l-2.2-0.6c-0.9-0.3-1.7-1-2-1.9l-3.4-10.4
		c-0.3-1-0.2-2.1,0.5-2.9c0.6-0.8,1.7-1.2,2.6-1c1,0,1.5-0.6,1.8-2c0.2-1,1.2-5,3.1-13.1c5.2-21.6,20.9-85.8,21.2-95.9
		c-5.3-2-29.7-4.3-39.9-4.3c-0.8,0-1.2,0-1.4,0s-3.2,0.4-15,11.4c-4.3,4-6.9,9.6-7.1,15.5l-0.3,6.8c0,0.8-0.3,1.5-0.9,2l-17,17.2
		c-0.3,0.3-0.6,0.5-0.9,0.6l-33.6,15.1c-0.9,0.4-1.6,1.3-1.7,2.4v0.1c-0.1,1.3,0.6,2.4,1.8,2.9l13.9,5.5c1.5,0.6,2.3,2.4,1.6,3.9
		c0,0,0,0.1,0,0.1l-6.5,14.3l0.7,30.3l8.3,0.2c0.5,0,1,0.2,1.4,0.4l18.6,10.8c1,0.6,1.6,1.7,1.5,2.8l-1.8,18.9
		c0,0.3-0.1,0.6-0.2,0.8l-22.5,54.3L2728,730.2z"/>
</g>
<g id="path13183-2">
	<path class="st0" d="M2794.5,464.5c-1.8,0-3.5-0.8-4.7-2.1l-16.1-18.7c-0.8-0.9-1.3-2.1-1.5-3.3l-0.9-7.8c-0.4-3.4,2-6.4,5.4-6.8
		c1.1-0.1,2.3,0.1,3.4,0.6l26.2,12.4c1.3,0.6,2.3,1.6,2.9,2.9l5.7,12.1c1.5,3.1,0.1,6.7-2.9,8.2c-0.6,0.3-1.2,0.5-1.9,0.5l-15,1.9
		C2795,464.5,2794.8,464.5,2794.5,464.5z M2777.5,431.7c-0.1,0-0.1,0-0.2,0.1c0,0.1,0,0.1,0,0.2l0.9,7.8c0,0,0,0.1,0.1,0.1
		l16.1,18.7c0,0,0.1,0.1,0.2,0.1l0,0l15-1.9c0.1,0,0.2-0.1,0.2-0.2c0,0,0,0,0-0.1l-5.7-12.1c0,0-0.1-0.1-0.1-0.1l-26.2-12.4
		C2777.6,431.7,2777.6,431.7,2777.5,431.7L2777.5,431.7z"/>
</g>
<path class="st0" d="M2741.6,546.3c-1.7-0.1-2.9-1.5-2.8-3.2c0.1-1.2,0.9-2.3,2.1-2.7l46.1-11.3c0.2-0.1,0.5-0.1,0.7-0.1h3.2
	c1.6,0.2,2.8,1.8,2.6,3.4c-0.2,1.3-1.3,2.4-2.6,2.6h-2.8l-45.7,11.2C2742.1,546.2,2741.9,546.3,2741.6,546.3z"/>
<path class="st0" d="M2751.7,514.9c-0.2,0-0.4,0-0.6-0.1l-27.4-6c-1.6-0.6-2.4-2.3-1.8-3.8c0.5-1.3,1.7-2.1,3.1-2l27.4,6
	c1.6,0.5,2.5,2.1,2.1,3.7C2754.1,514,2753,514.8,2751.7,514.9L2751.7,514.9z"/>
<path class="st0" d="M2760.6,685c-1.7,0-3-1.4-2.9-3.1c0-0.9,0.4-1.7,1.1-2.3l30.1-22.8l28.6-80.9c0.7-1.5,2.5-2.1,4-1.3
	c1.2,0.6,1.9,2,1.6,3.3l-28.9,81.7c-0.2,0.5-0.5,1-1,1.4l-30.8,23.3C2761.9,684.8,2761.3,685,2760.6,685z"/>
<path class="st0" d="M2572.9,745.2c-1.1,0-2.1-0.6-2.6-1.6l-3.3-6.3c-0.2-0.5-0.4-1-0.3-1.5l3.5-69.8c0-0.3,0.1-0.7,0.2-1l14.7-35.6
	l1-10l-9.9-5.8l-6.5-0.2c-1.6-0.1-2.8-1.3-2.9-2.9l-0.5-22.2c0-0.4,0.1-0.9,0.3-1.3l3.2-7l-6.2-2.5c-2.8-1.1-4.5-3.9-4.2-6.9v-0.1
	c0.2-2.5,1.7-4.6,4-5.6l21.5-9.7l9.9-10l0.1-3.3c0.2-5.2,2.4-10.1,6.2-13.6c8-7.5,11-8.6,12.9-8.8c0.3,0,0.8,0,1.3,0
	c2.8,0,9.2,0.4,15.5,1c1.6,0.2,2.8,1.7,2.6,3.4c-0.1,1-0.8,1.9-1.7,2.3l-0.4,0.2c-0.6,0.3-1,0.9-1,1.5v0.1c-0.1,0.8,0.4,1.5,1.1,1.8
	l11.4,4.5c1.5,0.6,2.3,2.4,1.6,3.9c0,0,0,0.1,0,0.1l-5.3,11.6l0.3,12.2c0,0.2,0,0.5-0.1,0.7c-2.5,10.6-5.1,21.4-6.8,28.5
	c-1.1,4.4-1.9,7.8-2,8.4c-0.3,1.7-1.2,3.1-2.5,4.2l0.8,2.5c3.5,1,5.9,4.1,6.1,7.8l7.6,60.7c0,0.2,0,0.3,0,0.5l-2.6,50.9
	c0,0.2,0,0.3-0.1,0.5l-3.6,15.9c-0.3,1.4-1.5,2.3-2.9,2.3H2573L2572.9,745.2z M2572.6,735.2l2.1,4h56l3-13.3l2.5-50.4l-7.6-60.6
	c0-0.1,0-0.2,0-0.3c0-1.1-0.8-2.1-1.9-2.4l-1.4-0.4c-0.9-0.3-1.7-1-2-1.9l-2.2-6.8c-0.4-1-0.2-2.2,0.5-3c0.6-0.8,1.6-1.1,2.6-0.9
	c0.1-0.1,0.1-0.3,0.1-0.5c0.1-0.7,0.8-3.3,2.1-8.6c1.7-7,4.3-17.6,6.7-28.1l-0.3-12.6c0-0.4,0.1-0.9,0.3-1.3l4.3-9.4l-8.5-3.4
	c-3.2-1.3-5.1-4.4-4.8-7.8v-0.1c0-0.5,0.1-1,0.3-1.5c-4-0.3-7.4-0.5-9.2-0.5h-0.8c-0.3,0.1-2.5,0.8-9.3,7.2
	c-2.6,2.4-4.2,5.8-4.3,9.4l-0.2,4.5c0,0.8-0.3,1.5-0.9,2l-11.1,11.3c-0.3,0.3-0.6,0.5-0.9,0.6l-22,9.9c-0.3,0.1-0.5,0.4-0.5,0.7v0.1
	c0,0.4,0.2,0.7,0.5,0.8l9.1,3.6c1.5,0.6,2.3,2.4,1.6,3.9c0,0,0,0.1,0,0.1l-4.2,9.2l0.4,18.7l4.5,0.1c0.5,0,1,0.2,1.4,0.4l12.2,7.1
	c1,0.6,1.6,1.8,1.4,2.9l-1.2,12.4c0,0.3-0.1,0.6-0.2,0.8l-14.7,35.5L2572.6,735.2z"/>
<path class="st0" d="M2142.6,745.2h-83.2c-1.7,0-3-1.3-3-3V463.5c0-1.7,1.3-3,3-3h83.2c1.7,0,3,1.3,3,3v278.7
	C2145.5,743.9,2144.2,745.2,2142.6,745.2z M2062.4,739.2h77.2V466.5h-77.2V739.2z"/>
<path class="st0" d="M2142.6,361h-83.2c-1.7,0-3-1.3-3-3v-20.5c0-1.7,1.3-3,3-3h83.2c1.7,0,3,1.3,3,3v20.6
	C2145.5,359.7,2144.2,361.1,2142.6,361z M2062.4,355.1h77.2v-14.6h-77.2V355.1z"/>
<path class="st0" d="M2142.6,340.5h-83.2c-1.7,0-3-1.4-3-3c0-0.5,0.1-0.9,0.3-1.3l10.8-20.5c0.5-1,1.5-1.6,2.6-1.6h61.6
	c1.1,0,2.1,0.6,2.6,1.6l10.7,20.3c0.9,1.4,0.4,3.3-1,4.1C2143.6,340.4,2143.1,340.5,2142.6,340.5z M2064.3,334.6h73.3L2130,320h-58
	L2064.3,334.6z"/>
<path class="st0" d="M2130.8,320h-59.6c-1.7,0-3-1.3-3-3v-20.5c0-1.7,1.3-3,3-3h59.6c1.7,0,3,1.3,3,3V317
	C2133.8,318.7,2132.4,320,2130.8,320z M2074.2,314.1h53.6v-14.6h-53.6V314.1z"/>
<path class="st0" d="M2130.8,299.5h-59.6c-1.7,0-3-1.4-3-3c0-0.5,0.1-0.9,0.3-1.3l29.3-56.5c0.5-1,1.5-1.6,2.6-1.6h0.9
	c1.1,0,2.1,0.6,2.6,1.6l29.2,56.3c0.9,1.4,0.4,3.3-1,4.1C2131.8,299.3,2131.3,299.5,2130.8,299.5L2130.8,299.5z M2076.1,293.6h49.8
	l-24.9-48L2076.1,293.6z"/>
<path class="st0" d="M2153.2,466.5h-104.6c-1.7,0-3-1.3-3-3V359c0-1.7,1.3-3,3-3h104.6c1.7,0,3,1.3,3,3v104.6
	C2156.2,465.2,2154.9,466.5,2153.2,466.5z M2051.7,460.6h98.6V362h-98.6V460.6z"/>
<path class="st0" d="M2086.1,729.8c-1.7,0-3-1.3-3-3v-248c0.2-1.6,1.7-2.8,3.4-2.6c1.4,0.2,2.4,1.2,2.6,2.6v248
	C2089,728.5,2087.7,729.8,2086.1,729.8z"/>
<path class="st0" d="M2115.9,729.8c-1.7,0-3-1.3-3-3v-248c0.2-1.6,1.7-2.8,3.4-2.6c1.4,0.2,2.4,1.2,2.6,2.6v248
	C2118.8,728.5,2117.5,729.8,2115.9,729.8z"/>
<path class="st0" d="M2101.4,453.6h-0.8c-23.2,0-42-18.8-42-42l0,0v-0.8c0-23.2,18.8-42,42-42h0.8c23.2,0,42,18.8,42,42v0.8
	C2143.4,434.8,2124.6,453.6,2101.4,453.6L2101.4,453.6z M2100.6,374.9c-19.9,0-36,16.1-36,36v0.8c0,19.9,16.1,36,36,36h0.8
	c19.9,0,36-16.1,36-36v-0.8c0-19.9-16.1-36-36-36H2100.6z"/>
<path class="st0" d="M2124.7,427c-0.6,0-1.2-0.2-1.8-0.6l-23.7-17.3c-0.8-0.6-1.2-1.5-1.2-2.4V384c-0.2-1.6,0.9-3.1,2.6-3.4
	c1.6-0.2,3.1,0.9,3.4,2.6c0,0.3,0,0.5,0,0.8v21.2l22.5,16.4c1.3,1,1.6,2.9,0.6,4.2C2126.5,426.5,2125.6,426.9,2124.7,427L2124.7,427
	z"/>
<path class="st0" d="M3670.9,745.2h-264.4c-1.7,0-3-1.4-3-3c0-0.7,0.3-1.4,0.8-2l178.8-197.9c1.1-1.2,3-1.3,4.2-0.2
	c0.3,0.3,0.5,0.6,0.7,1l85.7,197.9c0.6,1.5-0.1,3.3-1.6,3.9C3671.7,745.1,3671.3,745.2,3670.9,745.2L3670.9,745.2z M3413.2,739.2
	h253.2l-82-189.5L3413.2,739.2z"/>
<path class="st0" d="M3764.7,745.2h-93.8c-1.2,0-2.3-0.7-2.7-1.8l-85.7-197.9c-0.6-1.5,0.2-3.3,1.7-3.9c1.1-0.4,2.4-0.1,3.2,0.7
	l179.3,197.8c1.2,1.2,1.2,3.1,0,4.2C3766.2,744.9,3765.5,745.2,3764.7,745.2L3764.7,745.2z M3672.9,739.2h85.1l-162.8-179.6
	L3672.9,739.2z"/>
<path class="st0" d="M3550.1,612.9c-0.3,0-0.5,0-0.8-0.1l-19.1-5.4c-1.6-0.2-2.8-1.7-2.6-3.4c0.2-1.6,1.7-2.8,3.4-2.6
	c0.3,0,0.5,0.1,0.8,0.2l17.4,4.9l10.7-11.2c0.7-0.8,1.8-1.1,2.8-0.8l10.4,2.5l8.4-4.4c0.7-0.3,1.4-0.4,2.1-0.2l14.6,3.8l5.9-5.8
	c1-1,2.6-1.1,3.7-0.4l17.9,12l6.6,3.4l0.9-5.5c0.5-1.6,2.2-2.5,3.8-2c1.3,0.4,2.1,1.6,2.1,3l-1.6,9.5c-0.3,1.6-1.9,2.7-3.5,2.4
	c-0.3-0.1-0.5-0.1-0.8-0.3l-10.3-5.4l-0.3-0.2l-16-10.7l-5.3,5.3c-0.7,0.7-1.8,1-2.8,0.8l-15.1-3.9l-8.4,4.4
	c-0.6,0.3-1.4,0.4-2.1,0.3l-9.8-2.3l-10.8,11.2C3551.7,612.5,3550.9,612.9,3550.1,612.9z"/>
<path class="st0" d="M3425.9,723.7c-1.3,0-2.4-0.8-2.8-2l-42.4-116.2c-0.5-1.6,0.3-3.3,1.9-3.8c1-0.3,2.2-0.1,3,0.7l77.6,77.3
	c1.1,1.1,1.2,2.9,0.1,4.1l-35.2,38.9C3427.5,723.3,3426.7,723.7,3425.9,723.7z M3390.9,616.1l36.2,99l30-33.2L3390.9,616.1z"/>
<path class="st0" d="M3406.5,745.2h-155.9c-1.7-0.1-3-1.4-2.9-3.1c0-0.7,0.3-1.4,0.8-1.9l132.9-137.7c1.2-1.2,3.1-1.2,4.2,0
	c0.3,0.3,0.5,0.6,0.7,1l42.4,116.2c0.4,1,0.1,2.2-0.6,3l-19.4,21.5C3408.1,744.8,3407.3,745.2,3406.5,745.2z M3257.6,739.2h147.6
	l17.3-19.2L3382.3,610L3257.6,739.2z"/>
<path class="st0" d="M3106.9,745.2h-109.8c-1.7,0-3-1.3-3-3V616.1c0-1.7,1.3-3,3-3h109.8c1.7,0,3,1.3,3,3v126.1
	C3109.8,743.8,3108.5,745.2,3106.9,745.2z M3000.1,739.2h103.9V619.1h-103.9V739.2z"/>
<path class="st0" d="M3002,616.1c-1.7,0-3-1.3-3-3v-26.5c-0.2-1.6,0.9-3.1,2.6-3.4c1.6-0.2,3.1,0.9,3.4,2.6c0,0.3,0,0.5,0,0.8v26.5
	C3004.9,614.7,3003.6,616.1,3002,616.1z"/>
<path class="st0" d="M3102,616.1c-1.7,0-3-1.3-3-3v-26.5c-0.2-1.6,0.9-3.1,2.6-3.4c1.6-0.2,3.1,0.9,3.4,2.6c0,0.3,0,0.5,0,0.8v26.5
	C3104.9,614.7,3103.6,616.1,3102,616.1z"/>
<path class="st0" d="M3093.9,745.2h-82.6c-1.7,0-3-1.3-3-3v-113c0-1.7,1.3-3,3-3h82.6c1.7,0,3,1.3,3,3v113
	C3096.9,743.8,3095.5,745.2,3093.9,745.2z M3014.2,739.2h76.7V632.2h-76.7V739.2z"/>
<path class="st0" d="M3080.1,745.2h-55.1c-1.7,0-3-1.3-3-3V673c0-16.7,13.6-30.2,30.2-30.2h0.6c16.7,0,30.2,13.6,30.2,30.2v69.2
	C3083,743.8,3081.7,745.2,3080.1,745.2z M3028,739.2h49.2V673c0-13.4-10.9-24.3-24.3-24.3h-0.6c-13.4,0-24.3,10.9-24.3,24.3
	L3028,739.2z"/>
<path class="st0" d="M3091.5,514.4h-77.9c-1.7-0.1-3-1.4-2.9-3.1c0-1,0.5-1.8,1.3-2.4l8.6-5.4c9.8-6.2,18.9-13.5,27-21.8l2.8-2.8
	c1.2-1.2,3.1-1.2,4.2,0c0,0,0,0,0,0l2.8,2.8c8.1,8.3,17.2,15.6,27,21.8l8.6,5.4c1.4,0.9,1.7,2.8,0.8,4.2
	C3093.3,513.9,3092.4,514.4,3091.5,514.4L3091.5,514.4z M3023.8,508.5h57.4c-10.2-6.4-19.6-14-28.1-22.6l-0.6-0.7l-0.6,0.7
	C3043.5,494.4,3034,502,3023.8,508.5L3023.8,508.5z"/>
<path class="st0" d="M3113.8,589h-122.6c-1.3,0-2.5-0.9-2.9-2.2c-8.8-32.5,8.1-66.4,39.2-79c0.4-0.1,0.7-0.2,1.1-0.2h47.6
	c0.4,0,0.8,0.1,1.1,0.2c31.2,12.6,48,46.5,39.2,79C3116.4,588.1,3115.2,589,3113.8,589z M2993.6,583.1h117.9
	c6.6-28.8-8.5-58.2-35.8-69.6h-46.4C3002.1,524.9,2986.9,554.3,2993.6,583.1L2993.6,583.1z"/>
<path class="st0" d="M3052.6,483.9c-1.7,0-3-1.3-3-3v-13.8c-0.2-1.6,0.9-3.1,2.6-3.4c1.6-0.2,3.1,0.9,3.4,2.6c0,0.3,0,0.5,0,0.8
	v13.7C3055.5,482.5,3054.2,483.8,3052.6,483.9z"/>
<path class="st0" d="M3154.7,745.2h-47.6c-1.7,0-3-1.3-3-3V640.5c0-1.7,1.3-3,3-3h47.6c1.7,0,3,1.3,3,3v101.7
	C3157.6,743.9,3156.3,745.2,3154.7,745.2z M3110,739.2h41.7v-95.8h-41.7L3110,739.2z"/>
<path class="st0" d="M3150.9,643.4h-40.1c-1.7,0-3-1.3-3-3v-22.5c0.2-1.6,1.7-2.8,3.4-2.6c1.4,0.2,2.4,1.2,2.6,2.6v19.5h34.1v-19.5
	c0.2-1.6,1.7-2.8,3.4-2.6c1.4,0.2,2.4,1.2,2.6,2.6v22.5C3153.9,642,3152.5,643.4,3150.9,643.4z"/>
<path class="st0" d="M3141.2,694.3h-20.6c-1.7,0-3-1.3-3-3v-25.9c0-7.3,5.9-13.1,13.2-13.2h0.2c7.3,0,13.1,5.9,13.2,13.2v25.9
	C3144.1,693,3142.8,694.3,3141.2,694.3z M3123.6,688.4h14.6v-22.9c0-4-3.2-7.2-7.2-7.2h-0.2c-4,0-7.2,3.2-7.2,7.2L3123.6,688.4z"/>
<path class="st0" d="M3141.2,744.5h-20.6c-1.7,0-3-1.3-3-3l0,0v-25.9c0-7.3,5.9-13.1,13.2-13.2h0.2c7.3,0,13.1,5.9,13.2,13.2v25.9
	C3144.1,743.1,3142.8,744.5,3141.2,744.5z M3123.6,738.6h14.6v-22.9c0-4-3.2-7.2-7.2-7.2h-0.2c-4,0-7.2,3.2-7.2,7.2L3123.6,738.6z"
	/>
<path class="st0" d="M3153.1,591.7h-44.5c-1.7,0-3-1.4-2.9-3.1c0-0.9,0.5-1.8,1.2-2.3l4.9-3.5c5.6-4,10.7-8.6,15.2-13.7l1.6-1.8
	c0.6-0.6,1.4-1,2.2-1l0,0c0.9,0,1.7,0.4,2.2,1l1.6,1.8c4.5,5.2,9.6,9.8,15.2,13.7l4.9,3.5c1.3,1,1.6,2.9,0.6,4.2
	C3154.9,591.2,3154,591.7,3153.1,591.7L3153.1,591.7z M3117.9,585.8h26c-4.7-3.6-9.1-7.6-13-12
	C3126.9,578.2,3122.6,582.2,3117.9,585.8L3117.9,585.8z"/>
<path class="st0" d="M3130.9,572.2c-1.7,0-3-1.3-3-3l0,0v-8.8c-0.2-1.6,0.9-3.1,2.6-3.4c1.6-0.2,3.1,0.9,3.4,2.6c0,0.3,0,0.5,0,0.8
	v8.8C3133.8,570.9,3132.5,572.2,3130.9,572.2z"/>
<path class="st0" d="M3154.1,617.8h-46.3c-1.3,0-2.5-0.9-2.9-2.2c-3-11.1,1.4-22.9,10.9-29.3c0.5-0.3,1.1-0.5,1.7-0.5h27
	c0.6,0,1.2,0.2,1.7,0.5c9.5,6.5,13.8,18.2,10.9,29.3C3156.6,616.9,3155.4,617.8,3154.1,617.8z M3110.2,611.9h41.5
	c1.2-7.7-1.9-15.5-8.2-20.2h-25.1C3112.1,596.4,3108.9,604.2,3110.2,611.9L3110.2,611.9z"/>
<path class="st0" d="M2996.9,745.2h-47.6c-1.7,0-3-1.3-3-3V640.5c0-1.7,1.3-3,3-3h47.6c1.7,0,3,1.3,3,3v101.7
	C2999.9,743.9,2998.5,745.2,2996.9,745.2z M2952.3,739.2h41.7v-95.8h-41.7V739.2z"/>
<path class="st0" d="M2993.1,643.4h-40.1c-1.7,0-3-1.3-3-3v-22.5c0.2-1.6,1.7-2.8,3.4-2.6c1.4,0.2,2.4,1.2,2.6,2.6v19.5h34.1v-19.5
	c0.2-1.6,1.7-2.8,3.4-2.6c1.4,0.2,2.4,1.2,2.6,2.6v22.5C2996.1,642,2994.8,643.3,2993.1,643.4z"/>
<path class="st0" d="M2983.4,694.3h-20.6c-1.7,0-3-1.3-3-3v-25.9c0-7.3,5.9-13.1,13.2-13.2h0.2c7.3,0,13.1,5.9,13.2,13.2v25.9
	C2986.3,693,2985,694.3,2983.4,694.3z M2965.8,688.4h14.6v-22.9c0-4-3.2-7.2-7.2-7.2h-0.2c-4,0-7.2,3.2-7.2,7.2L2965.8,688.4z"/>
<path class="st0" d="M2983.4,744.5h-20.6c-1.7,0-3-1.3-3-3l0,0v-25.9c0-7.3,5.9-13.1,13.2-13.2h0.2c7.3,0,13.1,5.9,13.2,13.2v25.9
	C2986.3,743.1,2985,744.5,2983.4,744.5z M2965.8,738.6h14.6v-22.9c0-4-3.2-7.2-7.2-7.2h-0.2c-4,0-7.2,3.2-7.2,7.2L2965.8,738.6z"/>
<path class="st0" d="M2995.3,591.7h-44.5c-1.7,0-3-1.4-2.9-3.1c0-0.9,0.5-1.8,1.2-2.3l4.9-3.5c5.6-4,10.7-8.6,15.2-13.7l1.6-1.8
	c1.1-1.2,3-1.4,4.2-0.3c0.1,0.1,0.2,0.2,0.3,0.3l1.6,1.8c4.5,5.2,9.6,9.8,15.2,13.7l4.9,3.5c1.3,1,1.6,2.9,0.6,4.2
	C2997.1,591.3,2996.3,591.7,2995.3,591.7L2995.3,591.7z M2960.1,585.8h26c-4.7-3.6-9.1-7.6-13-12
	C2969.1,578.2,2964.8,582.2,2960.1,585.8L2960.1,585.8z"/>
<path class="st0" d="M2973.1,572.2c-1.7,0-3-1.3-3-3l0,0v-8.8c0.2-1.6,1.7-2.8,3.4-2.6c1.4,0.2,2.4,1.2,2.6,2.6v8.8
	C2976,570.9,2974.7,572.2,2973.1,572.2z"/>
<path class="st0" d="M2996.2,617.8h-46.3c-1.3,0-2.5-0.9-2.9-2.2c-3-11.1,1.4-22.9,10.9-29.3c0.5-0.3,1.1-0.5,1.7-0.5h27
	c0.6,0,1.2,0.2,1.7,0.5c9.5,6.5,13.8,18.2,10.9,29.3C2998.8,616.9,2997.6,617.8,2996.2,617.8z M2952.4,611.9h41.5
	c1.2-7.7-1.9-15.5-8.2-20.2h-25.1C2954.3,596.4,2951.1,604.2,2952.4,611.9L2952.4,611.9z"/>
<path class="st0" d="M3284.1,745.2h-39.3c-1.7,0-3-1.3-3-3l4.6-191.3c0.1-1.6,1.4-2.9,3-2.9h30.1c1.6,0,2.9,1.3,3,2.9l4.6,191
	c0,0.1,0,0.2,0,0.3C3287,743.9,3285.7,745.2,3284.1,745.2z M3247.8,739.2h33.2l-4.5-185.3h-24.3L3247.8,739.2z"/>
<path class="st0" d="M3289.8,688.7h-50.9c-1.6-0.2-2.8-1.7-2.6-3.4c0.2-1.4,1.2-2.4,2.6-2.6h50.9c1.6-0.2,3.1,0.9,3.4,2.6
	c0.2,1.6-0.9,3.1-2.6,3.4C3290.3,688.7,3290.1,688.7,3289.8,688.7z"/>
<path class="st0" d="M3289.8,633.8h-50.9c-1.6,0.2-3.1-0.9-3.4-2.6c-0.2-1.6,0.9-3.1,2.6-3.4c0.3,0,0.5,0,0.8,0h50.9
	c1.6,0.2,2.8,1.7,2.6,3.4C3292.2,632.5,3291.2,633.6,3289.8,633.8z"/>
<path class="st0" d="M3287.9,633.8h-47c-1.6,0.2-3.1-0.9-3.4-2.6c-0.2-1.6,0.9-3.1,2.6-3.4c0.3,0,0.5,0,0.8,0h47
	c1.6-0.2,3.1,0.9,3.4,2.6c0.2,1.6-0.9,3.1-2.6,3.4C3288.4,633.8,3288.1,633.8,3287.9,633.8z"/>
<path class="st0" d="M3286.6,583.4h-44.4c-1.6-0.2-2.8-1.7-2.6-3.4c0.2-1.4,1.2-2.4,2.6-2.6h44.4c1.6-0.2,3.1,0.9,3.4,2.6
	c0.2,1.6-0.9,3.1-2.6,3.4C3287.1,583.4,3286.8,583.4,3286.6,583.4z"/>
<path class="st0" d="M3278.1,552.4c-1.7,0-3-1.3-3-3c0-5.9-4.8-10.8-10.8-10.8s-10.8,4.8-10.8,10.8c0.2,1.6-0.9,3.1-2.6,3.4
	c-1.6,0.2-3.1-0.9-3.4-2.6c0-0.3,0-0.5,0-0.8c-0.2-9.2,7.1-16.9,16.3-17.1s16.9,7.1,17.1,16.3c0,0.3,0,0.5,0,0.8
	C3281,551,3279.7,552.3,3278.1,552.4z"/>
<path class="st0" d="M3264.4,537c-1.7,0-3-1.3-3-3l0,0v-6.7c-0.2-1.6,0.9-3.1,2.6-3.4c1.6-0.2,3.1,0.9,3.4,2.6c0,0.3,0,0.5,0,0.8
	v6.7C3267.3,535.6,3266,537,3264.4,537z"/>
<path class="st0" d="M3264.4,579.7c-1.7,0-3-1.3-3-3v-10.9c-0.2-1.6,0.9-3.1,2.6-3.4c1.6-0.2,3.1,0.9,3.4,2.6c0,0.3,0,0.5,0,0.8
	v10.9C3267.3,578.4,3266,579.7,3264.4,579.7z"/>
<path class="st0" d="M3285.9,553.6h-43.1c-1.6,0.2-3.1-0.9-3.4-2.6c-0.2-1.6,0.9-3.1,2.6-3.4c0.3,0,0.5,0,0.8,0h43.1
	c1.6,0.2,2.8,1.7,2.6,3.4C3288.3,552.3,3287.3,553.4,3285.9,553.6z"/>
<path class="st0" d="M3214.3,745.2h-34.6c-1.7,0-3-1.3-3-3l4.1-168.3c0.1-1.6,1.4-2.9,3-2.9h26.5c1.6,0,2.9,1.3,3,2.9l4.1,168.1
	c0,0.1,0,0.2,0,0.3C3217.2,743.9,3215.9,745.2,3214.3,745.2z M3182.7,739.2h28.5l-3.9-162.4h-20.7L3182.7,739.2z"/>
<path class="st0" d="M3219.4,695.5h-44.8c-1.6-0.2-2.8-1.7-2.6-3.4c0.2-1.4,1.2-2.4,2.6-2.6h44.8c1.6,0.2,2.8,1.7,2.6,3.4
	C3221.8,694.2,3220.7,695.3,3219.4,695.5z"/>
<path class="st0" d="M3219.4,647.1h-44.8c-1.6,0.2-3.1-0.9-3.4-2.6c-0.2-1.6,0.9-3.1,2.6-3.4c0.3,0,0.5,0,0.8,0h44.8
	c1.6-0.2,3.1,0.9,3.4,2.6c0.2,1.6-0.9,3.1-2.6,3.4C3219.9,647.1,3219.6,647.1,3219.4,647.1z"/>
<path class="st0" d="M3217.6,647.1h-41.4c-1.6-0.2-2.8-1.7-2.6-3.4c0.2-1.4,1.2-2.4,2.6-2.6h41.4c1.6-0.2,3.1,0.9,3.4,2.6
	c0.2,1.6-0.9,3.1-2.6,3.4C3218.2,647.1,3217.9,647.1,3217.6,647.1z"/>
<path class="st0" d="M3216.5,602.8h-39.1c-1.6,0.2-3.1-0.9-3.4-2.6c-0.2-1.6,0.9-3.1,2.6-3.4c0.3,0,0.5,0,0.8,0h39.1
	c1.6,0.2,2.8,1.7,2.6,3.4C3218.9,601.5,3217.8,602.6,3216.5,602.8z"/>
<path class="st0" d="M3209.1,575.5c-1.7,0-3-1.3-3-3c0-5-4.1-9.1-9.1-9.1c-5,0-9.1,4.1-9.1,9.1c-0.2,1.6-1.7,2.8-3.4,2.6
	c-1.4-0.2-2.4-1.2-2.6-2.6c0.2-8.3,7.1-14.9,15.5-14.7c8,0.2,14.5,6.7,14.7,14.7C3212,574.1,3210.7,575.5,3209.1,575.5z"/>
<path class="st0" d="M3196.9,562c-1.7,0-3-1.3-3-3l0,0v-5.9c0.2-1.6,1.7-2.8,3.4-2.6c1.4,0.2,2.4,1.2,2.6,2.6v5.9
	C3199.9,560.7,3198.6,562,3196.9,562z"/>
<path class="st0" d="M3196.9,599.6c-1.7,0-3-1.3-3-3V587c0.2-1.6,1.7-2.8,3.4-2.6c1.4,0.2,2.4,1.2,2.6,2.6v9.6
	C3199.9,598.2,3198.6,599.6,3196.9,599.6z"/>
<path class="st0" d="M3215.9,576.6H3178c-1.6-0.2-2.8-1.7-2.6-3.4c0.2-1.4,1.2-2.4,2.6-2.6h37.9c1.6-0.2,3.1,0.9,3.4,2.6
	c0.2,1.6-0.9,3.1-2.6,3.4C3216.4,576.6,3216.2,576.6,3215.9,576.6z"/>
<path class="st0" d="M2855.3,745.2h-39.3c-1.7,0-3-1.3-3-3l4.6-191.3c0.1-1.6,1.4-2.9,3-2.9h30.1c1.6,0,2.9,1.3,3,2.9l4.6,191.3
	C2858.3,743.8,2856.9,745.2,2855.3,745.2L2855.3,745.2z M2819,739.2h33.2l-4.5-185.3h-24.3L2819,739.2z"/>
<path class="st0" d="M2861.1,688.7h-50.9c-1.6-0.2-2.8-1.7-2.6-3.4c0.2-1.4,1.2-2.4,2.6-2.6h50.9c1.6,0.2,2.8,1.7,2.6,3.4
	C2863.5,687.5,2862.4,688.5,2861.1,688.7z"/>
<path class="st0" d="M2861.1,633.8h-50.9c-1.6-0.2-2.8-1.7-2.6-3.4c0.2-1.4,1.2-2.4,2.6-2.6h50.9c1.6,0.2,2.8,1.7,2.6,3.4
	C2863.5,632.5,2862.4,633.6,2861.1,633.8z"/>
<path class="st0" d="M2859.1,633.8h-47c-1.6-0.2-2.8-1.7-2.6-3.4c0.2-1.4,1.2-2.4,2.6-2.6h47c1.6,0.2,2.8,1.7,2.6,3.4
	C2861.5,632.5,2860.5,633.6,2859.1,633.8z"/>
<path class="st0" d="M2857.8,583.4h-44.4c-1.6,0.2-3.1-0.9-3.4-2.6c-0.2-1.6,0.9-3.1,2.6-3.4c0.3,0,0.5,0,0.8,0h44.4
	c1.6-0.2,3.1,0.9,3.4,2.6c0.2,1.6-0.9,3.1-2.6,3.4C2858.3,583.4,2858.1,583.4,2857.8,583.4z"/>
<path class="st0" d="M2849.3,552.4c-1.7,0-3-1.3-3-3c0-5.9-4.8-10.8-10.8-10.8s-10.8,4.8-10.8,10.8c0.2,1.6-0.9,3.1-2.6,3.4
	c-1.6,0.2-3.1-0.9-3.4-2.6c0-0.3,0-0.5,0-0.8c-0.2-9.2,7.1-16.9,16.3-17.1s16.9,7.1,17.1,16.3c0,0.3,0,0.5,0,0.8
	C2852.3,551,2851,552.3,2849.3,552.4z"/>
<path class="st0" d="M2835.6,537c-1.7,0-3-1.3-3-3l0,0v-6.7c-0.2-1.6,0.9-3.1,2.6-3.4c1.6-0.2,3.1,0.9,3.4,2.6c0,0.3,0,0.5,0,0.8
	v6.7C2838.6,535.6,2837.2,537,2835.6,537z"/>
<path class="st0" d="M2835.6,579.7c-1.7,0-3-1.3-3-3v-10.9c0.2-1.6,1.7-2.8,3.4-2.6c1.4,0.2,2.4,1.2,2.6,2.6v10.9
	C2838.6,578.4,2837.2,579.7,2835.6,579.7z"/>
<path class="st0" d="M2857.2,553.6h-43.1c-1.6,0.2-3.1-0.9-3.4-2.6c-0.2-1.6,0.9-3.1,2.6-3.4c0.3,0,0.5,0,0.8,0h43.1
	c1.6,0.2,2.8,1.7,2.6,3.4C2859.6,552.3,2858.5,553.4,2857.2,553.6L2857.2,553.6z"/>
<path class="st0" d="M2920.3,745.2h-34.6c-1.7,0-3-1.3-3-3l4.1-168.3c0.1-1.6,1.4-2.9,3-2.9h26.5c1.6,0,2.9,1.3,3,2.9l4.1,168.3
	C2923.3,743.8,2922,745.2,2920.3,745.2L2920.3,745.2z M2888.8,739.2h28.5l-3.9-162.4h-20.7L2888.8,739.2z"/>
<path class="st0" d="M2925.4,695.5h-44.8c-1.6-0.2-2.8-1.7-2.6-3.4c0.2-1.4,1.2-2.4,2.6-2.6h44.8c1.6,0.2,2.8,1.7,2.6,3.4
	C2927.8,694.2,2926.8,695.3,2925.4,695.5z"/>
<path class="st0" d="M2925.4,647.1h-44.8c-1.6-0.2-2.8-1.7-2.6-3.4c0.2-1.4,1.2-2.4,2.6-2.6h44.8c1.6,0.2,2.8,1.7,2.6,3.4
	C2927.8,645.9,2926.8,646.9,2925.4,647.1z"/>
<path class="st0" d="M2923.7,647.1h-41.4c-1.6-0.2-2.8-1.7-2.6-3.4c0.2-1.4,1.2-2.4,2.6-2.6h41.4c1.6-0.2,3.1,0.9,3.4,2.6
	c0.2,1.6-0.9,3.1-2.6,3.4C2924.2,647.1,2924,647.1,2923.7,647.1z"/>
<path class="st0" d="M2922.6,602.8h-39.1c-1.6,0.2-3.1-0.9-3.4-2.6c-0.2-1.6,0.9-3.1,2.6-3.4c0.3,0,0.5,0,0.8,0h39.1
	c1.6-0.2,3.1,0.9,3.4,2.6c0.2,1.6-0.9,3.1-2.6,3.4C2923.1,602.8,2922.8,602.8,2922.6,602.8z"/>
<path class="st0" d="M2915.1,575.5c-1.7,0-3-1.3-3-3c0-5-4.1-9.1-9.1-9.1c-5,0-9.1,4.1-9.1,9.1c0,0,0,0,0,0c0.2,1.6-0.9,3.1-2.6,3.4
	c-1.6,0.2-3.1-0.9-3.4-2.6c0-0.3,0-0.5,0-0.8c-0.2-8.3,6.4-15.2,14.7-15.5c8.3-0.2,15.2,6.4,15.5,14.7c0,0.3,0,0.5,0,0.8
	C2918.1,574.1,2916.7,575.5,2915.1,575.5z"/>
<path class="st0" d="M2903.1,562c-1.7,0-3-1.3-3-3l0,0v-5.9c-0.2-1.6,0.9-3.1,2.6-3.4c1.6-0.2,3.1,0.9,3.4,2.6c0,0.3,0,0.5,0,0.8
	v5.9C2906,560.7,2904.7,562,2903.1,562z"/>
<path class="st0" d="M2903.1,599.6c-1.7,0-3-1.3-3-3V587c0.2-1.6,1.7-2.8,3.4-2.6c1.4,0.2,2.4,1.2,2.6,2.6v9.6
	C2906,598.2,2904.7,599.6,2903.1,599.6z"/>
<path class="st0" d="M2922,576.6h-37.9c-1.6-0.2-2.8-1.7-2.6-3.4c0.2-1.4,1.2-2.4,2.6-2.6h37.9c1.6-0.2,3.1,0.9,3.4,2.6
	c0.2,1.6-0.9,3.1-2.6,3.4C2922.5,576.6,2922.3,576.6,2922,576.6L2922,576.6z"/>
<path class="st0" d="M3320.6,745.2h-537.2c-1.6,0.2-3.1-0.9-3.4-2.6c-0.2-1.6,0.9-3.1,2.6-3.4c0.3,0,0.5,0,0.8,0h537.2
	c1.6-0.2,3.1,0.9,3.4,2.6c0.2,1.6-0.9,3.1-2.6,3.4C3321.1,745.2,3320.8,745.2,3320.6,745.2L3320.6,745.2z"/>
<path class="st0" d="M1685.3,745.2c-1.7,0-3-1.3-3-3l-1.4-205.6l-0.3-43.8l-0.2-33.8l-73.7-19.8c-0.6-0.2-1.2-0.5-1.6-1l-29.6-36.9
	c-6.4,1.1-12.8,1.6-19.2,1.7c-35.1,0-39.5-20-39.6-20.9c-0.3-1.6,0.8-3.2,2.4-3.5c0.2,0,0.3,0,0.5,0l19.7-0.1v-2
	c0-1.3,0.8-2.4,2-2.8c2.6-0.8,5.3-1.3,8.1-1.2c12.2,0,25.1,7.3,28.9,9.6c22-5.3,75.1-10.6,116.1-14.1c1.5-0.1,2.9,0.9,3.2,2.4
	c1.4,7.1,2.4,14.5,3.3,21.6c1.5,11.6,2.9,22.5,6.1,31c0.1,0.3,0.2,0.7,0.2,1c0,0.1,0,0.3,0,0.4c-8.3,64.8-0.9,119.6,21.9,162.8
	c16.7,31.5,40.9,56.4,74.1,76.4c0.9,0.5,1.4,1.5,1.4,2.6v75.8c0,1.7-1.3,3-3,3l-55,0.2h-2.1l-59.2,0.2L1685.3,745.2z M1609.1,433.6
	l75,20.2c1.3,0.4,2.2,1.5,2.2,2.8l0.2,36.1l0.3,43.8l1.4,202.7l56.2-0.2h2.1l52.1-0.2v-71.2c-33.4-20.3-57.9-45.8-74.8-77.8
	c-23.3-44.1-31-99.8-22.7-165.6c-3.3-9.1-4.7-20.1-6.2-31.7c-0.8-6.2-1.6-12.5-2.7-18.6c-41.2,3.6-93.4,8.9-113.8,14
	c-0.8,0.2-1.7,0.1-2.4-0.4c-0.1-0.1-14.3-9.3-26.7-9.3c-1.4,0-2.8,0.1-4.1,0.4v2.6c0,1.7-1.3,3-3,3l-18.2,0.1
	c2.9,4.7,10.9,12.6,32.2,12.6c6.7-0.1,13.4-0.7,19.9-1.9c1.1-0.2,2.1,0.2,2.8,1.1L1609.1,433.6z"/>
<path class="st0" d="M1801.6,491.9c-0.5,0-0.9-0.1-1.3-0.3c-29.7-15.1-56.6-37.6-77.8-65.2c-17.1-22.2-27.2-43.3-30.7-54.7
	c-0.5-1.6,0.4-3.3,2-3.7c0.2-0.1,0.4-0.1,0.6-0.1l7-0.6l3.8-0.3l7.4-0.6l-0.2-45.1c-0.1-16.3,13.1-29.6,29.4-29.7c0,0,0,0,0,0h0.1
	c16.3,0,29.4,13.2,29.5,29.4l0.2,45.1c40.7,3,108.9,8.8,134.5,14.7c3.8-2.4,16.8-9.8,29-9.8c2.7,0,5.3,0.4,7.8,1.2
	c1.2,0.4,2,1.5,2,2.8v2l19.7-0.1c1.7,0,3,1.4,3,3c0,0.2,0,0.3,0,0.5c-0.2,0.9-4.4,21.2-40.2,21.2c-6.2,0-12.4-0.6-18.6-1.6
	l-29.2,37.1c-0.4,0.5-0.9,0.8-1.5,1l-73.6,20.3v30.4C1804.5,490.5,1803.2,491.8,1801.6,491.9L1801.6,491.9L1801.6,491.9z
	 M1698.6,373.4c4.2,11.4,13.6,29.9,28.5,49.3c19.3,25.2,43.6,46.1,71.5,61.2v-27.7c0-1.3,0.9-2.5,2.2-2.9l74.8-20.7l29.8-37.8
	c0.7-0.8,1.8-1.3,2.8-1.1c6.4,1.1,12.9,1.7,19.3,1.8c21.7,0,29.8-8,32.8-12.8l-18.2,0.1c-0.8,0-1.6-0.3-2.1-0.9
	c-0.6-0.6-0.9-1.3-0.9-2.1v-2.6c-1.3-0.2-2.7-0.4-4-0.4c-12.5,0-26.7,9.4-26.8,9.5c-0.7,0.5-1.6,0.6-2.4,0.4
	c-24.7-6.1-96.7-12-137.5-15.1c-1.6-0.1-2.8-1.4-2.8-3l-0.2-47.9c-0.1-13-10.6-23.5-23.6-23.5h-0.1c-13,0-23.6,10.6-23.5,23.6
	c0,0,0,0,0,0l0.2,47.9c0,1.6-1.2,2.9-2.7,3c-3.2,0.2-6.6,0.5-10.1,0.8l-3.8,0.3L1698.6,373.4z"/>
<path class="st0" d="M1811.7,669.5h-9.1c-1.6,0.2-3.1-0.9-3.4-2.6c-0.2-1.6,0.9-3.1,2.6-3.4c0.3,0,0.5,0,0.8,0h6.1l-3.8-169.7
	l-4.7-2.6c-1.3-1-1.6-2.9-0.5-4.2c0.8-1.1,2.2-1.5,3.5-1l6.2,3.5c0.9,0.5,1.5,1.5,1.5,2.5l3.9,174.4
	C1814.7,668.2,1813.3,669.5,1811.7,669.5L1811.7,669.5z"/>
<path class="st0" d="M1699.8,745.2H1295c-1.7,0-3-1.3-3-3v-16.1c0-1.7,1.3-3,3-3h404.8c1.7,0,3,1.3,3,3v16.1
	C1702.8,743.8,1701.4,745.2,1699.8,745.2z M1297.9,739.2h398.9v-10.1h-398.9V739.2z"/>
<path class="st0" d="M1678.8,729.1h-362.9c-1.7,0-3-1.3-3-3v-16c0-1.7,1.3-3,3-3h362.9c1.7,0,3,1.3,3,3v16
	C1681.8,727.8,1680.5,729.1,1678.8,729.1z M1318.8,723.2h357V713h-357V723.2z"/>
<path class="st0" d="M1696.4,530h-398c-1.7,0-3-1.3-3-3l0,0v-26.5c0-1.7,1.3-3,3-3h398c1.7,0,3,1.3,3,3V527
	C1699.4,528.7,1698,530,1696.4,530L1696.4,530z M1301.4,524.1h392v-20.5h-392V524.1z"/>
<path class="st0" d="M1678.8,546.7h-362.9c-1.7,0-3-1.3-3-3v-16.1c0-1.7,1.3-3,3-3h362.9c1.7,0,3,1.3,3,3v16.1
	C1681.8,545.3,1680.5,546.7,1678.8,546.7z M1318.8,540.7h357v-10.1h-357V540.7z"/>
<path class="st0" d="M1345.5,713h-16.9c-1.7,0-3-1.3-3-3l0,0V544.7c0-1.7,1.3-3,3-3h16.9c1.7,0,3,1.3,3,3v165.5
	C1348.4,711.7,1347.1,713,1345.5,713z M1331.5,707.1h11V547.6h-11V707.1z"/>
<path class="st0" d="M1353.6,561.3h-33.2c-1.6,0.2-3.1-0.9-3.4-2.6c-0.2-1.6,0.9-3.1,2.6-3.4c0.3,0,0.5,0,0.8,0h33.2
	c1.6-0.2,3.1,0.9,3.4,2.6c0.2,1.6-0.9,3.1-2.6,3.4C1354.1,561.4,1353.9,561.4,1353.6,561.3z"/>
<path class="st0" d="M1391.3,713h-16.9c-1.7,0-3-1.3-3-3l0,0V544.7c0-1.7,1.3-3,3-3h16.9c1.7,0,3,1.3,3,3v165.5
	C1394.2,711.7,1392.9,713,1391.3,713z M1377.3,707.1h11V547.6h-11V707.1z"/>
<path class="st0" d="M1399.4,561.3h-33.2c-1.6-0.2-2.8-1.7-2.6-3.4c0.2-1.4,1.2-2.4,2.6-2.6h33.2c1.6-0.2,3.1,0.9,3.4,2.6
	c0.2,1.6-0.9,3.1-2.6,3.4C1400,561.4,1399.7,561.4,1399.4,561.3z"/>
<path class="st0" d="M1437.1,713h-16.9c-1.7,0-3-1.3-3-3l0,0V544.7c0-1.7,1.3-3,3-3h16.9c1.7,0,3,1.3,3,3v165.5
	C1440,711.7,1438.7,713,1437.1,713z M1423.2,707.1h11V547.6h-11V707.1z"/>
<path class="st0" d="M1445.3,561.3h-33.2c-1.6-0.2-2.8-1.7-2.6-3.4c0.2-1.4,1.2-2.4,2.6-2.6h33.2c1.6-0.2,3.1,0.9,3.4,2.6
	c0.2,1.6-0.9,3.1-2.6,3.4C1445.8,561.4,1445.6,561.4,1445.3,561.3L1445.3,561.3z"/>
<path class="st0" d="M1482.9,713H1466c-1.7,0-3-1.3-3-3l0,0V544.7c0-1.7,1.3-3,3-3h16.9c1.7,0,3,1.3,3,3v165.5
	C1485.9,711.7,1484.5,713,1482.9,713z M1469,707.1h11V547.6h-11V707.1z"/>
<path class="st0" d="M1491.1,561.3h-33.2c-1.6,0.2-3.1-0.9-3.4-2.6c-0.2-1.6,0.9-3.1,2.6-3.4c0.3,0,0.5,0,0.8,0h33.2
	c1.6-0.2,3.1,0.9,3.4,2.6c0.2,1.6-0.9,3.1-2.6,3.4C1491.6,561.4,1491.3,561.4,1491.1,561.3z"/>
<path class="st0" d="M1528.7,713h-16.9c-1.7,0-3-1.3-3-3l0,0V544.7c0-1.7,1.3-3,3-3h16.9c1.7,0,3,1.3,3,3v165.5
	C1531.7,711.7,1530.4,713,1528.7,713z M1514.8,707.1h11V547.6h-11V707.1z"/>
<path class="st0" d="M1536.9,561.3h-33.2c-1.6,0.2-3.1-0.9-3.4-2.6c-0.2-1.6,0.9-3.1,2.6-3.4c0.3,0,0.5,0,0.8,0h33.2
	c1.6,0.2,2.8,1.7,2.6,3.4C1539.3,560.1,1538.3,561.2,1536.9,561.3L1536.9,561.3z"/>
<path class="st0" d="M1574.5,713h-16.9c-1.7,0-3-1.3-3-3l0,0V544.7c0-1.7,1.3-3,3-3h16.9c1.7,0,3,1.3,3,3v165.5
	C1577.5,711.7,1576.2,713,1574.5,713z M1560.6,707.1h11V547.6h-11V707.1z"/>
<path class="st0" d="M1582.7,561.3h-33.2c-1.6,0.2-3.1-0.9-3.4-2.6c-0.2-1.6,0.9-3.1,2.6-3.4c0.3,0,0.5,0,0.8,0h33.2
	c1.6-0.2,3.1,0.9,3.4,2.6c0.2,1.6-0.9,3.1-2.6,3.4C1583.2,561.4,1583,561.4,1582.7,561.3z"/>
<path class="st0" d="M1620.4,713h-16.9c-1.7,0-3-1.3-3-3l0,0V544.7c0-1.7,1.3-3,3-3h16.9c1.7,0,3,1.3,3,3v165.5
	C1623.3,711.7,1622,713,1620.4,713z M1606.4,707.1h11V547.6h-11V707.1z"/>
<path class="st0" d="M1628.5,561.3h-33.2c-1.6,0.2-3.1-0.9-3.4-2.6c-0.2-1.6,0.9-3.1,2.6-3.4c0.3,0,0.5,0,0.8,0h33.2
	c1.6-0.2,3.1,0.9,3.4,2.6c0.2,1.6-0.9,3.1-2.6,3.4C1629,561.4,1628.8,561.4,1628.5,561.3z"/>
<path class="st0" d="M1666.2,713h-16.9c-1.7,0-3-1.3-3-3l0,0V544.7c0-1.7,1.3-3,3-3h16.9c1.7,0,3,1.3,3,3v165.5
	C1669.1,711.7,1667.8,713,1666.2,713z M1652.2,707.1h11V547.6h-11V707.1z"/>
<path class="st0" d="M1674.3,561.3h-33.3c-1.6-0.2-2.8-1.7-2.6-3.4c0.2-1.4,1.2-2.4,2.6-2.6h33.2c1.6-0.2,3.1,0.9,3.4,2.6
	c0.2,1.6-0.9,3.1-2.6,3.4C1674.8,561.4,1674.6,561.4,1674.3,561.3L1674.3,561.3z"/>
<path class="st0" d="M1283.2,503.1c-1.7-0.1-3-1.4-2.9-3.1c0-1,0.6-2,1.5-2.5L1496,386.3c0.9-0.4,1.9-0.4,2.7,0l214.1,111.2
	c1.4,0.8,2,2.6,1.1,4.1c-0.5,0.9-1.5,1.5-2.5,1.5H1283.2z M1497.4,392.3l-201.9,104.8h403.9L1497.4,392.3z"/>
<path class="st0" d="M1669,503.1c-0.5,0-0.9-0.1-1.3-0.3l-170.3-84.7l-170.3,84.7c-1.6,0.5-3.3-0.3-3.8-1.9c-0.4-1.3,0-2.7,1.2-3.4
	l171.7-85.4c0.8-0.4,1.8-0.4,2.7,0l171.6,85.4c1.5,0.8,2,2.6,1.2,4.1C1671.1,502.5,1670.1,503.1,1669,503.1L1669,503.1z"/>
<path class="st0" d="M2365.9,755.5h-104c-1.7,0-3-1.3-3-3c0,0,0-0.1,0-0.1l10.8-230.2c0.1-1.6,1.4-2.8,3-2.8h82.3
	c1.6,0,2.9,1.2,3,2.8l10.8,229.9c0,0.1,0,0.3,0,0.4C2368.8,754.2,2367.5,755.5,2365.9,755.5z M2265,749.6h97.8l-10.5-224.3h-76.8
	L2265,749.6z"/>
<path class="st0" d="M2368.9,525.3h-111c-1.7,0-3-1.3-3-3v-51.2c0-1.7,1.3-3,3-3h111c1.7,0,3,1.3,3,3v51.2
	C2372,524,2370.6,525.3,2368.9,525.3C2369,525.3,2368.9,525.3,2368.9,525.3z M2260.9,519.4h105v-45.3h-105V519.4z"/>
<path class="st0" d="M2374.4,486.7h-121.9c-1.6-0.2-2.8-1.7-2.6-3.4c0.2-1.4,1.2-2.4,2.6-2.6h121.9c1.6,0.2,2.8,1.7,2.6,3.4
	C2376.8,485.5,2375.8,486.5,2374.4,486.7z"/>
<path class="st0" d="M2291.1,525.3h-12.1c-1.7,0-3-1.3-3-3v-21.5c0-1.7,1.3-3,3-3h12.1c1.7,0,3,1.3,3,3v21.5
	C2294.1,524,2292.7,525.3,2291.1,525.3z M2281.9,519.4h6.1v-15.6h-6.2L2281.9,519.4z"/>
<path class="st0" d="M2322.2,525.3h-17.5c-1.7,0-3-1.3-3-3v-21.5c0-1.7,1.3-3,3-3h17.5c1.7,0,3,1.3,3,3v21.5
	C2325.2,524,2323.9,525.3,2322.2,525.3z M2307.7,519.4h11.6v-15.6h-11.6V519.4z"/>
<path class="st0" d="M2348.1,525.3h-12.1c-1.7,0-3-1.3-3-3v-21.5c0-1.7,1.3-3,3-3h12.1c1.7,0,3,1.3,3,3v21.5
	C2351.1,524,2349.7,525.3,2348.1,525.3z M2338.9,519.4h6.1v-15.6h-6.2L2338.9,519.4z"/>
<path class="st0" d="M2277.9,755.5L2277.9,755.5c-1.7-0.1-3-1.4-3-3.1l7.2-230.2c-0.2-1.6,1-3.1,2.7-3.3c1.6-0.2,3.1,1,3.3,2.7
	c0,0.3,0,0.6,0,0.8l-7.2,230.2C2280.8,754.3,2279.5,755.5,2277.9,755.5z"/>
<path class="st0" d="M2350.3,755.5c-1.6,0-2.9-1.3-3-2.9l-7.2-230.2c0.2-1.6,1.7-2.8,3.3-2.7c1.3,0.1,2.4,1.2,2.6,2.5l7.2,230.2
	C2353.3,754.1,2352,755.5,2350.3,755.5L2350.3,755.5z"/>
<path class="st0" d="M2262.4,744.7h-200.4c-1.7,0-3-1.3-3-3v-38.1c0-1.7,1.3-3,3-3h202.2c1.7,0,3,1.3,3,3c0,0,0,0.1,0,0.1l-1.8,38.1
	C2265.3,743.5,2264,744.7,2262.4,744.7z M2064.9,738.8h194.6l1.5-32.2h-196.1L2064.9,738.8z"/>
<path class="st0" d="M2565,744.7h-199.6c-1.6,0-2.9-1.2-3-2.8l-1.8-38.1c-0.1-1.7,1.2-3,2.9-3.1c0,0,0.1,0,0.1,0H2565
	c1.7,0,3,1.3,3,3v38.1C2567.9,743.4,2566.6,744.7,2565,744.7z M2368.2,738.8h193.8v-32.2h-195.3L2368.2,738.8z"/>
<path class="st0" d="M2264.2,706.1h-166.5c-1.7,0-3-1.3-3-3V665c0-1.7,1.3-3,3-3H2266c1.7,0,3,1.3,3,3c0,0,0,0.1,0,0.1l-1.8,38.1
	C2267.1,704.8,2265.8,706.1,2264.2,706.1z M2100.6,700.2h160.7l1.5-32.2h-162.2L2100.6,700.2z"/>
<path class="st0" d="M2529.3,706.1h-165.7c-1.6,0-2.9-1.2-3-2.8l-1.8-38.1c-0.1-1.7,1.2-3,2.9-3.1c0,0,0.1,0,0.1,0h167.5
	c1.7,0,3,1.3,3,3l0,0v38.1C2532.3,704.8,2530.9,706.1,2529.3,706.1z M2366.4,700.2h159.9V668h-161.4L2366.4,700.2z"/>
<path class="st0" d="M2493.5,668h-131.8c-1.6,0-2.9-1.2-3-2.8L2357,627c-0.1-1.7,1.2-3,2.9-3.1c0,0,0.1,0,0.1,0h133.5
	c1.7,0,3,1.3,3,3l0,0v38.1C2496.5,666.7,2495.2,668,2493.5,668z M2364.6,662h125.9v-32.2h-127.4L2364.6,662z"/>
<path class="st0" d="M2266,668h-132.6c-1.7,0-3-1.3-3-3v-38.1c0-1.7,1.3-3,3-3h134.4c1.7,0,3,1.3,3,3c0,0,0,0.1,0,0.1l-1.8,38.1
	C2268.9,666.7,2267.6,668,2266,668z M2136.3,662h126.8l1.5-32.2h-128.3V662z"/>
<path class="st0" d="M2267.8,629.9h-98.7c-1.7,0-3-1.3-3-3l0,0V592c0-1.7,1.3-3,3-3h100.3c1.7,0,3,1.3,3,3c0,0,0,0.1,0,0.1
	l-1.6,34.8C2270.7,628.6,2269.3,629.8,2267.8,629.9z M2172.1,623.9h92.9l1.4-28.9h-94.2L2172.1,623.9z"/>
<path class="st0" d="M2457.8,629.9h-97.8c-1.6,0-2.9-1.2-3-2.8l-1.6-34.8c-0.1-1.7,1.2-3,2.9-3.1c0,0,0.1,0,0.1,0h99.5
	c1.7,0,3,1.3,3,3v34.8C2460.8,628.6,2459.5,629.9,2457.8,629.9C2457.8,629.9,2457.8,629.9,2457.8,629.9z M2362.8,623.9h92V595h-93.4
	L2362.8,623.9z"/>
<path class="st0" d="M2269.4,595h-64.6c-1.7,0-3-1.3-3-3v-34.8c0-1.7,1.3-3,3-3l0,0h66.2c1.7,0,3,1.3,3,3c0,0,0,0.1,0,0.1l-1.6,34.8
	C2272.4,593.8,2271,595,2269.4,595z M2207.8,589.1h58.8l1.4-28.9h-60.1L2207.8,589.1z"/>
<path class="st0" d="M2422.1,595h-63.7c-1.6,0-2.9-1.2-3-2.8l-1.6-34.8c-0.1-1.7,1.2-3,2.9-3.1c0,0,0.1,0,0.1,0h65.4
	c1.7,0,3,1.3,3,3v34.8C2425.1,593.7,2423.7,595,2422.1,595z M2361.2,589.1h57.9v-28.9h-59.3L2361.2,589.1z"/>
<path class="st0" d="M2271.1,560.2h-30.5c-1.7,0-3-1.3-3-3v-34.8c0-1.7,1.3-3,3-3h32.1c1.7,0,3,1.3,3,3c0,0,0,0.1,0,0.1l-1.6,34.8
	C2274,558.9,2272.7,560.2,2271.1,560.2z M2243.5,554.2h24.7l1.4-28.9h-26L2243.5,554.2z"/>
<path class="st0" d="M2386.4,560.2h-29.7c-1.6,0-2.9-1.2-3-2.8l-1.6-34.8c-0.1-1.7,1.2-3,2.9-3.1c0,0,0.1,0,0.1,0h31.3
	c1.7,0,3,1.3,3,3v34.8C2389.3,558.9,2388,560.2,2386.4,560.2z M2359.6,554.2h23.9v-28.9h-25.2L2359.6,554.2z"/>
<path class="st0" d="M912,745.2h-70.8c-1.7,0-3-1.3-3-3v-56.8c0-1.7,1.3-3,3-3l0,0H912c1.7,0,3,1.3,3,3l0,0v56.8
	C915,743.8,913.6,745.2,912,745.2C912,745.2,912,745.2,912,745.2z M844.1,739.2h65v-50.9h-65V739.2z"/>
<path class="st0" d="M876.6,745.2c-1.7,0-3-1.3-3-3v-56.8c-0.2-1.6,0.9-3.1,2.6-3.4s3.1,0.9,3.4,2.6c0,0.3,0,0.5,0,0.8v56.8
	C879.5,743.8,878.2,745.2,876.6,745.2z"/>
<path class="st0" d="M905.3,687.7h-57.5c-1.7,0-3-1.3-3-3V525.4c0-1.7,1.3-3,3-3h57.5c1.7,0,3,1.3,3,3v159.3
	C908.3,686.4,906.9,687.7,905.3,687.7z M850.8,681.8h51.5V528.4h-51.5V681.8z"/>
<path class="st0" d="M909.4,636.3h-65.8c-1.6,0.2-3.1-0.9-3.4-2.6c-0.2-1.6,0.9-3.1,2.6-3.4c0.3,0,0.5,0,0.8,0h65.8
	c1.6-0.2,3.1,0.9,3.4,2.6c0.2,1.6-0.9,3.1-2.6,3.4C910,636.3,909.7,636.3,909.4,636.3z"/>
<path class="st0" d="M1007,687.7H735.3c-1.6,0.2-3.1-0.9-3.4-2.6c-0.2-1.6,0.9-3.1,2.6-3.4c0.3,0,0.5,0,0.8,0H1007
	c1.6-0.2,3.1,0.9,3.4,2.6c0.2,1.6-0.9,3.1-2.6,3.4C1007.6,687.7,1007.3,687.7,1007,687.7z"/>
<path class="st0" d="M909.4,583.8h-65.8c-1.6-0.2-2.8-1.7-2.6-3.4c0.2-1.4,1.2-2.4,2.6-2.6h65.8c1.6-0.2,3.1,0.9,3.4,2.6
	c0.2,1.6-0.9,3.1-2.6,3.4C910,583.8,909.7,583.8,909.4,583.8z"/>
<path class="st0" d="M911.6,528.4h-70c-1.6-0.2-2.8-1.7-2.6-3.4c0.2-1.4,1.2-2.4,2.6-2.6h70c1.6-0.2,3.1,0.9,3.4,2.6
	c0.2,1.6-0.9,3.1-2.6,3.4C912.1,528.5,911.8,528.5,911.6,528.4z"/>
<path class="st0" d="M1087.6,542H908.3c-1.6,0.2-3.1-0.9-3.4-2.6c-0.2-1.6,0.9-3.1,2.6-3.4c0.3,0,0.5,0,0.8,0h179.3
	c1.6,0.2,2.8,1.7,2.6,3.4C1090,540.7,1089,541.8,1087.6,542L1087.6,542z"/>
<path class="st0" d="M1063.2,563.9c-0.8,0-1.5-0.3-2.1-0.9l-19.7-19.5l-19.7,19.6c-1.2,1.1-3,1.1-4.2,0L998,543.6l-19.7,19.5
	c-1.2,1.1-3,1.1-4.2,0l-19.7-19.5l-19.7,19.5c-1.2,1.1-3,1.1-4.2,0l-21.8-21.6c-1.3-1-1.6-2.9-0.6-4.2s2.9-1.6,4.2-0.6
	c0.2,0.2,0.4,0.4,0.6,0.6l19.7,19.5l19.7-19.5c1.2-1.1,3-1.1,4.2,0l19.7,19.5l19.7-19.5c1.2-1.1,3-1.1,4.2,0l19.7,19.5l19.7-19.5
	c1.2-1.1,3-1.1,4.2,0l19.7,19.5l19.7-19.5c1-1.3,2.9-1.6,4.2-0.5c1.3,1,1.6,2.9,0.5,4.2c-0.2,0.2-0.4,0.4-0.6,0.6l-21.8,21.6
	C1064.8,563.7,1064,564,1063.2,563.9z"/>
<path class="st0" d="M1087.6,564.8H908.3c-1.6-0.2-2.8-1.7-2.6-3.4c0.2-1.4,1.2-2.4,2.6-2.6h179.3c1.6,0.2,2.8,1.7,2.6,3.4
	C1090,563.6,1089,564.7,1087.6,564.8L1087.6,564.8z"/>
<path class="st0" d="M890.4,568.5c-1.7,0-3-1.3-3-3v-24.4c0.2-1.6,1.7-2.8,3.4-2.6c1.4,0.2,2.4,1.2,2.6,2.6v24.4
	C893.4,567.2,892,568.5,890.4,568.5z"/>
<path class="st0" d="M862.7,568.5c-1.7,0-3-1.3-3-3v-24.4c0.2-1.6,1.7-2.8,3.4-2.6c1.4,0.2,2.4,1.2,2.6,2.6v24.4
	C865.6,567.2,864.3,568.5,862.7,568.5z"/>
<path class="st0" d="M890.4,622.1c-1.7,0-3-1.3-3-3v-24.4c-0.2-1.6,0.9-3.1,2.6-3.4s3.1,0.9,3.4,2.6c0,0.3,0,0.5,0,0.8v24.4
	C893.4,620.7,892.1,622.1,890.4,622.1z"/>
<path class="st0" d="M862.7,622.1c-1.7,0-3-1.3-3-3v-24.4c-0.2-1.6,0.9-3.1,2.6-3.4s3.1,0.9,3.4,2.6c0,0.3,0,0.5,0,0.8v24.4
	C865.7,620.7,864.3,622.1,862.7,622.1z"/>
<path class="st0" d="M890.4,674.6c-1.7,0-3-1.3-3-3v-24.4c-0.2-1.6,0.9-3.1,2.6-3.4s3.1,0.9,3.4,2.6c0,0.3,0,0.5,0,0.8v24.4
	C893.4,673.3,892.1,674.6,890.4,674.6z"/>
<path class="st0" d="M862.7,674.6c-1.7,0-3-1.3-3-3v-24.4c-0.2-1.6,0.9-3.1,2.6-3.4s3.1,0.9,3.4,2.6c0,0.3,0,0.5,0,0.8v24.4
	C865.7,673.3,864.3,674.6,862.7,674.6z"/>
<path class="st0" d="M868,528.1h-26.6c-1.7,0-3-1.4-3-3c0-0.5,0.1-0.9,0.3-1.4l13.3-24.2c0.5-0.9,1.5-1.5,2.6-1.5l0,0
	c1.1,0,2.1,0.6,2.6,1.5l13.3,24.2c0.8,1.5,0.2,3.3-1.3,4.1C869,528,868.5,528.1,868,528.1z M846.5,522.2H863l-8.3-15L846.5,522.2z"
	/>
<path class="st0" d="M911.5,528.1h-26.6c-1.7,0-3-1.4-3-3c0-0.5,0.1-0.9,0.3-1.4l13.3-24.2c0.5-0.9,1.5-1.5,2.6-1.5l0,0
	c1.1,0,2.1,0.6,2.6,1.5l13.3,24.2c0.8,1.5,0.2,3.3-1.3,4.1C912.4,528,911.9,528.1,911.5,528.1L911.5,528.1z M889.9,522.2h16.5
	l-8.3-15L889.9,522.2z"/>
<path class="st0" d="M728.3,636.5c-1.6,0.2-3.1-0.9-3.4-2.6c-0.2-1.6,0.9-3.1,2.6-3.4c0.3,0,0.5,0,0.8,0c25.3,0,54.2-10.4,77.4-27.7
	c11.8-8.8,21.5-19.2,28.1-29.9c7.2-11.7,10.9-23.9,10.9-36.1c-0.2-1.6,0.9-3.1,2.6-3.4s3.1,0.9,3.4,2.6c0,0.3,0,0.5,0,0.8
	c0,13.3-4,26.5-11.8,39.2c-7.1,11.6-17.1,22.2-29.6,31.6C785.1,625.7,754.8,636.5,728.3,636.5z"/>
<path class="st0" d="M911.8,722.8c-1.7,0-3-1.3-3-3l0,0c0-10.2,15.8-16.9,29.1-20.7c16.7-4.8,38.1-7.5,58.5-7.5
	c1.6-0.2,3.1,0.9,3.4,2.6c0.2,1.6-0.9,3.1-2.6,3.4c-0.3,0-0.5,0-0.8,0c-19.9,0-40.7,2.6-56.9,7.3c-18.2,5.2-24.8,11.1-24.8,14.9
	C914.8,721.5,913.4,722.8,911.8,722.8z"/>
<path class="st0" d="M815.5,687.7c-1.7,0-3-1.3-3-3v-86c-0.2-1.6,0.9-3.1,2.6-3.4s3.1,0.9,3.4,2.6c0,0.3,0,0.5,0,0.8v86
	C818.4,686.3,817.1,687.7,815.5,687.7z"/>
<path class="st0" d="M754.5,687.7c-1.7,0-3-1.3-3-3v-54.5c-0.2-1.6,0.9-3.1,2.6-3.4s3.1,0.9,3.4,2.6c0,0.3,0,0.5,0,0.8v54.5
	C757.5,686.4,756.2,687.7,754.5,687.7z"/>
<path class="st0" d="M1153.7,745.2h-70.9c-1.7,0-3-1.3-3-3v-56.8c0-1.7,1.3-3,3-3l0,0h70.9c1.7,0,3,1.3,3,3l0,0v56.8
	C1156.7,743.8,1155.3,745.2,1153.7,745.2z M1085.8,739.2h64.9v-50.9h-64.9V739.2z"/>
<path class="st0" d="M1118.3,745.2c-1.7,0-3-1.3-3-3v-56.8c-0.2-1.6,0.9-3.1,2.6-3.4c1.6-0.2,3.1,0.9,3.4,2.6c0,0.3,0,0.5,0,0.8
	v56.8C1121.2,743.8,1119.9,745.2,1118.3,745.2z"/>
<path class="st0" d="M1147,687.7h-57.5c-1.7,0-3-1.3-3-3V525.4c0-1.7,1.3-3,3-3h57.5c1.7,0,3,1.3,3,3v159.3
	C1150,686.4,1148.6,687.7,1147,687.7z M1092.5,681.8h51.6V528.4h-51.5L1092.5,681.8z"/>
<path class="st0" d="M1151.1,636.3h-65.8c-1.6,0.2-3.1-0.9-3.4-2.6c-0.2-1.6,0.9-3.1,2.6-3.4c0.3,0,0.5,0,0.8,0h65.8
	c1.6-0.2,3.1,0.9,3.4,2.6c0.2,1.6-0.9,3.1-2.6,3.4C1151.7,636.3,1151.4,636.3,1151.1,636.3z"/>
<path class="st0" d="M1259.6,687.7H987.8c-1.6,0.2-3.1-0.9-3.4-2.6c-0.2-1.6,0.9-3.1,2.6-3.4c0.3,0,0.5,0,0.8,0h271.8
	c1.6-0.2,3.1,0.9,3.4,2.6c0.2,1.6-0.9,3.1-2.6,3.4C1260.1,687.7,1259.8,687.7,1259.6,687.7z"/>
<path class="st0" d="M1151.1,583.8h-65.8c-1.6-0.2-2.8-1.7-2.6-3.4c0.2-1.4,1.2-2.4,2.6-2.6h65.8c1.6,0.2,2.8,1.7,2.6,3.4
	C1153.6,582.5,1152.5,583.6,1151.1,583.8z"/>
<path class="st0" d="M1153.3,528.4h-70c-1.6-0.2-2.8-1.7-2.6-3.4c0.2-1.4,1.2-2.4,2.6-2.6h70c1.6,0.2,2.8,1.7,2.6,3.4
	C1155.7,527.2,1154.6,528.2,1153.3,528.4z"/>
<path class="st0" d="M1104.4,568.5c-1.7,0-3-1.3-3-3v-24.4c0.2-1.6,1.7-2.8,3.4-2.6c1.4,0.2,2.4,1.2,2.6,2.6v24.4
	C1107.3,567.2,1106,568.5,1104.4,568.5z"/>
<path class="st0" d="M1132.1,568.5c-1.7,0-3-1.3-3-3v-24.4c0.2-1.6,1.7-2.8,3.4-2.6c1.4,0.2,2.4,1.2,2.6,2.6v24.4
	C1135.1,567.2,1133.7,568.5,1132.1,568.5z"/>
<path class="st0" d="M1104.4,622.1c-1.7,0-3-1.3-3-3v-24.4c-0.2-1.6,0.9-3.1,2.6-3.4c1.6-0.2,3.1,0.9,3.4,2.6c0,0.3,0,0.5,0,0.8
	v24.4C1107.4,620.7,1106,622.1,1104.4,622.1z"/>
<path class="st0" d="M1132.1,622.1c-1.7,0-3-1.3-3-3v-24.4c-0.2-1.6,0.9-3.1,2.6-3.4c1.6-0.2,3.1,0.9,3.4,2.6c0,0.3,0,0.5,0,0.8
	v24.4C1135.1,620.7,1133.8,622.1,1132.1,622.1z"/>
<path class="st0" d="M1104.4,674.6c-1.7,0-3-1.3-3-3v-24.4c-0.2-1.6,0.9-3.1,2.6-3.4c1.6-0.2,3.1,0.9,3.4,2.6c0,0.3,0,0.5,0,0.8
	v24.4C1107.4,673.3,1106,674.6,1104.4,674.6z"/>
<path class="st0" d="M1132.1,674.6c-1.7,0-3-1.3-3-3v-24.4c-0.2-1.6,0.9-3.1,2.6-3.4c1.6-0.2,3.1,0.9,3.4,2.6c0,0.3,0,0.5,0,0.8
	v24.4C1135.1,673.3,1133.8,674.6,1132.1,674.6z"/>
<path class="st0" d="M1109.9,528.1h-26.6c-1.7,0-3-1.4-3-3c0-0.5,0.1-0.9,0.3-1.4l13.3-24.2c0.8-1.4,2.7-1.9,4.1-1.1
	c0.5,0.3,0.9,0.7,1.1,1.1l13.2,24c0.9,1.4,0.5,3.3-0.9,4.1C1111,527.9,1110.5,528.1,1109.9,528.1L1109.9,528.1z M1088.4,522.2h16.5
	l-8.3-15L1088.4,522.2z"/>
<path class="st0" d="M1266.5,636.5c-26.6,0-56.8-10.8-81-28.9c-12.5-9.4-22.5-20-29.6-31.6c-7.8-12.7-11.8-25.9-11.8-39.2
	c0.2-1.6,1.7-2.8,3.4-2.6c1.4,0.2,2.4,1.2,2.6,2.6c0,12.2,3.7,24.3,10.9,36.1c6.6,10.8,16.3,21.1,28.1,29.9
	c23.2,17.4,52.1,27.7,77.4,27.7c1.6-0.2,3.1,0.9,3.4,2.6c0.2,1.6-0.9,3.1-2.6,3.4C1267,636.5,1266.8,636.5,1266.5,636.5
	L1266.5,636.5z"/>
<path class="st0" d="M1083,722.8c-1.7,0-3-1.3-3-3l0,0c0-3.8-6.5-9.7-24.8-14.9c-16.2-4.6-37-7.3-56.9-7.3c-1.6-0.2-2.8-1.7-2.6-3.4
	c0.2-1.4,1.2-2.4,2.6-2.6c20.5,0,41.8,2.7,58.5,7.5c13.3,3.8,29.1,10.4,29.1,20.7C1085.9,721.4,1084.6,722.8,1083,722.8z"/>
<path class="st0" d="M1179.3,687.7c-1.7,0-3-1.3-3-3v-86c0.2-1.6,1.7-2.8,3.4-2.6c1.4,0.2,2.4,1.2,2.6,2.6v86
	C1182.3,686.3,1181,687.7,1179.3,687.7z"/>
<path class="st0" d="M1240.3,687.7c-1.7,0-3-1.3-3-3v-54.5c0.2-1.6,1.7-2.8,3.4-2.6c1.4,0.2,2.4,1.2,2.6,2.6v54.5
	C1243.2,686.4,1241.9,687.7,1240.3,687.7z"/>
<path class="st0" d="M885.8,526.5h-18.6c-1.1,0-2.1-0.6-2.6-1.5l-6.2-11.4c-0.5-0.9-0.5-2,0-2.9l15.7-28.5c0.8-1.4,2.7-1.9,4.1-1.1
	c0.5,0.3,0.9,0.7,1.1,1.1l15.6,28.4c0.5,0.9,0.5,2,0,2.9l-6.3,11.5C887.9,525.9,886.9,526.5,885.8,526.5z M868.9,520.6H884l4.7-8.6
	l-12.2-22.2l-12.3,22.3L868.9,520.6z"/>
<path class="st0" d="M1153.3,528.1h-26.6c-1.7,0-3-1.4-3-3c0-0.5,0.1-0.9,0.3-1.4l13.3-24.2c0.8-1.4,2.7-1.9,4.1-1.1
	c0.5,0.3,0.9,0.7,1.1,1.1l13.2,24c0.9,1.4,0.5,3.3-0.9,4.1C1154.4,527.9,1153.9,528.1,1153.3,528.1L1153.3,528.1z M1131.8,522.2
	h16.5l-8.3-15L1131.8,522.2z"/>
<path class="st0" d="M1127.7,526.5h-18.6c-1.1,0-2.1-0.6-2.6-1.5l-6.3-11.5c-0.5-0.9-0.5-2,0-2.9l15.6-28.4c0.8-1.4,2.7-1.9,4.1-1.1
	c0.5,0.3,0.9,0.7,1.1,1.1l15.7,28.5c0.5,0.9,0.5,2,0,2.9l-6.2,11.4C1129.8,525.9,1128.8,526.5,1127.7,526.5z M1110.8,520.6h15.1
	l4.6-8.4l-12.3-22.3l-12.2,22.2L1110.8,520.6z"/>
<path class="st0" d="M1187.8,745.2c-1.7,0-3-1.4-3-3c0-0.6,0.2-1.1,0.5-1.6c0.6-1,1.3-1.8,1.9-2.6c0.8-1,1.5-2,2.1-3.1l0.1-0.2
	c3.8-6.6,7.1-12.5,10.2-18.8l0.1-0.1c12.7-22.4,23.6-45.8,32.6-70c0.8-1.5,2.6-2,4.1-1.3c1.2,0.6,1.8,2,1.5,3.3
	c-9.1,24.4-20.1,48.1-33,70.8c-3.1,6.3-6.4,12.3-10.3,18.9c-0.8,1.4-1.6,2.7-2.6,3.9c-0.6,0.8-1.1,1.5-1.7,2.3
	C1189.7,744.7,1188.8,745.2,1187.8,745.2z"/>
<path class="st0" d="M1242.4,629.1c-1.7,0-3-1.4-3-3c0-0.3,0.1-0.6,0.1-0.9c11.9-35.4,20-71.9,27.2-106.4c0.6-1.6,2.3-2.4,3.8-1.8
	c1.3,0.5,2.1,1.7,2,3.1c-7.3,34.6-15.4,71.3-27.4,107C1244.8,628.3,1243.7,629.1,1242.4,629.1z"/>
<path class="st0" d="M1273.4,502c-0.1,0-0.3,0-0.4,0c-1.6-0.2-2.7-1.7-2.5-3.4c1-6.7,2-13.6,3-20.1c1.4-9.4,2.9-19.1,4.2-28.6
	c6-49.2,9.1-101.3,9.7-159c0.2-1.6,1.7-2.8,3.4-2.6c1.3,0.2,2.4,1.3,2.6,2.6c-0.5,58-3.7,110.2-9.7,159.7
	c-1.3,9.6-2.8,19.3-4.2,28.8c-1,6.6-2,13.4-3,20.1C1276.1,501,1274.9,502,1273.4,502z"/>
<path class="st0" d="M1406.8,745.2c-1,0-2-0.5-2.6-1.4c-18.7-30.7-34.5-63.2-47.2-96.8c-0.4-1.6,0.6-3.2,2.2-3.6
	c1.3-0.3,2.7,0.3,3.3,1.5c12.6,33.3,28.2,65.4,46.7,95.8c0.8,1.4,0.3,3.3-1.1,4.1C1407.8,745,1407.3,745.2,1406.8,745.2
	L1406.8,745.2z"/>
<path class="st0" d="M1352.6,628.4c-1.3,0-2.4-0.8-2.8-2c-0.8-2.3-1.6-4.6-2.4-6.8c-1.2-3.1-2.3-6.4-3.3-9.7c-1.8-6-3.5-12-4.9-17.1
	c-6.4-23.3-12.1-47.7-16.8-72.6c-0.5-1.6,0.3-3.3,1.9-3.8c1.6-0.5,3.3,0.3,3.8,1.9c0.1,0.3,0.1,0.5,0.2,0.8
	c4.7,24.7,10.3,49,16.7,72.1c1.4,5.1,3.1,11,4.9,16.9c1,3.1,2.1,6.3,3.2,9.4c0.8,2.3,1.7,4.6,2.5,7c0.5,1.6-0.4,3.3-1.9,3.8
	C1353.2,628.4,1352.9,628.5,1352.6,628.4L1352.6,628.4z"/>
<path class="st0" d="M1321.6,501.9c-1.4,0-2.7-1.1-2.9-2.5c-3.3-19.8-6.2-40.7-8.5-61.9c-2.5-23.1-4.5-46.8-6-72.3
	c-1.3-22.8-2.2-46.5-2.7-72.6c0.2-1.6,1.7-2.8,3.3-2.6c1.3,0.2,2.4,1.2,2.6,2.5c0.5,26,1.4,49.6,2.7,72.3c1.5,25.4,3.4,49,5.9,72
	c2.3,21.1,5.2,41.8,8.5,61.6c0.3,1.6-0.9,3.2-2.5,3.4C1321.8,501.9,1321.6,501.9,1321.6,501.9L1321.6,501.9z"/>
<path class="st0" d="M1353.1,745.2c-1.7,0-3-1.3-3-3c0-43.1-23.7-78.2-52.8-78.2s-52.8,35.1-52.8,78.2c-0.2,1.6-1.7,2.8-3.4,2.6
	c-1.4-0.2-2.4-1.2-2.6-2.6c0-22.3,6-43.3,16.8-59.1c11.1-16.2,26-25.1,41.8-25.1s30.8,8.9,41.8,25.1c10.9,15.8,16.8,36.8,16.8,59.1
	C1356,743.8,1354.7,745.2,1353.1,745.2z"/>
<path class="st0" d="M1297.3,251.5c-1.7,0-3-1.3-3-3v-34.1c0.2-1.6,1.7-2.8,3.4-2.6c1.4,0.2,2.4,1.2,2.6,2.6v34.1
	C1300.2,250.2,1298.9,251.5,1297.3,251.5z"/>
<path class="st0" d="M1310.2,290.5h-26.1c-1.7,0-3-1.3-3-3v-29.7c0-6.8,5.5-12.2,12.2-12.2h7.6c6.8,0,12.2,5.5,12.2,12.2v29.7
	C1313.2,289.1,1311.9,290.5,1310.2,290.5z M1287.1,284.5h20.2v-26.7c0-3.5-2.8-6.3-6.3-6.3h-7.6c-3.5,0-6.3,2.8-6.3,6.3
	L1287.1,284.5z"/>
<path class="st0" d="M1368.1,646.2h-143.8c-1.7,0-3-1.3-3-3v-13.1c0-1.7,1.3-3,3-3h143.8c1.7,0,3,1.3,3,3v13.2
	C1371,644.9,1369.7,646.2,1368.1,646.2z M1227.2,640.3h137.9v-7.2h-137.9V640.3z"/>
<path class="st0" d="M1333.2,519.3h-74c-1.7,0-3-1.3-3-3v-13.2c0-1.7,1.3-3,3-3h74c1.7,0,3,1.3,3,3v13.2
	C1336.2,518,1334.8,519.3,1333.2,519.3z M1262.2,513.4h68.1v-7.2h-68.1L1262.2,513.4z"/>
<path class="st0" d="M1310.2,290.5h-26.1c-1.7,0-3-1.3-3-3v-29.7c0-6.8,5.5-12.2,12.2-12.2h7.6c6.8,0,12.2,5.5,12.2,12.2v29.7
	C1313.2,289.1,1311.9,290.5,1310.2,290.5z M1287.1,284.5h20.2v-26.7c0-3.5-2.8-6.3-6.3-6.3h-7.6c-3.5,0-6.3,2.8-6.3,6.3
	L1287.1,284.5z"/>
<path class="st0" d="M1243.1,745.2h-56.3c-1.5,0-2.7-1.2-2.7-2.7c0-1.5,1.2-2.7,2.7-2.7h56.3c1.5,0,2.7,1.2,2.7,2.7
	C1245.8,744,1244.5,745.2,1243.1,745.2L1243.1,745.2z"/>
<path class="st0" d="M1408.1,745.2h-56.4c-1.5,0-2.7-1.2-2.7-2.7c0-1.5,1.2-2.7,2.7-2.7h56.4c1.5,0,2.7,1.2,2.7,2.7
	C1410.8,744,1409.5,745.2,1408.1,745.2z"/>
<path class="st0" d="M822.6,745.2H673c-1.7,0-3-1.3-3-3v-19.7c0-1.4,0.9-2.6,2.3-2.9l15.3-3.7l2.6-18.2c0.2-1.3,1.3-2.4,2.6-2.5
	c26.1-2.8,48.4-14.9,66.1-36.1c14.7-17.6,26.5-41.6,35.1-71.2c15.2-52.8,15.7-108.9,15.5-124.8c0-1.7,1.4-3,3-3
	c0.6,0,1.2,0.2,1.7,0.5l2.4,1.7l10.4-17.6c0.8-1.4,2.7-1.9,4.1-1.1c0,0,0.1,0,0.1,0.1l30.6,20.4c1.3,0.9,1.7,2.6,0.9,4l-7.5,13.1
	l1.7,3c0.5,0.9,0.5,2,0,2.8l-14.3,26.8c-0.5,1-1.5,1.6-2.6,1.6h-5.5c0.7,7.2,1.2,24-6.7,33.8c-2.9,3.7-7,6.2-11.6,7l6.3,60.5
	c0.1,1.4-0.8,2.8-2.2,3.2l-2,0.5l1.9,16.2c0.2,1.4-0.7,2.7-2,3.2l-2.8,1l1.9,34c0,1.4-0.9,2.6-2.2,3l-4.2,1.1l3.5,33.7l9.9,8.1
	c0.7,0.6,1.1,1.4,1.1,2.3v19.2C825.5,743.8,824.3,745.2,822.6,745.2z M676,739.2h143.7v-14.8l-9.8-8c-0.6-0.5-1-1.2-1.1-2l-3.9-37.5
	c-0.1-1.5,0.8-2.8,2.2-3.2l4.3-1.1l-1.8-33.8c-0.1-1.3,0.7-2.6,2-3l2.7-0.9l-1.9-16.4c-0.2-1.5,0.8-2.8,2.2-3.2l2-0.6L810,554
	c-0.2-1.6,1-3.1,2.7-3.3c0,0,0.1,0,0.1,0c4.1-0.1,7.9-2,10.4-5.2c8.4-10.4,5.1-32.3,5-32.6c-0.2-1.6,0.9-3.2,2.5-3.4
	c0.1,0,0.3,0,0.4,0h7.1l12.8-23.8l-1.7-3c-0.5-0.9-0.5-2,0-2.9l7-12.1l-25.7-17.1l-10.5,17.7c-0.9,1.4-2.7,1.9-4.1,1
	c-0.1,0-0.1-0.1-0.2-0.1l-0.3-0.2c-0.1,21.3-1.8,72.3-15.8,120.7c-8.8,30.4-21,55.1-36.2,73.4c-18.3,21.8-41,34.6-67.8,37.9
	l-2.6,17.9c-0.2,1.2-1.1,2.2-2.2,2.5l-15,3.6L676,739.2z"/>
<path class="st0" d="M685.8,701.7c-1.7,0-3-1.3-3-3c0-0.1,0-0.2,0-0.3l6.4-58c0.1-1,0.7-1.9,1.6-2.3c1.3-0.6,2.6-1.1,4-1.6
	c2-0.6,4-1.5,5.8-2.5c1.5-0.6,3.3,0.1,3.9,1.6c0.5,1.2,0.2,2.5-0.8,3.4c-2.2,1.3-4.5,2.4-7,3.1c-0.6,0.2-1.2,0.4-1.8,0.6l-5.8,52.6
	l1.5-0.1c3.7-0.2,7.3-0.6,10.9-1.3c1.7-0.1,3.1,1.2,3.2,2.8c0.1,1.3-0.8,2.6-2,3c-3.8,0.7-7.7,1.2-11.6,1.4
	c-1.6,0.1-3.1,0.2-4.7,0.5C686.1,701.7,686,701.7,685.8,701.7z"/>
<path class="st0" d="M695.2,247.8h-0.3c-3.7-0.4-7.3-0.5-11-0.2c-1.7,0.1-3.1-1.2-3.2-2.8c0-0.1,0-0.1,0-0.2v-2.4
	c-2.6-1.8-4.6-4.4-5.5-7.4c-1.6-5-0.4-10.8,3.5-17.3c0.9-1.4,2.7-1.8,4.1-0.9c0.6,0.4,1,0.9,1.2,1.5l1.1,3l1.7-4.7
	c0.6-1.5,2.4-2.3,3.9-1.7c0.9,0.3,1.5,1.1,1.8,2l0.6,2.4l0.7-2.4c0.5-1.6,2.1-2.5,3.7-2.1c0.6,0.2,1.2,0.5,1.5,1.1
	c0.2,0.3,6.2,8.5,4.8,17.1c-0.6,3.8-2.7,7.3-5.7,9.7l0,2.2c0,0.1,0,0.2,0,0.3C698.2,246.5,696.8,247.8,695.2,247.8L695.2,247.8z
	 M688.1,241.5c1.3,0,2.7,0,4,0.1V241c0-1,0.5-1.9,1.3-2.5c2.4-1.5,4.1-4,4.5-6.7c0.3-2,0.1-4.1-0.5-6l-1.5,5.6
	c-0.4,1.3-1.5,2.2-2.9,2.2l0,0c-1.3,0-2.5-0.9-2.9-2.2l-1-4l-1.3,3.5c-0.4,1.2-1.5,2-2.8,2c-1.3,0-2.4-0.8-2.8-2l-1.4-3.8
	c-0.6,2-0.6,4-0.1,6c0.7,2.1,2.1,3.8,4.1,4.8c1.1,0.5,1.8,1.5,1.8,2.7v1L688.1,241.5z"/>
<path class="st0" d="M702.1,639.5c-1.7,0-3-1.3-3-3c0,0,0-0.1,0-0.1l2.4-65.2l-3-5.2c-0.3-0.5-0.4-1-0.4-1.6l1.2-38.4l-7.6-5.7
	c-0.9-0.6-1.3-1.7-1.2-2.8l7-54.9l-6.3-7.1c-0.7-0.8-0.9-1.9-0.6-2.9l5.5-17l-17.3-23.2c-0.2-0.2-0.3-0.5-0.4-0.8
	c-1.6-5-2.2-10.2-1.9-15.4c0.5-10.5,5-19.2,13-25.3c-3.2-7.2-4.8-14.9-4.6-22.8c0.2-10.9-0.7-27.2-1-33.7h-2.6c-1.7,0-3-1.3-3-3
	v-12.1h-2.9c-1.7,0-3-1.3-3-3v-22.9c0-1.7,1.3-3,3-3h0.5l-1-4.5l-6.8-4c-0.9-0.5-1.4-1.5-1.5-2.6v-12.3c0-1.2,0.8-2.3,1.9-2.8
	c6.3-2.1,12.9-3.1,19.6-3c6.7,0,13.4,1,19.8,3c1.2,0.4,2.1,1.5,2.1,2.8v13c0,1.2-0.7,2.3-1.8,2.7l-7.7,3.3l-1.3,6.4
	c3.8,3,6.1,7.6,6.1,12.4c0,1.5-0.1,3.6-0.3,6c-0.7,10.2-1.8,27.3,4.6,39.2c3.6,6.9,5.9,14.3,6.9,22l15.1,1.2l0.4-0.5l-12-20.8
	c-0.8-1.5-0.2-3.3,1.3-4c1.1-0.5,2.3-0.4,3.3,0.3l19,16.7l1.1-0.3l2.5-27.9c0.2-1.6,1.7-2.8,3.4-2.6c1.2,0.2,2.2,1,2.5,2.2l5.7,27.1
	l2.5,0.4l19.6-18.4c1.3-1.1,3.2-0.9,4.2,0.3c0.8,0.9,0.9,2.2,0.4,3.3l-12,21.8l1.6,1.8l23.7-5.3c1.6-0.3,3.2,0.8,3.5,2.4
	c0.2,1.3-0.4,2.5-1.5,3.2l-18.8,9.2l16.2,4.4c1.6,0.5,2.5,2.1,2.1,3.7c-0.3,1.2-1.4,2.1-2.7,2.2l0,0l-17.4-0.2l-1.3,4.6
	c-0.1,6.4,0.7,12.8,2.5,18.9c0.9,2.2,1.7,6.2-0.7,8.9c-0.3,3.8,0.1,11.6,4.5,14c0.7,0.4,1.6,0.8,2.6,1.3
	c8.9,4.4,25.3,12.6,27.9,42.8c0,0.2,0,0.5,0,0.7c-4.6,24.2-11.9,47.8-21.8,70.4c-9.6,22.1-21.1,41.6-34.2,58.1
	c-16.4,20.6-35.3,36.4-56.2,46.9C703.1,639.4,702.6,639.5,702.1,639.5z M704.1,563.8l3,5.2c0.3,0.5,0.4,1,0.4,1.6l-2.3,60.9
	c18.3-10,35.1-24.5,49.7-42.9c12.7-16,24-35.1,33.4-56.8c9.6-22,16.7-45,21.3-68.6c-2.4-26.5-16.3-33.4-24.6-37.6
	c-1-0.5-2-1-2.8-1.4c-9.3-5.1-7.5-20.3-7.4-21c0.1-0.8,0.5-1.5,1.2-2c0.5-0.3,0.1-2-0.2-2.8c0-0.1-0.1-0.2-0.1-0.3
	c-2.1-7-3.1-14.2-2.9-21.5c0-0.2,0-0.4,0.1-0.7l2-7.2c0.2-0.7,0.6-1.3,1.3-1.7H776c-1.1-0.3-1.9-1.1-2.1-2.2l-0.5-2.2
	c-0.3-1.3,0.4-2.7,1.6-3.3l0.6-0.3l-0.9,0.2c-1,0.2-2.1-0.1-2.9-0.9l-4.2-4.7c-0.8-0.9-1-2.3-0.4-3.4l3.9-7.1l-6.9,6.5
	c-0.7,0.6-1.6,0.9-2.5,0.8l-5.9-1c-1.2-0.2-2.2-1.1-2.4-2.3l-2.1-9.7l-0.9,10.4c-0.1,1.2-1,2.3-2.2,2.6l-4.7,1.2c-1,0.2-2,0-2.7-0.6
	l-6.7-5.9l4.1,7.1c0.6,1.1,0.5,2.5-0.3,3.4l-2.8,3.2c-1.3-0.3-2.5,0.6-2.8,1.8c-0.2,1.1,0.4,2.2,1.4,2.6l-1.5,4.2
	c-0.1,0.4-0.3,0.7-0.6,1h0.9l0,0c1.4,0,2.6,1,2.9,2.4c0.6,3.3,0.1,4.8-0.3,5.4s-0.7,3.2-1,5.5l1.1,2.1c0.5,1,0.4,2.2-0.2,3.1
	l-3.7,5.2c-1,1.3-2.9,1.6-4.2,0.6c-0.4-0.3-0.8-0.8-1-1.3c-2.1-5.5-3.7-11.2-4.6-17c-0.1-0.6-0.2-1.1-0.5-1.6c0-0.6-0.4-1.2-1-1.5
	c-2.2-2.5-6.3-3.2-6.4-3.2c-1.5-0.3-2.6-1.6-2.5-3.2c0.1-2.9,0-5.8-0.3-8.7c0-0.1,0-0.3,0-0.4c0-0.1,0-0.2,0-0.3
	c-0.7-7.8-2.9-15.3-6.5-22.3c-7.2-13.4-6-31.5-5.3-42.4c0.2-2.3,0.3-4.3,0.3-5.6c-0.1-3.5-1.9-6.7-4.9-8.5c-1.1-0.6-1.7-1.9-1.5-3.2
	l2-9.8c0.2-1,0.8-1.7,1.7-2.1l7.3-3.2v-8.9c-5.2-1.4-10.6-2.1-15.9-2.1c-5.3,0-10.5,0.7-15.6,2.1v8.4l6.4,3.8
	c0.7,0.4,1.2,1.1,1.4,1.9l2,9.3c0.3,1.6-0.7,3.2-2.4,3.5c-0.2,0-0.4,0.1-0.6,0.1h-1.2v17h2.9c1.7,0,3,1.3,3,3v12.1h2.5
	c1.6,0,2.9,1.2,3,2.8c0.1,0.9,1.5,22.9,1.2,37c-0.2,7.7,1.5,15.3,5,22.1c0.8,1.4,0.4,3.1-0.9,4c-17.5,11.4-12,31.6-11,34.8l18,24
	c0.6,0.8,0.7,1.8,0.5,2.7l-5.4,16.9l6,6.9c0.6,0.6,0.8,1.5,0.7,2.3l-6.9,54.5l7.5,5.6c0.8,0.6,1.2,1.5,1.2,2.5L704.1,563.8z
	 M727.6,374.3c0.2,1.6,0.6,3.3,1,5c0.2-1.7,0.6-3.4,1-5H727.6z M717.2,362.8c2.1,0.6,4,1.7,5.7,3l4.2-1.7l0.1-0.2l-10-3.7
	C717.2,361.3,717.2,362.1,717.2,362.8L717.2,362.8z"/>
<path class="st0" d="M1940.1,502.6c-17.2,0-31.2-14-31.2-31.2s14-31.2,31.2-31.2c17.2,0,31.2,14,31.2,31.2
	C1971.3,488.6,1957.4,502.6,1940.1,502.6z M1940.1,446.2c-13.9,0-25.2,11.3-25.2,25.2c0,13.9,11.3,25.2,25.2,25.2
	c13.9,0,25.2-11.3,25.2-25.2C1965.4,457.5,1954.1,446.2,1940.1,446.2L1940.1,446.2z"/>
<path class="st0" d="M1840.3,569.1c-17.2,0-31.2-14-31.2-31.2s14-31.2,31.2-31.2s31.2,14,31.2,31.2v0
	C1871.5,555.1,1857.5,569.1,1840.3,569.1z M1840.3,512.7c-13.9,0-25.2,11.3-25.2,25.2s11.3,25.2,25.2,25.2s25.2-11.3,25.2-25.2l0,0
	C1865.5,524,1854.2,512.7,1840.3,512.7z"/>
<path class="st0" d="M1845.6,666.9c-17.2,0-31.2-14-31.2-31.2s14-31.2,31.2-31.2s31.2,14,31.2,31.2v0
	C1876.7,652.9,1862.8,666.9,1845.6,666.9z M1845.6,610.5c-13.9,0-25.2,11.3-25.2,25.2s11.3,25.2,25.2,25.2s25.2-11.3,25.2-25.2l0,0
	C1870.8,621.8,1859.5,610.5,1845.6,610.5L1845.6,610.5z"/>
<path class="st0" d="M2040.2,569.1c-17.2,0-31.2-14-31.2-31.2c0-17.2,14-31.2,31.2-31.2c17.2,0,31.2,14,31.2,31.2v0
	C2071.3,555.1,2057.4,569.1,2040.2,569.1z M2040.2,512.7c-13.9,0-25.2,11.3-25.2,25.2s11.3,25.2,25.2,25.2s25.2-11.3,25.2-25.2l0,0
	C2065.4,524,2054.1,512.7,2040.2,512.7z"/>
<path class="st0" d="M2034.9,666.9c-17.2,0-31.2-13.9-31.2-31.2s13.9-31.2,31.2-31.2c17.2,0,31.2,13.9,31.2,31.2c0,0,0,0,0,0
	C2066,652.9,2052.1,666.9,2034.9,666.9z M2034.9,610.5c-13.9,0-25.2,11.3-25.2,25.2s11.3,25.2,25.2,25.2s25.2-11.3,25.2-25.2l0,0
	C2060.1,621.8,2048.8,610.5,2034.9,610.5L2034.9,610.5z"/>
<path class="st0" d="M1940.1,644.8c-17.2,0-31.2-14-31.2-31.2s14-31.2,31.2-31.2c17.2,0,31.2,14,31.2,31.2
	C1971.3,630.8,1957.4,644.7,1940.1,644.8z M1940.1,588.3c-13.9,0-25.2,11.3-25.2,25.2c0,13.9,11.3,25.2,25.2,25.2
	c13.9,0,25.2-11.3,25.2-25.2C1965.4,599.6,1954.1,588.3,1940.1,588.3L1940.1,588.3z"/>
<path class="st0" d="M1966,605.2L1966,605.2c-1.2,0-2.2-0.7-2.7-1.8c-5.6-12.8-20.5-18.6-33.3-13c-5.8,2.5-10.5,7.2-13,13
	c-0.7,1.5-2.5,2.2-4,1.5c-0.6-0.3-1.2-0.8-1.5-1.5c-6.9-15.8,0.3-34.2,16.1-41.1s34.2,0.3,41.1,16.1c3.5,8,3.5,17,0,25
	C1968.2,604.5,1967.2,605.2,1966,605.2z M1940.1,565.7c-14,0-25.3,11.3-25.2,25.3c0,1.3,0.1,2.6,0.3,3.8
	c10.3-13.8,29.9-16.6,43.7-6.2c2.4,1.8,4.5,3.9,6.2,6.2c2.1-13.8-7.3-26.7-21.1-28.8C1942.7,565.8,1941.4,565.7,1940.1,565.7
	L1940.1,565.7z"/>
<path class="st0" d="M1940.1,565.7c-1.7,0-3-1.3-3-3v-63.1c-0.2-1.6,0.9-3.1,2.6-3.4c1.6-0.2,3.1,0.9,3.4,2.6c0,0.3,0,0.5,0,0.8
	v63.1C1943.1,564.4,1941.8,565.7,1940.1,565.7z"/>
<path class="st0" d="M1870.7,625.7c-1.7,0-3-1.4-2.9-3.1c0-0.8,0.3-1.5,0.8-2l33.5-33.4l-38.1-33.2c-1.2-1.1-1.2-3-0.1-4.2
	c0.8-0.8,1.9-1.1,3-0.8l53.8,17.8c1.6,0.3,2.7,1.9,2.4,3.5s-1.9,2.7-3.5,2.4c-0.3,0-0.5-0.1-0.7-0.2l-39.8-13.1l29.4,25.6
	c1.2,1.1,1.3,3,0.2,4.2c0,0-0.1,0.1-0.1,0.1l-25.3,25.2l27.6-11.3c1.6-0.4,3.2,0.6,3.6,2.2c0.3,1.3-0.2,2.7-1.4,3.3l-41.3,16.8
	C1871.4,625.7,1871,625.7,1870.7,625.7z"/>
<path class="st0" d="M1863.3,524.6c-1.7,0-3-1.4-2.9-3.1c0-0.9,0.5-1.8,1.2-2.3l52-36.8c1.2-1.1,3.1-1,4.2,0.2
	c1.1,1.2,1,3.1-0.2,4.2c-0.2,0.2-0.4,0.3-0.6,0.5l-52,36.8C1864.5,524.4,1864,524.6,1863.3,524.6z"/>
<path class="st0" d="M1847.6,610.5c-1.5,0-2.8-1.2-3-2.7l-3.8-41.4c-0.4-1.6,0.6-3.2,2.2-3.6s3.2,0.6,3.6,2.2
	c0.1,0.3,0.1,0.5,0.1,0.8l3.8,41.4c0.1,1.6-1.1,3.1-2.7,3.2L1847.6,610.5z"/>
<path class="st0" d="M1919.6,689.9c-0.6,0-1.3-0.2-1.8-0.6l-49.6-37.2c-1.2-1.2-1.2-3.1-0.1-4.2c1-1,2.4-1.2,3.6-0.5l49.6,37.2
	c1.3,1,1.5,2.9,0.5,4.2C1921.4,689.5,1920.5,689.9,1919.6,689.9L1919.6,689.9z"/>
<path class="st0" d="M1832,745.2h-33.6c-1.7,0-3-1.4-3-3c0-0.4,0.1-0.7,0.2-1.1l33.6-81.8c0.8-1.4,2.7-1.9,4.1-1.1
	c1.2,0.7,1.7,2.1,1.4,3.4l-31.9,77.7h26.7l15.2-75.9c0.5-1.6,2.2-2.4,3.8-1.9c1.3,0.4,2.1,1.7,2,3l-15.7,78.3
	C1834.6,744.2,1833.4,745.2,1832,745.2z"/>
<path class="st0" d="M2009.4,625.7c-0.4,0-0.8-0.1-1.1-0.2l-41.3-16.8c-1.6-0.4-2.6-2-2.2-3.6c0.4-1.6,2-2.6,3.6-2.2
	c0.3,0.1,0.5,0.2,0.8,0.3l27.6,11.3l-25.3-25.2c-1.2-1.2-1.1-3.1,0-4.2c0,0,0.1-0.1,0.1-0.1l29.4-25.6l-39.8,13.1
	c-1.5,0.7-3.3,0.1-4-1.4c-0.7-1.5-0.1-3.3,1.4-4c0.2-0.1,0.5-0.2,0.7-0.2l53.8-17.8c1.6-0.4,3.3,0.5,3.7,2.1c0.3,1.1,0,2.2-0.8,3
	l-38.1,33.2l33.5,33.4c1.1,1.2,1.1,3.1-0.1,4.2C2010.9,625.4,2010.2,625.7,2009.4,625.7L2009.4,625.7z"/>
<path class="st0" d="M2016.8,524.6c-0.6,0-1.2-0.2-1.7-0.6l-52-36.8c-1.5-0.8-2-2.6-1.3-4.1c0.8-1.5,2.6-2,4.1-1.3
	c0.2,0.1,0.4,0.3,0.6,0.5l52,36.8c1.3,1,1.6,2.9,0.6,4.2C2018.5,524.1,2017.7,524.6,2016.8,524.6L2016.8,524.6z"/>
<path class="st0" d="M2032.5,610.5h-0.3c-1.6-0.2-2.8-1.6-2.7-3.2l3.8-41.4c-0.1-1.7,1.2-3.1,2.9-3.1c1.7-0.1,3.1,1.2,3.1,2.9
	c0,0.3,0,0.5-0.1,0.8l-3.8,41.4C2035.3,609.4,2034,610.5,2032.5,610.5z"/>
<path class="st0" d="M1960.4,689.9c-1.7,0-3-1.4-2.9-3.1c0-0.9,0.4-1.7,1.1-2.3l49.6-37.2c1.4-0.8,3.3-0.3,4.1,1.1
	c0.7,1.2,0.5,2.7-0.5,3.6l-49.6,37.2C1961.7,689.7,1961.1,689.9,1960.4,689.9z"/>
<path class="st0" d="M2081.7,745.2h-33.6c-1.4,0-2.6-1-2.9-2.4l-15.6-78.3c-0.1-1.7,1.1-3.1,2.8-3.2c1.3-0.1,2.6,0.7,3,2l15.2,75.9
	h26.7l-31.9-77.7c-0.8-1.4-0.3-3.3,1.1-4.1c1.4-0.8,3.3-0.3,4.1,1.1c0.1,0.2,0.2,0.5,0.3,0.7l33.6,81.8c0.6,1.5-0.1,3.3-1.7,3.9
	C2082.4,745.1,2082,745.2,2081.7,745.2L2081.7,745.2z"/>
<path class="st0" d="M1955.4,745.2h-31.6c-1.7,0-3-1.3-3-3c0-0.1,0-0.2,0-0.3l10.2-101.1c0.2-1.6,1.7-2.8,3.3-2.7c0.1,0,0.2,0,0.3,0
	c3.3,0.7,6.7,0.8,10,0.2c1.6-0.3,3.2,0.8,3.5,2.4c0,0.1,0,0.1,0,0.2l10.2,100.6c0,0.2,0.1,0.4,0.1,0.6
	C1958.4,743.9,1957.1,745.2,1955.4,745.2z M1927.1,739.2h25l-9.6-94.6c-1.9,0.2-3.9,0.1-5.8-0.1L1927.1,739.2z"/>
<path class="st0" d="M1925.5,729c-0.6,0-1.2-0.2-1.7-0.5c-13.1-9-16.5-27-7.5-40.1c3.1-4.5,7.5-8.1,12.6-10.2
	c1.5-0.6,3.3,0.1,3.9,1.7c0.2,0.4,0.2,0.9,0.2,1.3l-4.6,45.2C1928.3,727.9,1927,729,1925.5,729L1925.5,729z M1926.5,686.3
	c-10.2,7.5-12.3,21.9-4.8,32c0.4,0.6,0.9,1.2,1.4,1.7L1926.5,686.3z"/>
<path class="st0" d="M1953.9,729.6c-1.5,0-2.8-1.1-3-2.7l-4.7-46.2c-0.1-1.7,1.1-3.1,2.7-3.2c0.4,0,0.9,0,1.3,0.2
	c14.9,5.6,22.5,22.2,16.9,37.1c-2.2,6-6.3,11-11.7,14.4C1954.9,729.5,1954.4,729.6,1953.9,729.6z M1952.7,685.6l3.6,35.4
	c4.3-4.3,6.8-10.2,6.8-16.3C1963,697,1959.1,689.8,1952.7,685.6L1952.7,685.6z"/>
<path class="st0" d="M570.3,537.2h-40.6c-1.7,0-3-1.3-3-3l0,0v-35c0-1.7,1.3-3,3-3h40.6c1.7,0,3,1.3,3,3v35
	C573.3,535.9,572,537.2,570.3,537.2L570.3,537.2z M532.7,531.3h34.7v-29h-34.7V531.3z"/>
<path class="st0" d="M464,561.4h-36.8c-1.5,0-2.7-1.1-2.9-2.5l-3.6-24.2c-0.2-1.6,0.9-3.2,2.6-3.4c0.1,0,0.3,0,0.4,0H465
	c1.7,0,3,1.3,3,3c0,0,0,0.1,0,0.1l-1,24.2C466.9,560.1,465.6,561.4,464,561.4z M429.8,555.5h31.4l0.7-18.3H427L429.8,555.5z"/>
<path class="st0" d="M672.8,502.3H427.2c-1.4,0-2.6-1-2.9-2.4l-3.6-17c-0.3-1.6,0.7-3.2,2.4-3.5c0.2,0,0.4-0.1,0.6-0.1h252.8
	c1.7,0,3,1.4,3,3c0,0.2,0,0.4-0.1,0.6l-3.6,17C675.5,501.3,674.2,502.3,672.8,502.3z M429.6,496.3h240.8l2.3-11.1H427.3L429.6,496.3
	z"/>
<path class="st0" d="M497.4,745.2h-40.6c-1.7,0-3-1.3-3-3c0,0,0-0.1,0-0.1l9.6-242.9c0.1-1.6,1.4-2.9,3-2.9h25.1
	c1.6,0,2.9,1.3,3,2.9l6,242.9C500.5,743.8,499.1,745.1,497.4,745.2L497.4,745.2z M459.9,739.2h34.5l-5.8-237h-19.3L459.9,739.2z"/>
<path class="st0" d="M672.8,561.4H636c-1.6,0-2.9-1.3-3-2.9l-1-24.2c0-1.7,1.3-3,2.9-3.1c0,0,0.1,0,0.1,0h41.3c1.7,0,3,1.4,3,3
	c0,0.1,0,0.3,0,0.4l-3.6,24.2C675.5,560.3,674.3,561.4,672.8,561.4z M638.8,555.5h31.4l2.7-18.3h-34.8L638.8,555.5z"/>
<path class="st0" d="M607.1,561.4H492.9c-1.6,0-2.9-1.3-3-2.9l-0.6-24.2c0-1.7,1.3-3,3-3h115.4c1.7,0,3,1.3,3,3l-0.6,24.2
	C610.1,560.1,608.8,561.4,607.1,561.4z M495.8,555.5h108.4l0.5-18.3H495.4L495.8,555.5z"/>
<path class="st0" d="M689.4,485.2H410.6c-1.3,0-2.4-0.8-2.8-2l-15.2-46.2c-0.5-1.6,0.4-3.3,2-3.7c0.8-0.3,1.7-0.1,2.4,0.3
	c0.1,0.1,10.9,6.9,35.1,13.7c22.3,6.2,60.9,13.7,117.9,13.7c109.5,0,152.6-27,153-27.3c1.4-0.9,3.3-0.4,4.1,1
	c0.4,0.7,0.6,1.6,0.3,2.4l-15.2,46.2C691.8,484.4,690.7,485.2,689.4,485.2z M412.8,479.3h274.5l12.2-37.1
	c-9.5,4.4-19.4,7.9-29.5,10.7c-22.7,6.4-62,14-120,14s-97.2-7.6-120-14c-10.1-2.7-20-6.3-29.5-10.7L412.8,479.3z"/>
<path class="st0" d="M643.3,745.2h-40.6c-1.7,0-3-1.3-3-3l6-242.9c0.1-1.6,1.4-2.9,3-2.9h25.1c1.6,0,2.9,1.3,3,2.9l9.5,242.9
	C646.3,743.8,645,745.1,643.3,745.2C643.3,745.2,643.3,745.2,643.3,745.2L643.3,745.2z M605.7,739.2h34.5l-9.3-237h-19.3
	L605.7,739.2z"/>
<path class="st0" d="M30.2,744.2H3c-1.7,0-3-1.3-3-3v-31.1c0-1.7,1.3-3,3-3h27.2c1.7,0,3,1.3,3,3v31.2
	C33.2,742.9,31.9,744.2,30.2,744.2z M5.9,738.3h21.3v-25.2H5.9V738.3z"/>
<path class="st0" d="M460,705.1H416c-1.2,0-2.3-0.8-2.8-1.9l-1.3-3.4c-4-10.2-14-35.7-20.9-52.3l-3.5-8.6c-0.6-1.5,0.1-3.3,1.7-3.9
	c0.5-0.2,1-0.2,1.4-0.2l9.2,1.2c18.1,2.4,37.9,10.8,45.6,14.3l2.3,1c0.8,0.4,1.4,1.1,1.6,1.9l13.6,47.9c0.6,1.6-0.3,3.3-1.8,3.8
	C460.7,705,460.3,705.1,460,705.1L460,705.1z M418,699.2h38l-12.2-43l-1-0.5c-7.4-3.4-26.6-11.5-43.9-13.8l-4.1-0.5l1.6,3.8
	c6.9,16.7,16.9,42.2,20.9,52.4L418,699.2z"/>
<path class="st0" d="M369.8,705.1h-82c-1.7,0-3-1.3-3-3c0-0.1,0-0.1,0-0.2l0.4-5.8c1-13.7,5-48.7,19.2-78l4.2-8.6
	c0.7-1.5,2.6-2.1,4-1.3c0.5,0.2,0.9,0.6,1.1,1l58.3,91.1c1,1.3,0.7,3.2-0.7,4.2C371,704.9,370.4,705.1,369.8,705.1L369.8,705.1z
	 M291,699.1h73.4l-52.7-82.3l-1.9,3.8c-13.8,28.4-17.6,62.5-18.6,75.9L291,699.1z"/>
<path class="st0" d="M189.6,704.9c-1.4,0-2.7-1-2.9-2.4l-1.8-10c-6-33.2-26-144.3-33.7-177.6l-1.8-7.8c-0.4-1.6,0.7-3.2,2.3-3.6
	c0.4-0.1,0.7-0.1,1.1,0l7.9,1.3c38.2,6.5,72.4,24.5,101.3,53.3c16.3,16.3,30,35,40.8,55.3l2.5,4.9c0.7,1.5,0.1,3.3-1.3,4l-4.9,2.4
	c-48.3,23.9-86.2,58.4-100.3,72.1l-7.2,7.1C191.1,704.6,190.4,704.9,189.6,704.9z M156.2,510.1l0.8,3.5
	c7.7,33.4,27.8,144.6,33.7,177.9l0.8,4.4l3.2-3.2c14.3-13.9,52.8-49,101.8-73.2l2.2-1.1l-1.1-2.2c-10.5-19.8-23.9-38-39.7-53.9
	c-28.1-28-61.1-45.4-98.1-51.7L156.2,510.1z"/>
<path class="st0" d="M123.8,688.3c-1.7,0-3-1.4-3-3c0-0.3,0.1-0.6,0.1-0.9c11.7-35.3,36.1-78.5,45.4-90.3c1.2-1.2,3.1-1.1,4.2,0.1
	c0.9,1,1.1,2.5,0.4,3.6c-7.7,9.7-32.1,51.6-44.4,88.4C126.2,687.5,125.1,688.3,123.8,688.3z"/>
<path class="st0" d="M111.4,690.1c-1.5,0-2.7-1.1-2.9-2.6c-2-14.1-16.5-114.4-17.6-123l-0.8-6.4c-0.2-1.6,1-3.1,2.6-3.3
	c0.2,0,0.3,0,0.5,0l6.4,0.4c22.7,1.3,45,6.7,65.8,15.9c1.4,0.9,1.8,2.7,0.9,4.1c-0.7,1.1-2.1,1.6-3.4,1.3
	c-20.1-8.9-41.7-14.1-63.6-15.4l-2.9-0.2l0.4,2.8c1.1,8.6,15.6,108.8,17.6,122.9c0.2,1.6-0.9,3.2-2.6,3.4
	C111.6,690.1,111.5,690.1,111.4,690.1L111.4,690.1z"/>
<path class="st0" d="M49.4,673.8L49.4,673.8c-1.1,0-2.1-0.7-2.6-1.7l-36.5-76.5c-0.7-1.5,0-3.3,1.5-4c0.2-0.1,0.5-0.2,0.8-0.2
	l7.1-1.1c7-1,14.1-1.5,21.1-1.5c24.7,0,47.2,5.5,55.7,7.9l3.4,0.9c1.1,0.3,2,1.3,2.1,2.4l1.9,13.1c0.2,1.3-0.5,2.5-1.6,3.1l-3.4,1.7
	C76.4,629.4,63,650.8,57,662.5l-4.9,9.7C51.5,673.2,50.5,673.8,49.4,673.8z M17.3,596.6l32.2,67.5l2.2-4.3
	c6.3-12.3,20.5-34.9,44.4-47.2l1.5-0.8l-1.3-9.1l-1.5-0.4c-8.3-2.3-30.2-7.7-54.1-7.7c-6.8,0-13.5,0.5-20.2,1.4L17.3,596.6z"/>
<path class="st0" d="M168.1,744.2H30.4c-1.7,0-3-1.3-3-3V684c0-1.7,1.3-3,3-3h8.1l8.7-11.8c0.8-1,2.1-1.4,3.3-1.1l52.7,16.4h37
	c0.5,0,1,0.1,1.4,0.3l27.9,14.8c1,0.5,1.6,1.5,1.6,2.6v38.9C171.1,742.9,169.8,744.2,168.1,744.2
	C168.1,744.3,168.1,744.3,168.1,744.2z M33.4,738.3h131.8v-34.2l-25.7-13.7h-36.7c-0.3,0-0.6,0-0.9-0.1l-51.1-15.9l-8.3,11.4
	c-0.6,0.8-1.5,1.2-2.4,1.2h-6.7L33.4,738.3z"/>
<path class="st0" d="M535.7,744.2H167.8c-1.6,0.2-3.1-0.9-3.4-2.6c-0.2-1.6,0.9-3.1,2.6-3.4c0.3,0,0.5,0,0.8,0h362.1l-18.4-26.2
	l-9-2.9v3.5c0,1.7-1.3,3-3,3l0,0h-36.7c-0.7,0-1.5-0.3-2-0.8l-10.5-9.7H167.8c-1.6,0.2-3.1-0.9-3.4-2.6c-0.2-1.6,0.9-3.1,2.6-3.4
	c0.3,0,0.5,0,0.8,0h283.7c0.7,0,1.5,0.3,2,0.8l10.5,9.7h32.5v-4.6c0-1.7,1.4-3,3-3c0.3,0,0.6,0,0.8,0.1l13.9,4.4
	c0.6,0.2,1.2,0.6,1.5,1.1l22.2,31.7c0.9,1.4,0.6,3.2-0.8,4.2C536.8,744.1,536.2,744.3,535.7,744.2L535.7,744.2z"/>
<path class="st0" d="M458.9,712c-1.7-0.1-2.9-1.5-2.8-3.2c0.1-1.3,1-2.4,2.2-2.7l9.9-1.9c14.3-11.8,48.5-40.1,70.2-59.8l4-3.6
	l-5.4-0.5c-4.9-0.5-9.9-0.7-14.8-0.7c-24.2,0.2-48.1,5.2-70.2,14.8l-4.2,1.9c-1.6,0.5-3.3-0.5-3.7-2.1c-0.4-1.3,0.2-2.7,1.3-3.4
	l4.2-1.9c22.9-9.9,47.7-15.1,72.7-15.3c5.1,0,10.3,0.2,15.3,0.7l12.1,1.1c1.6,0.2,2.8,1.7,2.6,3.3c-0.1,0.7-0.4,1.4-0.9,1.8l-9,8.2
	c-22.2,20.1-57,49-71,60.5c-0.4,0.3-0.8,0.5-1.3,0.6l-10.6,2.1C459.3,712,459.1,712.1,458.9,712z"/>
<path class="st0" d="M382.6,705.1c-1.7,0-3-1.4-3-3c0-0.4,0.1-0.7,0.2-1.1l1.4-3.3c4.7-11.4,10.1-22.6,15.9-33.4l0.5-1l-0.4-1
	c-4-9.8-7-17.4-9.2-22.4c-0.6-1.5,0.1-3.3,1.6-3.9c0.3-0.1,0.7-0.2,1.1-0.2l0,0c6.4,0.1,12.8,1,19,2.5l1.7,0.4l0.9-1.6
	c5.8-10.3,13.9-24.6,19.8-34.5l1.8-3l-3.4-0.6c-8.9-1.6-17.9-2.4-27-2.3c-23.4,0.4-49.1,6-83.4,17.9l-5.9,2.4
	c-1.4,0.8-3.3,0.3-4.1-1.1c-0.8-1.4-0.3-3.3,1.1-4.1c0.2-0.1,0.5-0.2,0.7-0.3l6-2.4l0.1-0.1c34.9-12.2,61.2-17.8,85.3-18.3
	c9.4-0.1,18.8,0.7,28.1,2.3l7.6,1.3c1.6,0.3,2.7,1.9,2.4,3.5c-0.1,0.3-0.2,0.6-0.3,0.9l-3.9,6.7c-5.8,9.9-13.9,24.2-19.7,34.4
	l-2,3.5c-0.7,1.1-2,1.7-3.3,1.4l-3.9-0.9c-4.3-1-8.7-1.7-13.1-2.2c2,4.7,4.5,10.8,7.4,18.2l1,2.3c0.3,0.8,0.3,1.8-0.2,2.5l-1.2,2.2
	c-5.8,10.7-11,21.6-15.6,32.8l-1.4,3.3C384.9,704.4,383.8,705.1,382.6,705.1z"/>
</svg>
