<svg id="Capa_1" data-name="Capa 1" xmlns="http://www.w3.org/2000/svg" viewBox="0 0 512 452.33"><defs><style>.cls-1{fill:#fff;}</style></defs><title>like</title><path class="cls-1" d="M376,29.84c-53.95,0-88.1,32.22-107.26,59.25A196.31,196.31,0,0,0,256,109.75a196.15,196.15,0,0,0-12.74-20.67C224.1,62.06,189.95,29.84,136,29.84A129.74,129.74,0,0,0,37.36,74.27C13.27,101.61,0,138.21,0,177.35c0,42.6,16.63,82.23,52.35,124.7,31.92,38,77.83,77.09,131,122.4,19.81,16.88,40.3,34.34,62.12,53.43l.65.57a15,15,0,0,0,19.76,0l.65-.57c21.81-19.08,42.3-36.54,62.12-53.43,53.17-45.31,99.08-84.43,131-122.39C495.37,259.58,512,220,512,177.35c0-39.14-13.27-75.75-37.36-103.08A129.74,129.74,0,0,0,376,29.84ZM309.19,401.61c-17.08,14.55-34.66,29.53-53.19,45.65-18.53-16.11-36.11-31.09-53.2-45.65C98.75,312.94,30,254.36,30,177.35,30,145.52,40.6,116,59.86,94.11A100.13,100.13,0,0,1,136,59.84c41.13,0,67.72,25.34,82.78,46.59a177.84,177.84,0,0,1,23,45.66,15,15,0,0,0,28.52,0,177.86,177.86,0,0,1,23-45.66C308.28,85.17,334.87,59.84,376,59.84a100.13,100.13,0,0,1,76.14,34.27C471.39,116,482,145.52,482,177.35,482,254.36,413.26,312.94,309.19,401.61Z" transform="translate(0 -29.84)"/></svg>