<svg id="Capa_1" data-name="Capa 1" xmlns="http://www.w3.org/2000/svg" viewBox="0 0 512 452"><defs><style>.cls-1{fill:#d97b61;}</style></defs><title>liked</title><path class="cls-1" d="M256,482a16,16,0,0,1-10.53-4c-22.09-19.32-43.35-37.43-62.1-53.41C72.94,330.53,0,268.37,0,177.51,0,93.42,58.47,30,136,30c27.78,0,53.26,8.8,75.71,26.17C233.23,72.82,247.56,94,256,109.44c8.44-15.42,22.77-36.62,44.29-53.27C322.74,38.8,348.22,30,376,30c77.53,0,136,63.42,136,147.51,0,90.85-72.94,153-183.36,247.11-18.76,16-40,34.1-62.11,53.42A16,16,0,0,1,256,482Z" transform="translate(0 -30)"/></svg>