<?xml version="1.0" encoding="utf-8"?>
<!-- Generator: Adobe Illustrator 22.1.0, SVG Export Plug-In . SVG Version: 6.00 Build 0)  -->
<svg version="1.1" id="lifestyle" xmlns="http://www.w3.org/2000/svg" xmlns:xlink="http://www.w3.org/1999/xlink" x="0px" y="0px"
	 viewBox="0 0 33.5 33.5" style="enable-background:new 0 0 33.5 33.5;" xml:space="preserve">
<style type="text/css">
	.st0{fill:#FFFFFF;stroke:#D87A61;stroke-width:1.5;stroke-miterlimit:10;}
	.st1{fill:#D87A61;}
</style>
<title>plus</title>
<path class="st0" d="M16.8,1.3L16.8,1.3c8.6,0,15.5,6.9,15.5,15.5l0,0c0,8.6-6.9,15.5-15.5,15.5l0,0c-8.6,0-15.5-6.9-15.5-15.5l0,0
	C1.3,8.2,8.2,1.3,16.8,1.3z"/>
<path class="st1" d="M19.8,15.8h-2v-2l0,0c0-0.6-0.4-1-1-1s-1,0.4-1,1l0,0v2h-2c-0.6,0-1,0.4-1,1s0.4,1,1,1h2v2l0,0c0,0.6,0.4,1,1,1
	s1-0.4,1-1l0,0v-2h2c0.6,0,1-0.4,1-1S20.3,15.8,19.8,15.8z"/>
</svg>
