<svg id="Layer_1" data-name="Layer 1" xmlns="http://www.w3.org/2000/svg" viewBox="0 0 507.61 490.82"><defs><style>.cls-1{fill:#58585b;stroke:#58585b;stroke-miterlimit:10;stroke-width:4px;}</style></defs><title>hotel</title><path class="cls-1" d="M360.92,499.41H142.69c-5,0-8.39-3.36-8.39-8.39V37.77c0-5,3.36-8.39,8.39-8.39H360.92c5,0,8.39,3.36,8.39,8.39V491C369.31,496.05,366,499.41,360.92,499.41ZM151.08,482.62H352.52V46.16H151.08Z" transform="translate(2 -10.59)"/><path class="cls-1" d="M142.69,432.26H8.39c-5,0-8.39-3.36-8.39-8.39V121.7c0-5,3.36-8.39,8.39-8.39h134.3c5,0,8.39,3.36,8.39,8.39V423.87C151.08,428.9,147.72,432.26,142.69,432.26ZM16.79,415.48H134.3V130.1H16.79Z" transform="translate(2 -10.59)"/><path class="cls-1" d="M319,499.41H184.66c-5,0-8.39-3.36-8.39-8.39V407.08c0-5,3.36-8.39,8.39-8.39H319c5,0,8.39,3.36,8.39,8.39V491C327.34,496.05,324,499.41,319,499.41ZM193,482.62H310.56V415.48H193Z" transform="translate(2 -10.59)"/><path class="cls-1" d="M251.8,499.41c-5,0-8.39-3.36-8.39-8.39V407.08c0-5,3.36-8.39,8.39-8.39s8.39,3.36,8.39,8.39V491C260.2,496.05,256.84,499.41,251.8,499.41Z" transform="translate(2 -10.59)"/><path class="cls-1" d="M142.69,499.41H8.39c-5,0-8.39-3.36-8.39-8.39V423.87c0-5,3.36-8.39,8.39-8.39h134.3c5,0,8.39,3.36,8.39,8.39V491C151.08,496.05,147.72,499.41,142.69,499.41ZM16.79,482.62H134.3V432.26H16.79Z" transform="translate(2 -10.59)"/><path class="cls-1" d="M495.21,432.26H360.92c-5,0-8.39-3.36-8.39-8.39V121.7c0-5,3.36-8.39,8.39-8.39h134.3c5,0,8.39,3.36,8.39,8.39V423.87C503.61,428.9,500.25,432.26,495.21,432.26Zm-125.9-16.79H486.82V130.1H369.31Z" transform="translate(2 -10.59)"/><path class="cls-1" d="M495.21,499.41H360.92c-5,0-8.39-3.36-8.39-8.39V423.87c0-5,3.36-8.39,8.39-8.39h134.3c5,0,8.39,3.36,8.39,8.39V491C503.61,496.05,500.25,499.41,495.21,499.41Zm-125.9-16.79H486.82V432.26H369.31Z" transform="translate(2 -10.59)"/><path class="cls-1" d="M42,130.1c-5,0-8.39-3.36-8.39-8.39V104.92c0-5,3.36-8.39,8.39-8.39s8.39,3.36,8.39,8.39V121.7C50.36,126.74,47,130.1,42,130.1Z" transform="translate(2 -10.59)"/><path class="cls-1" d="M92.33,130.1c-5,0-8.39-3.36-8.39-8.39V104.92c0-5,3.36-8.39,8.39-8.39s8.39,3.36,8.39,8.39V121.7C100.72,126.74,97.36,130.1,92.33,130.1Z" transform="translate(2 -10.59)"/><path class="cls-1" d="M226.62,46.16c-5,0-8.39-3.36-8.39-8.39V21c0-5,3.36-8.39,8.39-8.39S235,15.95,235,21V37.77C235,42.81,231.66,46.16,226.62,46.16Z" transform="translate(2 -10.59)"/><path class="cls-1" d="M277,46.16c-5,0-8.39-3.36-8.39-8.39V21c0-5,3.36-8.39,8.39-8.39s8.39,3.36,8.39,8.39V37.77C285.38,42.81,282,46.16,277,46.16Z" transform="translate(2 -10.59)"/><path class="cls-1" d="M411.28,130.1c-5,0-8.39-3.36-8.39-8.39V104.92c0-5,3.36-8.39,8.39-8.39s8.39,3.36,8.39,8.39V121.7C419.67,126.74,416.31,130.1,411.28,130.1Z" transform="translate(2 -10.59)"/><path class="cls-1" d="M461.64,130.1c-5,0-8.39-3.36-8.39-8.39V104.92c0-5,3.36-8.39,8.39-8.39s8.39,3.36,8.39,8.39V121.7C470,126.74,466.68,130.1,461.64,130.1Z" transform="translate(2 -10.59)"/><path class="cls-1" d="M218.23,138.49H201.44a16.84,16.84,0,0,1-16.79-16.79V104.92a16.84,16.84,0,0,1,16.79-16.79h16.79A16.84,16.84,0,0,1,235,104.92V121.7A16.84,16.84,0,0,1,218.23,138.49Zm-16.79-33.57V121.7h16.79V104.92Z" transform="translate(2 -10.59)"/><path class="cls-1" d="M302.16,138.49H285.38a16.84,16.84,0,0,1-16.79-16.79V104.92a16.84,16.84,0,0,1,16.79-16.79h16.79A16.84,16.84,0,0,1,319,104.92V121.7A16.84,16.84,0,0,1,302.16,138.49Zm-16.79-33.57V121.7h16.79V104.92Z" transform="translate(2 -10.59)"/><path class="cls-1" d="M218.23,205.64H201.44a16.84,16.84,0,0,1-16.79-16.79V172.07a16.84,16.84,0,0,1,16.79-16.79h16.79A16.84,16.84,0,0,1,235,172.07v16.79A16.84,16.84,0,0,1,218.23,205.64Zm-16.79-33.57v16.79h16.79V172.07Z" transform="translate(2 -10.59)"/><path class="cls-1" d="M302.16,205.64H285.38a16.84,16.84,0,0,1-16.79-16.79V172.07a16.84,16.84,0,0,1,16.79-16.79h16.79A16.84,16.84,0,0,1,319,172.07v16.79A16.84,16.84,0,0,1,302.16,205.64Zm-16.79-33.57v16.79h16.79V172.07Z" transform="translate(2 -10.59)"/><path class="cls-1" d="M218.23,272.79H201.44A16.84,16.84,0,0,1,184.66,256V239.21a16.84,16.84,0,0,1,16.79-16.79h16.79A16.84,16.84,0,0,1,235,239.21V256A16.84,16.84,0,0,1,218.23,272.79Zm-16.79-33.57V256h16.79V239.21Z" transform="translate(2 -10.59)"/><path class="cls-1" d="M302.16,272.79H285.38A16.84,16.84,0,0,1,268.59,256V239.21a16.84,16.84,0,0,1,16.79-16.79h16.79A16.84,16.84,0,0,1,319,239.21V256A16.84,16.84,0,0,1,302.16,272.79Zm-16.79-33.57V256h16.79V239.21Z" transform="translate(2 -10.59)"/><path class="cls-1" d="M218.23,339.93H201.44a16.84,16.84,0,0,1-16.79-16.79V306.36a16.84,16.84,0,0,1,16.79-16.79h16.79A16.84,16.84,0,0,1,235,306.36v16.79A16.84,16.84,0,0,1,218.23,339.93Zm-16.79-33.57v16.79h16.79V306.36Z" transform="translate(2 -10.59)"/><path class="cls-1" d="M302.16,339.93H285.38a16.84,16.84,0,0,1-16.79-16.79V306.36a16.84,16.84,0,0,1,16.79-16.79h16.79A16.84,16.84,0,0,1,319,306.36v16.79A16.84,16.84,0,0,1,302.16,339.93Zm-16.79-33.57v16.79h16.79V306.36Z" transform="translate(2 -10.59)"/><path class="cls-1" d="M436.46,197.25H419.67a16.84,16.84,0,0,1-16.79-16.79V163.67a16.84,16.84,0,0,1,16.79-16.79h16.79a16.84,16.84,0,0,1,16.79,16.79v16.79A16.84,16.84,0,0,1,436.46,197.25Zm-16.79-33.57v16.79h16.79V163.67Z" transform="translate(2 -10.59)"/><path class="cls-1" d="M436.46,264.39H419.67a16.84,16.84,0,0,1-16.79-16.79V230.82A16.84,16.84,0,0,1,419.67,214h16.79a16.84,16.84,0,0,1,16.79,16.79v16.79A16.84,16.84,0,0,1,436.46,264.39Zm-16.79-33.57v16.79h16.79V230.82Z" transform="translate(2 -10.59)"/><path class="cls-1" d="M436.46,331.54H419.67a16.84,16.84,0,0,1-16.79-16.79V298a16.84,16.84,0,0,1,16.79-16.79h16.79A16.84,16.84,0,0,1,453.25,298v16.79A16.84,16.84,0,0,1,436.46,331.54ZM419.67,298v16.79h16.79V298Z" transform="translate(2 -10.59)"/><path class="cls-1" d="M436.46,398.69H419.67a16.84,16.84,0,0,1-16.79-16.79V365.11a16.84,16.84,0,0,1,16.79-16.79h16.79a16.84,16.84,0,0,1,16.79,16.79V381.9A16.84,16.84,0,0,1,436.46,398.69Zm-16.79-33.57V381.9h16.79V365.11Z" transform="translate(2 -10.59)"/><path class="cls-1" d="M83.93,197.25H67.15a16.84,16.84,0,0,1-16.79-16.79V163.67a16.84,16.84,0,0,1,16.79-16.79H83.93a16.84,16.84,0,0,1,16.79,16.79v16.79A16.84,16.84,0,0,1,83.93,197.25ZM67.15,163.67v16.79H83.93V163.67Z" transform="translate(2 -10.59)"/><path class="cls-1" d="M83.93,264.39H67.15a16.84,16.84,0,0,1-16.79-16.79V230.82A16.84,16.84,0,0,1,67.15,214H83.93a16.84,16.84,0,0,1,16.79,16.79v16.79A16.84,16.84,0,0,1,83.93,264.39ZM67.15,230.82v16.79H83.93V230.82Z" transform="translate(2 -10.59)"/><path class="cls-1" d="M83.93,331.54H67.15a16.84,16.84,0,0,1-16.79-16.79V298a16.84,16.84,0,0,1,16.79-16.79H83.93A16.84,16.84,0,0,1,100.72,298v16.79A16.84,16.84,0,0,1,83.93,331.54ZM67.15,298v16.79H83.93V298Z" transform="translate(2 -10.59)"/><path class="cls-1" d="M83.93,398.69H67.15A16.84,16.84,0,0,1,50.36,381.9V365.11a16.84,16.84,0,0,1,16.79-16.79H83.93a16.84,16.84,0,0,1,16.79,16.79V381.9A16.84,16.84,0,0,1,83.93,398.69ZM67.15,365.11V381.9H83.93V365.11Z" transform="translate(2 -10.59)"/></svg>