<svg id="real_estate" data-name="real estate" xmlns="http://www.w3.org/2000/svg" viewBox="0 0 60.5 72"><defs><style>.cls-1{fill:#57585b;}.cls-2{fill:#fff;}.cls-3{fill:#58585b;}</style></defs><title>private-room</title><path class="cls-1" d="M333.17,120h-28a6,6,0,0,0-6,6v4a2,2,0,0,0-2,2v10a2,2,0,0,0,2,2v16a2,2,0,0,0-2,2v10a2,2,0,0,0,2,2v4a6,6,0,0,0,6,6h28a6,6,0,0,0,6-6V126A6,6,0,0,0,333.17,120Zm2,58a2,2,0,0,1-2,2h-28a2,2,0,0,1-2-2V126a2,2,0,0,1,2-2h28a2,2,0,0,1,2,2Z" transform="translate(-297.17 -112)"/><circle class="cls-1" cx="31" cy="40" r="3"/><rect class="cls-2" x="31" width="29.5" height="34.5"/><path class="cls-3" d="M339.17,129.79a2.27,2.27,0,0,0-.91,4.35v2.92h0a.91.91,0,0,0,1.82,0v-2.92a2.27,2.27,0,0,0-.91-4.35Z" transform="translate(-297.17 -112)"/><path class="cls-3" d="M346.44,127v-5a7.27,7.27,0,1,0-14.55,0v5a10,10,0,1,0,14.55,0Zm-7.27-10.42a5.46,5.46,0,0,1,5.45,5.45v3.44a10,10,0,0,0-10.91,0v-3.44A5.46,5.46,0,0,1,339.17,116.61Zm0,25.45a8.18,8.18,0,1,1,8.18-8.18A8.19,8.19,0,0,1,339.17,142.06Z" transform="translate(-297.17 -112)"/></svg>