<svg id="real_estate" data-name="real estate" xmlns="http://www.w3.org/2000/svg" viewBox="0 0 64 49"><defs><style>.cls-1{fill:#58585b;}</style></defs><title>shared-room</title><path class="cls-1" d="M345.27,284.92a7,7,0,0,0-7-7h-7a5,5,0,0,0-1,.1v-12.1a5,5,0,0,0-5-5h-24a5,5,0,0,0-5,5V278a5,5,0,0,0-1-.1h-7a7,7,0,0,0-7,7h0a7,7,0,0,0,5,6.71v6.3a8,8,0,0,0,8,8h2v2a2,2,0,0,0,4,0v-2h26v2a2,2,0,0,0,4,0v-2h2a8,8,0,0,0,8-8v-6.3a7,7,0,0,0,5-6.71h0Zm-7,3a2,2,0,0,0-2,2v8a4,4,0,0,1-4,4h-38a4,4,0,0,1-4-4v-8a2,2,0,0,0-2-2,3,3,0,0,1-3-3h0a3,3,0,0,1,3-3h7a1,1,0,0,1,1,1v10a5,5,0,0,0,5,5v-4a1,1,0,0,1-1-1v-10h0v-17a1,1,0,0,1,1-1h24a1,1,0,0,1,1,1v20h-26v4h26v3a1,1,0,0,1-1,1h-24v4h24a5,5,0,0,0,5-5v-10a1,1,0,0,1,1-1h7a3,3,0,0,1,3,3h0A3,3,0,0,1,338.27,287.92Z" transform="translate(-281.27 -260.92)"/><circle class="cls-1" cx="28" cy="10" r="2"/><circle class="cls-1" cx="36" cy="10" r="2"/><circle class="cls-1" cx="28" cy="18" r="2"/><circle class="cls-1" cx="36" cy="18" r="2"/></svg>