<svg id="shopping_and_biz" data-name="shopping and biz" xmlns="http://www.w3.org/2000/svg" viewBox="0 0 64 61"><defs><style>.cls-1{fill:#d97a61;}</style></defs><title>star</title><path class="cls-1" d="M235.63,278.23a2,2,0,0,1-.93-.23l-17.61-9.25L199.48,278a2,2,0,0,1-2.9-2.11l3.36-19.59-14.25-13.87A2,2,0,0,1,186.8,239l19.69-2.86,8.81-17.82a2,2,0,0,1,1.79-1.12h0a2,2,0,0,1,1.79,1.12l8.8,17.82L247.38,239a2,2,0,0,1,1.11,3.41l-14.25,13.87,3.36,19.59a2,2,0,0,1-2,2.34Zm-18.54-13.74a2,2,0,0,1,.93.23l15,7.85-2.85-16.63a2,2,0,0,1,.58-1.77l12.09-11.77L226.07,240a2,2,0,0,1-1.51-1.09l-7.48-15.13-7.48,15.13a2,2,0,0,1-1.51,1.09l-16.71,2.43,12.09,11.77a2,2,0,0,1,.58,1.77l-2.86,16.63,15-7.85A2,2,0,0,1,217.09,264.49Z" transform="translate(-185.09 -217.23)"/></svg>