<svg xmlns="http://www.w3.org/2000/svg" viewBox="0 0 303 303"><defs><style>.cls-1{fill:#fff;stroke:#ccc;stroke-miterlimit:10;stroke-width:3px;}.cls-2{fill:#55575a;}</style></defs><title>Air Conditioning</title><g id="Layer_2" data-name="Layer 2"><g id="Homes"><rect id="bg" class="cls-1" x="1.5" y="1.5" width="300" height="300" rx="3.48" ry="3.48"/><g id="Air_Conditioning" data-name="Air Conditioning"><path class="cls-2" d="M228,170.37H75a8.35,8.35,0,0,1-8.5-8.5V105.2A8.35,8.35,0,0,1,75,96.7H228a8.35,8.35,0,0,1,8.5,8.5v56.67A8.35,8.35,0,0,1,228,170.37Zm-153-68a2.84,2.84,0,0,0-2.83,2.83v56.67A2.68,2.68,0,0,0,75,164.7H228a2.68,2.68,0,0,0,2.83-2.83V105.2a2.68,2.68,0,0,0-2.83-2.83Z"/><path class="cls-2" d="M162.83,122.2H140.17a2.83,2.83,0,1,1,0-5.67h22.67a2.83,2.83,0,1,1,0,5.67Z"/><path class="cls-2" d="M222.33,159H80.67a2.83,2.83,0,0,1,0-5.67H222.33a2.83,2.83,0,1,1,0,5.67Z"/><path class="cls-2" d="M222.33,147.7H80.67a2.83,2.83,0,1,1,0-5.67H222.33a2.83,2.83,0,1,1,0,5.67Z"/><path class="cls-2" d="M151.5,210a3,3,0,0,1-2.55-1.42,2.5,2.5,0,0,1,1.13-3.68c2.55-1.42,4.25-3.12,4.25-4.53s-1.42-3.12-4.25-4.53c-4.53-2.83-7.08-6.23-7.08-9.92s2.55-7.08,7.08-9.63a2.5,2.5,0,0,1,3.68,1.13c.57,1.42.28,3.12-1.13,3.68-2.27,1.7-4,3.4-4,4.82s1.42,3.12,4.25,4.53c4.53,2.27,7.08,5.95,7.08,9.63s-2.55,7.08-7.08,9.63A2.55,2.55,0,0,1,151.5,210Z"/><path class="cls-2" d="M120.33,215.7a3,3,0,0,1-2.55-1.42,2.5,2.5,0,0,1,1.13-3.68c2.55-1.42,4.25-3.12,4.25-4.53s-1.42-3.12-4.25-4.53c-4.53-2.83-7.08-6.23-7.08-9.92s2.55-7.08,7.08-9.63a2.73,2.73,0,0,1,2.55,4.82c-2.27,1.7-4,3.4-4,4.82s1.42,3.12,4.25,4.53c4.53,2.27,7.08,5.95,7.08,9.63s-2.55,7.08-7.08,9.63A2.55,2.55,0,0,1,120.33,215.7Z"/><path class="cls-2" d="M182.67,215.7a3,3,0,0,1-2.55-1.42,2.5,2.5,0,0,1,1.13-3.68c2.55-1.42,4.25-3.12,4.25-4.53s-1.42-3.12-4.25-4.53c-4.53-2.83-7.08-6.23-7.08-9.92s2.55-7.08,7.08-9.63a2.5,2.5,0,0,1,3.68,1.13c.57,1.42.28,3.12-1.13,3.68-2.27,1.7-4,3.4-4,4.82s1.42,3.12,4.25,4.53c4.53,2.27,7.08,5.95,7.08,9.63s-2.55,7.08-7.08,9.63A2.55,2.55,0,0,1,182.67,215.7Z"/></g></g></g></svg>