<svg xmlns="http://www.w3.org/2000/svg" viewBox="0 0 303 303"><defs><style>.cls-1{fill:#fff;stroke:#ccc;stroke-miterlimit:10;stroke-width:3px;}.cls-2{fill:#55575a;}</style></defs><title>BathTub</title><g id="Layer_2" data-name="Layer 2"><g id="Homes"><rect id="bg" class="cls-1" x="1.5" y="1.5" width="300" height="300" rx="3.48" ry="3.48"/><g id="BathTub"><path class="cls-2" d="M233.77,164.86a12.17,12.17,0,0,0-12.14-12.14H172s0-.09,0-.15a39.65,39.65,0,0,0-32.62-39,26.89,26.89,0,0,0-52.89,6.83,27.88,27.88,0,0,0,.24,3.48c-14.39,7.15-14.11,19.24-13.93,26.61,0,.77,0,1.51,0,2.21a4.08,4.08,0,0,0,.09.42,12.09,12.09,0,0,0-.09,23.45v4.23a44.93,44.93,0,0,0,33.4,43.31v3a10.63,10.63,0,0,0,21.15,1.51h45.74a10.62,10.62,0,0,0,21.14-1.51v-3a44.93,44.93,0,0,0,33.4-43.31v-5.49a12.13,12.13,0,0,0,6.08-10.47ZM91.34,128.51l2.36-1L93.13,125a21.81,21.81,0,0,1-.52-4.61,20.81,20.81,0,0,1,41.31-3.62l.39,2.21,2.22.27A33.58,33.58,0,0,1,166,152.58s0,.09,0,.15H78.95q0-1.13,0-2.36c-.16-7.37-.38-16.51,12.44-21.86Zm130.29,52.31a38.82,38.82,0,0,1-31,37.92l-2.43.5v7.87a4.56,4.56,0,0,1-9.12,0v-4.55H121.44v4.55a4.55,4.55,0,0,1-9.1,0v-7.87l-2.43-.5a38.8,38.8,0,0,1-31-37.92V177H221.63Zm0-9.87H75.91a6.07,6.07,0,0,1,0-12.14H221.63a6.07,6.07,0,0,1,0,12.14Zm0,0"/><path class="cls-2" d="M96.41,204.4a2.94,2.94,0,0,0,1.84.62,3,3,0,0,0,1.85-5.44,11.32,11.32,0,0,1-4.36-6.43,3,3,0,1,0-5.93,1.29,17.29,17.29,0,0,0,6.6,10Zm0,0"/><path class="cls-2" d="M108.5,211.47c8.64,2.62,17.65,3.3,26.53,3.3,3.84,0,7.65-.12,11.38-.28a3,3,0,0,0,2.91-3.17,3.13,3.13,0,0,0-3.16-2.91c-11.89.5-24.44.71-35.92-2.76a3,3,0,1,0-1.75,5.81Zm0,0"/><path class="cls-2" d="M154.9,106.94A11.64,11.64,0,1,0,143.26,95.3a11.65,11.65,0,0,0,11.64,11.64Zm0-17.19a5.56,5.56,0,1,1-5.56,5.56,5.57,5.57,0,0,1,5.56-5.56Zm0,0"/><path class="cls-2" d="M78.95,98.85A14.93,14.93,0,1,0,64,83.92,15,15,0,0,0,78.95,98.85Zm0-23.78a8.85,8.85,0,1,1-8.85,8.85,8.85,8.85,0,0,1,8.85-8.85Zm0,0"/><path class="cls-2" d="M133.58,137.55a3,3,0,1,1-3-3,3,3,0,0,1,3,3Zm0,0"/><path class="cls-2" d="M188.23,125.41a3,3,0,1,1-3-3,3,3,0,0,1,3,3Zm0,0"/><path class="cls-2" d="M121.44,82.91a3,3,0,1,1-3-3,3,3,0,0,1,3,3Zm0,0"/></g></g></g></svg>