<svg xmlns="http://www.w3.org/2000/svg" viewBox="0 0 303 303"><defs><style>.cls-1{fill:#fff;stroke:#ccc;stroke-miterlimit:10;stroke-width:3px;}.cls-2{fill:#55575a;}</style></defs><title>BBQ Grill</title><g id="Layer_2" data-name="Layer 2"><g id="Homes"><rect id="bg" class="cls-1" x="1.5" y="1.5" width="300" height="300" rx="3.48" ry="3.48"/><g id="BBQ_Grill" data-name="BBQ Grill"><path class="cls-2" d="M229.29,132.77H217.11a2.69,2.69,0,0,0-2.69,2.69v1.7h-2.84c0-.52,0-1,0-1.57v0c0-.07,0-.14,0-.21,0-12.12-30.24-18.46-60.12-18.46S91.4,123.23,91.4,135.34c0,.07,0,.14,0,.21v0q0,.79,0,1.57H88.58v-1.7a2.69,2.69,0,0,0-2.69-2.69H73.71c-5.32,0-7.21,3.37-7.21,6.52v1.11c0,3.15,1.9,6.52,7.21,6.52H85.89a2.69,2.69,0,0,0,2.69-2.69v-1.7h3.28a60.27,60.27,0,0,0,35.74,47.69l-15.13,32.13a2.69,2.69,0,1,0,4.86,2.29l15.3-32.5a60.1,60.1,0,0,0,16.76,3v40.66a2.69,2.69,0,0,0,5.38,0v-40.7a60,60,0,0,0,16.59-3.29l15.48,32.86a2.69,2.69,0,1,0,4.86-2.29l-15.34-32.58a60.14,60.14,0,0,0,20.78-15.61,2.69,2.69,0,0,0-4.08-3.5,54.7,54.7,0,0,1-38.29,19v-12a2.69,2.69,0,1,0-5.38,0v12.06a55,55,0,0,1-51.9-45.79,31,31,0,0,0,3.06,1.68,2.68,2.68,0,0,0,.35.17c11.28,5.29,31,8,50.6,8,21.74,0,43.67-3.36,54-9.86a54.51,54.51,0,0,1-7.38,19.79,2.69,2.69,0,1,0,4.58,2.82,59.92,59.92,0,0,0,8.44-24h3.27v1.7a2.69,2.69,0,0,0,2.69,2.69h12.18c5.32,0,7.21-3.37,7.21-6.52v-1.11C236.5,136.14,234.61,132.77,229.29,132.77ZM83.2,141.55H73.71c-1.84,0-1.84-.48-1.84-1.14v-1.11c0-.66,0-1.14,1.84-1.14h9.49v3.4Zm109.67-14.34a50.64,50.64,0,0,1,7.17,2.66l-3.1,3H187Zm-6.11-1.56-7.46,7.24h-9.91l9-8.76C181.35,124.56,184.14,125.07,186.76,125.64Zm-15.18-2.38-9.92,9.62h-9.91l10.65-10.33C165.55,122.71,168.62,123,171.58,123.26Zm-20.07-1,3.44,0L144,132.88h-9.91L145,122.36Q148.2,122.26,151.51,122.26ZM125.68,124c3.54-.5,7.26-.89,11.12-1.18l-10.4,10.09h-9.91Zm-14.07,2.82c1.47-.4,3-.78,4.61-1.13l-7.45,7.23H98.21C100.28,130.94,104.64,128.7,111.62,126.79ZM101.41,140a17.67,17.67,0,0,1-2.68-1.77h4.5Zm10.21,3.88c-1.81-.5-3.44-1-4.9-1.54l4.23-4.1h9.91l-6.54,6.34C113.4,144.38,112.49,144.15,111.62,143.9Zm17.8,3.3c-3-.35-6-.78-8.74-1.28l7.91-7.67h9.91l-8.63,8.37A2.67,2.67,0,0,0,129.42,147.21Zm16.31,1.14c-3.21-.09-6.35-.25-9.41-.48l9.91-9.61h9.91Zm7.65.07,10.48-10.16h9.91l-10.12,9.82C160.29,148.27,156.86,148.39,153.37,148.42Zm31.36-3.7a2.68,2.68,0,0,0-.6.87c-3.75.73-7.79,1.33-12,1.78l9.4-9.12h9.91Zm9.39-1.62,5-4.85h5.18C202.39,139.82,199.06,141.53,194.12,143.1Zm10.54-10.22.07-.07.08.07Zm26.47,7.53c0,.66,0,1.14-1.84,1.14h-9.49v-3.4h9.49c1.84,0,1.84.48,1.84,1.14Z"/><path class="cls-2" d="M119.52,108.84a2.69,2.69,0,0,0,3.71,3.89c3.25-3.1,7.47-11.22.19-19.74-2.41-2.82-3.22-5.56-2.4-8.13a8.23,8.23,0,0,1,2.11-3.33,2.69,2.69,0,0,0-3.49-4.09,13.09,13.09,0,0,0-4.27,8.47c-.29,3.6,1,7.15,4,10.57C125,103.1,120.08,108.28,119.52,108.84Z"/><path class="cls-2" d="M140,100.85a2.69,2.69,0,0,0,3.71,3.89c3.25-3.1,7.47-11.22.19-19.74-2.41-2.82-3.22-5.56-2.4-8.13a8.23,8.23,0,0,1,2.11-3.33,2.69,2.69,0,0,0-3.49-4.09,13.09,13.09,0,0,0-4.27,8.47c-.29,3.6,1,7.15,4,10.57C145.47,95.11,140.56,100.29,140,100.85Z"/><path class="cls-2" d="M160.47,100.85a2.69,2.69,0,0,0,3.71,3.89c3.25-3.1,7.47-11.22.19-19.74-2.41-2.82-3.22-5.56-2.4-8.13a8.23,8.23,0,0,1,2.11-3.33,2.69,2.69,0,0,0-3.49-4.09,13.09,13.09,0,0,0-4.27,8.47c-.29,3.6,1,7.15,4,10.57C165.95,95.11,161,100.29,160.47,100.85Z"/><path class="cls-2" d="M181,108.84a2.69,2.69,0,0,0,3.71,3.89c3.25-3.1,7.47-11.22.19-19.74-2.41-2.82-3.22-5.56-2.4-8.13a8.23,8.23,0,0,1,2.11-3.33,2.69,2.69,0,0,0-3.49-4.09,13.09,13.09,0,0,0-4.27,8.47c-.29,3.6,1,7.15,4,10.57C186.42,103.1,181.52,108.28,181,108.84Z"/></g></g></g></svg>