<svg xmlns="http://www.w3.org/2000/svg" viewBox="0 0 303 303"><defs><style>.cls-1{fill:#fff;stroke:#ccc;stroke-miterlimit:10;stroke-width:3px;}.cls-2{fill:#55575a;}</style></defs><title>Breakfast</title><g id="Layer_2" data-name="Layer 2"><g id="Homes"><rect id="bg" class="cls-1" x="1.5" y="1.5" width="300" height="300" rx="3.48" ry="3.48"/><path id="Breakfast" class="cls-2" d="M238.46,170.24c-3.18-5.85-6.58-11.69-10.11-17.4l2.18-1.91a7.85,7.85,0,0,0,2.75-5.41,8.5,8.5,0,0,0-2.15-6.2,78.33,78.33,0,0,0-38.34-23.56,8.67,8.67,0,0,0-5-8.27,80.77,80.77,0,0,0-36.24-8.33h-.09a80.71,80.71,0,0,0-36.21,8.33,8.67,8.67,0,0,0-5,8.28,78.32,78.32,0,0,0-38.34,23.56,8.5,8.5,0,0,0-2.15,6.2,7.85,7.85,0,0,0,2.75,5.41c.73.63,1.46,1.27,2.18,1.91-3.53,5.7-6.92,11.55-10.11,17.4a24.54,24.54,0,0,0-2.26,18A13.41,13.41,0,0,0,71,197.55a13.71,13.71,0,0,0,4.41.73A14.17,14.17,0,0,0,84,195.35c6.46-4.93,13.21-9.64,20.08-14a8.56,8.56,0,0,0,4.3,1.16,8.7,8.7,0,0,0,3.5-.74c4.42-1.94,8.94-3.78,13.45-5.5a8.64,8.64,0,0,0,6,1.93h0a293.45,293.45,0,0,1,40.24,0l.59,0a8.63,8.63,0,0,0,5.46-1.95c4.51,1.72,9,3.56,13.45,5.5a8.7,8.7,0,0,0,3.5.74,8.56,8.56,0,0,0,4.3-1.16c6.88,4.4,13.62,9.12,20.08,14a14.18,14.18,0,0,0,8.59,2.93,13.72,13.72,0,0,0,4.41-.73,13.42,13.42,0,0,0,8.73-9.39,24.52,24.52,0,0,0-2.26-17.93Zm-158,20.48A8.07,8.07,0,0,1,72.88,192a7.64,7.64,0,0,1-5-5.33A18.71,18.71,0,0,1,69.66,173c3-5.46,6.13-10.91,9.41-16.25,7.19,6.51,14.11,13.34,20.67,20.38-6.6,4.27-13.07,8.82-19.28,13.55Zm29.07-14.33a2.75,2.75,0,0,1-3.14-.61l0-.05h0a349.21,349.21,0,0,0-25.89-25.53l-.07-.06q-2-1.82-4.13-3.61a2,2,0,0,1-.74-1.41,2.73,2.73,0,0,1,.74-2,72.4,72.4,0,0,1,35.2-21.69c3.9,16.45,7.56,33.13,10.87,49.67-4.3,1.65-8.59,3.41-12.79,5.25Zm65.36-6.18a2.72,2.72,0,0,1-2.88,2.13c-6.81-.47-13.67-.7-20.53-.7s-13.71.24-20.51.7a2.7,2.7,0,0,1-2.89-2.12c-3.64-18.21-7.7-36.61-12-54.68-.25-1,.47-2.18,1.8-2.85A74.85,74.85,0,0,1,151.45,105h.09a74.9,74.9,0,0,1,33.62,7.71c1.33.67,2.05,1.81,1.8,2.85-4.35,18.07-8.4,36.46-12,54.67Zm21.69,5.56a2.74,2.74,0,0,1-3.14.61c-4.2-1.84-8.49-3.6-12.79-5.25,3.31-16.54,7-33.23,10.87-49.67a72.38,72.38,0,0,1,35.2,21.69,2.72,2.72,0,0,1,.74,2,2,2,0,0,1-.74,1.41q-2.08,1.79-4.14,3.62l-.06.05a349.75,349.75,0,0,0-25.95,25.59Zm38.49,10.9a7.66,7.66,0,0,1-5,5.36,8.07,8.07,0,0,1-7.59-1.32c-6.21-4.74-12.68-9.29-19.28-13.55,6.56-7,13.49-13.87,20.67-20.38,3.28,5.34,6.44,10.79,9.41,16.25a18.7,18.7,0,0,1,1.75,13.65Zm0,0"/></g></g></svg>