<svg xmlns="http://www.w3.org/2000/svg" viewBox="0 0 303 303"><defs><style>.cls-1{fill:#fff;stroke:#ccc;stroke-miterlimit:10;stroke-width:3px;}.cls-2{fill:#55575a;}</style></defs><title>Essentials</title><g id="Layer_2" data-name="Layer 2"><g id="Homes"><rect id="bg" class="cls-1" x="1.5" y="1.5" width="300" height="300" rx="3.48" ry="3.48"/><g id="Essentials"><path class="cls-2" d="M165.73,88.2a5.67,5.67,0,0,0,0,11.33h34a5.67,5.67,0,1,0,0-11.33Zm34,17h-34a11.33,11.33,0,0,1,0-22.67h34a11.33,11.33,0,1,1,0,22.67Z"/><path class="cls-2" d="M182.73,238.37a51,51,0,0,1-19.83-97.94V102.37a2.83,2.83,0,0,1,5.67,0v40a2.83,2.83,0,0,1-1.83,2.65,45.33,45.33,0,1,0,32,0,2.83,2.83,0,0,1-1.83-2.65v-40a2.83,2.83,0,0,1,5.67,0v38.06a51,51,0,0,1-19.83,97.94"/><path class="cls-2" d="M97.73,102.37h17V82.53a2.84,2.84,0,0,0-2.83-2.83H100.56a2.84,2.84,0,0,0-2.83,2.83ZM117.56,108H94.89a2.83,2.83,0,0,1-2.83-2.83V82.53a8.51,8.51,0,0,1,8.5-8.5h11.33a8.51,8.51,0,0,1,8.5,8.5V105.2a2.83,2.83,0,0,1-2.83,2.83Z"/><path class="cls-2" d="M100.56,113.7h11.33V108H100.56Zm14.17,5.67h-17a2.83,2.83,0,0,1-2.83-2.83V105.2a2.83,2.83,0,0,1,2.83-2.83h17a2.83,2.83,0,0,1,2.83,2.83v11.33a2.83,2.83,0,0,1-2.83,2.83Z"/><path class="cls-2" d="M106.23,139.2c-7.68,0-14.17,10.38-14.17,22.67s6.49,22.67,14.17,22.67,14.17-10.38,14.17-22.67-6.49-22.67-14.17-22.67m0,51c-11.12,0-19.83-12.45-19.83-28.33s8.71-28.33,19.83-28.33,19.83,12.45,19.83,28.33-8.71,28.33-19.83,28.33"/><path class="cls-2" d="M170.88,82.53h23.69l1.7-8.5H169.18Zm26,5.67H168.56a2.83,2.83,0,0,1-2.78-2.28l-2.83-14.17a2.83,2.83,0,0,1,2.78-3.39h34a2.83,2.83,0,0,1,2.78,3.39l-2.83,14.17a2.83,2.83,0,0,1-2.78,2.28Z"/><path class="cls-2" d="M163.13,162.1a19.88,19.88,0,0,0,16.52,16.52,19.88,19.88,0,0,0-16.52-16.52m19.6,22.43a25.53,25.53,0,0,1-25.5-25.5,2.83,2.83,0,0,1,2.83-2.83,25.53,25.53,0,0,1,25.5,25.5,2.83,2.83,0,0,1-2.83,2.83"/><path class="cls-2" d="M202.32,162.1a19.88,19.88,0,0,0-16.52,16.52,19.88,19.88,0,0,0,16.52-16.52m-19.6,22.43a2.83,2.83,0,0,1-2.83-2.83,25.53,25.53,0,0,1,25.5-25.5,2.83,2.83,0,0,1,2.83,2.83,25.53,25.53,0,0,1-25.5,25.5"/><path class="cls-2" d="M163.13,190.44A19.88,19.88,0,0,0,179.66,207a19.88,19.88,0,0,0-16.52-16.52m19.6,22.43a25.53,25.53,0,0,1-25.5-25.5,2.83,2.83,0,0,1,2.83-2.83,25.53,25.53,0,0,1,25.5,25.5,2.83,2.83,0,0,1-2.83,2.83"/><path class="cls-2" d="M202.32,190.44A19.88,19.88,0,0,0,185.8,207a19.88,19.88,0,0,0,16.52-16.52m-19.6,22.43a2.83,2.83,0,0,1-2.83-2.83,25.53,25.53,0,0,1,25.5-25.5,2.83,2.83,0,0,1,2.83,2.83,25.53,25.53,0,0,1-25.5,25.5"/><path class="cls-2" d="M182.73,224.2a2.83,2.83,0,0,1-2.83-2.83V181.7a2.83,2.83,0,0,1,5.67,0v39.67a2.83,2.83,0,0,1-2.83,2.83"/><path class="cls-2" d="M129.42,238.37H83a14.15,14.15,0,0,1-14.15-13.49l-5-77A32.58,32.58,0,0,1,96.4,113.7h19.66a32.58,32.58,0,0,1,32.55,34.13l-.63,9.66a2.8,2.8,0,0,1-3,2.64,2.84,2.84,0,0,1-2.64-3l.63-9.61a26.91,26.91,0,0,0-26.89-28.15H96.4a26.92,26.92,0,0,0-26.89,28.2l5,77A8.5,8.5,0,0,0,83,232.7h46.38a8.49,8.49,0,0,0,8.49-8.09l.82-12.52a2.8,2.8,0,0,1,3-2.64,2.83,2.83,0,0,1,2.64,3l-.81,12.47a14.14,14.14,0,0,1-14.15,13.44"/><path class="cls-2" d="M123.23,201.53h-34a2.83,2.83,0,0,1,0-5.67h34a2.83,2.83,0,1,1,0,5.67"/><path class="cls-2" d="M123.23,212.87h-34a2.83,2.83,0,0,1,0-5.67h34a2.83,2.83,0,1,1,0,5.67"/></g></g></g></svg>