<svg xmlns="http://www.w3.org/2000/svg" viewBox="0 0 303 303"><defs><style>.cls-1{fill:#fff;stroke:#ccc;stroke-miterlimit:10;stroke-width:3px;}.cls-2{fill:#55575a;}</style></defs><title>Fireplace</title><g id="Layer_2" data-name="Layer 2"><g id="Homes"><rect id="bg" class="cls-1" x="1.5" y="1.5" width="300" height="300" rx="3.48" ry="3.48"/><g id="Fireplace"><path class="cls-2" d="M196.83,211h-25.5a2.83,2.83,0,0,1,0-5.67,8.35,8.35,0,0,0,8.5-8.5,17,17,0,0,1,17-17,2.68,2.68,0,0,1,2.83,2.83v25.5A2.68,2.68,0,0,1,196.83,211Zm-14.17-5.67H194V185.78a11.31,11.31,0,0,0-8.5,11.05A14.57,14.57,0,0,1,182.67,205.33Z"/><path class="cls-2" d="M150.65,211a22.89,22.89,0,0,1-10.48-2.55,19.49,19.49,0,0,1-11.33-17.57c0-8.78,3.4-13.32,6.23-17l.85-1.13a3.37,3.37,0,0,1,3.12-1.13,2.81,2.81,0,0,1,2,2.83c0,2,1.13,2.83,3.4,4.25-1.13-10.2,2-14.73,10.77-21.25a3,3,0,0,1,3.12-.28A3.12,3.12,0,0,1,160,160c-.28,6.23.85,8.78,4.53,11.62,10.48,7.37,9.92,15,9.63,18.42a22.74,22.74,0,0,1-8.5,15.87A25.27,25.27,0,0,1,150.65,211Zm-13-30.32a17.73,17.73,0,0,0-3.12,10.48,14.17,14.17,0,0,0,8.22,12.47c6.23,3.12,13.6,2.27,19.55-2A15.46,15.46,0,0,0,168.5,190c.28-2.83.57-7.93-7.37-13.32h0c-4.25-3.12-6.23-6.52-6.8-10.77-4.25,4-5.1,7.08-4,14.17a5.13,5.13,0,0,1-2,4.82,4.78,4.78,0,0,1-5.1.28l-.57-.28C141,183.52,139,182.38,137.62,180.68Zm8.5-.57Z"/><path class="cls-2" d="M230.83,236.5H72.17a5.68,5.68,0,0,1-5.67-5.67v-8.5a5.68,5.68,0,0,1,5.67-5.67H230.83a5.68,5.68,0,0,1,5.67,5.67v8.5A5.68,5.68,0,0,1,230.83,236.5Zm0-5.67v0Zm-158.67-8.5v8.5H230.83v-8.5Z"/><path class="cls-2" d="M225.17,222.33H77.83A2.68,2.68,0,0,1,75,219.5V211a5.68,5.68,0,0,1,5.67-5.67H222.33A5.68,5.68,0,0,1,228,211v8.5A2.68,2.68,0,0,1,225.17,222.33Zm-144.5-5.67H222.33V211H80.67Z"/><path class="cls-2" d="M230.83,131.67H72.17A5.68,5.68,0,0,1,66.5,126v-8.5a5.68,5.68,0,0,1,5.67-5.67H230.83a5.68,5.68,0,0,1,5.67,5.67V126A5.68,5.68,0,0,1,230.83,131.67ZM72.17,117.5V126H230.83v-8.5Zm0-2.83v2.83h0Z"/><path class="cls-2" d="M222.33,143H80.67A5.68,5.68,0,0,1,75,137.33v-8.5A2.68,2.68,0,0,1,77.83,126H225.17a2.68,2.68,0,0,1,2.83,2.83v8.5A5.68,5.68,0,0,1,222.33,143ZM80.67,131.67v5.67H222.33v-5.67Z"/><path class="cls-2" d="M216.67,211H86.33a2.68,2.68,0,0,1-2.83-2.83v-68a2.68,2.68,0,0,1,2.83-2.83H216.67a2.68,2.68,0,0,1,2.83,2.83v68A2.68,2.68,0,0,1,216.67,211Zm-127.5-5.67H213.83V143H89.17Z"/><path class="cls-2" d="M191.17,117.5H111.83a3,3,0,0,1-2.55-1.42,2.57,2.57,0,0,1,0-2.83l11.33-19.83A3,3,0,0,1,123.17,92h56.67a3,3,0,0,1,2.55,1.42l11.33,19.83a2.57,2.57,0,0,1,0,2.83A3,3,0,0,1,191.17,117.5Zm-74.52-5.67h69.7l-8.22-14.17H124.87Z"/><path class="cls-2" d="M174.17,97.67H128.83a2.52,2.52,0,0,1-2.27-1.42,4.66,4.66,0,0,1-.28-2.83l11.33-25.5a2.66,2.66,0,0,1,2.55-1.42h22.67a2.48,2.48,0,0,1,2.55,1.7l11.33,25.5a3.35,3.35,0,0,1-.28,2.83A2.58,2.58,0,0,1,174.17,97.67ZM133.08,92h36.55l-8.78-19.83h-19Z"/><path class="cls-2" d="M106.17,211H86.33a2.68,2.68,0,0,1-2.83-2.83v-68a2.68,2.68,0,0,1,2.83-2.83h19.83a2.68,2.68,0,0,1,2.83,2.83v68A2.68,2.68,0,0,1,106.17,211Zm-17-5.67h14.17V143H89.17Z"/><path class="cls-2" d="M216.67,211H196.83a2.68,2.68,0,0,1-2.83-2.83v-68a2.68,2.68,0,0,1,2.83-2.83h19.83a2.68,2.68,0,0,1,2.83,2.83v68A2.68,2.68,0,0,1,216.67,211Zm-17-5.67h14.17V143H199.67Z"/><path class="cls-2" d="M106.17,160H86.33a2.83,2.83,0,0,1,0-5.67h19.83a2.83,2.83,0,0,1,0,5.67Z"/><path class="cls-2" d="M106.17,177H86.33a2.83,2.83,0,0,1,0-5.67h19.83a2.83,2.83,0,0,1,0,5.67Z"/><path class="cls-2" d="M106.17,194H86.33a2.83,2.83,0,0,1,0-5.67h19.83a2.83,2.83,0,0,1,0,5.67Z"/><path class="cls-2" d="M216.67,160H196.83a2.83,2.83,0,0,1,0-5.67h19.83a2.83,2.83,0,0,1,0,5.67Z"/><path class="cls-2" d="M216.67,177H196.83a2.83,2.83,0,0,1,0-5.67h19.83a2.83,2.83,0,0,1,0,5.67Z"/><path class="cls-2" d="M216.67,194H196.83a2.83,2.83,0,0,1,0-5.67h19.83a2.83,2.83,0,0,1,0,5.67Z"/><path class="cls-2" d="M131.67,211h-25.5a2.68,2.68,0,0,1-2.83-2.83v-25.5a2.68,2.68,0,0,1,2.83-2.83,17,17,0,0,1,17,17,8.35,8.35,0,0,0,8.5,8.5,2.83,2.83,0,0,1,0,5.67ZM109,205.33h11.33a14.57,14.57,0,0,1-2.83-8.5,11.56,11.56,0,0,0-8.5-11.05Z"/></g></g></g></svg>