<svg xmlns="http://www.w3.org/2000/svg" viewBox="0 0 303 303"><defs><style>.cls-1{fill:#fff;stroke:#ccc;stroke-width:3px;}.cls-1,.cls-2{stroke-miterlimit:10;}.cls-2{fill:#55575a;stroke:#55575a;stroke-width:0.25px;}</style></defs><title>First Aid Kit</title><g id="Layer_2" data-name="Layer 2"><g id="Homes"><rect id="bg" class="cls-1" x="1.5" y="1.5" width="300" height="300" rx="3.48" ry="3.48"/><g id="First_Aid_Kit" data-name="First Aid Kit"><path class="cls-2" d="M224.93,101.75h-6.51a8.64,8.64,0,0,0-8.18-5.88H198.5a8.64,8.64,0,0,0-8.18,5.88h-9.63v-9a14.52,14.52,0,0,0-14.5-14.5H136.81a14.52,14.52,0,0,0-14.5,14.5v9h-9.63a8.64,8.64,0,0,0-8.18-5.88H92.75a8.64,8.64,0,0,0-8.18,5.88H78.07A11.58,11.58,0,0,0,66.5,113.31v99.87a11.58,11.58,0,0,0,11.57,11.57H224.93a11.58,11.58,0,0,0,11.57-11.57V113.31a11.58,11.58,0,0,0-11.57-11.57Zm-26.44-.37h11.75a3.12,3.12,0,0,1,0,6.24H198.5a3.13,3.13,0,0,1-3.12-3.11h0a3.13,3.13,0,0,1,3.12-3.11Zm-94,11.75a8.64,8.64,0,0,0,8.18-5.88h77.65a8.64,8.64,0,0,0,8.18,5.88h3.12V219.24H101.38V113.13Zm23.32-20.38a9,9,0,0,1,9-9h29.37a9,9,0,0,1,9,9v9H127.82Zm-35.07,8.63H104.5a3.12,3.12,0,1,1,0,6.24H92.75a3.12,3.12,0,0,1-3.12-3.11h0a3.12,3.12,0,0,1,3.12-3.11ZM72,213.19V113.31a6.07,6.07,0,0,1,6.06-6.06h6.51a8.64,8.64,0,0,0,8.18,5.88h3.12V219.24H78.07A6.07,6.07,0,0,1,72,213.19Zm159,0a6.06,6.06,0,0,1-6.06,6.06H207.13V113.13h3.12a8.64,8.64,0,0,0,8.18-5.88h6.51a6.06,6.06,0,0,1,6.06,6.06Zm0,0"/><path class="cls-2" d="M125.06,177.75H137v11.93a8.64,8.64,0,0,0,8.63,8.63h11.75a8.64,8.64,0,0,0,8.63-8.63V177.75h11.93a8.64,8.64,0,0,0,8.63-8.63V157.37a8.64,8.64,0,0,0-8.63-8.63H166V136.81a8.64,8.64,0,0,0-8.63-8.63H145.62a8.64,8.64,0,0,0-8.63,8.63v11.93H125.06a8.64,8.64,0,0,0-8.63,8.63v11.75a8.64,8.64,0,0,0,8.63,8.63Zm-3.12-20.38a3.12,3.12,0,0,1,3.12-3.12h14.69a2.75,2.75,0,0,0,2.75-2.75V136.81a3.12,3.12,0,0,1,3.12-3.12h11.75a3.13,3.13,0,0,1,3.12,3.12V151.5a2.75,2.75,0,0,0,2.75,2.75h14.69a3.12,3.12,0,0,1,3.12,3.12v11.75a3.13,3.13,0,0,1-3.12,3.12H163.25A2.75,2.75,0,0,0,160.5,175v14.69a3.13,3.13,0,0,1-3.12,3.12H145.62a3.12,3.12,0,0,1-3.12-3.12V175a2.75,2.75,0,0,0-2.75-2.75H125.06a3.13,3.13,0,0,1-3.12-3.12Zm0,0"/></g></g></g></svg>