<svg xmlns="http://www.w3.org/2000/svg" viewBox="0 0 303 303"><defs><style>.cls-1{fill:#fff;stroke:#ccc;stroke-miterlimit:10;stroke-width:3px;}.cls-2{fill:#55575a;}</style></defs><title>Game Console</title><g id="Layer_2" data-name="Layer 2"><g id="Homes"><rect id="bg" class="cls-1" x="1.5" y="1.5" width="300" height="300" rx="3.48" ry="3.48"/><g id="Game_Console" data-name="Game Console"><path class="cls-2" d="M128.94,184.53H117.61V173.19a2.83,2.83,0,0,0-2.83-2.83H103.44a2.83,2.83,0,0,0-2.83,2.83v11.33H89.28a2.83,2.83,0,0,0-2.83,2.83v11.33a2.83,2.83,0,0,0,2.83,2.83h11.33v11.33a2.83,2.83,0,0,0,2.83,2.83h11.33a2.83,2.83,0,0,0,2.83-2.83V201.52h11.33a2.83,2.83,0,0,0,2.83-2.83V187.36A2.83,2.83,0,0,0,128.94,184.53Zm-2.83,11.33H114.77a2.83,2.83,0,0,0-2.83,2.83V210h-5.67V198.69a2.83,2.83,0,0,0-2.83-2.83H92.11v-5.67h11.33a2.83,2.83,0,0,0,2.83-2.83V176h5.67v11.33a2.83,2.83,0,0,0,2.83,2.83h11.33Z"/><path class="cls-2" d="M193.43,148a47.08,47.08,0,0,0-5-.28H157.27V136.37H151.6V130.7a11.33,11.33,0,0,0-11.33-11.33H126.11a5.67,5.67,0,1,1,0-11.33h45.33a11.33,11.33,0,0,0,0-22.66H157.27a5.67,5.67,0,0,1-5.67-5.67V68.38h-5.67V79.71A11.33,11.33,0,0,0,157.27,91h14.16a5.67,5.67,0,0,1,0,11.33H126.11a11.33,11.33,0,0,0,0,22.66h14.16a5.67,5.67,0,0,1,5.67,5.67v5.67h-5.67V147.7H109.11a46.22,46.22,0,0,0-5,.28c-19.55,2.1-37.87,20.36-40,39.88A45.33,45.33,0,0,0,133,231.55a27.75,27.75,0,0,1,12.43-4.39,43.7,43.7,0,0,1,6.59,0,28,28,0,0,1,12.63,4.44,45.33,45.33,0,0,0,68.86-43.73C231.3,168.33,213,150.06,193.43,148ZM145.94,142h5.67v5.67h-5.67ZM218,219.47a39.64,39.64,0,0,1-50.39,7.29,33.43,33.43,0,0,0-15.21-5.28q-1.79-.13-3.62-.13c-1.29,0-2.55.05-3.82.15a33.32,33.32,0,0,0-15,5.23A39.66,39.66,0,0,1,69.7,188.49c1.86-16.78,18.22-33.07,35-34.88a40.73,40.73,0,0,1,4.39-.25h79.32a41.71,41.71,0,0,1,4.39.24c16.79,1.8,33.15,18.1,35,34.88A39.38,39.38,0,0,1,218,219.47Z"/><path class="cls-2" d="M188.43,187.36A11.33,11.33,0,1,0,177.1,176,11.33,11.33,0,0,0,188.43,187.36Zm0-17a5.67,5.67,0,1,1-5.67,5.67A5.67,5.67,0,0,1,188.43,170.36Z"/><path class="cls-2" d="M188.43,198.69A11.33,11.33,0,1,0,199.76,210,11.33,11.33,0,0,0,188.43,198.69Zm0,17A5.67,5.67,0,1,1,194.1,210,5.67,5.67,0,0,1,188.43,215.69Z"/><path class="cls-2" d="M168.6,181.69A11.33,11.33,0,1,0,179.93,193,11.33,11.33,0,0,0,168.6,181.69Zm0,17a5.67,5.67,0,1,1,5.67-5.67A5.67,5.67,0,0,1,168.6,198.69Z"/><path class="cls-2" d="M208.26,181.69A11.33,11.33,0,1,0,219.59,193,11.33,11.33,0,0,0,208.26,181.69Zm0,17a5.67,5.67,0,1,1,5.67-5.67A5.67,5.67,0,0,1,208.26,198.69Z"/></g></g></g></svg>