<svg xmlns="http://www.w3.org/2000/svg" viewBox="0 0 303 303"><defs><style>.cls-1{fill:#fff;stroke:#ccc;stroke-miterlimit:10;stroke-width:3px;}.cls-2{fill:#55575a;}</style></defs><title>Gym</title><g id="Layer_2" data-name="Layer 2"><g id="Homes"><rect id="bg" class="cls-1" x="1.5" y="1.5" width="300" height="300" rx="3.48" ry="3.48"/><g id="Gym"><path class="cls-2" d="M220.56,221.51H82.44a2.66,2.66,0,0,1,0-5.31H220.56a2.66,2.66,0,0,1,0,5.31Z"/><path class="cls-2" d="M220.56,195H82.44a2.66,2.66,0,0,1,0-5.31H220.56a2.66,2.66,0,0,1,0,5.31Z"/><path class="cls-2" d="M220.56,221.51a15.94,15.94,0,1,1,15.94-15.94A16,16,0,0,1,220.56,221.51Zm0-26.56a10.63,10.63,0,1,0,10.63,10.63A10.64,10.64,0,0,0,220.56,195Z"/><path class="cls-2" d="M82.44,221.51a15.94,15.94,0,1,1,15.94-15.94A16,16,0,0,1,82.44,221.51Zm0-26.56a10.72,10.72,0,0,0-2.08.2h0a10.64,10.64,0,1,0,2.09-.2Zm-2.61-2.4h0Z"/><path class="cls-2" d="M109,195H82.44a2.66,2.66,0,0,1-2.58-3.3l18.59-74.37a2.66,2.66,0,0,1,2.58-2h10.63a2.66,2.66,0,0,1,2.65,2.75l-2.66,74.38A2.66,2.66,0,0,1,109,195Zm-23.16-5.31h20.6l2.47-69.06h-5.8Z"/><path class="cls-2" d="M135.56,229.48H93.06a2.66,2.66,0,0,1-2.66-2.66v-8a2.66,2.66,0,0,1,2.66-2.66h42.5a2.66,2.66,0,0,1,2.66,2.66v8A2.66,2.66,0,0,1,135.56,229.48Zm-39.84-5.31h37.19v-2.66H95.72Z"/><path class="cls-2" d="M207.28,229.48H180.72a2.66,2.66,0,0,1-2.66-2.66v-8a2.66,2.66,0,0,1,2.66-2.66h26.56a2.66,2.66,0,0,1,2.66,2.66v8A2.66,2.66,0,0,1,207.28,229.48Zm-23.91-5.31h21.25v-2.66H183.38Z"/><path class="cls-2" d="M155.7,127a2.64,2.64,0,0,1-1.21-.29L127.75,113l-3.7,7.71H99.43l-14-25.42a2.66,2.66,0,0,1,4.65-2.56l12.49,22.67h18.14l4.61-9.61L156.91,122a2.66,2.66,0,0,1-1.21,5Z"/><path class="cls-2" d="M107.67,112.58a2.66,2.66,0,0,1-2.3-1.33L85.45,76.75a2.66,2.66,0,0,1,1-3.63l9.2-5.31a2.66,2.66,0,0,1,3.63,1l19.92,34.51a2.66,2.66,0,0,1-1,3.63l-9.2,5.31A2.66,2.66,0,0,1,107.67,112.58ZM91.38,76.39l17.27,29.91,4.6-2.66L96,73.74Z"/></g></g></g></svg>