<svg xmlns="http://www.w3.org/2000/svg" viewBox="0 0 303 303"><defs><style>.cls-1{fill:#fff;stroke:#ccc;stroke-width:3px;}.cls-1,.cls-2{stroke-miterlimit:10;}.cls-2{fill:#55575a;stroke:#55575a;stroke-width:0.5px;}</style></defs><title>Hair Dryer</title><g id="Layer_2" data-name="Layer 2"><g id="Homes"><rect id="bg" class="cls-1" x="1.5" y="1.5" width="300" height="300" rx="3.48" ry="3.48"/><path id="Hair_dryer" data-name="Hair dryer" class="cls-2" d="M179.46,124.5a18,18,0,1,0,13.83.18A18,18,0,0,0,179.46,124.5Zm-14.12,7.78a22.65,22.65,0,1,1-.22,17.32,22.65,22.65,0,0,1,.22-17.32Zm-64.26-7.41,14.63-34.06-2.55-.61h-.09a8.24,8.24,0,0,0-4.95.18,4.76,4.76,0,0,0-2.67,2.6L95.58,116a4.78,4.78,0,0,0,0,3.73,8.22,8.22,0,0,0,3.27,3.7Zm87.6,47.64H189a31.34,31.34,0,0,0,25.85-18.83h0a31.32,31.32,0,0,0-16.2-41.23l-.09,0h0c-16.78-7.21-40.33-12.3-61.77-16.91-5.63-1.21-11.11-2.4-16.38-3.61l-15.29,35.56c4.44,3,9.11,6.15,13.83,9.39,18.07,12.3,37.93,25.87,54.7,33.1h.11a31.23,31.23,0,0,0,15.08,2.49Zm-3.07,4.69a35.75,35.75,0,0,1-11.1-2h-.29l-.43-.28h0q-.86-.32-1.72-.68h0l-.2-.09h0l-.74-.32h-.22l-.22-.09h-.11c-3.49-1.54-7.1-3.37-10.76-5.36l-12.3,28.66a13.66,13.66,0,0,0,25.11,10.76ZM82.05,94a2.32,2.32,0,1,1-1.83,4.27L68,93a2.32,2.32,0,0,1,1.83-4.27h0Zm-3.07,13a2.32,2.32,0,1,1,.54,4.61h0l-13.16,1.54a2.32,2.32,0,0,1-.54-4.61Zm12.3-22.67A2.32,2.32,0,0,1,87.55,87l-8-10.6a2.32,2.32,0,0,1,3.72-2.78h0Zm109,23.82.22.09a36,36,0,0,1,19.6,45.08c14.62,6.78,15.61,15.46,11.63,25A89.8,89.8,0,0,1,223.08,193c-8.62,12.77-17.66,26.13-1.78,36.89a2.32,2.32,0,0,1-2.6,3.83c-19.7-13.37-9.34-28.72.52-43.37a86.93,86.93,0,0,0,8.25-13.83c3-7.1,2.09-13.63-9.22-19a36.07,36.07,0,0,1-27.46,19.36l-14,32.63a18.31,18.31,0,0,1-33.64-14.46L155.62,166c-12.93-7.32-26.53-16.6-39.25-25.28-7-4.8-13.83-9.41-20-13.4a12.88,12.88,0,0,1-5.07-5.9,9.3,9.3,0,0,1,0-7.28l9.87-23.05A9.31,9.31,0,0,1,106.43,86a12.86,12.86,0,0,1,7.76-.38h.09c7,1.71,15,3.44,23.41,5.26,21.65,4.76,45.38,9.9,62.57,17.24Z"/></g></g></svg>