<svg xmlns="http://www.w3.org/2000/svg" viewBox="0 0 303 303"><defs><style>.cls-1{fill:#fff;stroke:#ccc;stroke-miterlimit:10;stroke-width:3px;}.cls-2{fill:#55575a;}</style></defs><title>Hangers</title><g id="Layer_2" data-name="Layer 2"><g id="Homes"><rect id="bg" class="cls-1" x="1.5" y="1.5" width="300" height="300" rx="3.48" ry="3.48"/><g id="Hangers"><path class="cls-2" d="M226,179.72a5.8,5.8,0,0,0-.86-.32l-72.28-32V137.07c13.74-1.66,20.54-10.72,20.54-22.39,0-12.92-9.09-22.65-21.33-22.65-12.86,0-23.65,10.59-23.65,23.14a3.93,3.93,0,0,0,3.94,3.91,3.77,3.77,0,0,0,1.78-.47,3.88,3.88,0,0,0,2.17-3.44c0-8.16,7.43-15.32,15.89-15.32,7.91,0,13.64,6.24,13.64,14.83s-6.83,14.84-16.14,14.84a3.75,3.75,0,0,0-3.72,3.91v15.3c0,.09-.15.15-.14.22L76.57,181.71c-10.22,3.67-13.73,12.05-12.6,18.44C65.11,206.74,70.68,211,77.92,211H215.54c8.54,0,15.24-4.42,17.49-11.83a17.32,17.32,0,0,0-7-19.42Zm-.47,17.62c-1.24,4.11-4.88,6.76-10,6.76H77.92c-3.51,0-5.79-1.95-6.29-4.82-.57-3.27,1.53-7.92,7.85-10.2l71.71-34,70.75,31.5a9.87,9.87,0,0,1,3.61,10.76Zm0,0"/></g></g></g></svg>