<svg xmlns="http://www.w3.org/2000/svg" viewBox="0 0 303 303"><defs><style>.cls-1{fill:#fff;stroke:#ccc;stroke-miterlimit:10;stroke-width:3px;}.cls-2{fill:#55575a;}</style></defs><title>Iron</title><g id="Layer_2" data-name="Layer 2"><g id="Homes"><rect id="bg" class="cls-1" x="1.5" y="1.5" width="300" height="300" rx="3.48" ry="3.48"/><g id="Iron"><path class="cls-2" d="M233.7,187a1.15,1.15,0,0,0,0-.26l-15.07-70.39a14.26,14.26,0,0,0-13.85-11.19H122.87a8.11,8.11,0,0,0-8.1,8.1v.79a8.11,8.11,0,0,0,8.1,8.1h54.92a2.85,2.85,0,0,1,2.77,2.24l3.16,14.76H177.1a8.5,8.5,0,0,0-8.5-8.5h-5.67a8.5,8.5,0,0,0-8.5,8.5H142.62a70.4,70.4,0,0,0-63.33,39.16l-3.19,6.36a14.14,14.14,0,0,0-12.32,14,2.83,2.83,0,0,0,2.83,2.83H230.94a2.83,2.83,0,0,0,2.83-2.83V187.37C233.77,187.25,233.72,187.15,233.7,187Zm-55.92-70.5H122.87a2.44,2.44,0,0,1-2.44-2.44v-.79a2.44,2.44,0,0,1,2.44-2.44h81.91a8.56,8.56,0,0,1,8.3,6.71l14.35,67h-28.2L186.1,123.26A8.55,8.55,0,0,0,177.79,116.53Zm-14.85,19.83h5.67a2.83,2.83,0,0,1,2.83,2.83H160.1A2.83,2.83,0,0,1,162.94,136.37ZM84.35,180.89a64.77,64.77,0,0,1,58.27-36h42.31l8.5,39.67H82.53Zm143.75,15H69.92a8.52,8.52,0,0,1,8-5.67H228.1Z"/><path class="cls-2" d="M142.62,150.53A58.81,58.81,0,0,0,95,174.33a2.83,2.83,0,1,0,4.53,3.4,53.2,53.2,0,0,1,43.07-21.53,2.83,2.83,0,1,0,0-5.67Z"/></g></g></g></svg>