<svg xmlns="http://www.w3.org/2000/svg" viewBox="0 0 303 303"><defs><style>.cls-1{fill:#fff;stroke:#ccc;stroke-miterlimit:10;stroke-width:3px;}.cls-2{fill:#55575a;}</style></defs><title>Kitchen</title><g id="Layer_2" data-name="Layer 2"><g id="Homes"><rect id="bg" class="cls-1" x="1.5" y="1.5" width="300" height="300" rx="3.48" ry="3.48"/><g id="Kitchen"><path class="cls-2" d="M210.52,152.37a3.33,3.33,0,0,0-3.46,3.21q0,.71-.07,1.42a3.33,3.33,0,0,0,3.12,3.53h.21a3.33,3.33,0,0,0,3.32-3.13q0-.79.08-1.59A3.33,3.33,0,0,0,210.52,152.37Z"/><path class="cls-2" d="M228.68,124.27a3.33,3.33,0,0,0-1.87-4.68A85,85,0,1,0,71,187.86a10,10,0,0,0,7.44,16.68,10.06,10.06,0,0,0,2.21-.25A85.84,85.84,0,0,0,102,224.36a10,10,0,0,0,16.55,10.25l1.28-1.28A85.1,85.1,0,0,0,228.68,124.27ZM148.77,75a78.25,78.25,0,0,1,14.81,1.42L151.92,88.1c-1.3.11-2.51.26-3.15.26A65,65,0,0,0,86.59,172.3L76.16,182.73A78.31,78.31,0,0,1,148.77,75ZM137,113.24l.09,1.47a14.76,14.76,0,0,1-4.29,11.35L92,166.87a58.34,58.34,0,0,1,52.84-71.7l-1.6,1.6A21.43,21.43,0,0,0,137,113.24ZM76.13,196.9a3.33,3.33,0,0,1,0-4.71l61.41-61.41a21.43,21.43,0,0,0,6.23-16.47l-.09-1.47A14.76,14.76,0,0,1,148,101.48L171.1,78.36a3.35,3.35,0,0,0,.27-.31l.63.5q3.13,1,6.14,2.2l-23.68,23.68a3.33,3.33,0,1,0,4.71,4.71L184,84.31a3.33,3.33,0,0,0,.5-.64q3.13,1.61,6.08,3.49L188.72,89h0l-24.83,24.83a3.33,3.33,0,1,0,4.71,4.71L196.14,91A78.81,78.81,0,0,1,220,120.79l-9.54,2.51a95.16,95.16,0,0,0-43,24.71l-13.62,13.62a12.94,12.94,0,0,0-3.76,10.11,6.27,6.27,0,0,1-1.82,4.9l-27.74,27.73a58.76,58.76,0,0,1-19.77-17.94L147,140.2a14.78,14.78,0,0,1,11.35-4.29l1.47.09a21.42,21.42,0,0,0,16.47-6.23l26.6-26.6a3.33,3.33,0,1,0-4.71-4.71l-26.6,26.6a14.77,14.77,0,0,1-11.35,4.29l-1.47-.09a21.42,21.42,0,0,0-16.47,6.23L80.84,196.9A3.34,3.34,0,0,1,76.13,196.9Zm10.31,3.84L96,191.21a65.5,65.5,0,0,0,19.67,18L106,218.92A79,79,0,0,1,86.43,200.73Zm22.69,29.16a3.34,3.34,0,0,1,0-4.71L153,181.35a12.94,12.94,0,0,0,3.76-10.11,6.27,6.27,0,0,1,1.82-4.9l13.62-13.62a88.48,88.48,0,0,1,40-23l2.49-.66L113.84,229.9A3.34,3.34,0,0,1,109.13,229.9Zm39.64,1.8A78,78,0,0,1,125.12,228l10.93-10.93a65.06,65.06,0,0,0,71.64-36.3,3.33,3.33,0,1,0-6-2.82,58.31,58.31,0,0,1-59.77,33.3l81.57-81.57a78.34,78.34,0,0,1-74.68,102Z"/></g></g></g></svg>