<svg xmlns="http://www.w3.org/2000/svg" viewBox="0 0 303 303"><defs><style>.cls-1{fill:#fff;stroke:#ccc;stroke-miterlimit:10;stroke-width:3px;}.cls-2{fill:#55575a;}</style></defs><title>Toys</title><g id="Layer_2" data-name="Layer 2"><g id="Homes"><rect id="bg" class="cls-1" x="1.5" y="1.5" width="300" height="300" rx="3.48" ry="3.48"/><g id="Toys"><path class="cls-2" d="M233.67,134.5h-8.5V126a2.83,2.83,0,0,0-2.83-2.83h-17A2.83,2.83,0,0,0,202.5,126v8.5h-5.67V97.67A2.83,2.83,0,0,0,194,94.83h-2.83v-8.5a2.83,2.83,0,0,0-2.83-2.83h-17a2.83,2.83,0,0,0-2.83,2.83v8.5h-5.67v-8.5A2.83,2.83,0,0,0,160,83.5H143a2.83,2.83,0,0,0-2.83,2.83v8.5H134.5v-8.5a2.83,2.83,0,0,0-2.83-2.83h-17a2.83,2.83,0,0,0-2.83,2.83v8.5H109a2.83,2.83,0,0,0-2.83,2.83v39.67a2.83,2.83,0,0,0,2.83,2.83h25.5v34h-5.67v-8.5a2.83,2.83,0,0,0-2.83-2.83H109a2.83,2.83,0,0,0-2.83,2.83v8.5H100.5v-8.5a2.83,2.83,0,0,0-2.83-2.83h-17a2.83,2.83,0,0,0-2.83,2.83v8.5h-8.5A2.83,2.83,0,0,0,66.5,177v39.67a2.83,2.83,0,0,0,2.83,2.83H194a2.83,2.83,0,0,0,2.83-2.83V179.83h36.83A2.83,2.83,0,0,0,236.5,177V137.33A2.83,2.83,0,0,0,233.67,134.5Zm-25.5-5.67H219.5v5.67H208.17Zm-34-39.67H185.5v5.67H174.17Zm-28.33,0h11.33v5.67H145.83Zm-28.33,0h11.33v5.67H117.5Zm-5.67,11.33h79.33v34H111.83Zm0,68h11.33v5.67H111.83Zm-28.33,0H94.83v5.67H83.5ZM72.17,179.83H100.5v34H72.17Zm119,34h-85v-34h85Zm39.67-39.67H140.17v-34h90.67Z"/><rect class="cls-2" x="117.5" y="111.83" width="5.67" height="17" rx="2.83" ry="2.83"/><rect class="cls-2" x="222.33" y="151.5" width="5.67" height="17" rx="2.83" ry="2.83"/></g></g></g></svg>