<svg xmlns="http://www.w3.org/2000/svg" viewBox="0 0 303 303"><defs><style>.cls-1{fill:#fff;stroke:#ccc;stroke-miterlimit:10;stroke-width:3px;}.cls-2{fill:#55575a;}</style></defs><title>TV</title><g id="Layer_2" data-name="Layer 2"><g id="Homes"><rect id="bg" class="cls-1" x="1.5" y="1.5" width="300" height="300" rx="3.48" ry="3.48"/><g id="TV"><path class="cls-2" d="M226,221.26H78.69a11.37,11.37,0,0,1-11.33-11.33V113.59a11.37,11.37,0,0,1,11.33-11.33H226a11.37,11.37,0,0,1,11.33,11.33v96.33A11.37,11.37,0,0,1,226,221.26ZM78.69,107.92A5.68,5.68,0,0,0,73,113.59v96.33a5.68,5.68,0,0,0,5.67,5.67H226a5.68,5.68,0,0,0,5.67-5.67V113.59a5.68,5.68,0,0,0-5.67-5.67Z"/><path class="cls-2" d="M84.35,229.76a2.68,2.68,0,0,1-2.83-2.83v-8.5a2.83,2.83,0,1,1,5.67,0v8.5A2.68,2.68,0,0,1,84.35,229.76Z"/><path class="cls-2" d="M220.35,229.76a2.68,2.68,0,0,1-2.83-2.83v-8.5a2.83,2.83,0,1,1,5.67,0v8.5A2.68,2.68,0,0,1,220.35,229.76Z"/><path class="cls-2" d="M152.35,107.64a2.12,2.12,0,0,1-1.42-.28,2.79,2.79,0,0,1-.85-4l22.67-36.55A2.87,2.87,0,1,1,177.57,70L154.9,106.51A3.08,3.08,0,0,1,152.35,107.64Z"/><path class="cls-2" d="M152.35,107.64a2.58,2.58,0,0,1-2.27-1.13L124.59,70a2.83,2.83,0,0,1,4.53-3.4l25.5,36.55a3,3,0,0,1-.57,4A2.08,2.08,0,0,1,152.35,107.64Z"/><path class="cls-2" d="M175,209.92H95.69a17,17,0,0,1-17-17V130.59a17,17,0,0,1,17-17H175a17,17,0,0,1,17,17v62.33A17,17,0,0,1,175,209.92ZM95.69,119.26a11.37,11.37,0,0,0-11.33,11.33v62.33a11.37,11.37,0,0,0,11.33,11.33H175a11.37,11.37,0,0,0,11.33-11.33V130.59A11.37,11.37,0,0,0,175,119.26Z"/><path class="cls-2" d="M223.19,133.42H200.52a2.83,2.83,0,0,1,0-5.67h22.67a2.83,2.83,0,0,1,0,5.67Z"/><path class="cls-2" d="M223.19,144.76H200.52a2.83,2.83,0,0,1,0-5.67h22.67a2.83,2.83,0,0,1,0,5.67Z"/><path class="cls-2" d="M223.19,156.09H200.52a2.83,2.83,0,1,1,0-5.67h22.67a2.83,2.83,0,0,1,0,5.67Z"/><path class="cls-2" d="M223.19,190.09H200.52a2.68,2.68,0,0,1-2.83-2.83V164.59a2.68,2.68,0,0,1,2.83-2.83h22.67a2.68,2.68,0,0,1,2.83,2.83v22.67A2.68,2.68,0,0,1,223.19,190.09Zm-19.83-5.67h17v-17h-17Z"/></g></g></g></svg>