<svg xmlns="http://www.w3.org/2000/svg" viewBox="0 0 303 303"><defs><style>.cls-1{fill:#fff;stroke:#ccc;stroke-miterlimit:10;stroke-width:3px;}.cls-2{fill:#55575a;}</style></defs><title>WiFi</title><g id="Layer_2" data-name="Layer 2"><g id="Homes"><rect id="bg" class="cls-1" x="1.5" y="1.5" width="300" height="300" rx="3.48" ry="3.48"/><g id="WiFi"><path class="cls-2" d="M235.59,125.71a119,119,0,0,0-168.19,0,3.1,3.1,0,1,0,4.38,4.37,112.85,112.85,0,0,1,159.43,0,3.09,3.09,0,1,0,4.37-4.37Zm0,0"/><path class="cls-2" d="M85.61,143.89a3.1,3.1,0,0,0,0,4.38,3.06,3.06,0,0,0,2.19.91,3,3,0,0,0,2.17-.91,87.11,87.11,0,0,1,123,0,3.1,3.1,0,0,0,4.37-4.38,93.3,93.3,0,0,0-131.78,0Zm0,0"/><path class="cls-2" d="M151.51,142.37a67,67,0,0,0-47.7,19.73,3.09,3.09,0,0,0,4.37,4.38,61.34,61.34,0,0,1,86.64,0,3.09,3.09,0,0,0,4.37-4.38,67,67,0,0,0-47.68-19.73Zm0,0"/><path class="cls-2" d="M151.51,171.5a20.29,20.29,0,1,0,20.27,20.29,20.31,20.31,0,0,0-20.27-20.29Zm0,34.38a14.09,14.09,0,1,1,14.09-14.09,14.11,14.11,0,0,1-14.09,14.09Zm0,0"/></g></g></g></svg>